<?xml version="1.0" standalone="no"?>
<!DOCTYPE svg PUBLIC "-//W3C//DTD SVG 1.1//EN" "http://www.w3.org/Graphics/SVG/1.1/DTD/svg11.dtd" >
<svg>
<metadata>
Created by FontForge 20090914 at Tue Jul  3 11:06:20 2012
 By www-data
Copyright (c) 1990 Adobe Systems Incorporated. All Rights Reserved.Helvetica is a trademark of Linotype AG and/or its subsidiaries.
</metadata>
<defs>
<font id="HelveticaRoundedLT-BoldCond" horiz-adv-x="240" >
  <font-face 
    font-family="HelveticaRounded LT BoldCn"
    font-weight="700"
    font-stretch="normal"
    units-per-em="1000"
    panose-1="2 0 8 6 5 0 0 2 0 4"
    ascent="800"
    descent="-200"
    x-height="541"
    cap-height="732.999"
    bbox="-110 -216.001 990 965"
    underline-thickness="50"
    underline-position="-75"
    unicode-range="U+0020-U+FB02"
  />
<missing-glyph 
 />
    <glyph glyph-name=".notdef" 
 />
    <glyph glyph-name="space" unicode=" " 
 />
    <glyph glyph-name="space" unicode="&#xa0;" 
 />
    <glyph glyph-name="exclam" unicode="!" horiz-adv-x="278" 
d="M63 63c0 21.333 7.33301 39.333 22 54s32.667 22 54 22s39.333 -7.33301 54 -22s22 -32.667 22 -54s-7.33301 -39.333 -22 -54s-32.667 -22 -54 -22s-39.333 7.33301 -54 22s-22 32.667 -22 54zM72 663c0 21.333 5.33496 38.333 16.002 51s27.667 19 51 19
s40.333 -6.33301 51 -19s16 -29.667 16 -51v-154c0 -8.66699 -0.333008 -18.667 -1 -30s-1.66699 -24.666 -3 -39.999l-19 -212c-1.33301 -18 -4.83301 -31.333 -10.5 -40s-16.834 -13 -33.501 -13s-27.834 4.33301 -33.501 13s-9.16699 22 -10.5 40l-19 212
c-1.33301 15.333 -2.33301 28.666 -3 39.999s-1 21.333 -1 30v154z" />
    <glyph glyph-name="quotedbl" unicode="&#x22;" horiz-adv-x="426" 
d="M58 674c0 18.667 5.66699 33.834 17 45.501s24.666 17.5 39.999 17.5s28.666 -5.83301 39.999 -17.5s17 -26.834 17 -45.501v-151c0 -18.667 -5.66699 -33.834 -17 -45.501s-24.666 -17.5 -39.999 -17.5s-28.666 5.83301 -39.999 17.5s-17 26.834 -17 45.501v151z
M254 674c0 18.667 5.66699 33.834 17 45.501s24.666 17.5 39.999 17.5s28.666 -5.83301 39.999 -17.5s17 -26.834 17 -45.501v-151c0 -18.667 -5.66699 -33.834 -17 -45.501s-24.666 -17.5 -39.999 -17.5s-28.666 5.83301 -39.999 17.5s-17 26.834 -17 45.501v151z" />
    <glyph glyph-name="numbersign" unicode="#" horiz-adv-x="480" 
d="M290 414h-86l-15 -121h86zM176 197l-21 -157c-1.33301 -14.667 -5.66602 -27.167 -12.999 -37.5s-21 -15.5 -41 -15.5c-11.333 0 -21 4.16699 -29 12.5s-12 18.166 -12 29.499c0 4 0.333008 8.66699 1 14s1.66699 11.666 3 18.999l19 135h-39
c-16 0 -27.333 5.16699 -34 15.5s-10 21.166 -10 32.499s3.33301 22.166 10 32.499s18 15.5 34 15.5h51l16 121h-39c-16 0 -27.333 5.16699 -34 15.5s-10 21.166 -10 32.499s3.33301 22.166 10 32.499s18 15.5 34 15.5h51l20 157c2 14.667 6.66699 27.167 14 37.5
s20.666 15.5 39.999 15.5c12 0 22 -4.16699 30 -12.5s12 -18.166 12 -29.499c0 -4 -0.333008 -8.66699 -1 -14s-1.66699 -11.666 -3 -18.999l-18 -135h86l21 157c1.33301 14.667 5.66602 27.167 12.999 37.5s21 15.5 41 15.5c11.333 0 21 -4.16699 29 -12.5
s12 -18.166 12 -29.499c0 -4 -0.333008 -8.66699 -1 -14s-1.66699 -11.666 -3 -18.999l-19 -135h39c16 0 27.5 -5.16699 34.5 -15.5s10.5 -21.166 10.5 -32.499s-3.5 -22.166 -10.5 -32.499s-18.5 -15.5 -34.5 -15.5h-51l-16 -121h39c16 0 27.333 -5.16699 34 -15.5
s10 -21.166 10 -32.499s-3.33301 -22.166 -10 -32.499s-18 -15.5 -34 -15.5h-51l-20 -157c-2 -14.667 -6.66699 -27.167 -14 -37.5s-20.666 -15.5 -39.999 -15.5c-12 0 -22 4.16699 -30 12.5s-12 18.166 -12 29.499c0 4 0.333008 8.66699 1 14s1.66699 11.666 3 18.999
l18 135h-86z" />
    <glyph glyph-name="dollar" unicode="$" horiz-adv-x="480" 
d="M215 624c-20 -3.33301 -35 -12 -45 -26s-15 -31.667 -15 -53c0 -9.33301 0.833008 -17.5 2.5 -24.5s4.66699 -14 9 -21s10.5 -14.167 18.5 -21.5s18 -16 30 -26v172zM261 83c19.333 3.33301 34.666 14 45.999 32s17 38 17 60c0 24.667 -5.16699 45 -15.5 61
s-26.166 29.667 -47.499 41v-194zM215 301l-64.002 40.999c-36 23.333 -63.333 50.333 -82 81s-28 67 -28 109c0 26 3.83301 50.333 11.5 73s19 42.334 34 59.001s33.333 30 55 40s46.167 15.333 73.5 16v26c0 8 1.83301 14.5 5.5 19.5s9.5 7.5 17.5 7.5
s13.833 -2.5 17.5 -7.5s5.5 -11.5 5.5 -19.5v-26c22.667 0 44.167 -3.66699 64.5 -11s38 -17.5 53 -30.5s26.833 -28.833 35.5 -47.5s13 -39.334 13 -62.001c0 -16 -5 -29.667 -15 -41s-23.333 -17 -40 -17c-21.333 0 -35.666 5.66699 -42.999 17s-12.666 25.333 -15.999 42
c-4 19.333 -10.833 33.166 -20.5 41.499s-20.167 12.5 -31.5 12.5v-197l58 -34c38 -22 68.667 -48.167 92 -78.5s35 -69.166 35 -116.499c0 -64.667 -16 -115.167 -48 -151.5s-77.667 -56.166 -137 -59.499v-77c0 -7.33301 -1.83301 -13.5 -5.5 -18.5s-9.5 -7.5 -17.5 -7.5
s-13.833 2.5 -17.5 7.5s-5.5 11.167 -5.5 18.5v77c-26 0 -50.167 4.5 -72.5 13.5s-41.5 21.5 -57.5 37.5s-28.5 34.833 -37.5 56.5s-13.5 45.167 -13.5 70.5c0 18 4.33301 33.833 13 47.5s22.667 20.5 42 20.5c17.333 0 30.833 -5.16699 40.5 -15.5
s15.834 -27.166 18.501 -50.499c2.66699 -24.667 9.16699 -44.334 19.5 -59.001s26.166 -23 47.499 -25v218z" />
    <glyph glyph-name="percent" unicode="%" horiz-adv-x="870" 
d="M619 158c0 -30.667 4 -54.167 12 -70.5s21.667 -24.5 41 -24.5s33 8.16699 41 24.5s12 39.833 12 70.5v33c0 22 -3.33301 41.5 -10 58.5s-21 25.5 -43 25.5s-36.333 -8.5 -43 -25.5s-10 -36.5 -10 -58.5v-33zM145 527c0 -30.667 4 -54.167 12 -70.5
s21.667 -24.5 41 -24.5s33 8.16699 41 24.5s12 39.833 12 70.5v33c0 22 -3.33301 41.5 -10 58.5s-21 25.5 -43 25.5s-36.333 -8.5 -43 -25.5s-10 -36.5 -10 -58.5v-33zM550 719c3.33301 7.33301 8.5 13.501 15.5 18.501s16.167 7.5 27.5 7.5c12 0 20.833 -3.33301 26.5 -10
s8.5 -13.667 8.5 -21c0 -10.667 -2 -20.334 -6 -29.001l-303 -697c-3.33301 -7.33301 -8.5 -13.5 -15.5 -18.5s-16.167 -7.5 -27.5 -7.5c-12 0 -20.833 3.33301 -26.5 10s-8.5 13.667 -8.5 21c0 10 2 19.667 6 29zM518 169.001c0 28 2.33301 53.167 7 75.5s13 41.333 25 57
s27.833 27.834 47.5 36.501s44.5 13 74.5 13s54.833 -4.33301 74.5 -13s35.5 -20.834 47.5 -36.501s20.333 -34.667 25 -57s7 -47.5 7 -75.5s-2.33301 -53.167 -7 -75.5s-13 -41.333 -25 -57s-27.833 -27.834 -47.5 -36.501s-44.5 -13 -74.5 -13s-54.833 4.33301 -74.5 13
s-35.5 20.834 -47.5 36.501s-20.333 34.667 -25 57s-7 47.5 -7 75.5zM44 538.001c0 28 2.33301 53.167 7 75.5s13 41.333 25 57s27.833 27.834 47.5 36.501s44.5 13 74.5 13s54.833 -4.33301 74.5 -13s35.5 -20.834 47.5 -36.501s20.333 -34.667 25 -57s7 -47.5 7 -75.5
s-2.33301 -53.167 -7 -75.5s-13 -41.333 -25 -57s-27.833 -27.834 -47.5 -36.501s-44.5 -13 -74.5 -13s-54.833 4.33301 -74.5 13s-35.5 20.834 -47.5 36.501s-20.333 34.667 -25 57s-7 47.5 -7 75.5z" />
    <glyph glyph-name="ampersand" unicode="&#x26;" horiz-adv-x="630" 
d="M297 494l13 12c15.333 13.333 26.333 25.5 33 36.5s10 25.167 10 42.5c0 14 -4.5 25.667 -13.5 35s-20.167 14 -33.5 14c-14 0 -25.667 -4.16699 -35 -12.5s-14 -18.833 -14 -31.5c0 -10 0.833008 -18.667 2.5 -26s5.16699 -15.333 10.5 -24zM255 329
c-20.667 -15.333 -37.5 -33.665 -50.5 -54.998s-19.5 -42 -19.5 -62c0 -16.667 2.66699 -32.334 8 -47.001s12.5 -27.334 21.5 -38.001s19.333 -19 31 -25s24.167 -9 37.5 -9c17.333 0 32.333 2.83301 45 8.5s26 16.167 40 31.5zM439 252.001
c4 10.667 7.83594 24.666 11.5029 41.999s7.16699 35 10.5 53c3.33301 19.333 9.16602 32.666 17.499 39.999s20.166 11 35.499 11c19.333 0 33 -6 41 -18s12 -26.667 12 -44c0 -12.667 -1.83301 -27.5 -5.5 -44.5s-8.5 -34.5 -14.5 -52.5s-12.667 -35.667 -20 -53
s-14.666 -32.333 -21.999 -45l28 -46c13.333 -22 20 -40 20 -54c0 -17.333 -6.33301 -31.333 -19 -42s-27.667 -16 -45 -16c-11.333 0 -21 2.83301 -29 8.5s-15.667 14.167 -23 25.5l-18 26c-20.667 -19.333 -43.167 -33.5 -67.5 -42.5s-52.5 -13.5 -84.5 -13.5
s-60.667 5.16699 -86 15.5s-46.833 24.833 -64.5 43.5s-31 40.834 -40 66.501s-13.5 53.834 -13.5 84.501c0 50.667 12 94.334 36 131.001s57.667 69 101 97c-21.333 34.667 -36.166 63.167 -44.499 85.5s-12.5 42.166 -12.5 59.499c0 23.333 4.16699 44.166 12.5 62.499
s19.666 34 33.999 47s31.5 23 51.5 30s42 10.5 66 10.5c26 0 48.5 -3.83301 67.5 -11.5s34.667 -17.834 47 -30.501s21.666 -27.167 27.999 -43.5s9.5 -33.166 9.5 -50.499c0 -34.667 -9.33301 -67.667 -28 -99s-45.334 -58.666 -80.001 -81.999z" />
    <glyph glyph-name="quotesingle" unicode="'" horiz-adv-x="222" 
d="M54 674c0 18.667 5.66699 33.834 17 45.501s24.666 17.5 39.999 17.5s28.666 -5.83301 39.999 -17.5s17 -26.834 17 -45.501v-151c0 -18.667 -5.66699 -33.834 -17 -45.501s-24.666 -17.5 -39.999 -17.5s-28.666 5.83301 -39.999 17.5s-17 26.834 -17 45.501v151z" />
    <glyph glyph-name="parenleft" unicode="(" horiz-adv-x="296" 
d="M51 277c0 71.333 7 136.335 21 195.002s30.667 109 50 151s39.333 74.5 60 97.5s37.667 34.5 51 34.5c11.333 0 21.333 -3 30 -9s13 -17.667 13 -35c0 -8.66699 -5 -22.834 -15 -42.501s-21.167 -46.667 -33.5 -81s-23.5 -76.833 -33.5 -127.5s-15 -111.667 -15 -183
s5 -132.333 15 -183s21.167 -93.167 33.5 -127.5s23.5 -61.333 33.5 -81s15 -33.834 15 -42.501c0 -17.333 -4.33301 -29 -13 -35s-18.667 -9 -30 -9c-13.333 0 -30.333 11.5 -51 34.5s-40.667 55.5 -60 97.5s-36 92.333 -50 151s-21 123.667 -21 195z" />
    <glyph glyph-name="parenright" unicode=")" horiz-adv-x="296" 
d="M245 277c0 -71.333 -7 -136.335 -21 -195.002s-30.667 -109 -50 -151s-39.333 -74.5 -60 -97.5s-37.667 -34.5 -51 -34.5c-11.333 0 -21.333 3 -30 9s-13 17.667 -13 35c0 8.66699 5 22.834 15 42.501s21.167 46.667 33.5 81s23.5 76.833 33.5 127.5s15 111.667 15 183
s-5 132.333 -15 183s-21.167 93.167 -33.5 127.5s-23.5 61.333 -33.5 81s-15 33.834 -15 42.501c0 17.333 4.33301 29 13 35s18.667 9 30 9c13.333 0 30.333 -11.5 51 -34.5s40.667 -55.5 60 -97.5s36 -92.333 50 -151s21 -123.667 21 -195z" />
    <glyph glyph-name="asterisk" unicode="*" horiz-adv-x="370" 
d="M289 640c14 5.33301 25.1689 5.83301 33.502 1.5s14.166 -11.5 17.499 -21.5s2.83301 -19 -1.5 -27s-13.833 -14.667 -28.5 -20l-68 -22l42 -58c9.33301 -12 13.333 -22.667 12 -32s-6.33301 -17 -15 -23c-8.66699 -6.66699 -17.5 -9 -26.5 -7s-18.167 9 -27.5 21l-42 58
l-42 -58c-9.33301 -12 -18.5 -19 -27.5 -21s-17.833 0.333008 -26.5 7c-8.66699 6 -13.667 13.667 -15 23s2.66699 20 12 32l42 58l-68 23c-14.667 4.66699 -24.167 11 -28.5 19s-4.83301 17 -1.5 27s9.16602 17.167 17.499 21.5s19.833 3.83301 34.5 -1.5l68 -22v72
c0 15.333 3.16699 26.333 9.5 33s14.833 10 25.5 10s19.167 -3.33301 25.5 -10s9.5 -17.667 9.5 -33v-72h1z" />
    <glyph glyph-name="plus" unicode="+" horiz-adv-x="600" 
d="M247 496c0 20.667 5 37.5 15 50.5s22.667 19.5 38 19.5s28 -6.5 38 -19.5s15 -29.833 15 -50.5v-160h160c21.333 0 38.333 -5.16699 51 -15.5s19 -22.833 19 -37.5s-6.33301 -27.167 -19 -37.5s-29.667 -15.5 -51 -15.5h-160v-160c0 -20.667 -5 -37.5 -15 -50.5
s-22.667 -19.5 -38 -19.5s-28 6.5 -38 19.5s-15 29.833 -15 50.5v160h-160c-21.333 0 -38.333 5.16699 -51 15.5s-19 22.833 -19 37.5s6.33301 27.167 19 37.5s29.667 15.5 51 15.5h160v160z" />
    <glyph glyph-name="comma" unicode="," 
d="M40 60c0 21.333 7.50098 39.8359 22.501 55.5029s34.167 23.5 57.5 23.5c14 0 26 -3 36 -9s18.167 -13.5 24.5 -22.5s11.166 -19.333 14.499 -31s5 -22.834 5 -33.501c0 -26.667 -4.33301 -51.167 -13 -73.5s-19.5 -41.5 -32.5 -57.5s-27.333 -28.333 -43 -37
s-30.5 -13 -44.5 -13c-8 0 -14.5 2.66699 -19.5 8s-7.5 11 -7.5 17c0 7.33301 1.83301 13 5.5 17s10.5 7.66699 20.5 11c6 2 12.667 5.33301 20 10s14.333 10.167 21 16.5s12.667 13.5 18 21.5s9 16.333 11 25c-4.66699 -0.666992 -8.66699 -1 -12 -1h-9
c-14 0 -25.667 2.5 -35 7.5s-17 11.167 -23 18.5s-10.333 15.166 -13 23.499s-4 16.166 -4 23.499z" />
    <glyph glyph-name="hyphen" unicode="-" horiz-adv-x="333" 
d="M101 226c-21.333 0 -37 5.66699 -47 17s-15 24.666 -15 39.999s5 28.666 15 39.999s25.667 17 47 17h131c21.333 0 37 -5.66699 47 -17s15 -24.666 15 -39.999s-5 -28.666 -15 -39.999s-25.667 -17 -47 -17h-131z" />
    <glyph glyph-name="hyphen" unicode="&#xad;" horiz-adv-x="333" 
d="M101 226c-21.333 0 -37 5.66699 -47 17s-15 24.666 -15 39.999s5 28.666 15 39.999s25.667 17 47 17h131c21.333 0 37 -5.66699 47 -17s15 -24.666 15 -39.999s-5 -28.666 -15 -39.999s-25.667 -17 -47 -17h-131z" />
    <glyph glyph-name="period" unicode="." 
d="M44 63c0 21.333 7.33301 39.333 22 54s32.667 22 54 22s39.333 -7.33301 54 -22s22 -32.667 22 -54s-7.33301 -39.333 -22 -54s-32.667 -22 -54 -22s-39.333 7.33301 -54 22s-22 32.667 -22 54z" />
    <glyph glyph-name="slash" unicode="/" horiz-adv-x="333" 
d="M232 693c4.66699 12 11.834 22.333 21.501 31s21.167 13 34.5 13c12.667 0 23.834 -3.16699 33.501 -9.5s14.5 -15.166 14.5 -26.499c0 -13.333 -2 -25 -6 -35l-229 -639c-4.66699 -12 -11.834 -22.333 -21.501 -31s-21.167 -13 -34.5 -13
c-12.667 0 -23.834 3.16699 -33.501 9.5s-14.5 15.166 -14.5 26.499c0 13.333 2 25 6 35z" />
    <glyph glyph-name="zero" unicode="0" horiz-adv-x="480" 
d="M173 214c0 -46 4.33301 -79.333 13 -100s26.667 -31 54 -31s45.333 10.333 54 31s13 54 13 100v279c0 46.667 -4.33301 80.167 -13 100.5s-26.667 30.5 -54 30.5s-45.333 -10.167 -54 -30.5s-13 -53.833 -13 -100.5v-279zM39 474c0 28.667 1.83301 57.667 5.5 87
s12.334 55.833 26.001 79.5s33.834 42.834 60.501 57.501s63 22 109 22s82.333 -7.33301 109 -22s46.834 -33.834 60.501 -57.501s22.334 -50.167 26.001 -79.5s5.5 -58.333 5.5 -87v-242c0 -28.667 -1.83301 -57.5 -5.5 -86.5s-12.334 -55.333 -26.001 -79
s-33.834 -42.834 -60.501 -57.501s-63 -22 -109 -22s-82.333 7.33301 -109 22s-46.834 33.834 -60.501 57.501s-22.334 50 -26.001 79s-5.5 57.833 -5.5 86.5v242z" />
    <glyph glyph-name="one" unicode="1" horiz-adv-x="333" 
d="M43 505c-16 0 -29.5 2.99805 -40.5 8.99805s-16.5 16.667 -16.5 32c0 25.333 14 40.333 42 45c38.667 6.66699 67.667 16.5 87 29.5s35 31.167 47 54.5c6 11.333 11.167 20.333 15.5 27s8.66602 11.834 12.999 15.501s9.33301 6 15 7s12.834 1.5 21.501 1.5
c11.333 0 21.333 -4.16699 30 -12.5s13 -22.166 13 -41.499v-616c0 -21.333 -6.66699 -38.166 -20 -50.499s-29 -18.5 -47 -18.5s-33.667 6.16699 -47 18.5s-20 29.166 -20 50.499v449h-93z" />
    <glyph glyph-name="two" unicode="2" horiz-adv-x="480" 
d="M95 0c-20 0 -34.8281 4.49902 -44.4951 13.499s-14.5 23.5 -14.5 43.5c0 12.667 1.83301 28.5 5.5 47.5s10.5 40 20.5 63s23.667 47.667 41 74s39.666 53.166 66.999 80.499l47 47c17.333 17.333 31.666 33 42.999 47s20.166 27 26.499 39s10.833 24 13.5 36
s4 24.667 4 38c0 27.333 -5.5 49.166 -16.5 65.499s-27.833 24.5 -50.5 24.5c-25.333 0 -42.833 -8.83301 -52.5 -26.5s-15.834 -41.5 -18.501 -71.5c-1.33301 -20 -8 -34.5 -20 -43.5s-25.667 -13.5 -41 -13.5c-12.667 0 -23 2.33301 -31 7s-14.167 10.5 -18.5 17.5
s-7.33301 14.833 -9 23.5s-2.5 17.334 -2.5 26.001c0 26.667 4.33301 51.167 13 73.5s21 41.5 37 57.5s35.667 28.5 59 37.5s49.666 13.5 78.999 13.5c66.667 0 117.667 -16 153 -48s53 -80.333 53 -145c0 -33.333 -7.16699 -66.333 -21.5 -99s-36.5 -64 -66.5 -94l-83 -83
c-27.333 -27.333 -48 -51.666 -62 -72.999s-24 -42.666 -30 -63.999h197c22.667 0 40.334 -4 53.001 -12s19 -23 19 -45s-6.33301 -37 -19 -45s-30.334 -12 -53.001 -12h-277z" />
    <glyph glyph-name="three" unicode="3" horiz-adv-x="480" 
d="M33 170c0 24 5.00488 43.334 15.0049 58.001s25.333 22 46 22c19.333 0 35 -6.16699 47 -18.5s18.667 -31.166 20 -56.499c1.33301 -28 7.66602 -50.333 18.999 -67s29.666 -25 54.999 -25c27.333 0 46.166 11.833 56.499 35.5s15.5 53.167 15.5 88.5
c0 26 -1.83301 47 -5.5 63s-9 28.5 -16 37.5s-15.667 15.167 -26 18.5s-22.166 5.66602 -35.499 6.99902c-27.333 3.33301 -45.5 8.33301 -54.5 15s-13.5 17.334 -13.5 32.001c0 14 3.83301 24.333 11.5 31s24.5 12.334 50.5 17.001c28 4.66699 47.5 14.667 58.5 30
s16.5 42.666 16.5 81.999c0 22 -4.5 41.5 -13.5 58.5s-25.5 25.5 -49.5 25.5c-17.333 0 -31.333 -5.16699 -42 -15.5s-18 -27.5 -22 -51.5c-6 -40.667 -27.667 -61 -65 -61c-18.667 0 -32.834 5.83301 -42.501 17.5s-14.5 26.167 -14.5 43.5c0 22.667 3.66699 44 11 64
s18.5 37.333 33.5 52s34.167 26.167 57.5 34.5s50.666 12.5 81.999 12.5c36 0 66.667 -4.66699 92 -14s45.833 -22.333 61.5 -39s27.167 -36.334 34.5 -59.001s11 -47 11 -73c0 -36 -6.66699 -67.167 -20 -93.5s-34 -44.5 -62 -54.5c37.333 -14 62.666 -35.667 75.999 -65
s20 -67.333 20 -114c0 -70 -16.5 -124.333 -49.5 -163s-85.833 -58 -158.5 -58c-42.667 0 -77 6.66699 -103 20s-46.167 29.666 -60.5 48.999s-24 39.333 -29 60s-7.5 38.667 -7.5 54z" />
    <glyph glyph-name="four" unicode="4" horiz-adv-x="480" 
d="M255 539h-2l-133 -289h135v289zM255 144l-170 -0.00195312c-23.333 0 -41.333 4 -54 12s-19 22.333 -19 43c0 18.667 6.66699 42.334 20 71.001l195 407c10 20.667 20.5 34 31.5 40s27.833 9 50.5 9c24.667 0 42.167 -6.16699 52.5 -18.5s15.5 -27.166 15.5 -44.499v-413
h23c12 0 24.167 -3.83301 36.5 -11.5s18.5 -21.5 18.5 -41.5s-6.16699 -33.833 -18.5 -41.5s-24.5 -11.5 -36.5 -11.5h-23v-84c0 -25.333 -5.5 -43.833 -16.5 -55.5s-25.833 -17.5 -44.5 -17.5s-33.5 5.83301 -44.5 17.5s-16.5 30.167 -16.5 55.5v84z" />
    <glyph glyph-name="five" unicode="5" horiz-adv-x="480" 
d="M159 448c13.333 13.333 28.334 22.9961 45.001 28.9961s37.334 9 62.001 9s47.667 -3.66699 69 -11s39.833 -20 55.5 -38s28 -42.167 37 -72.5s13.5 -68.5 13.5 -114.5c0 -37.333 -2.66699 -72.166 -8 -104.499s-15.5 -60.166 -30.5 -83.499s-36 -41.666 -63 -54.999
s-61.833 -20 -104.5 -20c-43.333 0 -77.833 6.83301 -103.5 20.5s-45.334 29.834 -59.001 48.501s-22.667 38 -27 58s-6.5 36.667 -6.5 50c0 20 4.5 38 13.5 54s25.167 24 48.5 24s39.833 -6.33301 49.5 -19s15.167 -28 16.5 -46c1.33301 -28 7 -50.667 17 -68
s27 -26 51 -26c29.333 0 48.666 12.5 57.999 37.5s14 61.833 14 110.5c0 58 -6 99 -18 123s-32.667 36 -62 36c-16 0 -27.833 -3.66699 -35.5 -11s-14.834 -15.5 -21.501 -24.5s-14.5 -17.167 -23.5 -24.5s-22.833 -11 -41.5 -11c-20 0 -34.333 6.16699 -43 18.5
s-13 25.833 -13 40.5c0 4.66699 0.166992 9.5 0.5 14.5s0.833008 11.167 1.5 18.5l13 246c0.666992 13.333 4.33398 25 11.001 35s17.667 15 33 15h243c22.667 0 40.334 -4 53.001 -12s19 -23 19 -45s-6.33301 -37 -19 -45s-30.334 -12 -53.001 -12h-183z" />
    <glyph glyph-name="six" unicode="6" horiz-adv-x="480" 
d="M170 233c0 -24 1 -45.3301 3 -63.9971s5.5 -34.334 10.5 -47.001s12 -22.334 21 -29.001s20.833 -10 35.5 -10c28.667 0 47.5 13 56.5 39s13.5 63 13.5 111c0 47.333 -4.5 83.666 -13.5 108.999s-27.833 38 -56.5 38c-14.667 0 -26.5 -3.16699 -35.5 -9.5
s-16 -15.833 -21 -28.5s-8.5 -28 -10.5 -46s-3 -39 -3 -63zM36 393.003c0 50.667 2.83203 96.168 8.49902 136.501s16.334 74.666 32.001 102.999s37 50 64 65s61.5 22.5 103.5 22.5c30 0 56.167 -3.16699 78.5 -9.5s40.833 -15 55.5 -26s25.5 -23.667 32.5 -38
s10.5 -29.5 10.5 -45.5c0 -17.333 -5.33301 -31.333 -16 -42s-25 -16 -43 -16c-14.667 0 -25.834 2.66699 -33.501 8s-16.167 16.666 -25.5 33.999c-9.33301 16 -17.333 26.5 -24 31.5s-17.334 7.5 -32.001 7.5c-29.333 0 -49.5 -12.667 -60.5 -38s-16.5 -60 -16.5 -104v-41
c15.333 15.333 31.5 25.833 48.5 31.5s35.833 8.5 56.5 8.5c32 0 58.833 -5.83301 80.5 -17.5s39 -27.5 52 -47.5s22.333 -43.833 28 -71.5s8.5 -57.5 8.5 -89.5c0 -35.333 -2.66699 -69.166 -8 -101.499s-15.333 -60.833 -30 -85.5s-35.167 -44.334 -61.5 -59.001
s-60.166 -22 -101.499 -22c-46.667 0 -83.667 8 -111 24s-48.166 38.5 -62.499 67.5s-23.5 63.833 -27.5 104.5s-6 85.334 -6 134.001v76z" />
    <glyph glyph-name="seven" unicode="7" horiz-adv-x="444" 
d="M73 587c-11.333 0 -21 2 -29 6s-14.5 9 -19.5 15s-8.66699 12.5 -11 19.5s-3.5 13.167 -3.5 18.5c0 6 1.16699 12.5 3.5 19.5s6 13.667 11 20s11.5 11.5 19.5 15.5s17.667 6 29 6h307c20.667 0 36.5 -3.16699 47.5 -9.5s16.5 -19.833 16.5 -40.5
c0 -2.66699 -0.333008 -5.66699 -1 -9s-2.16699 -8.33301 -4.5 -15s-6.16602 -15.334 -11.499 -26.001l-22 -43c-16 -31.333 -32 -67.833 -48 -109.5s-30.833 -85.334 -44.5 -131.001s-25.5 -91.667 -35.5 -138s-17 -89.5 -21 -129.5
c-2 -21.333 -9.16699 -38.166 -21.5 -50.499s-29.5 -18.5 -51.5 -18.5s-37.667 6.66699 -47 20s-14 29.666 -14 48.999c0 14.667 2.16699 34.334 6.5 59.001s10.666 52 18.999 82s18 62 29 96s23.167 68.333 36.5 103s27.5 68.334 42.5 101.001s30.5 62.667 46.5 90h-229z
" />
    <glyph glyph-name="eight" unicode="8" horiz-adv-x="480" 
d="M175 529c0 -12 0.833008 -23.666 2.5 -34.999s4.66699 -21.5 9 -30.5s10.833 -16.167 19.5 -21.5s20 -8 34 -8s25.333 2.66699 34 8s15.167 12.5 19.5 21.5s7.33301 19.167 9 30.5s2.5 23 2.5 35c0 11.333 -0.833008 22.666 -2.5 33.999s-4.66699 21.5 -9 30.5
s-10.833 16.333 -19.5 22s-20 8.5 -34 8.5c-22.667 0 -39.167 -8.66699 -49.5 -26s-15.5 -40.333 -15.5 -69zM169 184.001c0 -13.333 0.999023 -26 2.99902 -38s5.5 -22.667 10.5 -32s12.167 -16.833 21.5 -22.5s21.333 -8.5 36 -8.5s26.667 2.83301 36 8.5
s16.5 13.167 21.5 22.5s8.5 20 10.5 32s3 24.667 3 38v53c0 10 -0.833008 21 -2.5 33s-5.16699 23 -10.5 33s-12.666 18.333 -21.999 25s-21.333 10 -36 10c-15.333 0 -27.5 -3.33301 -36.5 -10s-16.167 -15 -21.5 -25s-8.83301 -21 -10.5 -33s-2.5 -23 -2.5 -33v-53z
M34.999 200.001c0 20 1.33301 39.167 4 57.5s7.33398 35.5 14.001 51.5s16 30.5 28 43.5s27 23.833 45 32.5c-30 15.333 -50.667 34.833 -62 58.5s-17 52.167 -17 85.5c0 60 15.667 106.833 47 140.5s80 50.5 146 50.5s114.667 -16.833 146 -50.5s47 -80.5 47 -140.5
c0 -33.333 -5.66699 -61.833 -17 -85.5s-32 -43.167 -62 -58.5c18 -8.66699 33 -19.5 45 -32.5s21.333 -27.5 28 -43.5s11.334 -33.167 14.001 -51.5s4 -37.5 4 -57.5c0 -25.333 -2.5 -50.666 -7.5 -75.999s-14.833 -48.166 -29.5 -68.499s-35.334 -36.833 -62.001 -49.5
s-62 -19 -106 -19s-79.333 6.33301 -106 19s-47.334 29.167 -62.001 49.5s-24.5 43.166 -29.5 68.499s-7.5 50.666 -7.5 75.999z" />
    <glyph glyph-name="nine" unicode="9" horiz-adv-x="480" 
d="M170 474c0 -24 1 -44.9971 3 -62.9971s5.5 -33.333 10.5 -46s12 -22.167 21 -28.5s20.833 -9.5 35.5 -9.5c28.667 0 47.5 12.667 56.5 38s13.5 61.666 13.5 108.999c0 48 -4.5 85 -13.5 111s-27.833 39 -56.5 39c-14.667 0 -26.5 -3.33301 -35.5 -10
s-16 -16.334 -21 -29.001s-8.5 -28.334 -10.5 -47.001s-3 -40 -3 -64zM444 314.003c0 -50.667 -2.83203 -96.168 -8.49902 -136.501s-16.334 -74.666 -32.001 -102.999s-37 -50 -64 -65s-61.5 -22.5 -103.5 -22.5c-30 0 -56.167 3.16699 -78.5 9.5s-40.833 15 -55.5 26
s-25.5 23.667 -32.5 38s-10.5 29.5 -10.5 45.5c0 17.333 5.33301 31.333 16 42s25 16 43 16c14.667 0 25.834 -2.66699 33.501 -8s16.167 -16.666 25.5 -33.999c9.33301 -16 17.333 -26.5 24 -31.5s17.334 -7.5 32.001 -7.5c29.333 0 49.5 12.667 60.5 38s16.5 60 16.5 104
v41c-15.333 -15.333 -31.5 -25.833 -48.5 -31.5s-35.833 -8.5 -56.5 -8.5c-32 0 -58.833 5.83301 -80.5 17.5s-39 27.5 -52 47.5s-22.333 43.833 -28 71.5s-8.5 57.5 -8.5 89.5c0 35.333 2.66699 69.166 8 101.499s15.333 60.833 30 85.5s35.167 44.334 61.5 59.001
s60.166 22 101.499 22c46.667 0 83.667 -8 111 -24s48.166 -38.5 62.499 -67.5s23.5 -63.833 27.5 -104.5s6 -85.334 6 -134.001v-76z" />
    <glyph glyph-name="colon" unicode=":" 
d="M44 63c0 21.333 7.33301 39.333 22 54s32.667 22 54 22s39.333 -7.33301 54 -22s22 -32.667 22 -54s-7.33301 -39.333 -22 -54s-32.667 -22 -54 -22s-39.333 7.33301 -54 22s-22 32.667 -22 54zM44 465c0 21.333 7.33301 39.333 22 54s32.667 22 54 22
s39.333 -7.33301 54 -22s22 -32.667 22 -54s-7.33301 -39.333 -22 -54s-32.667 -22 -54 -22s-39.333 7.33301 -54 22s-22 32.667 -22 54z" />
    <glyph glyph-name="semicolon" unicode=";" 
d="M44 465c0 21.333 7.33301 39.333 22 54s32.667 22 54 22s39.333 -7.33301 54 -22s22 -32.667 22 -54s-7.33301 -39.333 -22 -54s-32.667 -22 -54 -22s-39.333 7.33301 -54 22s-22 32.667 -22 54zM40 60c0 21.333 7.50098 39.8359 22.501 55.5029s34.167 23.5 57.5 23.5
c14 0 26 -3 36 -9s18.167 -13.5 24.5 -22.5s11.166 -19.333 14.499 -31s5 -22.834 5 -33.501c0 -26.667 -4.33301 -51.167 -13 -73.5s-19.5 -41.5 -32.5 -57.5s-27.333 -28.333 -43 -37s-30.5 -13 -44.5 -13c-8 0 -14.5 2.66699 -19.5 8s-7.5 11 -7.5 17
c0 7.33301 1.83301 13 5.5 17s10.5 7.66699 20.5 11c6 2 12.667 5.33301 20 10s14.333 10.167 21 16.5s12.667 13.5 18 21.5s9 16.333 11 25c-4.66699 -0.666992 -8.66699 -1 -12 -1h-9c-14 0 -25.667 2.5 -35 7.5s-17 11.167 -23 18.5s-10.333 15.166 -13 23.499
s-4 16.166 -4 23.499z" />
    <glyph glyph-name="less" unicode="&#x3c;" horiz-adv-x="600" 
d="M60 226c-10.667 5.33301 -19.5 12.9961 -26.5 22.9961s-10.5 21.333 -10.5 34s3.5 24 10.5 34s15.833 17.667 26.5 23l407 187c12.667 6 23.167 9.83301 31.5 11.5s16.166 2.5 23.499 2.5c16 0 29.167 -4.33301 39.5 -13s15.5 -17 15.5 -25
c0 -9.33301 -2.5 -19.166 -7.5 -29.499s-18.167 -20.166 -39.5 -29.499l-367 -161l367 -161c21.333 -9.33301 34.5 -19.166 39.5 -29.499s7.5 -20.166 7.5 -29.499c0 -8 -5.16699 -16.333 -15.5 -25s-23.5 -13 -39.5 -13c-7.33301 0 -15.166 0.833008 -23.499 2.5
s-18.833 5.5 -31.5 11.5z" />
    <glyph glyph-name="equal" unicode="=" horiz-adv-x="600" 
d="M87 112c-21.333 0 -38.333 5.16699 -51 15.5s-19 22.833 -19 37.5s6.33301 27.167 19 37.5s29.667 15.5 51 15.5h426c21.333 0 38.333 -5.16699 51 -15.5s19 -22.833 19 -37.5s-6.33301 -27.167 -19 -37.5s-29.667 -15.5 -51 -15.5h-426zM87 348
c-21.333 0 -38.333 5.16699 -51 15.5s-19 22.833 -19 37.5s6.33301 27.167 19 37.5s29.667 15.5 51 15.5h426c21.333 0 38.333 -5.16699 51 -15.5s19 -22.833 19 -37.5s-6.33301 -27.167 -19 -37.5s-29.667 -15.5 -51 -15.5h-426z" />
    <glyph glyph-name="greater" unicode="&#x3e;" horiz-adv-x="600" 
d="M437 283l-367 161.004c-21.333 9.33301 -34.5 19.166 -39.5 29.499s-7.5 20.166 -7.5 29.499c0 8 5.16699 16.333 15.5 25s23.5 13 39.5 13c7.33301 0 15.166 -0.833008 23.499 -2.5s18.833 -5.5 31.5 -11.5l407 -187c10.667 -5.33301 19.5 -13 26.5 -23
s10.5 -21.333 10.5 -34s-3.5 -24 -10.5 -34s-15.833 -17.667 -26.5 -23l-407 -187c-12.667 -6 -23.167 -9.83301 -31.5 -11.5s-16.166 -2.5 -23.499 -2.5c-16 0 -29.167 4.33301 -39.5 13s-15.5 17 -15.5 25c0 9.33301 2.5 19.166 7.5 29.499s18.167 20.166 39.5 29.499z
" />
    <glyph glyph-name="question" unicode="?" horiz-adv-x="481" 
d="M124 63c0 21.333 7.33301 39.333 22 54s32.667 22 54 22s39.333 -7.33301 54 -22s22 -32.667 22 -54s-7.33301 -39.333 -22 -54s-32.667 -22 -54 -22s-39.333 7.33301 -54 22s-22 32.667 -22 54zM237 426c24 28 39.4971 52.167 46.4971 72.5s10.5 39.166 10.5 56.499
c0 21.333 -5.16699 39.5 -15.5 54.5s-25.833 22.5 -46.5 22.5c-15.333 0 -28.333 -4.83301 -39 -14.5s-17.334 -23.167 -20.001 -40.5c-3.33301 -24.667 -9.66602 -41.834 -18.999 -51.501s-23.666 -14.5 -42.999 -14.5c-18 0 -32.5 5.5 -43.5 16.5s-16.5 25.833 -16.5 44.5
c0 22.667 4 43.834 12 63.501s19.5 36.834 34.5 51.501s33.333 26 55 34s46.5 12 74.5 12c64.667 0 113.334 -15.5 146.001 -46.5s49 -77.833 49 -140.5c0 -34 -6.33301 -63.833 -19 -89.5s-31.334 -52.167 -56.001 -79.5l-29 -32c-11.333 -12 -20.5 -22.667 -27.5 -32
s-12.833 -18.333 -17.5 -27s-8.16699 -17.667 -10.5 -27s-4.16602 -20.333 -5.49902 -33c-1.33301 -14.667 -6.66602 -27 -15.999 -37s-23 -15 -41 -15c-16 0 -29.5 5.5 -40.5 16.5s-16.5 26.5 -16.5 46.5c0 23.333 4.66699 48 14 74s24 50.667 44 74z" />
    <glyph glyph-name="at" unicode="@" horiz-adv-x="800" 
d="M310 337c0 -24 5.16797 -43.998 15.501 -59.998s28.166 -24 53.499 -24c18 0 33.833 2.83301 47.5 8.5s25.167 13.5 34.5 23.5s16.333 21.5 21 34.5s7 26.833 7 41.5c0 23.333 -6.5 42.5 -19.5 57.5s-32.5 22.5 -58.5 22.5c-14.667 0 -28.167 -2.83301 -40.5 -8.5
s-23 -13.334 -32 -23.001s-16 -20.834 -21 -33.501s-7.5 -25.667 -7.5 -39zM580.001 309.002c-1.33301 -6 -2.5 -13.0039 -3.5 -21.0039s-1.5 -16 -1.5 -24c0 -12.667 6.66699 -19 20 -19c10 0 20.5 2.83301 31.5 8.5s20.833 14.667 29.5 27s15.834 28.333 21.501 48
s8.5 43.167 8.5 70.5c0 40.667 -6.66699 76.5 -20 107.5s-32 56.833 -56 77.5s-52.667 36.167 -86 46.5s-70 15.5 -110 15.5c-38 0 -73.833 -7.33301 -107.5 -22s-63 -35 -88 -61s-44.833 -56.5 -59.5 -91.5s-22 -72.5 -22 -112.5c0 -45.333 7.33301 -85.666 22 -120.999
s34.834 -65.166 60.501 -89.499s56 -42.833 91 -55.5s72.5 -19 112.5 -19c38.667 0 70.334 3.33301 95.001 10s44.667 13.834 60 21.501s27.666 14.834 36.999 21.501s18.333 10 27 10c11.333 0 20.833 -3.33301 28.5 -10s11.5 -15.334 11.5 -26.001
c0 -8.66699 -7 -19.667 -21 -33s-32.667 -26.333 -56 -39s-50.833 -23.5 -82.5 -32.5s-64.834 -13.5 -99.501 -13.5c-54.667 0 -106.334 9.33301 -155.001 28s-91.167 44.5 -127.5 77.5s-65 72.5 -86 118.5s-31.5 96.667 -31.5 152c0 54 10.333 104 31 150
s48.834 86 84.501 120s77.5 60.5 125.5 79.5s99 28.5 153 28.5c48.667 0 94.834 -7.16699 138.501 -21.5s82 -34.833 115 -61.5s59 -59.167 78 -97.5s28.5 -81.5 28.5 -129.5c0 -38 -4.66699 -71.167 -14 -99.5s-21.5 -53 -36.5 -74s-31.833 -38.333 -50.5 -52
s-37.334 -24.5 -56.001 -32.5s-36.167 -13.667 -52.5 -17s-29.5 -5 -39.5 -5c-23.333 0 -40.166 4 -50.499 12s-16.833 18.333 -19.5 31h-2c-12.667 -13.333 -28.5 -23.833 -47.5 -31.5s-40.5 -11.5 -64.5 -11.5c-19.333 0 -37.833 3.83301 -55.5 11.5
s-33.334 19.167 -47.001 34.5s-24.667 34.833 -33 58.5s-12.5 51.167 -12.5 82.5c0 28 5.5 55.333 16.5 82s25.667 50.167 44 70.5s39.666 36.833 63.999 49.5s49.5 19 75.5 19c30 0 54.333 -5.16699 73 -15.5s36.334 -26.166 53.001 -47.499l4 18
c3.33301 16 9.66602 26.167 18.999 30.5s18.333 6.5 27 6.5c12.667 0 23.5 -3.66699 32.5 -11s13.5 -18.333 13.5 -33c0 -6 -1.33301 -15.333 -4 -28z" />
    <glyph glyph-name="A" unicode="A" horiz-adv-x="519" 
d="M317 286l-59 299h-2l-61 -299h122zM173 180l-27.001 -129.998c-4.66699 -22.667 -12.167 -38.834 -22.5 -48.501s-26.166 -14.5 -47.499 -14.5c-20 0 -35.5 5.33301 -46.5 16s-16.5 24.667 -16.5 42c0 6 0.666992 14.167 2 24.5s3.33301 20.5 6 30.5l128 539
c4 18 8.5 33.167 13.5 45.5s11.5 22 19.5 29s18.167 12 30.5 15s27.833 4.5 46.5 4.5c16.667 0 31 -1.5 43 -4.5s22.333 -8 31 -15s15.834 -16.667 21.501 -29s10.5 -27.5 14.5 -45.5l127 -535c2.66699 -11.333 5 -22 7 -32s3 -17.667 3 -23
c0 -22.667 -6.83301 -38.667 -20.5 -48s-28.834 -14 -45.501 -14c-24.667 0 -42.667 6.16699 -54 18.5s-20.333 35.166 -27 68.499l-21 106h-165z" />
    <glyph glyph-name="B" unicode="B" horiz-adv-x="519" 
d="M190 427h60.999c54.667 0 82 33 82 99c0 34 -6.66699 58 -20 72s-30.666 21 -51.999 21h-71v-192zM189.999 101l79.999 -0.00292969c51.333 0 77 39.667 77 119c0 14.667 -1.16699 28.334 -3.5 41.001s-6.5 23.834 -12.5 33.501s-14.167 17.334 -24.5 23.001
s-23.166 8.5 -38.499 8.5h-78v-225zM55.998 647.997c0 25.333 5.83301 43.667 17.5 55s29.834 17 54.501 17h180c28.667 0 53.167 -4.5 73.5 -13.5s36.833 -21.5 49.5 -37.5s21.834 -35.5 27.501 -58.5s8.5 -48.5 8.5 -76.5c0 -36 -6.66699 -67.333 -20 -94
s-31.666 -44.667 -54.999 -54c36.667 -13.333 61.667 -34.333 75 -63s20 -62 20 -100c0 -29.333 -3.16699 -57.5 -9.5 -84.5s-16.833 -50.667 -31.5 -71s-33.834 -36.666 -57.501 -48.999s-52.834 -18.5 -87.501 -18.5h-173c-24.667 0 -42.834 5.66699 -54.501 17
s-17.5 29.666 -17.5 54.999v576z" />
    <glyph glyph-name="C" unicode="C" horiz-adv-x="500" 
d="M40 410c0 63.333 4.49902 115.997 13.499 157.997s22.833 75.5 41.5 100.5s42.667 42.667 72 53s64 15.5 104 15.5c33.333 0 62.5 -4.66699 87.5 -14s46 -22.166 63 -38.499s29.833 -35.5 38.5 -57.5s13 -45.333 13 -70c0 -23.333 -5 -42.5 -15 -57.5
s-27.667 -22.5 -53 -22.5c-26 0 -43.5 6 -52.5 18s-15.5 33 -19.5 63c-6.66699 48.667 -27.334 73 -62.001 73c-15.333 0 -28.666 -2.5 -39.999 -7.5s-20.833 -16 -28.5 -33s-13.334 -41.333 -17.001 -73s-5.5 -74.5 -5.5 -128.5v-40c0 -43.333 0.666992 -81.166 2 -113.499
s4.83301 -59.333 10.5 -81s14.334 -38 26.001 -49s27.834 -16.5 48.501 -16.5c17.333 0 32.5 7 45.5 21s20.167 31.333 21.5 52c0.666992 20 2.33398 37 5.00098 51s6.5 25.333 11.5 34s12 15 21 19s20.5 6 34.5 6c23.333 0 40.5 -7.16699 51.5 -21.5s16.5 -33.5 16.5 -57.5
c0 -37.333 -5.33301 -69.333 -16 -96s-25.5 -48.5 -44.5 -65.5s-41.833 -29.333 -68.5 -37s-56.334 -11.5 -89.001 -11.5c-52.667 0 -93.5 9.66699 -122.5 29s-50.5 44.333 -64.5 75s-22.333 64.334 -25 101.001s-4 72.667 -4 108v114z" />
    <glyph glyph-name="D" unicode="D" horiz-adv-x="537" 
d="M190 106l62.002 -0.00195312c17.333 0 32.666 3.33301 45.999 10s24.333 18.667 33 36s15.167 40.833 19.5 70.5s6.5 67.834 6.5 114.501v58c0 39.333 -1.33301 72.833 -4 100.5s-7.83398 50.334 -15.501 68.001s-18 30.5 -31 38.5s-29.833 12 -50.5 12h-66v-508z
M56.002 647.998c0 25.333 5.83301 43.6689 17.5 55.002s29.834 17 54.501 17h175c68.667 0 118.167 -25.333 148.5 -76s45.5 -130.334 45.5 -239.001v-93c0 -108 -17.5 -187 -52.5 -237s-84.167 -75 -147.5 -75h-169c-24.667 0 -42.834 5.66699 -54.501 17
s-17.5 29.666 -17.5 54.999v576z" />
    <glyph glyph-name="E" unicode="E" horiz-adv-x="500" 
d="M190 120l206 -0.00390625c25.333 0 43.333 -5.66699 54 -17s16 -25.666 16 -42.999s-5.33301 -31.666 -16 -42.999s-28.667 -17 -54 -17h-268c-24.667 0 -42.834 5.66699 -54.501 17s-17.5 29.666 -17.5 54.999v576c0 25.333 5.83301 43.666 17.5 54.999
s29.834 17 54.501 17h261c25.333 0 43.333 -5.66699 54 -17s16 -25.666 16 -42.999s-5.33301 -31.666 -16 -42.999s-28.667 -17 -54 -17h-199v-166h186c25.333 0 43.333 -5.66699 54 -17s16 -25.666 16 -42.999s-5.33301 -31.666 -16 -42.999s-28.667 -17 -54 -17h-186v-194
z" />
    <glyph glyph-name="F" unicode="F" horiz-adv-x="480" 
d="M190 56c0 -21.333 -6.66797 -38.1689 -20.001 -50.502s-29 -18.5 -47 -18.5s-33.667 6.16699 -47 18.5s-20 29.166 -20 50.499v592c0 25.333 5.83301 43.666 17.5 54.999s29.834 17 54.501 17h248c25.333 0 43.333 -5.66699 54 -17s16 -25.666 16 -42.999
s-5.33301 -31.666 -16 -42.999s-28.667 -17 -54 -17h-186v-166h186c25.333 0 43.333 -5.66699 54 -17s16 -25.666 16 -42.999s-5.33301 -31.666 -16 -42.999s-28.667 -17 -54 -17h-186v-258z" />
    <glyph glyph-name="G" unicode="G" horiz-adv-x="519" 
d="M473 42c0 -17.333 -3.83691 -30.8301 -11.5039 -40.4971s-21.167 -14.5 -40.5 -14.5c-18 0 -31.333 5.66699 -40 17s-13 25.333 -13 42v19h-2c-29.333 -52 -74 -78 -134 -78c-39.333 0 -71.5 8.33301 -96.5 25s-44.5 40.167 -58.5 70.5s-23.667 66.833 -29 109.5
s-8 89.667 -8 141v73c0 60.667 4.16699 112.167 12.5 154.5s21.833 76.5 40.5 102.5s42.334 44.833 71.001 56.5s63.667 17.5 105 17.5c36 0 66.833 -5.16699 92.5 -15.5s46.667 -23.833 63 -40.5s28.5 -35.5 36.5 -56.5s12 -41.833 12 -62.5
c0 -24.667 -5.16699 -44.167 -15.5 -58.5s-27.5 -21.5 -51.5 -21.5c-23.333 0 -39.666 6.5 -48.999 19.5s-15.333 35.167 -18 66.5c-1.33301 15.333 -7.66602 29.666 -18.999 42.999s-30.333 20 -57 20c-12 0 -23 -2.33301 -33 -7s-18.833 -14 -26.5 -28
s-13.5 -33.833 -17.5 -59.5s-6 -59.167 -6 -100.5v-100c0 -44 1.16699 -81.333 3.5 -112s6.66602 -55.667 12.999 -75s15.333 -33.5 27 -42.5s26.834 -13.5 45.501 -13.5c29.333 0 49.333 13.333 60 40s16 62 16 106v41h-55c-19.333 0 -33.166 5.66699 -41.499 17
s-12.5 24.666 -12.5 39.999c0 20 5.16699 34.5 15.5 43.5s24.5 13.5 42.5 13.5h112c24 0 41.167 -5.33301 51.5 -16s15.5 -27.334 15.5 -50.001v-286z" />
    <glyph glyph-name="H" unicode="H" horiz-adv-x="556" 
d="M190 328v-272c0 -21.333 -6.66699 -38.166 -20 -50.499s-29 -18.5 -47 -18.5s-33.667 6.16699 -47 18.5s-20 29.166 -20 50.499v608c0 21.333 6.66699 38.166 20 50.499s29 18.5 47 18.5s33.667 -6.16699 47 -18.5s20 -29.166 20 -50.499v-230h176v230
c0 21.333 6.66699 38.166 20 50.499s29 18.5 47 18.5s33.667 -6.16699 47 -18.5s20 -29.166 20 -50.499v-608c0 -21.333 -6.66699 -38.166 -20 -50.499s-29 -18.5 -47 -18.5s-33.667 6.16699 -47 18.5s-20 29.166 -20 50.499v272h-176z" />
    <glyph glyph-name="I" unicode="I" horiz-adv-x="258" 
d="M62 664c0 21.333 6.66699 38.166 20 50.499s29 18.5 47 18.5s33.667 -6.16699 47 -18.5s20 -29.166 20 -50.499v-608c0 -21.333 -6.66699 -38.166 -20 -50.499s-29 -18.5 -47 -18.5s-33.667 6.16699 -47 18.5s-20 29.166 -20 50.499v608z" />
    <glyph glyph-name="J" unicode="J" horiz-adv-x="444" 
d="M254 664c0 21.333 6.66602 38.168 19.999 50.501s29 18.5 47 18.5s33.667 -6.16699 47 -18.5s20 -29.166 20 -50.499v-504c0 -58.667 -15.667 -102.834 -47 -132.501s-77.666 -44.5 -138.999 -44.5c-34 0 -62.5 4.83301 -85.5 14.5s-41.333 23 -55 40
s-23.334 36.833 -29.001 59.5s-8.5 47 -8.5 73c0 29.333 6.33301 50.666 19 63.999s28.334 20 47.001 20c25.333 0 43 -7.83301 53 -23.5s15 -39.167 15 -70.5c0 -47.333 15.333 -71 46 -71c17.333 0 30 5.5 38 16.5s12 30.167 12 57.5v501z" />
    <glyph glyph-name="K" unicode="K" horiz-adv-x="519" 
d="M56 664c0 21.333 6.66602 38.167 19.999 50.5s29 18.5 47 18.5s33.667 -6.16699 47 -18.5s20 -29.166 20 -50.499v-264h2l160 291c9.33301 16 18.5 27 27.5 33s20.5 9 34.5 9c18 0 33.667 -5.33301 47 -16s20 -24.667 20 -42c0 -7.33301 -1.66699 -15.833 -5 -25.5
s-7.66602 -18.5 -12.999 -26.5l-131 -211l156 -321c4 -8 7.33301 -15.833 10 -23.5s4 -15.167 4 -22.5c0 -16 -6.16699 -29.667 -18.5 -41s-29.833 -17 -52.5 -17c-21.333 0 -36.5 4.66699 -45.5 14s-17.833 22.666 -26.5 39.999l-114 239l-55 -83v-141
c0 -21.333 -6.66699 -38.166 -20 -50.499s-29 -18.5 -47 -18.5s-33.667 6.16699 -47 18.5s-20 29.166 -20 50.499v608z" />
    <glyph glyph-name="L" unicode="L" horiz-adv-x="481" 
d="M391 120c25.333 0 43.334 -5.66797 54.001 -17.001s16 -25.666 16 -42.999s-5.33301 -31.666 -16 -42.999s-28.667 -17 -54 -17h-263c-24.667 0 -42.834 5.66699 -54.501 17s-17.5 29.666 -17.5 54.999v592c0 21.333 6.66699 38.166 20 50.499s29 18.5 47 18.5
s33.667 -6.16699 47 -18.5s20 -29.166 20 -50.499v-544h201z" />
    <glyph glyph-name="M" unicode="M" horiz-adv-x="704" 
d="M58 634c0 16 1.5 30.167 4.5 42.5s8.5 22.666 16.5 30.999s19 14.666 33 18.999s32 6.5 54 6.5c34 0 60.333 -7.66699 79 -23s32 -43.333 40 -84l66 -346h2l66 346c8 40.667 21.333 68.667 40 84s45 23 79 23c22 0 40 -2.16699 54 -6.5s25 -10.666 33 -18.999
s13.5 -18.666 16.5 -30.999s4.5 -26.5 4.5 -42.5v-578c0 -21.333 -6.66699 -38.166 -20 -50.499s-29 -18.5 -47 -18.5s-33.667 6.16699 -47 18.5s-20 29.166 -20 50.499v517h-2l-110 -542c-2.66699 -11.333 -7 -21.5 -13 -30.5s-17.667 -13.5 -35 -13.5s-29 4.5 -35 13.5
s-10.333 19.167 -13 30.5l-110 542h-2v-517c0 -21.333 -6.66699 -38.166 -20 -50.499s-29 -18.5 -47 -18.5s-33.667 6.16699 -47 18.5s-20 29.166 -20 50.499v578z" />
    <glyph glyph-name="N" unicode="N" horiz-adv-x="574" 
d="M56 664c0 21.333 6.49805 38.167 19.498 50.5s31.167 18.5 54.5 18.5c20.667 0 38.334 -4.16699 53.001 -12.5s28 -26.833 40 -55.5l159 -394h2v393c0 21.333 6.66699 38.166 20 50.499s29 18.5 47 18.5s33.667 -6.16699 47 -18.5s20 -29.166 20 -50.499v-602
c0 -24 -6.66699 -42.5 -20 -55.5s-29 -19.5 -47 -19.5c-27.333 0 -48.166 4.33301 -62.499 13s-26.833 27 -37.5 55l-159 400h-2v-399c0 -21.333 -6.66699 -38.166 -20 -50.499s-29 -18.5 -47 -18.5s-33.667 6.16699 -47 18.5s-20 29.166 -20 50.499v608z" />
    <glyph glyph-name="O" unicode="O" horiz-adv-x="520" 
d="M180 290c0 -44 1.66699 -79.167 5 -105.5s8.33301 -46.666 15 -60.999s15 -23.666 25 -27.999s21.667 -6.5 35 -6.5s25 2.16699 35 6.5s18.333 13.666 25 27.999s11.667 34.666 15 60.999s5 61.5 5 105.5v152c0 38.667 -1.66699 70.334 -5 95.001s-8.33301 44 -15 58
s-15 23.5 -25 28.5s-21.667 7.5 -35 7.5s-25 -2.5 -35 -7.5s-18.333 -14.5 -25 -28.5s-11.667 -33.333 -15 -58s-5 -56.334 -5 -95.001v-152zM40 442c0 66 6.16797 118.5 18.501 157.5s28.833 68.667 49.5 89s44.167 33.5 70.5 39.5s53.5 9 81.5 9s55.167 -3 81.5 -9
s49.833 -19.167 70.5 -39.5s37.167 -50 49.5 -89s18.5 -91.5 18.5 -157.5v-152c0 -68 -5.66699 -122.167 -17 -162.5s-26.833 -71.166 -46.5 -92.499s-43 -35.333 -70 -42s-55.833 -10 -86.5 -10c-31.333 0 -60.333 3.33301 -87 10s-49.834 20.667 -69.501 42
s-35.167 52.166 -46.5 92.499s-17 94.5 -17 162.5v152z" />
    <glyph glyph-name="P" unicode="P" horiz-adv-x="500" 
d="M190 407h60c30 0 52 9.33301 66 28s21 44 21 76c0 38 -7 65.5 -21 82.5s-33.667 25.5 -59 25.5h-67v-212zM56 648c0 25.333 5.83105 43.665 17.498 54.998s29.834 17 54.501 17h167c56 0 100.333 -15.833 133 -47.5s49 -83.5 49 -155.5c0 -28.667 -3.5 -55.667 -10.5 -81
s-17.5 -47.666 -31.5 -66.999s-31.667 -34.666 -53 -45.999s-46.666 -17 -75.999 -17h-116v-250c0 -21.333 -6.66699 -38.166 -20 -50.499s-29 -18.5 -47 -18.5s-33.667 6.16699 -47 18.5s-20 29.166 -20 50.499v592z" />
    <glyph glyph-name="Q" unicode="Q" horiz-adv-x="520" 
d="M180 290c0 -44 1.66797 -79.166 5.00098 -105.499s8.33301 -46.666 15 -60.999s15 -23.666 25 -27.999s21.667 -6.5 35 -6.5c10 0 19 1.33301 27 4l-6 6c-7.33301 7.33301 -12.166 13.666 -14.499 18.999s-3.5 11.666 -3.5 18.999c0 13.333 4.83301 24.166 14.5 32.499
s20.5 12.5 32.5 12.5c3.33301 0 6.66602 -0.5 9.99902 -1.5s7.66602 -4.16699 12.999 -9.5c4.66699 27.333 7 67 7 119v152c0 38.667 -1.66699 70.334 -5 95.001s-8.33301 44 -15 58s-15 23.5 -25 28.5s-21.667 7.5 -35 7.5s-25 -2.5 -35 -7.5s-18.333 -14.5 -25 -28.5
s-11.667 -33.333 -15 -58s-5 -56.334 -5 -95.001v-152zM40.001 442.001c0 66 6.16797 118.5 18.501 157.5s28.833 68.667 49.5 89s44.167 33.5 70.5 39.5s53.5 9 81.5 9s55.167 -3 81.5 -9s49.833 -19.167 70.5 -39.5s37.167 -50 49.5 -89s18.5 -91.5 18.5 -157.5v-152
c0 -52 -3.33301 -95.667 -10 -131s-16.334 -64.666 -29.001 -87.999l38 -36c11.333 -11.333 19 -21 23 -29s6 -15.667 6 -23c0 -11.333 -4.66699 -21.333 -14 -30s-19.333 -13 -30 -13c-16.667 0 -37 12 -61 36l-28 29c-16.667 -9.33301 -34.667 -15.333 -54 -18
s-39.666 -4 -60.999 -4c-31.333 0 -60.333 3.33301 -87 10s-49.834 20.667 -69.501 42s-35.167 52.166 -46.5 92.499s-17 94.5 -17 162.5v152z" />
    <glyph glyph-name="R" unicode="R" horiz-adv-x="519" 
d="M190 415h52.001c13.333 0 25.666 1.66699 36.999 5s21 9 29 17s14.333 18.5 19 31.5s7 29.167 7 48.5c0 36 -6.33301 62 -19 78s-35 24 -67 24h-58v-204zM56.001 648c0 25.333 5.83105 43.667 17.498 55s29.834 17 54.501 17h184c30 0 55.333 -4.83301 76 -14.5
s37.334 -22.834 50.001 -39.501s21.834 -36.334 27.501 -59.001s8.5 -46.667 8.5 -72c0 -47.333 -6.83301 -83.166 -20.5 -107.499s-35.834 -42.833 -66.501 -55.5c18 -6 32.333 -13.5 43 -22.5s19 -19.667 25 -32s10 -26.666 12 -42.999s3 -34.833 3 -55.5v-77
c0 -20 1.5 -39.167 4.5 -57.5s4.5 -36.5 4.5 -54.5c0 -10.667 -5 -20.5 -15 -29.5s-26.333 -13.5 -49 -13.5c-25.333 0 -45 5.5 -59 16.5s-21.667 28.167 -23 51.5l-6 184c-2 50 -28.333 75 -79 75h-58v-258c0 -21.333 -6.66699 -38.166 -20 -50.499s-29 -18.5 -47 -18.5
s-33.667 6.16699 -47 18.5s-20 29.166 -20 50.499v592z" />
    <glyph glyph-name="S" unicode="S" horiz-adv-x="500" 
d="M132 371c-35.333 24.667 -59.334 51.3291 -72.001 79.9961s-19 61.334 -19 98.001c0 32 5.66699 59.667 17 83s26.666 42.833 45.999 58.5s41.833 27.334 67.5 35.001s52.834 11.5 81.501 11.5c37.333 0 68.666 -6 93.999 -18s45.833 -27 61.5 -45
s26.834 -37.5 33.501 -58.5s10 -40.833 10 -59.5c0 -22.667 -6.16699 -39.667 -18.5 -51s-28.166 -17 -47.499 -17c-13.333 0 -24.166 1.5 -32.499 4.5s-14.833 7.66699 -19.5 14s-8.16699 14.333 -10.5 24s-4.16602 20.834 -5.49902 33.501
c-3.33301 25.333 -11.333 42.833 -24 52.5s-28.667 14.5 -48 14.5c-20.667 0 -37.667 -6.16699 -51 -18.5s-20 -29.166 -20 -50.499c0 -8 0.666992 -16.167 2 -24.5s4.5 -16.666 9.5 -24.999s12.167 -17.333 21.5 -27s22.333 -19.834 39 -30.501l99 -65
c18 -12 34.333 -24.5 49 -37.5s27 -27.5 37 -43.5s17.667 -34.167 23 -54.5s8 -43.5 8 -69.5c0 -62.667 -18.667 -112 -56 -148s-94.666 -54 -171.999 -54c-29.333 0 -54.666 3.83301 -75.999 11.5s-39.333 17.667 -54 30s-26.334 26 -35.001 41s-15.5 29.5 -20.5 43.5
s-8.33301 26.833 -10 38.5s-2.5 20.5 -2.5 26.5c0 12 0.833008 23.5 2.5 34.5s5 20.667 10 29s12 15 21 20s20.5 7.5 34.5 7.5c21.333 0 37.166 -6.5 47.499 -19.5s16.5 -35.5 18.5 -67.5c1.33301 -24.667 8.16602 -45.667 20.499 -63s32.166 -26 59.499 -26
c26.667 0 46.334 8.16699 59.001 24.5s19 36.166 19 59.499c0 12 -1.16699 22.833 -3.5 32.5s-6.33301 18.5 -12 26.5s-12.834 15.833 -21.501 23.5s-19 15.834 -31 24.501z" />
    <glyph glyph-name="T" unicode="T" horiz-adv-x="520" 
d="M433 720c25.333 0 43.333 -5.66699 54 -17s16 -25.666 16 -42.999s-5.33301 -31.666 -16 -42.999s-28.667 -17 -54 -17h-106v-544c0 -21.333 -6.66699 -38.166 -20 -50.499s-29 -18.5 -47 -18.5s-33.667 6.16699 -47 18.5s-20 29.166 -20 50.499v544h-106
c-25.333 0 -43.333 5.66699 -54 17s-16 25.666 -16 42.999s5.33301 31.666 16 42.999s28.667 17 54 17h346z" />
    <glyph glyph-name="U" unicode="U" horiz-adv-x="537" 
d="M51 664c0 21.333 6.66797 38.166 20.001 50.499s29 18.5 47 18.5s33.667 -6.16699 47 -18.5s20 -29.166 20 -50.499v-460c0 -40 7.66699 -69.167 23 -87.5s35.666 -27.5 60.999 -27.5s45.5 9.16699 60.5 27.5s22.5 47.5 22.5 87.5v460c0 21.333 6.66699 38.166 20 50.499
s29 18.5 47 18.5s33.667 -6.16699 47 -18.5s20 -29.166 20 -50.499v-473c0 -63.333 -18.167 -113.833 -54.5 -151.5s-90.5 -56.5 -162.5 -56.5s-126.333 18.833 -163 56.5s-55 88.167 -55 151.5v473z" />
    <glyph glyph-name="V" unicode="V" horiz-adv-x="500" 
d="M28 617c-1.33301 7.33301 -3.16504 16.666 -5.49805 27.999s-3.5 19 -3.5 23c0 17.333 6.16699 32.5 18.5 45.5s29.166 19.5 50.499 19.5c20.667 0 36.167 -4.5 46.5 -13.5s17.5 -24.167 21.5 -45.5l102 -532h2l88 520c3.33301 21.333 9.66602 38.5 18.999 51.5
s25.333 19.5 48 19.5c21.333 0 37.666 -5.33301 48.999 -16s17 -25.667 17 -45c0 -8 -0.666992 -16.333 -2 -25s-3 -18.334 -5 -29.001l-119 -559c-3.33301 -15.333 -7.66602 -27.666 -12.999 -36.999s-12 -16.666 -20 -21.999s-17.833 -8.83301 -29.5 -10.5
s-25.5 -2.5 -41.5 -2.5c-17.333 0 -31.833 1.83301 -43.5 5.5s-21.167 8.66699 -28.5 15s-13 14.333 -17 24s-7.33301 20.5 -10 32.5z" />
    <glyph glyph-name="W" unicode="W" horiz-adv-x="759" 
d="M310 42c-4 -23.333 -12.3311 -38.333 -24.998 -45s-33 -10 -61 -10c-32 0 -53.833 5 -65.5 15s-19.167 24.667 -22.5 44l-109 576c-2 11.333 -3.66699 21.333 -5 30s-2 16 -2 22c0 17.333 6.16699 31.5 18.5 42.5s30.166 16.5 53.499 16.5
c20.667 0 35.5 -5.16699 44.5 -15.5s14.833 -23.833 17.5 -40.5l82 -502h2l81 503c3.33301 18 9 31.667 17 41s22.667 14 44 14s36 -4.66699 44 -14s13.667 -23 17 -41l90 -503h2l72 498c3.33301 23.333 11 39.166 23 47.499s27.333 12.5 46 12.5
c43.333 0 65 -20.667 65 -62c0 -7.33301 -0.5 -14.666 -1.5 -21.999s-2.5 -16 -4.5 -26l-102 -563c-3.33301 -16 -6.83301 -28.833 -10.5 -38.5s-8.83398 -17 -15.501 -22s-15.5 -8.33301 -26.5 -10s-25.167 -2.5 -42.5 -2.5c-18 0 -32.333 1 -43 3s-19 5.83301 -25 11.5
s-10.667 13.667 -14 24s-6.33301 23.5 -9 39.5l-66 384h-2z" />
    <glyph glyph-name="X" unicode="X" horiz-adv-x="500" 
d="M173 368l-125 252.998c-6 12.667 -10.167 23 -12.5 31s-3.5 15 -3.5 21c0 18 6.83301 32.5 20.5 43.5s29.834 16.5 48.501 16.5c16 0 30 -4.16699 42 -12.5s23.667 -25.833 35 -52.5l71 -178l86 194c8 17.333 16.833 29.833 26.5 37.5s21.5 11.5 35.5 11.5
c21.333 0 38.333 -5.16699 51 -15.5s19 -24.833 19 -43.5c0 -13.333 -3.66699 -27.333 -11 -42l-131 -264l138 -281c3.33301 -6.66699 6.16602 -13.5 8.49902 -20.5s3.5 -13.167 3.5 -18.5c0 -16 -5.83301 -30.167 -17.5 -42.5s-28.834 -18.5 -51.501 -18.5
c-18.667 0 -33.167 4.16699 -43.5 12.5s-19.166 20.833 -26.499 37.5l-90 205l-93 -213c-12 -28 -32.667 -42 -62 -42c-19.333 0 -35.166 5.33301 -47.499 16s-18.5 25.334 -18.5 44.001c0 8.66699 1.66699 17.834 5 27.501s8.66602 22.167 15.999 37.5z" />
    <glyph glyph-name="Y" unicode="Y" horiz-adv-x="481" 
d="M174 296l-145.997 329c-4.66699 10.667 -7.83398 19.834 -9.50098 27.501s-2.5 14.167 -2.5 19.5c0 21.333 6.66699 36.833 20 46.5s28.666 14.5 45.999 14.5c20.667 0 35.667 -4.33301 45 -13s18.666 -25.334 27.999 -50.001l86 -228l91 238
c8.66699 22.667 18.5 37.167 29.5 43.5s24.167 9.5 39.5 9.5c19.333 0 34.833 -5.66699 46.5 -17s17.5 -23.666 17.5 -36.999c0 -12.667 -3.33301 -26.334 -10 -41.001l-147 -335v-247c0 -21.333 -6.66699 -38.166 -20 -50.499s-29 -18.5 -47 -18.5
s-33.667 6.16699 -47 18.5s-20 29.166 -20 50.499v240z" />
    <glyph glyph-name="Z" unicode="Z" horiz-adv-x="519" 
d="M110 600c-25.333 0 -43.333 5.66602 -54 16.999s-16 25.666 -16 42.999s5.33301 31.666 16 42.999s28.667 17 54 17h308c22.667 0 40.167 -4.83301 52.5 -14.5s18.5 -24.5 18.5 -44.5s-8.33301 -43.667 -25 -71l-273 -470h235c25.333 0 43.333 -5.66699 54 -17
s16 -25.666 16 -42.999s-5.33301 -31.666 -16 -42.999s-28.667 -17 -54 -17h-333c-23.333 0 -40.833 6.83301 -52.5 20.5s-17.5 27.834 -17.5 42.501c0 9.33301 1.33301 18 4 26s8.66699 19.667 18 35l272 476h-207z" />
    <glyph glyph-name="bracketleft" unicode="[" horiz-adv-x="296" 
d="M69 661c0 48 25.667 71.9961 77 71.9961h83c14 0 25.5 -4.16699 34.5 -12.5s13.5 -20.166 13.5 -35.499s-4.5 -27.166 -13.5 -35.499s-20.5 -12.5 -34.5 -12.5h-38v-720h38c14 0 25.5 -4.16699 34.5 -12.5s13.5 -20.166 13.5 -35.499s-4.5 -27.166 -13.5 -35.499
s-20.5 -12.5 -34.5 -12.5h-83c-51.333 0 -77 24 -77 72v768z" />
    <glyph glyph-name="backslash" unicode="\" horiz-adv-x="333" 
d="M3 666c-4 10 -6 21.667 -6 35c0 11.333 4.83301 20.166 14.5 26.499s20.834 9.5 33.501 9.5c13.333 0 24.833 -4.33301 34.5 -13s16.834 -19 21.501 -31l229 -639c4 -10 6 -21.667 6 -35c0 -11.333 -4.83301 -20.166 -14.5 -26.499s-20.834 -9.5 -33.501 -9.5
c-13.333 0 -24.833 4.33301 -34.5 13s-16.834 19 -21.501 31z" />
    <glyph glyph-name="bracketright" unicode="]" horiz-adv-x="296" 
d="M105 637l-38 0.00390625c-14 0 -25.5 4.16699 -34.5 12.5s-13.5 20.166 -13.5 35.499s4.5 27.166 13.5 35.499s20.5 12.5 34.5 12.5h83c51.333 0 77 -24 77 -72v-768c0 -48 -25.667 -72 -77 -72h-83c-14 0 -25.5 4.16699 -34.5 12.5s-13.5 20.166 -13.5 35.499
s4.5 27.166 13.5 35.499s20.5 12.5 34.5 12.5h38v720z" />
    <glyph glyph-name="asciicircum" unicode="^" horiz-adv-x="600" 
d="M234 677c9.33301 17.333 19.3291 28.833 29.9961 34.5s22.667 8.5 36 8.5s25.333 -2.83301 36 -8.5s20.667 -17.167 30 -34.5l154 -280c8.66699 -16.667 13 -31.334 13 -44.001c0 -7.33301 -3 -15.166 -9 -23.499s-18.667 -12.5 -38 -12.5
c-13.333 0 -25.166 2.5 -35.499 7.5s-20.166 15.833 -29.499 32.5l-121 223l-121 -223c-9.33301 -16.667 -19.166 -27.5 -29.499 -32.5s-22.166 -7.5 -35.499 -7.5c-19.333 0 -32 4.16699 -38 12.5s-9 16.166 -9 23.499c0 12.667 4.33301 27.334 13 44.001z" />
    <glyph glyph-name="underscore" unicode="_" horiz-adv-x="500" 
d="M0 -125c-3.33301 0 -6.16602 2.16699 -8.49902 6.5s-3.5 10.5 -3.5 18.5s1.16699 14.167 3.5 18.5s5.16602 6.5 8.49902 6.5h500c3.33301 0 6.16602 -2.16699 8.49902 -6.5s3.5 -10.5 3.5 -18.5s-1.16699 -14.167 -3.5 -18.5s-5.16602 -6.5 -8.49902 -6.5h-500z" />
    <glyph glyph-name="grave" unicode="`" 
d="M32 678c-6.66699 6 -12.5 12.833 -17.5 20.5s-7.5 16.167 -7.5 25.5c0 13.333 4.66699 23.833 14 31.5s19.333 11.5 30 11.5c8 0 14.667 -0.833008 20 -2.5s11.666 -6.16699 18.999 -13.5l84 -85c10 -10 15 -21 15 -33c0 -12.667 -3.66699 -23.167 -11 -31.5
s-17.666 -12.5 -30.999 -12.5c-7.33301 0 -13.833 1.33301 -19.5 4s-11.167 6.66699 -16.5 12z" />
    <glyph glyph-name="a" unicode="a" horiz-adv-x="444" 
d="M273 280l-43 -29.998c-13.333 -9.33301 -24.166 -17.833 -32.499 -25.5s-14.833 -15.334 -19.5 -23.001s-7.83398 -15.834 -9.50098 -24.501s-2.5 -18.667 -2.5 -30c0 -20.667 3.83301 -36.5 11.5 -47.5s18.167 -16.5 31.5 -16.5c20 0 35.667 9.66699 47 29
s17 43.333 17 72v96zM395 116.002c0 -17.333 1.16504 -33.001 3.49805 -47.001s3.5 -25.333 3.5 -34c0 -32 -20.333 -48 -61 -48c-16.667 0 -31.5 4.83301 -44.5 14.5s-19.5 27.834 -19.5 54.501l-2 -1c-11.333 -24.667 -27.166 -42.167 -47.499 -52.5
s-41.5 -15.5 -63.5 -15.5c-18 0 -34.667 2.83301 -50 8.5s-28.666 14.334 -39.999 26.001s-20.166 26.667 -26.499 45s-9.5 40.166 -9.5 65.499c0 41.333 6.5 74.5 19.5 99.5s35.5 46.167 67.5 63.5l109 57c26 13.333 39 32.333 39 57c0 14.667 -4 27.334 -12 38.001
s-19.667 16 -35 16c-21.333 0 -36 -5.33301 -44 -16s-13.333 -26.667 -16 -48c-1.33301 -12 -7.33301 -21.5 -18 -28.5s-24 -10.5 -40 -10.5c-6.66699 0 -13.834 0.833008 -21.501 2.5s-14.667 4.5 -21 8.5s-11.5 9.16699 -15.5 15.5s-6 14.166 -6 23.499
c0 23.333 4.5 44 13.5 62s21.167 33 36.5 45s33.333 21.167 54 27.5s42.667 9.5 66 9.5c40.667 0 73 -4.16699 97 -12.5s42.167 -19.833 54.5 -34.5s20.333 -31.667 24 -51s5.5 -40 5.5 -62v-278z" />
    <glyph glyph-name="b" unicode="b" horiz-adv-x="463" 
d="M181 220c0 -38.667 4.16699 -70.334 12.5 -95.001s24.5 -37 48.5 -37c22.667 0 36.834 12.333 42.501 37s8.5 59.667 8.5 105v71c0 30 -0.833008 54.667 -2.5 74s-4.5 34.833 -8.5 46.5s-9.33301 19.834 -16 24.501s-15 7 -25 7c-7.33301 0 -14.5 -1.66699 -21.5 -5
s-13.333 -9.83301 -19 -19.5s-10.334 -23 -14.001 -40s-5.5 -39.167 -5.5 -66.5v-102zM59 660c0 25.333 5.5 43.8311 16.5 55.498s25.833 17.5 44.5 17.5s33.5 -5.83301 44.5 -17.5s16.5 -30.167 16.5 -55.5v-169h2c11.333 20.667 26.5 36.334 45.5 47.001
s39.833 16 62.5 16c27.333 0 49.5 -5.83301 66.5 -17.5s30.167 -27.167 39.5 -46.5s15.666 -41.666 18.999 -66.999s5 -52 5 -80v-145c0 -28 -1.66699 -54.667 -5 -80s-9.66602 -47.666 -18.999 -66.999s-22.5 -34.833 -39.5 -46.5s-39.167 -17.5 -66.5 -17.5
c-23.333 0 -44.333 5.16699 -63 15.5s-33.667 26.166 -45 47.499h-2c0 -18 -5.66699 -33 -17 -45s-26 -18 -44 -18c-18.667 0 -33.5 5.83301 -44.5 17.5s-16.5 30.167 -16.5 55.5v600z" />
    <glyph glyph-name="c" unicode="c" horiz-adv-x="426" 
d="M42 320c0 32.667 1.66992 63.168 5.00293 91.501s11.166 53 23.499 74s30.333 37.667 54 50s55.834 18.5 96.501 18.5c34.667 0 63 -5.33301 85 -16s39.333 -23.834 52 -39.501s21.167 -32 25.5 -49s6.5 -31.5 6.5 -43.5c0 -24 -5.66699 -41.5 -17 -52.5
s-25.666 -16.5 -42.999 -16.5c-20.667 0 -36.167 5.16699 -46.5 15.5s-15.5 28.166 -15.5 53.499c0 17.333 -4.33301 30.333 -13 39s-19.667 13 -33 13c-12 0 -21.5 -3.16699 -28.5 -9.5s-12.333 -15.333 -16 -27s-5.83398 -25.167 -6.50098 -40.5s-1 -32 -1 -50v-120
c0 -45.333 3.83301 -78 11.5 -98s21.167 -30 40.5 -30c11.333 0 21.666 3.83301 30.999 11.5s14.333 22.167 15 43.5c1.33301 34.667 7.16602 58 17.499 70s25.166 18 44.499 18c18 0 32.5 -6.16699 43.5 -18.5s16.5 -29.833 16.5 -52.5c0 -13.333 -2 -29.666 -6 -48.999
s-12.167 -37.833 -24.5 -55.5s-29.5 -32.667 -51.5 -45s-51 -18.5 -87 -18.5c-40.667 0 -72.834 6.16699 -96.501 18.5s-41.667 29 -54 50s-20.166 45.667 -23.499 74s-5 58.833 -5 91.5v99z" />
    <glyph glyph-name="d" unicode="d" horiz-adv-x="463" 
d="M170 230c0 -45.333 2.83301 -80.333 8.5 -105s19.834 -37 42.501 -37c24 0 40.167 12.333 48.5 37s12.5 56.334 12.5 95.001v102c0 27.333 -1.83301 49.5 -5.5 66.5s-8.33398 30.333 -14.001 40s-12 16.167 -19 19.5s-14.167 5 -21.5 5c-10 0 -18.333 -2.33301 -25 -7
s-12 -12.834 -16 -24.501s-6.83301 -27.167 -8.5 -46.5s-2.5 -44 -2.5 -74v-71zM42 343c0 28 1.66699 54.6689 5 80.002s9.66602 47.666 18.999 66.999s22.5 34.833 39.5 46.5s39.167 17.5 66.5 17.5c22.667 0 43.5 -5.33301 62.5 -16s34.167 -26.334 45.5 -47.001h2v169
c0 25.333 5.5 43.833 16.5 55.5s25.833 17.5 44.5 17.5s33.5 -5.83301 44.5 -17.5s16.5 -30.167 16.5 -55.5v-600c0 -25.333 -5.5 -43.833 -16.5 -55.5s-25.833 -17.5 -44.5 -17.5c-18 0 -32.667 6 -44 18s-17 27 -17 45h-2c-11.333 -21.333 -26.333 -37.166 -45 -47.499
s-39.667 -15.5 -63 -15.5c-27.333 0 -49.5 5.83301 -66.5 17.5s-30.167 27.167 -39.5 46.5s-15.666 41.666 -18.999 66.999s-5 52 -5 80v145z" />
    <glyph glyph-name="e" unicode="e" horiz-adv-x="426" 
d="M272 340v45c0 20.667 -3.83301 38 -11.5 52s-21.5 21 -41.5 21s-33.833 -7 -41.5 -21s-11.5 -31.333 -11.5 -52v-45h106zM38 327c0 34.667 1.83203 65.998 5.49902 93.998s12 51.833 25 71.5s31.833 34.834 56.5 45.501s57.667 16 99 16
c63.333 0 107.5 -17.833 132.5 -53.5s37.5 -88.834 37.5 -159.501c0 -12 -0.666992 -23.333 -2 -34s-4.33301 -20 -9 -28s-11.5 -14.167 -20.5 -18.5s-21.167 -6.5 -36.5 -6.5h-160v-55c0 -16 0.5 -31.167 1.5 -45.5s3.33301 -26.666 7 -36.999s9.16699 -18.5 16.5 -24.5
s17.333 -9 30 -9c13.333 0 24.333 5.66699 33 17s13.334 24.333 14.001 39c1.33301 26.667 7.33301 44.167 18 52.5s24.667 12.5 42 12.5c18 0 32.833 -4 44.5 -12s17.5 -24 17.5 -48c0 -49.333 -15.167 -87.833 -45.5 -115.5s-70.5 -41.5 -120.5 -41.5
c-41.333 0 -74.333 5.33301 -99 16s-43.5 25.834 -56.5 45.501s-21.333 43.5 -25 71.5s-5.5 59.333 -5.5 94v113z" />
    <glyph glyph-name="f" unicode="f" horiz-adv-x="259" 
d="M67 450h-13.001c-18 0 -31.5 3.33301 -40.5 10s-13.5 18.334 -13.5 35.001c0 17.333 4.5 29.333 13.5 36s22.5 10 40.5 10h13v72c0 46 10.833 77.5 32.5 94.5s55.5 25.5 101.5 25.5c20 0 35.167 -4.16699 45.5 -12.5s15.5 -22.166 15.5 -41.499
c0 -12 -3 -21.833 -9 -29.5s-15.333 -11.834 -28 -12.501c-15.333 -0.666992 -25.166 -4.5 -29.499 -11.5s-6.5 -18.5 -6.5 -34.5v-50h19c18 0 31.5 -3.33301 40.5 -10s13.5 -18.667 13.5 -36c0 -16.667 -4.5 -28.334 -13.5 -35.001s-22.5 -10 -40.5 -10h-19v-390
c0 -25.333 -5.5 -43.833 -16.5 -55.5s-25.833 -17.5 -44.5 -17.5s-33.5 5.83301 -44.5 17.5s-16.5 30.167 -16.5 55.5v390z" />
    <glyph glyph-name="g" unicode="g" horiz-adv-x="463" 
d="M170 248c0 -30 0.832031 -54.666 2.49902 -73.999s4.5 -34.833 8.5 -46.5s9.33301 -19.834 16 -24.501s15 -7 25 -7c7.33301 0 14.5 1.66699 21.5 5s13.333 9.83301 19 19.5s10.334 23 14.001 40s5.5 39.167 5.5 66.5v95c0 27.333 -2 49.5 -6 66.5
s-8.83301 30.333 -14.5 40s-11.834 16.167 -18.501 19.5s-13 5 -19 5c-17.333 0 -30.666 -8.83301 -39.999 -26.5s-14 -48.5 -14 -92.5v-86zM41.999 351.001c0 26 1.99902 51.168 5.99902 75.501s10.833 46 20.5 65s22.834 34.167 39.501 45.5s38 17 64 17
c23.333 0 45.5 -6.33301 66.5 -19s36.167 -30.667 45.5 -54h2c0 25.333 5.16699 43.833 15.5 55.5s25.166 17.5 44.499 17.5c17.333 0 31.333 -5.83301 42 -17.5s16 -30.167 16 -55.5v-511c0 -62 -15.167 -107 -45.5 -135s-76.166 -42 -137.499 -42
c-22.667 0 -43.834 2 -63.501 6s-36.667 10 -51 18s-25.5 18.333 -33.5 31s-12 28 -12 46c0 17.333 5.83301 30.666 17.5 39.999s26.167 14 43.5 14c14 0 25.5 -3.66699 34.5 -11s15.5 -15.666 19.5 -24.999c5.33301 -12 11.833 -20.5 19.5 -25.5s15.167 -7.5 22.5 -7.5
c26.667 0 44 8.66699 52 26s12 44.333 12 81v75h-2c-7.33301 -12.667 -14.5 -23 -21.5 -31s-14.833 -14.167 -23.5 -18.5s-18.167 -7.33301 -28.5 -9s-21.833 -2.5 -34.5 -2.5c-27.333 0 -49.5 5.83301 -66.5 17.5s-30.167 27.167 -39.5 46.5s-15.666 41.666 -18.999 66.999
s-5 52 -5 80v140z" />
    <glyph glyph-name="h" unicode="h" horiz-adv-x="463" 
d="M54 660c0 25.333 5.50098 43.833 16.501 55.5s25.833 17.5 44.5 17.5s33.5 -5.83301 44.5 -17.5s16.5 -30.167 16.5 -55.5v-176h2c10 23.333 25.667 40.833 47 52.5s43.666 17.5 66.999 17.5c34 0 62 -10.833 84 -32.5s33 -55.5 33 -101.5v-360
c0 -25.333 -5.5 -43.833 -16.5 -55.5s-25.833 -17.5 -44.5 -17.5s-33.5 5.83301 -44.5 17.5s-16.5 30.167 -16.5 55.5v331c0 20 -4.5 34.5 -13.5 43.5s-20.167 13.5 -33.5 13.5c-19.333 0 -34.833 -7.66699 -46.5 -23s-17.5 -40 -17.5 -74v-291
c0 -25.333 -5.5 -43.833 -16.5 -55.5s-25.833 -17.5 -44.5 -17.5s-33.5 5.83301 -44.5 17.5s-16.5 30.167 -16.5 55.5v600z" />
    <glyph glyph-name="i" unicode="i" 
d="M50 667c0 19.333 6.83301 35.833 20.5 49.5s30.167 20.5 49.5 20.5s35.833 -6.83301 49.5 -20.5s20.5 -30.167 20.5 -49.5s-6.83301 -35.833 -20.5 -49.5s-30.167 -20.5 -49.5 -20.5s-35.833 6.83301 -49.5 20.5s-20.5 30.167 -20.5 49.5zM59 481
c0 25.333 5.5 43.833 16.5 55.5s25.833 17.5 44.5 17.5s33.5 -5.83301 44.5 -17.5s16.5 -30.167 16.5 -55.5v-421c0 -25.333 -5.5 -43.833 -16.5 -55.5s-25.833 -17.5 -44.5 -17.5s-33.5 5.83301 -44.5 17.5s-16.5 30.167 -16.5 55.5v421z" />
    <glyph glyph-name="j" unicode="j" 
d="M50 667c0 19.333 6.83301 35.833 20.5 49.5s30.167 20.5 49.5 20.5s35.833 -6.83301 49.5 -20.5s20.5 -30.167 20.5 -49.5s-6.83301 -35.833 -20.5 -49.5s-30.167 -20.5 -49.5 -20.5s-35.833 6.83301 -49.5 20.5s-20.5 30.167 -20.5 49.5zM59 481
c0 25.333 5.49902 43.833 16.499 55.5s25.833 17.5 44.5 17.5s33.5 -5.83301 44.5 -17.5s16.5 -30.167 16.5 -55.5v-572c0 -40.667 -11.167 -70.167 -33.5 -88.5s-52.5 -27.5 -90.5 -27.5c-23.333 0 -38.666 5.16699 -45.999 15.5s-11 22.5 -11 36.5
c0 17.333 3.66699 28.833 11 34.5s17.333 10.167 30 13.5c12 2.66699 18 17 18 43v545z" />
    <glyph glyph-name="k" unicode="k" horiz-adv-x="444" 
d="M54 660c0 25.333 5.5 43.835 16.5 55.502s25.833 17.5 44.5 17.5s33.5 -5.83301 44.5 -17.5s16.5 -30.167 16.5 -55.5v-323h2l106 166c8.66699 13.333 18.5 25.166 29.5 35.499s23.167 15.5 36.5 15.5c6.66699 0 13.5 -1 20.5 -3s13.5 -5.16699 19.5 -9.5
s10.833 -9.83301 14.5 -16.5s5.5 -14.334 5.5 -23.001c0 -7.33301 -1.16699 -14 -3.5 -20s-6.5 -13.333 -12.5 -22l-92 -132l111 -256c4.66699 -10 7 -21.667 7 -35c0 -15.333 -5.83301 -27.5 -17.5 -36.5s-25.834 -13.5 -42.501 -13.5s-30.167 3.5 -40.5 10.5
s-19.166 19.167 -26.499 36.5l-78 184l-39 -50v-108c0 -25.333 -5.5 -43.833 -16.5 -55.5s-25.833 -17.5 -44.5 -17.5s-33.5 5.83301 -44.5 17.5s-16.5 30.167 -16.5 55.5v600z" />
    <glyph glyph-name="l" unicode="l" 
d="M59 660c0 25.333 5.5 43.833 16.5 55.5s25.833 17.5 44.5 17.5s33.5 -5.83301 44.5 -17.5s16.5 -30.167 16.5 -55.5v-600c0 -25.333 -5.5 -43.833 -16.5 -55.5s-25.833 -17.5 -44.5 -17.5s-33.5 5.83301 -44.5 17.5s-16.5 30.167 -16.5 55.5v600z" />
    <glyph glyph-name="m" unicode="m" horiz-adv-x="686" 
d="M636 60c0 -25.333 -5.50098 -43.833 -16.501 -55.5s-25.833 -17.5 -44.5 -17.5s-33.5 5.83301 -44.5 17.5s-16.5 30.167 -16.5 55.5v331c0 20 -4.5 34.5 -13.5 43.5s-20.167 13.5 -33.5 13.5c-19.333 0 -34.666 -7.66699 -45.999 -23s-17 -40 -17 -74v-291
c0 -25.333 -5.5 -43.833 -16.5 -55.5s-25.833 -17.5 -44.5 -17.5s-33.5 5.83301 -44.5 17.5s-16.5 30.167 -16.5 55.5v331c0 20 -4.5 34.5 -13.5 43.5s-20.167 13.5 -33.5 13.5c-19.333 0 -34.666 -7.66699 -45.999 -23s-17 -40 -17 -74v-291
c0 -25.333 -5.5 -43.833 -16.5 -55.5s-25.833 -17.5 -44.5 -17.5s-33.5 5.83301 -44.5 17.5s-16.5 30.167 -16.5 55.5v421c0 25.333 5.5 43.833 16.5 55.5s25.833 17.5 44.5 17.5s33.5 -5.83301 44.5 -17.5s16.5 -29.167 16.5 -52.5h2c10 23.333 25.667 40.833 47 52.5
s43.666 17.5 66.999 17.5c27.333 0 49.333 -4.5 66 -13.5s31 -24.833 43 -47.5c18 22.667 36.333 38.5 55 47.5s41 13.5 67 13.5c34 0 62 -10.833 84 -32.5s33 -55.5 33 -101.5v-360z" />
    <glyph glyph-name="n" unicode="n" horiz-adv-x="463" 
d="M54 481c0 25.333 5.50098 43.833 16.501 55.5s25.833 17.5 44.5 17.5s33.5 -5.83301 44.5 -17.5s16.5 -29.167 16.5 -52.5h2c10 23.333 25.667 40.833 47 52.5s43.666 17.5 66.999 17.5c34 0 62 -10.833 84 -32.5s33 -55.5 33 -101.5v-360
c0 -25.333 -5.5 -43.833 -16.5 -55.5s-25.833 -17.5 -44.5 -17.5s-33.5 5.83301 -44.5 17.5s-16.5 30.167 -16.5 55.5v331c0 20 -4.5 34.5 -13.5 43.5s-20.167 13.5 -33.5 13.5c-19.333 0 -34.833 -7.66699 -46.5 -23s-17.5 -40 -17.5 -74v-291
c0 -25.333 -5.5 -43.833 -16.5 -55.5s-25.833 -17.5 -44.5 -17.5s-33.5 5.83301 -44.5 17.5s-16.5 30.167 -16.5 55.5v421z" />
    <glyph glyph-name="o" unicode="o" horiz-adv-x="444" 
d="M166 207c0 -25.333 1 -46 3 -62s5.33301 -28.5 10 -37.5s10.5 -15.333 17.5 -19s15.5 -5.5 25.5 -5.5s18.5 1.83301 25.5 5.5s12.833 10 17.5 19s8 21.5 10 37.5s3 36.667 3 62v129c0 24.667 -1.16699 44.834 -3.5 60.501s-6 28 -11 37s-11 15.333 -18 19
s-14.833 5.5 -23.5 5.5c-9.33301 0 -17.333 -1.83301 -24 -5.5s-12.5 -10 -17.5 -19s-8.66699 -21.333 -11 -37s-3.5 -35.834 -3.5 -60.501v-129zM38 344c0 28.667 2.66699 55.834 8 81.501s15 48 29 67s32.833 34 56.5 45s53.834 16.5 90.501 16.5
s66.834 -5.5 90.501 -16.5s42.5 -26 56.5 -45s23.667 -41.333 29 -67s8 -52.834 8 -81.501v-147c0 -29.333 -2.66699 -56.666 -8 -81.999s-15 -47.5 -29 -66.5s-32.833 -34 -56.5 -45s-53.834 -16.5 -90.501 -16.5s-66.834 5.5 -90.501 16.5s-42.5 26 -56.5 45
s-23.667 41.167 -29 66.5s-8 52.666 -8 81.999v147z" />
    <glyph glyph-name="p" unicode="p" horiz-adv-x="463" 
d="M181 215c0 -38.667 4.16699 -70.334 12.5 -95.001s24.5 -37 48.5 -37c22.667 0 36.834 12.333 42.501 37s8.5 59.667 8.5 105v76c0 30 -0.833008 54.667 -2.5 74s-4.5 34.833 -8.5 46.5s-9.33301 19.834 -16 24.501s-15 7 -25 7c-7.33301 0 -14.5 -1.66699 -21.5 -5
s-13.333 -9.83301 -19 -19.5s-10.334 -23 -14.001 -40s-5.5 -39.167 -5.5 -66.5v-107zM59 481c0 25.333 5.5 43.8311 16.5 55.498s25.833 17.5 44.5 17.5s33.5 -5.83301 44.5 -17.5s16.5 -30.167 16.5 -55.5h2c10.667 23.333 26 41.333 46 54s40.667 19 62 19
c27.333 0 49.5 -5.83301 66.5 -17.5s30.167 -27.167 39.5 -46.5s15.666 -41.666 18.999 -66.999s5 -52 5 -80v-145c0 -28 -1.66699 -54.667 -5 -80s-9.66602 -47.666 -18.999 -66.999s-22.5 -34.833 -39.5 -46.5s-39.167 -17.5 -66.5 -17.5c-23.333 0 -44.333 5 -63 15
s-33.667 25.333 -45 46h-2v-182c0 -25.333 -5.5 -43.833 -16.5 -55.5s-25.833 -17.5 -44.5 -17.5s-33.5 5.83301 -44.5 17.5s-16.5 30.167 -16.5 55.5v615z" />
    <glyph glyph-name="q" unicode="q" horiz-adv-x="463" 
d="M282 322c0 27.333 -1.83301 49.5 -5.5 66.5s-8.33398 30.333 -14.001 40s-12 16.167 -19 19.5s-14.167 5 -21.5 5c-10 0 -18.333 -2.33301 -25 -7s-12 -12.834 -16 -24.501s-6.83301 -27.167 -8.5 -46.5s-2.5 -44 -2.5 -74v-76c0 -45.333 2.83301 -80.333 8.5 -105
s19.834 -37 42.501 -37c24 0 40.167 12.333 48.5 37s12.5 56.334 12.5 95.001v107zM404 -134c0 -25.333 -5.5 -43.8311 -16.5 -55.498s-25.833 -17.5 -44.5 -17.5s-33.5 5.83301 -44.5 17.5s-16.5 30.167 -16.5 55.5v182h-2c-11.333 -20.667 -26.333 -36 -45 -46
s-39.667 -15 -63 -15c-27.333 0 -49.5 5.83301 -66.5 17.5s-30.167 27.167 -39.5 46.5s-15.666 41.666 -18.999 66.999s-5 52 -5 80v145c0 28 1.66699 54.667 5 80s9.66602 47.666 18.999 66.999s22.5 34.833 39.5 46.5s39.167 17.5 66.5 17.5c21.333 0 42 -6.33301 62 -19
s35.333 -30.667 46 -54h2c0 25.333 5.5 43.833 16.5 55.5s25.833 17.5 44.5 17.5s33.5 -5.83301 44.5 -17.5s16.5 -30.167 16.5 -55.5v-615z" />
    <glyph glyph-name="r" unicode="r" horiz-adv-x="333" 
d="M54 488c0 20 4.49805 36 13.498 48s23.5 18 43.5 18s34.5 -6 43.5 -18s13.5 -28 13.5 -48v-51h2c9.33301 34 21.5 62 36.5 84s33.167 33 54.5 33c16.667 0 30.834 -6.16699 42.501 -18.5s17.5 -32.5 17.5 -60.5c0 -18.667 -5.5 -35.5 -16.5 -50.5
s-30.833 -22.5 -59.5 -22.5c-19.333 0 -35.666 -6.33301 -48.999 -19s-20 -31 -20 -55v-268c0 -25.333 -5.5 -43.833 -16.5 -55.5s-25.833 -17.5 -44.5 -17.5s-33.5 5.83301 -44.5 17.5s-16.5 30.167 -16.5 55.5v428z" />
    <glyph glyph-name="s" unicode="s" horiz-adv-x="407" 
d="M118 265c-17.333 12.667 -31.3311 24.667 -41.998 36s-19 22.5 -25 33.5s-10 22.5 -12 34.5s-3 25 -3 39c0 48.667 15.5 85.167 46.5 109.5s71.167 36.5 120.5 36.5c32.667 0 59.5 -4.83301 80.5 -14.5s37.667 -21.5 50 -35.5s21 -28.667 26 -44s7.5 -28.333 7.5 -39
c0 -18 -4.5 -32.5 -13.5 -43.5s-25.833 -16.5 -50.5 -16.5c-31.333 0 -48 15.667 -50 47c-1.33301 18.667 -6.66602 32.5 -15.999 41.5s-21.666 13.5 -36.999 13.5c-12.667 0 -22.834 -3.66699 -30.501 -11s-11.5 -17.666 -11.5 -30.999c0 -9.33301 2 -18.5 6 -27.5
s11 -17.167 21 -24.5l75 -57c18.667 -14 35.334 -27.167 50.001 -39.5s26.834 -24.833 36.501 -37.5s17 -26.167 22 -40.5s7.5 -30.5 7.5 -48.5c0 -26.667 -4.5 -49.834 -13.5 -69.501s-21.5 -36.167 -37.5 -49.5s-34.833 -23.333 -56.5 -30s-44.834 -10 -69.501 -10
c-32.667 0 -59.834 4.83301 -81.501 14.5s-38.834 21.834 -51.501 36.501s-21.667 30.667 -27 48s-8 34 -8 50c0 23.333 6 39.333 18 48s25.333 13 40 13c22.667 0 38.5 -6.16699 47.5 -18.5s14.5 -31.166 16.5 -56.499c1.33301 -11.333 5.66602 -21.5 12.999 -30.5
s20.666 -13.5 39.999 -13.5c32 0 48 16.667 48 50c0 13.333 -3 24.666 -9 33.999s-17.333 20.666 -34 33.999z" />
    <glyph glyph-name="t" unicode="t" horiz-adv-x="259" 
d="M67 450l-13 -0.000976562c-18 0 -31.5 3.33301 -40.5 10s-13.5 18.334 -13.5 35.001c0 17.333 4.5 29.333 13.5 36s22.5 10 40.5 10h13v93c0 25.333 5.5 43.833 16.5 55.5s25.833 17.5 44.5 17.5s33.5 -5.83301 44.5 -17.5s16.5 -30.167 16.5 -55.5v-93h28
c18 0 31.5 -3.33301 40.5 -10s13.5 -18.667 13.5 -36c0 -16.667 -4.5 -28.334 -13.5 -35.001s-22.5 -10 -40.5 -10h-28v-318c0 -11.333 2 -20.166 6 -26.499s13 -10.166 27 -11.499c14 -0.666992 25 -4 33 -10s12 -17 12 -33c0 -20.667 -6.33301 -35.334 -19 -44.001
s-32 -13 -58 -13c-23.333 0 -43 2.83301 -59 8.5s-28.667 13.167 -38 22.5s-16 20 -20 32s-6 24.333 -6 37v356z" />
    <glyph glyph-name="u" unicode="u" horiz-adv-x="463" 
d="M54 481c0 25.333 5.49902 43.833 16.499 55.5s25.833 17.5 44.5 17.5s33.5 -5.83301 44.5 -17.5s16.5 -30.167 16.5 -55.5v-331c0 -20 4 -34.5 12 -43.5s19.667 -13.5 35 -13.5c21.333 0 37.333 7.66699 48 23s16 40 16 74v291c0 25.333 5.5 43.833 16.5 55.5
s25.833 17.5 44.5 17.5s33.5 -5.83301 44.5 -17.5s16.5 -30.167 16.5 -55.5v-421c0 -25.333 -5.5 -43.833 -16.5 -55.5s-25.833 -17.5 -44.5 -17.5s-33.5 5.83301 -44.5 17.5s-16.5 29.167 -16.5 52.5h-2c-10 -23.333 -25.667 -40.833 -47 -52.5
s-43.666 -17.5 -66.999 -17.5c-34 0 -62 10.833 -84 32.5s-33 55.5 -33 101.5v360z" />
    <glyph glyph-name="v" unicode="v" horiz-adv-x="426" 
d="M27 470c-1.33301 6 -2.5 11.001 -3.5 15.001s-1.5 8.33301 -1.5 13c0 18 6.33301 31.833 19 41.5s27 14.5 43 14.5c20.667 0 36.334 -4.83301 47.001 -14.5s18 -26.167 22 -49.5l64 -355h2l61 355c3.33301 20 9.5 35.667 18.5 47s24.167 17 45.5 17
s36.666 -5.5 45.999 -16.5s14 -22.833 14 -35.5c0 -13.333 -2 -27.333 -6 -42l-98 -418c-4.66699 -17.333 -12.667 -30.833 -24 -40.5s-32 -14.5 -62 -14.5c-16 0 -29.333 1.5 -40 4.5s-19.167 7.83301 -25.5 14.5s-11.5 14.667 -15.5 24s-7.33301 20.666 -10 33.999z" />
    <glyph glyph-name="w" unicode="w" horiz-adv-x="648" 
d="M30 456c-2.66699 11.333 -4.00195 23.334 -4.00195 36.001c0 20 5.66699 35.333 17 46s26.333 16 45 16c21.333 0 36.833 -6.66699 46.5 -20s16.167 -30.666 19.5 -51.999l50 -335h2l51 307c5.33301 34 12.333 59.167 21 75.5s23.667 24.5 45 24.5c12 0 23.5 -4 34.5 -12
s18.5 -22.667 22.5 -44l68 -351h2l50 341c6.66699 44 28.334 66 65.001 66c16 0 29.5 -5.33301 40.5 -16s16.5 -25.667 16.5 -45c0 -8.66699 -1.33301 -19.334 -4 -32.001l-82 -398c-2.66699 -12.667 -5.66699 -23.834 -9 -33.501s-8 -17.667 -14 -24s-13.667 -11 -23 -14
s-21.333 -4.5 -36 -4.5c-30 0 -50.667 7.66699 -62 23s-19.666 38 -24.999 68l-43 225h-2l-46 -249c-4 -21.333 -12.5 -37.833 -25.5 -49.5s-31.5 -17.5 -55.5 -17.5c-25.333 0 -44 6.33301 -56 19s-21 33.667 -27 63z" />
    <glyph glyph-name="x" unicode="x" horiz-adv-x="407" 
d="M133 274l-85.999 161.002c-13.333 26 -20 46.667 -20 62c0 19.333 6.5 33.666 19.5 42.999s27.167 14 42.5 14c17.333 0 30.166 -3.5 38.499 -10.5s16.833 -19.833 25.5 -38.5l53 -111l57 119c6.66699 13.333 14.5 23.5 23.5 30.5s20.167 10.5 33.5 10.5
c19.333 0 34.5 -5.33301 45.5 -16s16.5 -24.334 16.5 -41.001c0 -7.33301 -1.5 -15.166 -4.5 -23.499s-8.83301 -20.5 -17.5 -36.5l-87 -158l94 -174c8.66699 -16 14.334 -28.333 17.001 -37s4 -16.667 4 -24c0 -16 -6.33301 -29.5 -19 -40.5s-28.334 -16.5 -47.001 -16.5
c-28 0 -47.667 13 -59 39l-61 134l-67 -135c-7.33301 -14 -14.833 -23.833 -22.5 -29.5s-17.167 -8.5 -28.5 -8.5c-18.667 0 -34.167 5 -46.5 15s-18.5 23.667 -18.5 41c0 8.66699 1.33301 16.667 4 24s6.66699 15.666 12 24.999z" />
    <glyph glyph-name="y" unicode="y" horiz-adv-x="426" 
d="M24 465c-1.33301 5.33301 -2.50098 11.001 -3.50098 17.001s-1.5 11 -1.5 15c0 17.333 5.83301 31.166 17.5 41.499s27.5 15.5 47.5 15.5c15.333 0 28.833 -3.5 40.5 -10.5s19.167 -19.167 22.5 -36.5l71 -377h2l60 357c3.33301 20 9.66602 36.167 18.999 48.5
s25 18.5 47 18.5c17.333 0 31.833 -4.66699 43.5 -14s17.5 -22.666 17.5 -39.999c0 -7.33301 -2.33301 -20.333 -7 -39l-127 -535c-6 -26.667 -12.667 -48.5 -20 -65.5s-16.5 -30.5 -27.5 -40.5s-24.833 -17 -41.5 -21s-38 -6 -64 -6c-11.333 0 -20.666 1.5 -27.999 4.5
s-13.166 7 -17.499 12s-7.33301 10.667 -9 17s-2.5 12.833 -2.5 19.5c0 12.667 3.16699 23 9.5 31s19.166 13 38.499 15c10.667 0.666992 19.834 2.66699 27.501 6s11.5 12.666 11.5 27.999c0 10 -1.33301 20 -4 30z" />
    <glyph glyph-name="z" unicode="z" horiz-adv-x="426" 
d="M334 541c42 0 63 -14 63 -42c0 -10.667 -1.5 -20 -4.5 -28s-8.83301 -19.667 -17.5 -35l-193 -330h157c40.667 0 61 -17.333 61 -52c0 -36 -20.333 -54 -61 -54h-254c-21.333 -0 -36.5 4.33301 -45.5 13s-13.5 21.334 -13.5 38.001c0 11.333 1.66699 21.166 5 29.499
s7.33301 16.5 12 24.5l193 330h-147c-40.667 0 -61 17.333 -61 52c0 36 20.333 54 61 54h245z" />
    <glyph glyph-name="braceleft" unicode="{" horiz-adv-x="314" 
d="M87 162c0 15.333 -1.16699 27.5059 -3.5 36.5059s-5.5 15.667 -9.5 20s-8.5 7.16602 -13.5 8.49902s-10.167 2 -15.5 2c-14 0 -24.333 5.16699 -31 15.5s-10 21.166 -10 32.499s3.33301 22.166 10 32.499s17 15.5 31 15.5c5.33301 0 10.5 0.666992 15.5 2
s9.5 4.16602 13.5 8.49902s7.16699 11 9.5 20s3.5 21.167 3.5 36.5v208c0 46.667 10 80.5 30 101.5s49.333 31.5 88 31.5h65c11.333 0 20.833 -3.83301 28.5 -11.5s11.5 -19.834 11.5 -36.501s-3.83301 -28.834 -11.5 -36.501s-17.167 -11.5 -28.5 -11.5h-22
c-12 0 -21.5 -4.66699 -28.5 -14s-10.5 -24.333 -10.5 -45v-197c0 -23.333 -3.5 -41.666 -10.5 -54.999s-15.5 -23.5 -25.5 -30.5s-20.333 -11.5 -31 -13.5s-20 -3.33301 -28 -4v-2c8 -0.666992 17.333 -2 28 -4s21 -6.5 31 -13.5s18.5 -17.167 25.5 -30.5
s10.5 -31.666 10.5 -54.999v-197c0 -20.667 3.5 -35.667 10.5 -45s16.5 -14 28.5 -14h22c11.333 0 20.833 -3.83301 28.5 -11.5s11.5 -19.834 11.5 -36.501s-3.83301 -28.834 -11.5 -36.501s-17.167 -11.5 -28.5 -11.5h-65c-38.667 0 -68 10.5 -88 31.5
s-30 54.833 -30 101.5v208z" />
    <glyph glyph-name="bar" unicode="|" horiz-adv-x="222" 
d="M54 664c0 25.333 5.33301 43.833 16 55.5s24.334 17.5 41.001 17.5s30.334 -5.83301 41.001 -17.5s16 -30.167 16 -55.5v-608c0 -25.333 -5.33301 -43.833 -16 -55.5s-24.334 -17.5 -41.001 -17.5s-30.334 5.83301 -41.001 17.5s-16 30.167 -16 55.5v608z" />
    <glyph glyph-name="braceright" unicode="}" horiz-adv-x="314" 
d="M227 392c0 -15.333 1.16699 -27.5059 3.5 -36.5059s5.5 -15.667 9.5 -20s8.5 -7.16602 13.5 -8.49902s10.167 -2 15.5 -2c14 0 24.333 -5.16699 31 -15.5s10 -21.166 10 -32.499s-3.33301 -22.166 -10 -32.499s-17 -15.5 -31 -15.5c-5.33301 0 -10.5 -0.666992 -15.5 -2
s-9.5 -4.16602 -13.5 -8.49902s-7.16699 -11 -9.5 -20s-3.5 -21.167 -3.5 -36.5v-208c0 -46.667 -10 -80.5 -30 -101.5s-49.333 -31.5 -88 -31.5h-65c-11.333 0 -20.833 3.83301 -28.5 11.5s-11.5 19.834 -11.5 36.501s3.83301 28.834 11.5 36.501s17.167 11.5 28.5 11.5h22
c12 0 21.5 4.66699 28.5 14s10.5 24.333 10.5 45v197c0 23.333 3.5 41.666 10.5 54.999s15.5 23.5 25.5 30.5s20.333 11.5 31 13.5s20 3.33301 28 4v2c-8 0.666992 -17.333 2 -28 4s-21 6.5 -31 13.5s-18.5 17.167 -25.5 30.5s-10.5 31.666 -10.5 54.999v197
c0 20.667 -3.5 35.667 -10.5 45s-16.5 14 -28.5 14h-22c-11.333 0 -20.833 3.83301 -28.5 11.5s-11.5 19.834 -11.5 36.501s3.83301 28.834 11.5 36.501s17.167 11.5 28.5 11.5h65c38.667 0 68 -10.5 88 -31.5s30 -54.833 30 -101.5v-208z" />
    <glyph glyph-name="asciitilde" unicode="~" horiz-adv-x="600" 
d="M41 253c0 13.333 3.33301 26.4971 10 39.4971s16.167 24.833 28.5 35.5s27.166 19.167 44.499 25.5s36.666 9.5 57.999 9.5s42.5 -2.66699 63.5 -8s41.167 -11.666 60.5 -18.999s37.5 -13.666 54.5 -18.999s31.833 -8 44.5 -8c14 0 25.667 2.5 35 7.5
s17.833 10.333 25.5 16s15.334 11 23.001 16s16.834 7.5 27.501 7.5c16 0 27.167 -4.16699 33.5 -12.5s9.5 -18.5 9.5 -30.5c0 -13.333 -3.33301 -26.5 -10 -39.5s-16.334 -24.833 -29.001 -35.5s-28.167 -19.167 -46.5 -25.5s-38.833 -9.5 -61.5 -9.5
c-19.333 0 -39.166 2.83301 -59.499 8.5s-40.166 11.834 -59.499 18.501l-53.5 18.5c-16.333 5.66699 -31.166 8.5 -44.499 8.5c-14 0 -25.667 -2.5 -35 -7.5s-17.833 -10.5 -25.5 -16.5s-15.334 -11.5 -23.001 -16.5s-16.834 -7.5 -27.501 -7.5
c-16 0 -27.167 4.33301 -33.5 13s-9.5 19 -9.5 31z" />
    <glyph glyph-name="exclamdown" unicode="&#xa1;" horiz-adv-x="278" 
d="M63 478c0 21.333 7.33301 39.333 22 54s32.667 22 54 22s39.333 -7.33301 54 -22s22 -32.667 22 -54s-7.33301 -39.333 -22 -54s-32.667 -22 -54 -22s-39.333 7.33301 -54 22s-22 32.667 -22 54zM72 32c0 8.66699 0.331055 18.667 0.998047 30s1.66699 24.666 3 39.999
l19 212c1.33301 18 4.83301 31.333 10.5 40s16.834 13 33.501 13s27.834 -4.33301 33.501 -13s9.16699 -22 10.5 -40l19 -212c1.33301 -15.333 2.33301 -28.666 3 -39.999s1 -21.333 1 -30v-154c0 -21.333 -5.33301 -38.333 -16 -51s-27.667 -19 -51 -19
s-40.333 6.33301 -51 19s-16 29.667 -16 51v154z" />
    <glyph glyph-name="cent" unicode="&#xa2;" horiz-adv-x="480" 
d="M183 199v-21.001c0 -6 0.333008 -11.667 1 -17h2l75 296c-0.666992 0.666992 -2.66699 1 -6 1c-15.333 0 -27.833 -2 -37.5 -6s-17 -12 -22 -24s-8.33301 -29.167 -10 -51.5s-2.5 -52.166 -2.5 -89.499v-88zM61 319.999c0 32.667 1.66797 63.1641 5.00098 91.4971
s11.333 53 24 74s31.167 37.667 55.5 50s57.5 18.5 99.5 18.5h19c6.66699 0 13.667 -0.666992 21 -2l11 44c6.66699 24.667 17 37 31 37c4 0 7.83301 -1.66699 11.5 -5s5.5 -7 5.5 -11c0 -6.66699 -1.33301 -14.334 -4 -23.001l-13 -50
c28.667 -7.33301 52 -22.166 70 -44.499s27 -56.166 27 -101.499c0 -15.333 -4 -29.166 -12 -41.499s-21.667 -18.5 -41 -18.5c-21.333 0 -35.5 4.83301 -42.5 14.5s-12.167 27.5 -15.5 53.5c-2 15.333 -6 26.666 -12 33.999l-88 -348c8 -6 20 -9 36 -9
c22 0 37.667 5.66699 47 17s14.333 27.333 15 48c0.666992 30 6 50.833 16 62.5s24 17.5 42 17.5c21.333 0 36 -6.5 44 -19.5s12 -29.833 12 -50.5c0 -35.333 -4.66699 -64.166 -14 -86.499s-22.333 -39.666 -39 -51.999s-36.334 -20.833 -59.001 -25.5s-47 -7 -73 -7
c-9.33301 0 -18.333 0.333008 -27 1s-17 1.66699 -25 3l-19 -73c-4.66699 -18.667 -13.667 -28 -27 -28c-12 0 -18 6.66699 -18 20c0 8 1.33301 17 4 27l17 69c-18.667 8 -33.5 19.167 -44.5 33.5s-19.5 30.833 -25.5 49.5s-9.83301 39.167 -11.5 61.5
s-2.5 45.833 -2.5 70.5v99z" />
    <glyph glyph-name="sterling" unicode="&#xa3;" horiz-adv-x="480" 
d="M328 386c17.333 0 29.501 -4.83008 36.501 -14.4971s10.5 -19.167 10.5 -28.5s-3.5 -18.833 -10.5 -28.5s-19.167 -14.5 -36.5 -14.5h-81c5.33301 -14.667 8 -28.667 8 -42c0 -22.667 -7.66699 -48.334 -23 -77.001s-39 -56.334 -71 -83.001l2 -2
c11.333 4 23.333 7.5 36 10.5s26.667 4.5 42 4.5c13.333 0 24.833 -1 34.5 -3s18.5 -4 26.5 -6l23.5 -6c7.66699 -2 16.5 -3 26.5 -3c8 0 14.833 0.666992 20.5 2s11 2.83301 16 4.5s10.167 3.16699 15.5 4.5s11.666 2 18.999 2c12 0 22.833 -3.83301 32.5 -11.5
s14.5 -19.834 14.5 -36.501c0 -12 -3.33301 -22.5 -10 -31.5s-15.667 -16.5 -27 -22.5s-24.166 -10.333 -38.499 -13s-29.166 -4 -44.499 -4s-30.5 1.5 -45.5 4.5s-29.667 6.16699 -44 9.5l-42.5 9.5c-14 3 -27.333 4.5 -40 4.5c-8.66699 0 -17.5 -1 -26.5 -3
s-18.167 -4.66699 -27.5 -8c-18.667 -6.66699 -34.667 -10 -48 -10s-23.5 5.66699 -30.5 17s-10.5 24 -10.5 38c0 10.667 5.16699 21.334 15.5 32.001l33.5 35.5c12 13 23.167 28.167 33.5 45.5s15.5 38.333 15.5 63c0 14.667 -0.833008 28.334 -2.5 41.001
s-4.16699 24 -7.5 34h-54c-17.333 0 -29.5 4.83301 -36.5 14.5s-10.5 19.167 -10.5 28.5s3.5 18.833 10.5 28.5s19.167 14.5 36.5 14.5h16c-8.66699 19.333 -16.667 39.666 -24 60.999s-11 46.666 -11 75.999c0 30 5.33301 57.167 16 81.5s25.5 45 44.5 62
s41.5 30.167 67.5 39.5s54 14 84 14c32.667 0 61.167 -4.66699 85.5 -14s44.5 -22 60.5 -38s28 -34.167 36 -54.5s12 -41.5 12 -63.5c0 -20.667 -5.66699 -36.667 -17 -48s-27.666 -17 -48.999 -17c-20.667 0 -35.334 5.33301 -44.001 16s-14.667 26.667 -18 48
c-6.66699 46.667 -30.334 70 -71.001 70c-14 0 -26 -2.66699 -36 -8s-18.167 -12.5 -24.5 -21.5s-11 -19.333 -14 -31s-4.5 -23.5 -4.5 -35.5c0 -28 4.16699 -53 12.5 -75s17.166 -42.667 26.499 -62h111z" />
    <glyph glyph-name="currency" unicode="&#xa4;" horiz-adv-x="480" 
d="M122 353c0 -40.667 10.5 -71.834 31.5 -93.501s49.833 -32.5 86.5 -32.5s65.5 10.833 86.5 32.5s31.5 52.834 31.5 93.501s-10.5 71.834 -31.5 93.501s-49.833 32.5 -86.5 32.5s-65.5 -10.833 -86.5 -32.5s-31.5 -52.834 -31.5 -93.501zM39 220
c-12 18.667 -21.499 39 -28.499 61s-10.5 46 -10.5 72s3.5 50 10.5 72s16.5 42.333 28.5 61l-23 20c-5.33301 5.33301 -9 10.833 -11 16.5s-3 10.834 -3 15.501c0 13.333 4.83301 24.833 14.5 34.5s20.834 14.5 33.501 14.5c7.33301 0 14.333 -1.16699 21 -3.5
s12.667 -6.5 18 -12.5l18 -18c38 26.667 82.333 40 133 40c51.333 0 95.333 -13.333 132 -40l18 18c6 6 12.167 10.167 18.5 12.5s13.166 3.5 20.499 3.5c12.667 0 23.834 -4.83301 33.501 -14.5s14.5 -21.167 14.5 -34.5c0 -4.66699 -1 -9.83398 -3 -15.501
s-5.66699 -11.167 -11 -16.5l-23 -20c12 -18.667 21.667 -39 29 -61s11 -46 11 -72s-3.66699 -50 -11 -72s-17 -42.333 -29 -61l23 -20c5.33301 -5.33301 9 -10.833 11 -16.5s3 -10.834 3 -15.501c0 -13.333 -4.83301 -24.833 -14.5 -34.5s-20.834 -14.5 -33.501 -14.5
c-14.667 0 -27.667 5.33301 -39 16l-18 18c-36.667 -26.667 -80.667 -40 -132 -40c-50.667 0 -95 13.333 -133 40l-18 -18c-10.667 -10.667 -23.667 -16 -39 -16c-12.667 0 -23.834 4.83301 -33.501 14.5s-14.5 21.167 -14.5 34.5c0 4.66699 1 9.83398 3 15.501
s5.66699 11.167 11 16.5z" />
    <glyph glyph-name="yen" unicode="&#xa5;" horiz-adv-x="480" 
d="M176 280h-81c-16.667 0 -29 3.66699 -37 11s-12 17.333 -12 30c0 12 4 21.667 12 29s20.333 11 37 11h53l-119 266c-3.33301 6.66699 -5.83301 13.167 -7.5 19.5s-2.5 13.166 -2.5 20.499c0 13.333 5.5 25.5 16.5 36.5s26.833 16.5 47.5 16.5
c14.667 0 26.5 -3.16699 35.5 -9.5s17.833 -20.833 26.5 -43.5l95 -257l95 257c8.66699 22.667 17.5 37.167 26.5 43.5s20.833 9.5 35.5 9.5c20.667 0 36.5 -5.5 47.5 -16.5s16.5 -23.167 16.5 -36.5c0 -7.33301 -0.833008 -14.166 -2.5 -20.499
s-4.16699 -12.833 -7.5 -19.5l-119 -266h65c16.667 0 29 -3.66699 37 -11s12 -17 12 -29c0 -12.667 -4 -22.667 -12 -30s-20.333 -11 -37 -11h-93v-64h93c16.667 0 29 -3.66699 37 -11s12 -17 12 -29c0 -12.667 -4 -22.667 -12 -30s-20.333 -11 -37 -11h-93v-80
c0 -20.667 -6.5 -37.167 -19.5 -49.5s-27.833 -18.5 -44.5 -18.5s-31.5 6.16699 -44.5 18.5s-19.5 28.833 -19.5 49.5v80h-81c-16.667 0 -29 3.66699 -37 11s-12 17.333 -12 30c0 12 4 21.667 12 29s20.333 11 37 11h81v64z" />
    <glyph glyph-name="brokenbar" unicode="&#xa6;" horiz-adv-x="222" 
d="M54 664c0 25.333 5.33301 43.833 16 55.5s24.334 17.5 41.001 17.5s30.334 -5.83301 41.001 -17.5s16 -30.167 16 -55.5v-167c0 -25.333 -5.33301 -43.833 -16 -55.5s-24.334 -17.5 -41.001 -17.5s-30.334 5.83301 -41.001 17.5s-16 30.167 -16 55.5v167zM54 223
c0 25.333 5.33301 43.833 16 55.5s24.334 17.5 41.001 17.5s30.334 -5.83301 41.001 -17.5s16 -30.167 16 -55.5v-167c0 -25.333 -5.33301 -43.833 -16 -55.5s-24.334 -17.5 -41.001 -17.5s-30.334 5.83301 -41.001 17.5s-16 30.167 -16 55.5v167z" />
    <glyph glyph-name="section" unicode="&#xa7;" horiz-adv-x="481" 
d="M297 179c13.333 8.66699 22.667 18.166 28 28.499s8 19.5 8 27.5c0 14 -4.5 27.167 -13.5 39.5s-25.167 27.5 -48.5 45.5l-87 69c-12 -7.33301 -21 -16.166 -27 -26.499s-9 -21.5 -9 -33.5s3.5 -23.167 10.5 -33.5s18.5 -21.833 34.5 -34.5zM128.001 147.999
c-33.333 25.333 -57.333 51.167 -72 77.5s-22 54.5 -22 84.5c0 31.333 6.5 59.833 19.5 85.5s32.167 46.834 57.5 63.501c-15.333 16 -26.5 34 -33.5 54s-10.5 39 -10.5 57c0 18.667 3 37.834 9 57.501s15.833 37.667 29.5 54s31.834 29.666 54.501 39.999
s50.667 15.5 84 15.5c30.667 0 57 -3.83301 79 -11.5s40 -17.834 54 -30.501s24.333 -26.667 31 -42s10 -30.333 10 -45c0 -17.333 -6 -31.166 -18 -41.499s-27 -15.5 -45 -15.5c-13.333 0 -24.5 3.33301 -33.5 10s-16.5 19 -22.5 37
c-5.33301 17.333 -12.333 28.833 -21 34.5s-18.667 8.5 -30 8.5c-12 0 -21.833 -2 -29.5 -6s-13.667 -9 -18 -15s-7.33301 -12.5 -9 -19.5s-2.5 -13.167 -2.5 -18.5c0 -14 4.5 -27.5 13.5 -40.5s24.5 -27.833 46.5 -44.5l89 -68c20 -15.333 36.833 -29.833 50.5 -43.5
s24.834 -27.334 33.501 -41.001s15 -27.667 19 -42s6 -29.833 6 -46.5c0 -30 -7.16699 -57.167 -21.5 -81.5s-33.5 -44.5 -57.5 -60.5l12 -14c14 -16.667 24 -32.834 30 -48.501s9 -34.167 9 -55.5c0 -29.333 -4.83301 -55.166 -14.5 -77.499s-23 -40.833 -40 -55.5
s-36.833 -25.667 -59.5 -33s-47.334 -11 -74.001 -11c-33.333 0 -61.333 4.83301 -84 14.5s-41 21.5 -55 35.5s-24.167 29 -30.5 45s-9.5 30.667 -9.5 44c0 19.333 5.5 34.166 16.5 44.499s26.167 15.5 45.5 15.5c14 0 25.667 -3.33301 35 -10s16.333 -19.667 21 -39
c4.66699 -18.667 12.167 -32.334 22.5 -41.001s25.166 -13 44.499 -13c20 0 35 6 45 18s15 26.667 15 44c0 16.667 -5.33301 32.334 -16 47.001s-28.667 31.334 -54 50.001z" />
    <glyph glyph-name="dieresis" unicode="&#xa8;" 
d="M146 666c0 18.667 6.5 34.5 19.5 47.5s28.833 19.5 47.5 19.5s34.5 -6.5 47.5 -19.5s19.5 -28.833 19.5 -47.5s-6.5 -34.5 -19.5 -47.5s-28.833 -19.5 -47.5 -19.5s-34.5 6.5 -47.5 19.5s-19.5 28.833 -19.5 47.5zM-40 666c0 18.667 6.5 34.5 19.5 47.5
s28.833 19.5 47.5 19.5s34.5 -6.5 47.5 -19.5s19.5 -28.833 19.5 -47.5s-6.5 -34.5 -19.5 -47.5s-28.833 -19.5 -47.5 -19.5s-34.5 6.5 -47.5 19.5s-19.5 28.833 -19.5 47.5z" />
    <glyph glyph-name="copyright" unicode="&#xa9;" horiz-adv-x="800" 
d="M216 363c0 31.333 4.66699 60.3301 14 86.9971s22.5 49.667 39.5 69s37.667 34.5 62 45.5s51.833 16.5 82.5 16.5c26 0 49.333 -3.83301 70 -11.5s38 -17.5 52 -29.5s24.833 -25.167 32.5 -39.5s11.5 -28.166 11.5 -41.499s-3.5 -24.833 -10.5 -34.5
s-17.5 -14.5 -31.5 -14.5c-13.333 0 -24 3.5 -32 10.5s-15 17.833 -21 32.5c-9.33301 24.667 -33.333 37 -72 37c-28 0 -50.167 -11 -66.5 -33s-24.5 -52.667 -24.5 -92c0 -38 8.16699 -68.833 24.5 -92.5s39.166 -35.5 68.499 -35.5c15.333 0 29.666 3.83301 42.999 11.5
s22.666 16.834 27.999 27.501c8.66699 16.667 17.334 28.334 26.001 35.001s18.667 10 30 10c12.667 0 22.834 -4 30.501 -12s11.5 -18.667 11.5 -32c0 -10 -3.66699 -22.333 -11 -37s-18.166 -29 -32.499 -43s-32 -26 -53 -36s-44.833 -15 -71.5 -15
c-30 0 -57.333 5.5 -82 16.5s-45.667 26.333 -63 46s-30.833 42.667 -40.5 69s-14.5 54.833 -14.5 85.5zM137 359.997c0 -40 6.5 -76.667 19.5 -110s31.167 -62 54.5 -86s51.166 -42.5 83.499 -55.5s67.5 -19.5 105.5 -19.5s73.167 6.5 105.5 19.5s60.166 31.5 83.499 55.5
s41.5 52.667 54.5 86s19.5 70 19.5 110s-6.5 76.667 -19.5 110s-31.167 62 -54.5 86s-51.166 42.5 -83.499 55.5s-67.5 19.5 -105.5 19.5s-73.167 -6.5 -105.5 -19.5s-60.166 -31.5 -83.499 -55.5s-41.5 -52.667 -54.5 -86s-19.5 -70 -19.5 -110zM23 359.997
c0 52 9.83301 100.833 29.5 146.5s46.667 85.667 81 120s74.333 61.333 120 81s94.5 29.5 146.5 29.5s100.833 -9.83301 146.5 -29.5s85.667 -46.667 120 -81s61.333 -74.333 81 -120s29.5 -94.5 29.5 -146.5s-9.83301 -100.833 -29.5 -146.5s-46.667 -85.667 -81 -120
s-74.333 -61.333 -120 -81s-94.5 -29.5 -146.5 -29.5s-100.833 9.83301 -146.5 29.5s-85.667 46.667 -120 81s-61.333 74.333 -81 120s-29.5 94.5 -29.5 146.5z" />
    <glyph glyph-name="ordfeminine" unicode="&#xaa;" horiz-adv-x="289" 
d="M177 555l-27 -15.999c-18 -10.667 -29.5 -19.834 -34.5 -27.501s-7.5 -18.167 -7.5 -31.5c0 -24 9.33301 -36 28 -36c13.333 0 23.5 5.5 30.5 16.5s10.5 24.5 10.5 40.5v54zM273 458.001c0 -10.667 0.665039 -20.166 1.99805 -28.499s2 -15.166 2 -20.499
c0 -19.333 -13 -29 -39 -29c-19.333 0 -33.833 3 -43.5 9s-14.167 16.667 -13.5 32h-2c-7.33301 -14.667 -18.166 -25.167 -32.499 -31.5s-31.833 -9.5 -52.5 -9.5c-23.333 0 -42.833 6.83301 -58.5 20.5s-23.5 35.834 -23.5 66.501c0 24.667 4 45 12 61
s22.667 28.333 44 37l84 34c9.33301 4 15.833 8.66699 19.5 14s5.5 11.666 5.5 18.999s-2.5 14.166 -7.5 20.499s-12.5 9.5 -22.5 9.5c-13.333 0 -22.833 -3.16699 -28.5 -9.5s-9.16699 -16.166 -10.5 -29.499c-1.33301 -7.33301 -6 -13 -14 -17s-21.667 -6 -41 -6
c-8.66699 0 -17.667 2.16699 -27 6.5s-14 12.166 -14 23.499c0 30 11.333 52.5 34 67.5s53.334 22.5 92.001 22.5c30.667 0 55 -2.5 73 -7.5s31.5 -11.833 40.5 -20.5s14.833 -18.834 17.5 -30.501s4 -24.167 4 -37.5v-166z" />
    <glyph glyph-name="guillemotleft" unicode="&#xab;" horiz-adv-x="426" 
d="M189 219c8 -7.33301 14.5 -13.8311 19.5 -19.498s7.5 -11.834 7.5 -18.501c0 -14.667 -4.5 -25.667 -13.5 -33s-19.167 -11 -30.5 -11s-21.666 4.66699 -30.999 14l-72 65c-14.667 13.333 -24.334 24.833 -29.001 34.5s-7 20.5 -7 32.5s2.33301 22.833 7 32.5
s14.334 21.167 29.001 34.5l72 65c9.33301 9.33301 19.666 14 30.999 14s21.5 -3.66699 30.5 -11s13.5 -18.333 13.5 -33c0 -6.66699 -2.5 -12.834 -7.5 -18.501s-11.5 -12.167 -19.5 -19.5l-73 -64zM366 219.002c8 -7.33301 14.5 -13.8311 19.5 -19.498
s7.5 -11.834 7.5 -18.501c0 -14.667 -4.5 -25.667 -13.5 -33s-19.167 -11 -30.5 -11s-21.666 4.66699 -30.999 14l-72 65c-14.667 13.333 -24.334 24.833 -29.001 34.5s-7 20.5 -7 32.5s2.33301 22.833 7 32.5s14.334 21.167 29.001 34.5l72 65
c9.33301 9.33301 19.666 14 30.999 14s21.5 -3.66699 30.5 -11s13.5 -18.333 13.5 -33c0 -6.66699 -2.5 -12.834 -7.5 -18.501s-11.5 -12.167 -19.5 -19.5l-73 -64z" />
    <glyph glyph-name="logicalnot" unicode="&#xac;" horiz-adv-x="600" 
d="M583 182c0 -21.333 -5.16699 -38.332 -15.5 -50.999s-22.833 -19 -37.5 -19s-27.167 6.33301 -37.5 19s-15.5 29.667 -15.5 51v166h-390c-21.333 0 -38.333 5.16699 -51 15.5s-19 22.833 -19 37.5s6.33301 27.167 19 37.5s29.667 15.5 51 15.5h426
c21.333 0 38.333 -5.33301 51 -16s19 -24.334 19 -41.001v-215z" />
    <glyph glyph-name="registered" unicode="&#xae;" horiz-adv-x="800" 
d="M342 402h73c14.667 0 27.167 2.83301 37.5 8.5s15.5 18.5 15.5 38.5s-5.16699 33 -15.5 39s-22.833 9 -37.5 9h-73v-95zM251 522c0 15.333 4.66602 26.6689 13.999 34.002s20 11 32 11h126c22.667 0 43 -1.83301 61 -5.5s33.333 -10.167 46 -19.5
s22.334 -21.833 29.001 -37.5s10 -35.167 10 -58.5c0 -18.667 -2.66699 -34.834 -8 -48.501s-12 -25.334 -20 -35.001s-17 -17 -27 -22s-19.333 -7.83301 -28 -8.5l69 -95c2 -2.66699 3.83301 -6.33398 5.5 -11.001s2.5 -9.66699 2.5 -15
c0 -11.333 -3.83301 -21.166 -11.5 -29.499s-19.5 -12.5 -35.5 -12.5c-11.333 0 -20.333 2.5 -27 7.5s-14.667 13.833 -24 26.5l-93 129h-30v-117c0 -15.333 -4.5 -26.833 -13.5 -34.5s-19.5 -11.5 -31.5 -11.5s-22.667 3.83301 -32 11.5s-14 19.167 -14 34.5v307z
M136.999 360.003c0 -40 6.5 -76.667 19.5 -110s31.167 -62 54.5 -86s51.166 -42.5 83.499 -55.5s67.5 -19.5 105.5 -19.5s73.167 6.5 105.5 19.5s60.166 31.5 83.499 55.5s41.5 52.667 54.5 86s19.5 70 19.5 110s-6.5 76.667 -19.5 110s-31.167 62 -54.5 86
s-51.166 42.5 -83.499 55.5s-67.5 19.5 -105.5 19.5s-73.167 -6.5 -105.5 -19.5s-60.166 -31.5 -83.499 -55.5s-41.5 -52.667 -54.5 -86s-19.5 -70 -19.5 -110zM22.999 360.003c0 52 9.83301 100.833 29.5 146.5s46.667 85.667 81 120s74.333 61.333 120 81
s94.5 29.5 146.5 29.5s100.833 -9.83301 146.5 -29.5s85.667 -46.667 120 -81s61.333 -74.333 81 -120s29.5 -94.5 29.5 -146.5s-9.83301 -100.833 -29.5 -146.5s-46.667 -85.667 -81 -120s-74.333 -61.333 -120 -81s-94.5 -29.5 -146.5 -29.5s-100.833 9.83301 -146.5 29.5
s-85.667 46.667 -120 81s-61.333 74.333 -81 120s-29.5 94.5 -29.5 146.5z" />
    <glyph glyph-name="macron" unicode="&#xaf;" 
d="M239 707c32.667 0 49 -14.333 49 -43s-16.333 -43 -49 -43h-238c-32.667 0 -49 14.333 -49 43s16.333 43 49 43h238z" />
    <glyph glyph-name="macron" unicode="&#x2c9;" 
d="M239 707c32.667 0 49 -14.333 49 -43s-16.333 -43 -49 -43h-238c-32.667 0 -49 14.333 -49 43s16.333 43 49 43h238z" />
    <glyph glyph-name="degree" unicode="&#xb0;" horiz-adv-x="400" 
d="M133 577c0 -18.667 6.5 -34.5 19.5 -47.5s28.833 -19.5 47.5 -19.5s34.5 6.5 47.5 19.5s19.5 28.833 19.5 47.5s-6.5 34.5 -19.5 47.5s-28.833 19.5 -47.5 19.5s-34.5 -6.5 -47.5 -19.5s-19.5 -28.833 -19.5 -47.5zM57 577c0 20 3.66699 38.667 11 56
s17.5 32.5 30.5 45.5s28.167 23.167 45.5 30.5s36 11 56 11s38.667 -3.66699 56 -11s32.5 -17.5 45.5 -30.5s23.167 -28.167 30.5 -45.5s11 -36 11 -56s-3.66699 -38.667 -11 -56s-17.5 -32.5 -30.5 -45.5s-28.167 -23.167 -45.5 -30.5s-36 -11 -56 -11
s-38.667 3.66699 -56 11s-32.5 17.5 -45.5 30.5s-23.167 28.167 -30.5 45.5s-11 36 -11 56z" />
    <glyph glyph-name="plusminus" unicode="&#xb1;" horiz-adv-x="600" 
d="M513 106c21.333 0 38.333 -5.16699 51 -15.5s19 -22.833 19 -37.5s-6.33301 -27.167 -19 -37.5s-29.667 -15.5 -51 -15.5h-426c-21.333 0 -38.333 5.16699 -51 15.5s-19 22.833 -19 37.5s6.33301 27.167 19 37.5s29.667 15.5 51 15.5h426zM247 496
c0 20.667 5 37.5 15 50.5s22.667 19.5 38 19.5s28 -6.5 38 -19.5s15 -29.833 15 -50.5v-79h160c21.333 0 38.333 -5.16699 51 -15.5s19 -22.833 19 -37.5s-6.33301 -27.167 -19 -37.5s-29.667 -15.5 -51 -15.5h-160v-79c0 -20.667 -5 -37.5 -15 -50.5
s-22.667 -19.5 -38 -19.5s-28 6.5 -38 19.5s-15 29.833 -15 50.5v79h-160c-21.333 0 -38.333 5.16699 -51 15.5s-19 22.833 -19 37.5s6.33301 27.167 19 37.5s29.667 15.5 51 15.5h160v79z" />
    <glyph glyph-name="twosuperior" unicode="&#xb2;" horiz-adv-x="312" 
d="M55 287c-26 0 -39.0029 11.334 -39.0029 34.001c0 8 1.33301 17.5 4 28.5s7.16699 23.5 13.5 37.5s15.166 28.833 26.499 44.5s26 31.834 44 48.501l30 28c22.667 20.667 37.834 37.667 45.501 51s11.5 27 11.5 41s-3.5 25.833 -10.5 35.5s-16.167 14.5 -27.5 14.5
c-13.333 0 -23 -5.33301 -29 -16s-9.66699 -25 -11 -43c-1.33301 -12 -6 -20.667 -14 -26s-18.667 -8 -32 -8c-19.333 0 -31.666 5 -36.999 15s-8 21 -8 33c0 35.333 11 63.333 33 84s54 31 96 31c46.667 0 81.834 -9.33301 105.501 -28s35.5 -45.334 35.5 -80.001
c0 -20 -4.66699 -40 -14 -60s-23.666 -39 -42.999 -57l-54 -49c-18 -16.667 -31.5 -31.334 -40.5 -44.001s-15.5 -25.667 -19.5 -39h128c14.667 0 26.167 -2.5 34.5 -7.5s12.5 -15.167 12.5 -30.5s-4.16699 -25.5 -12.5 -30.5s-19.833 -7.5 -34.5 -7.5h-194z" />
    <glyph glyph-name="threesuperior" unicode="&#xb3;" horiz-adv-x="316" 
d="M154 280c-30.667 0 -55.335 4 -74.002 12s-33 17.833 -43 29.5s-16.667 23.667 -20 36s-5 23.166 -5 32.499c0 14.667 3.5 26.334 10.5 35.001s18.833 13 35.5 13c31.333 0 48 -14 50 -42c1.33301 -15.333 5.5 -27.833 12.5 -37.5s18.833 -14.5 35.5 -14.5
c18 0 30.333 6.83301 37 20.5s10 29.5 10 47.5c0 29.333 -4.66699 48.333 -14 57s-22.666 13.667 -39.999 15s-29.166 4.33301 -35.499 9s-9.5 12 -9.5 22c0 10.667 2.5 18 7.5 22s16.167 7.66699 33.5 11c18 3.33301 30.5 9.16602 37.5 17.499s10.5 23.166 10.5 44.499
c0 11.333 -2.83301 21.833 -8.5 31.5s-16.167 14.5 -31.5 14.5c-23.333 0 -37.333 -12.333 -42 -37c-2 -11.333 -6.66699 -19.666 -14 -24.999s-18.666 -8 -33.999 -8s-26.333 3.33301 -33 10s-10 15.334 -10 26.001c0 27.333 10 50.5 30 69.5s53.667 28.5 101 28.5
c26.667 0 49.167 -2.83301 67.5 -8.5s33 -13.5 44 -23.5s19 -21.667 24 -35s7.5 -28 7.5 -44c0 -21.333 -4.5 -40 -13.5 -56s-23.167 -26.667 -42.5 -32v-2c25.333 -8 42.666 -20.667 51.999 -38s14 -40 14 -68c0 -42 -11.5 -74.667 -34.5 -98s-61.5 -35 -115.5 -35z" />
    <glyph glyph-name="acute" unicode="&#xb4;" 
d="M150 751c7.33301 7.33301 13.666 11.833 18.999 13.5s12 2.5 20 2.5c10.667 0 20.667 -3.83301 30 -11.5s14 -18.167 14 -31.5c0 -9.33301 -2.5 -17.833 -7.5 -25.5s-10.833 -14.5 -17.5 -20.5l-79 -73c-5.33301 -5.33301 -10.833 -9.33301 -16.5 -12
s-12.167 -4 -19.5 -4c-13.333 0 -23.666 4.16699 -30.999 12.5s-11 18.833 -11 31.5c0 12 5 23 15 33z" />
    <glyph glyph-name="mu" unicode="&#xb5;" horiz-adv-x="463" 
d="M54 481c0 25.333 5.49805 43.834 16.498 55.501s25.833 17.5 44.5 17.5s33.5 -5.83301 44.5 -17.5s16.5 -30.167 16.5 -55.5v-331c0 -20 4 -34.5 12 -43.5s19.667 -13.5 35 -13.5c21.333 0 37.333 7.66699 48 23s16 40 16 74v291c0 25.333 5.5 43.833 16.5 55.5
s25.833 17.5 44.5 17.5s33.5 -5.83301 44.5 -17.5s16.5 -30.167 16.5 -55.5v-421c0 -25.333 -5.5 -43.833 -16.5 -55.5s-25.833 -17.5 -44.5 -17.5s-33.5 5.83301 -44.5 17.5s-16.5 29.167 -16.5 52.5h-2c-3.33301 -8 -8.16602 -16.167 -14.499 -24.5
s-13.5 -15.833 -21.5 -22.5c-8.66699 -7.33301 -17.667 -13 -27 -17s-18.666 -6 -27.999 -6c-3.33301 0 -6.5 0.666992 -9.5 2s-5.16699 3.66602 -6.5 6.99902h-2v-130c0 -25.333 -5.5 -43.833 -16.5 -55.5s-25.833 -17.5 -44.5 -17.5s-33.5 5.83301 -44.5 17.5
s-16.5 30.167 -16.5 55.5v615z" />
    <glyph glyph-name="mu" unicode="&#x3bc;" horiz-adv-x="463" 
d="M54 481c0 25.333 5.49805 43.834 16.498 55.501s25.833 17.5 44.5 17.5s33.5 -5.83301 44.5 -17.5s16.5 -30.167 16.5 -55.5v-331c0 -20 4 -34.5 12 -43.5s19.667 -13.5 35 -13.5c21.333 0 37.333 7.66699 48 23s16 40 16 74v291c0 25.333 5.5 43.833 16.5 55.5
s25.833 17.5 44.5 17.5s33.5 -5.83301 44.5 -17.5s16.5 -30.167 16.5 -55.5v-421c0 -25.333 -5.5 -43.833 -16.5 -55.5s-25.833 -17.5 -44.5 -17.5s-33.5 5.83301 -44.5 17.5s-16.5 29.167 -16.5 52.5h-2c-3.33301 -8 -8.16602 -16.167 -14.499 -24.5
s-13.5 -15.833 -21.5 -22.5c-8.66699 -7.33301 -17.667 -13 -27 -17s-18.666 -6 -27.999 -6c-3.33301 0 -6.5 0.666992 -9.5 2s-5.16699 3.66602 -6.5 6.99902h-2v-130c0 -25.333 -5.5 -43.833 -16.5 -55.5s-25.833 -17.5 -44.5 -17.5s-33.5 5.83301 -44.5 17.5
s-16.5 30.167 -16.5 55.5v615z" />
    <glyph glyph-name="paragraph" unicode="&#xb6;" horiz-adv-x="481" 
d="M162 371c-19.333 0 -37.499 3.83203 -54.499 11.499s-32 18.834 -45 33.501s-23.333 32.667 -31 54s-11.5 45.333 -11.5 72c0 36 5 65.5 15 88.5s22.667 41.167 38 54.5s32.666 22.5 51.999 27.5s38 7.5 56 7.5h211c15.333 0 27.333 -5.5 36 -16.5s13 -25.5 13 -43.5
v-764c0 -18 -4.5 -32.5 -13.5 -43.5s-21.167 -16.5 -36.5 -16.5c-16 0 -28.5 5.5 -37.5 16.5s-13.5 25.5 -13.5 43.5v733h-77v-733c0 -18 -4.5 -32.5 -13.5 -43.5s-21.5 -16.5 -37.5 -16.5c-15.333 0 -27.5 5.5 -36.5 16.5s-13.5 25.5 -13.5 43.5v475z" />
    <glyph glyph-name="periodcentered" unicode="&#xb7;" 
d="M44 305c0 21.333 7.33301 39.333 22 54s32.667 22 54 22s39.333 -7.33301 54 -22s22 -32.667 22 -54s-7.33301 -39.333 -22 -54s-32.667 -22 -54 -22s-39.333 7.33301 -54 22s-22 32.667 -22 54z" />
    <glyph glyph-name="periodcentered" unicode="&#x2219;" 
d="M44 305c0 21.333 7.33301 39.333 22 54s32.667 22 54 22s39.333 -7.33301 54 -22s22 -32.667 22 -54s-7.33301 -39.333 -22 -54s-32.667 -22 -54 -22s-39.333 7.33301 -54 22s-22 32.667 -22 54z" />
    <glyph glyph-name="cedilla" unicode="&#xb8;" 
d="M115 -56l12.999 -0.000976562c25.333 0 46.166 -5.33301 62.499 -16s24.5 -28.667 24.5 -54c0 -28 -11.5 -50 -34.5 -66s-50.833 -24 -83.5 -24c-21.333 0 -39.666 3.5 -54.999 10.5s-23 16.167 -23 27.5c0 7.33301 2 13.333 6 18s8.66699 7 14 7
c9.33301 0 18.333 -1.83301 27 -5.5s16.667 -5.5 24 -5.5c11.333 0 21.5 2.83301 30.5 8.5s13.5 14.834 13.5 27.501c0 9.33301 -3.33301 17 -10 23s-14.667 9 -24 9c-5.33301 0 -10.666 -0.5 -15.999 -1.5s-10.333 -1.5 -15 -1.5c-5.33301 0 -9.83301 1.66699 -13.5 5
s-5.5 7 -5.5 11s3.66699 11.667 11 23l38 60h52z" />
    <glyph glyph-name="onesuperior" unicode="&#xb9;" 
d="M42 580c-10.667 0 -19.499 2 -26.499 6s-10.5 11.333 -10.5 22c0 18 9 28.333 27 31c25.333 3.33301 44.333 9 57 17s22.667 19 30 33c4 6.66699 7.5 12.167 10.5 16.5s6.16699 7.5 9.5 9.5s7.16602 3.33301 11.499 4s10.166 1 17.499 1c10.667 0 19.167 -2.5 25.5 -7.5
s9.5 -13.5 9.5 -25.5v-365c0 -13.333 -4.66699 -23.666 -14 -30.999s-21.666 -11 -36.999 -11c-14.667 0 -26.667 3.66699 -36 11s-14 17.666 -14 30.999v258h-60z" />
    <glyph glyph-name="ordmasculine" unicode="&#xba;" horiz-adv-x="289" 
d="M181 581c0 30 -2.66699 50 -8 60s-15 15 -29 15s-23.5 -5 -28.5 -15s-7.5 -30 -7.5 -60v-63c0 -30 2.5 -49.833 7.5 -59.5s14.5 -14.5 28.5 -14.5s23.667 4.83301 29 14.5s8 29.5 8 59.5v63zM277 506c0 -17.333 -1.83301 -33.666 -5.5 -48.999
s-10.5 -28.666 -20.5 -39.999s-23.667 -20.333 -41 -27s-39.333 -10 -66 -10c-27.333 0 -49.5 3.33301 -66.5 10s-30.333 15.667 -40 27s-16.334 24.666 -20.001 39.999s-5.5 31.666 -5.5 48.999v88c0 17.333 1.83301 33.666 5.5 48.999s10.334 28.666 20.001 39.999
s23 20.333 40 27s39.167 10 66.5 10c26.667 0 48.667 -3.33301 66 -10s31 -15.667 41 -27s16.833 -24.666 20.5 -39.999s5.5 -31.666 5.5 -48.999v-88z" />
    <glyph glyph-name="guillemotright" unicode="&#xbb;" horiz-adv-x="426" 
d="M237 347c-8 7.33301 -14.5 13.8311 -19.5 19.498s-7.5 11.834 -7.5 18.501c0 14.667 4.5 25.667 13.5 33s19.167 11 30.5 11s21.666 -4.66699 30.999 -14l72 -65c14.667 -13.333 24.334 -24.833 29.001 -34.5s7 -20.5 7 -32.5s-2.33301 -22.833 -7 -32.5
s-14.334 -21.167 -29.001 -34.5l-72 -65c-9.33301 -9.33301 -19.666 -14 -30.999 -14s-21.5 3.66699 -30.5 11s-13.5 18.333 -13.5 33c0 6.66699 2.5 12.834 7.5 18.501s11.5 12.167 19.5 19.5l73 64zM60 346.998c-8 7.33301 -14.5 13.8311 -19.5 19.498
s-7.5 11.834 -7.5 18.501c0 14.667 4.5 25.667 13.5 33s19.167 11 30.5 11s21.666 -4.66699 30.999 -14l72 -65c14.667 -13.333 24.334 -24.833 29.001 -34.5s7 -20.5 7 -32.5s-2.33301 -22.833 -7 -32.5s-14.334 -21.167 -29.001 -34.5l-72 -65
c-9.33301 -9.33301 -19.666 -14 -30.999 -14s-21.5 3.66699 -30.5 11s-13.5 18.333 -13.5 33c0 6.66699 2.5 12.834 7.5 18.501s11.5 12.167 19.5 19.5l73 64z" />
    <glyph glyph-name="onequarter" unicode="&#xbc;" horiz-adv-x="740" 
d="M582 315h-2l-86 -171h88v171zM35 580c-10.667 0 -19.499 2 -26.499 6s-10.5 11.333 -10.5 22c0 18 9 28.333 27 31c25.333 3.33301 44.333 9 57 17s22.667 19 30 33c4 6.66699 7.5 12.167 10.5 16.5s6.16699 7.5 9.5 9.5s7.16602 3.33301 11.499 4s10.166 1 17.499 1
c10.667 0 19.167 -2.5 25.5 -7.5s9.5 -13.5 9.5 -25.5v-365c0 -13.333 -4.66699 -23.666 -14 -30.999s-21.666 -11 -36.999 -11c-14.667 0 -26.667 3.66699 -36 11s-14 17.666 -14 30.999v258h-60zM472.001 719c3.33301 7.33301 8.5 13.501 15.5 18.501s16.167 7.5 27.5 7.5
c12 0 20.833 -3.33301 26.5 -10s8.5 -13.667 8.5 -21c0 -10.667 -2 -20.334 -6 -29.001l-303 -697c-3.33301 -7.33301 -8.5 -13.5 -15.5 -18.5s-16.167 -7.5 -27.5 -7.5c-12 0 -20.833 3.33301 -26.5 10s-8.5 13.667 -8.5 21c0 10 2 19.667 6 29zM582.001 68.001
l-114.999 0.00195312c-17.333 0 -30.166 2.66699 -38.499 8s-12.5 15.666 -12.5 30.999c0 9.33301 1 17.5 3 24.5s5.33301 14.833 10 23.5l130 248c4 7.33301 10.167 13.166 18.5 17.499s22.166 6.5 41.499 6.5c21.333 0 35.666 -3.83301 42.999 -11.5s11 -16.5 11 -26.5
v-245h15c8 0 16 -2.5 24 -7.5s12 -15.167 12 -30.5s-4 -25.5 -12 -30.5s-16 -7.5 -24 -7.5h-15v-37c0 -29.333 -15.333 -44 -46 -44c-30 0 -45 14.667 -45 44v37z" />
    <glyph glyph-name="onehalf" unicode="&#xbd;" horiz-adv-x="740" 
d="M35 580c-10.667 0 -19.499 2 -26.499 6s-10.5 11.333 -10.5 22c0 18 9 28.333 27 31c25.333 3.33301 44.333 9 57 17s22.667 19 30 33c4 6.66699 7.5 12.167 10.5 16.5s6.16699 7.5 9.5 9.5s7.16602 3.33301 11.499 4s10.166 1 17.499 1c10.667 0 19.167 -2.5 25.5 -7.5
s9.5 -13.5 9.5 -25.5v-365c0 -13.333 -4.66699 -23.666 -14 -30.999s-21.666 -11 -36.999 -11c-14.667 0 -26.667 3.66699 -36 11s-14 17.666 -14 30.999v258h-60zM468.001 719c3.33301 7.33301 8.5 13.501 15.5 18.501s16.167 7.5 27.5 7.5c12 0 20.833 -3.33301 26.5 -10
s8.5 -13.667 8.5 -21c0 -10.667 -2 -20.334 -6 -29.001l-303 -697c-3.33301 -7.33301 -8.5 -13.5 -15.5 -18.5s-16.167 -7.5 -27.5 -7.5c-12 0 -20.833 3.33301 -26.5 10s-8.5 13.667 -8.5 21c0 10 2 19.667 6 29zM483.001 0.000976562
c-26 0 -39.0029 11.334 -39.0029 34.001c0 8 1.33301 17.5 4 28.5s7.16699 23.5 13.5 37.5s15.166 28.833 26.499 44.5s26 31.834 44 48.501l30 28c22.667 20.667 37.834 37.667 45.501 51s11.5 27 11.5 41s-3.5 25.833 -10.5 35.5s-16.167 14.5 -27.5 14.5
c-13.333 0 -23 -5.33301 -29 -16s-9.66699 -25 -11 -43c-1.33301 -12 -6 -20.667 -14 -26s-18.667 -8 -32 -8c-19.333 0 -31.666 5 -36.999 15s-8 21 -8 33c0 35.333 11 63.333 33 84s54 31 96 31c46.667 0 81.834 -9.33301 105.501 -28s35.5 -45.334 35.5 -80.001
c0 -20 -4.66699 -40 -14 -60s-23.666 -39 -42.999 -57l-54 -49c-18 -16.667 -31.5 -31.334 -40.5 -44.001s-15.5 -25.667 -19.5 -39h128c14.667 0 26.167 -2.5 34.5 -7.5s12.5 -15.167 12.5 -30.5s-4.16699 -25.5 -12.5 -30.5s-19.833 -7.5 -34.5 -7.5h-194z" />
    <glyph glyph-name="threequarters" unicode="&#xbe;" horiz-adv-x="740" 
d="M582 315h-2l-86 -171h88v171zM504 719c3.33301 7.33301 8.5 13.501 15.5 18.501s16.167 7.5 27.5 7.5c12 0 20.833 -3.33301 26.5 -10s8.5 -13.667 8.5 -21c0 -10.667 -2 -20.334 -6 -29.001l-303 -697c-3.33301 -7.33301 -8.5 -13.5 -15.5 -18.5
s-16.167 -7.5 -27.5 -7.5c-12 0 -20.833 3.33301 -26.5 10s-8.5 13.667 -8.5 21c0 10 2 19.667 6 29zM153 280.001c-30.667 0 -55.335 4 -74.002 12s-33 17.833 -43 29.5s-16.667 23.667 -20 36s-5 23.166 -5 32.499c0 14.667 3.5 26.334 10.5 35.001s18.833 13 35.5 13
c31.333 0 48 -14 50 -42c1.33301 -15.333 5.5 -27.833 12.5 -37.5s18.833 -14.5 35.5 -14.5c18 0 30.333 6.83301 37 20.5s10 29.5 10 47.5c0 29.333 -4.66699 48.333 -14 57s-22.666 13.667 -39.999 15s-29.166 4.33301 -35.499 9s-9.5 12 -9.5 22c0 10.667 2.5 18 7.5 22
s16.167 7.66699 33.5 11c18 3.33301 30.5 9.16602 37.5 17.499s10.5 23.166 10.5 44.499c0 11.333 -2.83301 21.833 -8.5 31.5s-16.167 14.5 -31.5 14.5c-23.333 0 -37.333 -12.333 -42 -37c-2 -11.333 -6.66699 -19.666 -14 -24.999s-18.666 -8 -33.999 -8
s-26.333 3.33301 -33 10s-10 15.334 -10 26.001c0 27.333 10 50.5 30 69.5s53.667 28.5 101 28.5c26.667 0 49.167 -2.83301 67.5 -8.5s33 -13.5 44 -23.5s19 -21.667 24 -35s7.5 -28 7.5 -44c0 -21.333 -4.5 -40 -13.5 -56s-23.167 -26.667 -42.5 -32v-2
c25.333 -8 42.666 -20.667 51.999 -38s14 -40 14 -68c0 -42 -11.5 -74.667 -34.5 -98s-61.5 -35 -115.5 -35zM581.999 68.001l-114.999 0.00195312c-17.333 0 -30.166 2.66699 -38.499 8s-12.5 15.666 -12.5 30.999c0 9.33301 1 17.5 3 24.5s5.33301 14.833 10 23.5l130 248
c4 7.33301 10.167 13.166 18.5 17.499s22.166 6.5 41.499 6.5c21.333 0 35.666 -3.83301 42.999 -11.5s11 -16.5 11 -26.5v-245h15c8 0 16 -2.5 24 -7.5s12 -15.167 12 -30.5s-4 -25.5 -12 -30.5s-16 -7.5 -24 -7.5h-15v-37c0 -29.333 -15.333 -44 -46 -44
c-30 0 -45 14.667 -45 44v37z" />
    <glyph glyph-name="questiondown" unicode="&#xbf;" horiz-adv-x="481" 
d="M205 478c0 21.333 7.33301 39.333 22 54s32.667 22 54 22s39.333 -7.33301 54 -22s22 -32.667 22 -54s-7.33301 -39.333 -22 -54s-32.667 -22 -54 -22s-39.333 7.33301 -54 22s-22 32.667 -22 54zM163 196c10.667 12 19.6699 22.6641 27.0029 31.9971
s13.333 18.333 18 27s8.16699 17.667 10.5 27s4.16602 20.333 5.49902 33c1.33301 14.667 6.66602 27 15.999 37s23 15 41 15c16 0 29.5 -5.5 40.5 -16.5s16.5 -26.5 16.5 -46.5c0 -23.333 -4.66699 -48 -14 -74s-24 -50.667 -44 -74l-36 -41
c-24 -28 -39.5 -52.167 -46.5 -72.5s-10.5 -39.166 -10.5 -56.499c0 -21.333 5.16699 -39.5 15.5 -54.5s25.833 -22.5 46.5 -22.5c15.333 0 28.333 4.83301 39 14.5s17.334 23.167 20.001 40.5c3.33301 24.667 9.66602 41.834 18.999 51.501s23.666 14.5 42.999 14.5
c18 0 32.5 -5.5 43.5 -16.5s16.5 -25.833 16.5 -44.5c0 -23.333 -4 -44.666 -12 -63.999s-19.5 -36.333 -34.5 -51s-33.333 -26 -55 -34s-46.5 -12 -74.5 -12c-64.667 0 -113.334 15.5 -146.001 46.5s-49 77.833 -49 140.5c0 34 6.33301 63.833 19 89.5
s31.334 52.167 56.001 79.5z" />
    <glyph glyph-name="Agrave" unicode="&#xc0;" horiz-adv-x="519" 
d="M178 857c-6.66699 6 -12.5 12.833 -17.5 20.5s-7.5 16.167 -7.5 25.5c0 13.333 4.66699 23.833 14 31.5s19.333 11.5 30 11.5c8 0 14.667 -0.833008 20 -2.5s11.666 -6.16699 18.999 -13.5l84 -85c10 -10 15 -21 15 -33c0 -12.667 -3.66699 -23.167 -11 -31.5
s-17.666 -12.5 -30.999 -12.5c-7.33301 0 -13.833 1.33301 -19.5 4s-11.167 6.66699 -16.5 12zM317 286l-59 299h-2l-61 -299h122zM173 180l-27.001 -129.998c-4.66699 -22.667 -12.167 -38.834 -22.5 -48.501s-26.166 -14.5 -47.499 -14.5c-20 0 -35.5 5.33301 -46.5 16
s-16.5 24.667 -16.5 42c0 6 0.666992 14.167 2 24.5s3.33301 20.5 6 30.5l128 539c4 18 8.5 33.167 13.5 45.5s11.5 22 19.5 29s18.167 12 30.5 15s27.833 4.5 46.5 4.5c16.667 0 31 -1.5 43 -4.5s22.333 -8 31 -15s15.834 -16.667 21.501 -29s10.5 -27.5 14.5 -45.5
l127 -535c2.66699 -11.333 5 -22 7 -32s3 -17.667 3 -23c0 -22.667 -6.83301 -38.667 -20.5 -48s-28.834 -14 -45.501 -14c-24.667 0 -42.667 6.16699 -54 18.5s-20.333 35.166 -27 68.499l-21 106h-165z" />
    <glyph glyph-name="Aacute" unicode="&#xc1;" horiz-adv-x="519" 
d="M296 930c7.33301 7.33301 13.666 11.833 18.999 13.5s12 2.5 20 2.5c10.667 0 20.667 -3.83301 30 -11.5s14 -18.167 14 -31.5c0 -9.33301 -2.5 -17.833 -7.5 -25.5s-10.833 -14.5 -17.5 -20.5l-79 -73c-5.33301 -5.33301 -10.833 -9.33301 -16.5 -12
s-12.167 -4 -19.5 -4c-13.333 0 -23.666 4.16699 -30.999 12.5s-11 18.833 -11 31.5c0 12 5 23 15 33zM317 286l-59 299h-2l-61 -299h122zM173 180l-27.001 -129.998c-4.66699 -22.667 -12.167 -38.834 -22.5 -48.501s-26.166 -14.5 -47.499 -14.5
c-20 0 -35.5 5.33301 -46.5 16s-16.5 24.667 -16.5 42c0 6 0.666992 14.167 2 24.5s3.33301 20.5 6 30.5l128 539c4 18 8.5 33.167 13.5 45.5s11.5 22 19.5 29s18.167 12 30.5 15s27.833 4.5 46.5 4.5c16.667 0 31 -1.5 43 -4.5s22.333 -8 31 -15s15.834 -16.667 21.501 -29
s10.5 -27.5 14.5 -45.5l127 -535c2.66699 -11.333 5 -22 7 -32s3 -17.667 3 -23c0 -22.667 -6.83301 -38.667 -20.5 -48s-28.834 -14 -45.501 -14c-24.667 0 -42.667 6.16699 -54 18.5s-20.333 35.166 -27 68.499l-21 106h-165z" />
    <glyph glyph-name="Acircumflex" unicode="&#xc2;" horiz-adv-x="519" 
d="M317 286l-59 299h-2l-61 -299h122zM193 905c11.333 16.667 22.5 27.667 33.5 33s24.167 8 39.5 8s28.5 -2.66699 39.5 -8s22.167 -16.333 33.5 -33l43 -65c4.66699 -6.66699 7.83398 -12.167 9.50098 -16.5s2.5 -9.16602 2.5 -14.499c0 -12 -4 -21.833 -12 -29.5
s-18.667 -11.5 -32 -11.5c-8.66699 0 -15.834 2 -21.501 6s-10.5 9.33301 -14.5 16l-48 80l-48 -80c-4 -6.66699 -8.83301 -12 -14.5 -16s-12.834 -6 -21.501 -6c-13.333 0 -24 3.83301 -32 11.5s-12 17.5 -12 29.5c0 5.33301 0.833008 10.166 2.5 14.499
s4.83398 9.83301 9.50098 16.5zM173 180l-27.001 -129.998c-4.66699 -22.667 -12.167 -38.834 -22.5 -48.501s-26.166 -14.5 -47.499 -14.5c-20 0 -35.5 5.33301 -46.5 16s-16.5 24.667 -16.5 42c0 6 0.666992 14.167 2 24.5s3.33301 20.5 6 30.5l128 539
c4 18 8.5 33.167 13.5 45.5s11.5 22 19.5 29s18.167 12 30.5 15s27.833 4.5 46.5 4.5c16.667 0 31 -1.5 43 -4.5s22.333 -8 31 -15s15.834 -16.667 21.501 -29s10.5 -27.5 14.5 -45.5l127 -535c2.66699 -11.333 5 -22 7 -32s3 -17.667 3 -23
c0 -22.667 -6.83301 -38.667 -20.5 -48s-28.834 -14 -45.501 -14c-24.667 0 -42.667 6.16699 -54 18.5s-20.333 35.166 -27 68.499l-21 106h-165z" />
    <glyph glyph-name="Atilde" unicode="&#xc3;" horiz-adv-x="519" 
d="M317 286l-59 299h-2l-61 -299h122zM101 814c0 10 2.99902 20.0029 8.99902 30.0029s13.667 19 23 27s19.833 14.667 31.5 20s23.167 8 34.5 8c12.667 0 24.834 -1.33301 36.501 -4s22.667 -5.66699 33 -9l27.5 -9c8 -2.66699 14.667 -4 20 -4c8 0 15 1.83301 21 5.5
s11.833 7.66699 17.5 12s11.334 8.33301 17.001 12s12.167 5.5 19.5 5.5c11.333 0 20.833 -3.33301 28.5 -10s11.5 -15.334 11.5 -26.001c0 -10 -2.66699 -20.333 -8 -31s-12.5 -20.334 -21.5 -29.001s-19.333 -15.834 -31 -21.501s-23.834 -8.5 -36.501 -8.5
c-4.66699 0 -13 1.33301 -25 4s-24.667 5.66699 -38 9l-37.5 9c-11.667 2.66699 -19.167 4 -22.5 4c-6.66699 0 -12.667 -1.83301 -18 -5.5s-10.5 -7.5 -15.5 -11.5s-10.167 -7.83301 -15.5 -11.5s-11.333 -5.5 -18 -5.5c-12 0 -22.167 3.5 -30.5 10.5
s-12.5 16.833 -12.5 29.5zM172.999 180.003l-27.001 -129.998c-4.66699 -22.667 -12.167 -38.834 -22.5 -48.501s-26.166 -14.5 -47.499 -14.5c-20 0 -35.5 5.33301 -46.5 16s-16.5 24.667 -16.5 42c0 6 0.666992 14.167 2 24.5s3.33301 20.5 6 30.5l128 539
c4 18 8.5 33.167 13.5 45.5s11.5 22 19.5 29s18.167 12 30.5 15s27.833 4.5 46.5 4.5c16.667 0 31 -1.5 43 -4.5s22.333 -8 31 -15s15.834 -16.667 21.501 -29s10.5 -27.5 14.5 -45.5l127 -535c2.66699 -11.333 5 -22 7 -32s3 -17.667 3 -23
c0 -22.667 -6.83301 -38.667 -20.5 -48s-28.834 -14 -45.501 -14c-24.667 0 -42.667 6.16699 -54 18.5s-20.333 35.166 -27 68.499l-21 106h-165z" />
    <glyph glyph-name="Adieresis" unicode="&#xc4;" horiz-adv-x="519" 
d="M292 845c0 18.667 6.5 34.5 19.5 47.5s28.833 19.5 47.5 19.5s34.5 -6.5 47.5 -19.5s19.5 -28.833 19.5 -47.5s-6.5 -34.5 -19.5 -47.5s-28.833 -19.5 -47.5 -19.5s-34.5 6.5 -47.5 19.5s-19.5 28.833 -19.5 47.5zM106 845c0 18.667 6.5 34.5 19.5 47.5
s28.833 19.5 47.5 19.5s34.5 -6.5 47.5 -19.5s19.5 -28.833 19.5 -47.5s-6.5 -34.5 -19.5 -47.5s-28.833 -19.5 -47.5 -19.5s-34.5 6.5 -47.5 19.5s-19.5 28.833 -19.5 47.5zM317 286l-59 299h-2l-61 -299h122zM173 180l-27.001 -129.998
c-4.66699 -22.667 -12.167 -38.834 -22.5 -48.501s-26.166 -14.5 -47.499 -14.5c-20 0 -35.5 5.33301 -46.5 16s-16.5 24.667 -16.5 42c0 6 0.666992 14.167 2 24.5s3.33301 20.5 6 30.5l128 539c4 18 8.5 33.167 13.5 45.5s11.5 22 19.5 29s18.167 12 30.5 15
s27.833 4.5 46.5 4.5c16.667 0 31 -1.5 43 -4.5s22.333 -8 31 -15s15.834 -16.667 21.501 -29s10.5 -27.5 14.5 -45.5l127 -535c2.66699 -11.333 5 -22 7 -32s3 -17.667 3 -23c0 -22.667 -6.83301 -38.667 -20.5 -48s-28.834 -14 -45.501 -14
c-24.667 0 -42.667 6.16699 -54 18.5s-20.333 35.166 -27 68.499l-21 106h-165z" />
    <glyph glyph-name="Aring" unicode="&#xc5;" horiz-adv-x="519" 
d="M212 859c0 -13.333 4.66699 -24.666 14 -33.999s20.666 -14 33.999 -14s24.666 4.66699 33.999 14s14 20.666 14 33.999s-4.66699 24.666 -14 33.999s-20.666 14 -33.999 14s-24.666 -4.66699 -33.999 -14s-14 -20.666 -14 -33.999zM317 286l-59 299h-2l-61 -299h122z
M154 859c0 30 10.167 55.167 30.5 75.5s45.5 30.5 75.5 30.5s55.167 -10.167 75.5 -30.5s30.5 -45.5 30.5 -75.5s-10.167 -55.167 -30.5 -75.5s-45.5 -30.5 -75.5 -30.5s-55.167 10.167 -75.5 30.5s-30.5 45.5 -30.5 75.5zM173 180l-27.001 -129.998
c-4.66699 -22.667 -12.167 -38.834 -22.5 -48.501s-26.166 -14.5 -47.499 -14.5c-20 0 -35.5 5.33301 -46.5 16s-16.5 24.667 -16.5 42c0 6 0.666992 14.167 2 24.5s3.33301 20.5 6 30.5l128 539c4 18 8.5 33.167 13.5 45.5s11.5 22 19.5 29s18.167 12 30.5 15
s27.833 4.5 46.5 4.5c16.667 0 31 -1.5 43 -4.5s22.333 -8 31 -15s15.834 -16.667 21.501 -29s10.5 -27.5 14.5 -45.5l127 -535c2.66699 -11.333 5 -22 7 -32s3 -17.667 3 -23c0 -22.667 -6.83301 -38.667 -20.5 -48s-28.834 -14 -45.501 -14
c-24.667 0 -42.667 6.16699 -54 18.5s-20.333 35.166 -27 68.499l-21 106h-165z" />
    <glyph glyph-name="AE" unicode="&#xc6;" horiz-adv-x="778" 
d="M206 286h135v320h-48zM475 434l187.002 -0.00488281c25.333 0 43.333 -5.66699 54 -17s16 -25.666 16 -42.999s-5.33301 -31.666 -16 -42.999s-28.667 -17 -54 -17h-187v-194h199c25.333 0 43.333 -5.66699 54 -17s16 -25.666 16 -42.999s-5.33301 -31.666 -16 -42.999
s-28.667 -17 -54 -17h-261c-24.667 0 -42.834 5.66699 -54.501 17s-17.5 29.666 -17.5 54.999v108h-164l-33 -121c-5.33301 -19.333 -12.833 -36.166 -22.5 -50.499s-25.834 -21.5 -48.501 -21.5s-39.5 6.33301 -50.5 19s-16.5 25.667 -16.5 39
c0 5.33301 0.666992 10.833 2 16.5s3 12.167 5 19.5l167 585c5.33301 17.333 13.333 30.666 24 39.999s26.667 14 48 14h422c25.333 0 43.333 -5.66699 54 -17s16 -25.666 16 -42.999s-5.33301 -31.666 -16 -42.999s-28.667 -17 -54 -17h-199v-166z" />
    <glyph glyph-name="Ccedilla" unicode="&#xc7;" horiz-adv-x="500" 
d="M229 -17c-46 4 -81.6719 16.3301 -107.005 36.9971s-44.166 45.834 -56.499 75.501s-19.666 62.167 -21.999 97.5s-3.5 69.666 -3.5 102.999v114c0 63.333 4.5 116 13.5 158s22.833 75.5 41.5 100.5s42.667 42.667 72 53s64 15.5 104 15.5
c33.333 0 62.5 -4.66699 87.5 -14s46 -22.166 63 -38.499s29.833 -35.5 38.5 -57.5s13 -45.333 13 -70c0 -23.333 -5 -42.5 -15 -57.5s-27.667 -22.5 -53 -22.5c-26 0 -43.5 6 -52.5 18s-15.5 33 -19.5 63c-6.66699 48.667 -27.334 73 -62.001 73
c-15.333 0 -28.666 -2.5 -39.999 -7.5s-20.833 -16 -28.5 -33s-13.334 -41.333 -17.001 -73s-5.5 -74.5 -5.5 -128.5v-40c0 -43.333 0.666992 -81.166 2 -113.499s4.83301 -59.333 10.5 -81s14.334 -38 26.001 -49s27.834 -16.5 48.501 -16.5c17.333 0 32.5 7 45.5 21
s20.167 31.333 21.5 52c0.666992 20 2.33398 37 5.00098 51s6.5 25.333 11.5 34s12 15 21 19s20.5 6 34.5 6c23.333 0 40.5 -7.16699 51.5 -21.5s16.5 -33.5 16.5 -57.5c0 -70 -17.667 -121.5 -53 -154.5s-82 -51.5 -140 -55.5l-26 -39h13
c25.333 0 46.166 -5.33301 62.499 -16s24.5 -28.667 24.5 -54c0 -28 -11.5 -50 -34.5 -66s-50.833 -24 -83.5 -24c-21.333 0 -39.666 3.5 -54.999 10.5s-23 16.167 -23 27.5c0 7.33301 2 13.333 6 18s8.66699 7 14 7c9.33301 0 18.333 -1.83301 27 -5.5s16.667 -5.5 24 -5.5
c11.333 0 21.5 2.83301 30.5 8.5s13.5 14.834 13.5 27.501c0 9.33301 -3.33301 17 -10 23s-14.667 9 -24 9c-5.33301 0 -10.666 -0.5 -15.999 -1.5s-10.333 -1.5 -15 -1.5c-5.33301 0 -9.83301 1.66699 -13.5 5s-5.5 7 -5.5 11s3.66699 11.667 11 23z" />
    <glyph glyph-name="Egrave" unicode="&#xc8;" horiz-adv-x="500" 
d="M174 857c-6.66699 6 -12.5 12.833 -17.5 20.5s-7.5 16.167 -7.5 25.5c0 13.333 4.66699 23.833 14 31.5s19.333 11.5 30 11.5c8 0 14.667 -0.833008 20 -2.5s11.666 -6.16699 18.999 -13.5l84 -85c10 -10 15 -21 15 -33c0 -12.667 -3.66699 -23.167 -11 -31.5
s-17.666 -12.5 -30.999 -12.5c-7.33301 0 -13.833 1.33301 -19.5 4s-11.167 6.66699 -16.5 12zM190 120l206 -0.00390625c25.333 0 43.333 -5.66699 54 -17s16 -25.666 16 -42.999s-5.33301 -31.666 -16 -42.999s-28.667 -17 -54 -17h-268
c-24.667 0 -42.834 5.66699 -54.501 17s-17.5 29.666 -17.5 54.999v576c0 25.333 5.83301 43.666 17.5 54.999s29.834 17 54.501 17h261c25.333 0 43.333 -5.66699 54 -17s16 -25.666 16 -42.999s-5.33301 -31.666 -16 -42.999s-28.667 -17 -54 -17h-199v-166h186
c25.333 0 43.333 -5.66699 54 -17s16 -25.666 16 -42.999s-5.33301 -31.666 -16 -42.999s-28.667 -17 -54 -17h-186v-194z" />
    <glyph glyph-name="Eacute" unicode="&#xc9;" horiz-adv-x="500" 
d="M292 930c7.33301 7.33301 13.666 11.833 18.999 13.5s12 2.5 20 2.5c10.667 0 20.667 -3.83301 30 -11.5s14 -18.167 14 -31.5c0 -9.33301 -2.5 -17.833 -7.5 -25.5s-10.833 -14.5 -17.5 -20.5l-79 -73c-5.33301 -5.33301 -10.833 -9.33301 -16.5 -12
s-12.167 -4 -19.5 -4c-13.333 0 -23.666 4.16699 -30.999 12.5s-11 18.833 -11 31.5c0 12 5 23 15 33zM190 120l206 -0.00390625c25.333 0 43.333 -5.66699 54 -17s16 -25.666 16 -42.999s-5.33301 -31.666 -16 -42.999s-28.667 -17 -54 -17h-268
c-24.667 0 -42.834 5.66699 -54.501 17s-17.5 29.666 -17.5 54.999v576c0 25.333 5.83301 43.666 17.5 54.999s29.834 17 54.501 17h261c25.333 0 43.333 -5.66699 54 -17s16 -25.666 16 -42.999s-5.33301 -31.666 -16 -42.999s-28.667 -17 -54 -17h-199v-166h186
c25.333 0 43.333 -5.66699 54 -17s16 -25.666 16 -42.999s-5.33301 -31.666 -16 -42.999s-28.667 -17 -54 -17h-186v-194z" />
    <glyph glyph-name="Ecircumflex" unicode="&#xca;" horiz-adv-x="500" 
d="M189 905c11.333 16.667 22.5 27.667 33.5 33s24.167 8 39.5 8s28.5 -2.66699 39.5 -8s22.167 -16.333 33.5 -33l43 -65c4.66699 -6.66699 7.83398 -12.167 9.50098 -16.5s2.5 -9.16602 2.5 -14.499c0 -12 -4 -21.833 -12 -29.5s-18.667 -11.5 -32 -11.5
c-8.66699 0 -15.834 2 -21.501 6s-10.5 9.33301 -14.5 16l-48 80l-48 -80c-4 -6.66699 -8.83301 -12 -14.5 -16s-12.834 -6 -21.501 -6c-13.333 0 -24 3.83301 -32 11.5s-12 17.5 -12 29.5c0 5.33301 0.833008 10.166 2.5 14.499s4.83398 9.83301 9.50098 16.5zM190 120
l206 -0.00390625c25.333 0 43.333 -5.66699 54 -17s16 -25.666 16 -42.999s-5.33301 -31.666 -16 -42.999s-28.667 -17 -54 -17h-268c-24.667 0 -42.834 5.66699 -54.501 17s-17.5 29.666 -17.5 54.999v576c0 25.333 5.83301 43.666 17.5 54.999s29.834 17 54.501 17h261
c25.333 0 43.333 -5.66699 54 -17s16 -25.666 16 -42.999s-5.33301 -31.666 -16 -42.999s-28.667 -17 -54 -17h-199v-166h186c25.333 0 43.333 -5.66699 54 -17s16 -25.666 16 -42.999s-5.33301 -31.666 -16 -42.999s-28.667 -17 -54 -17h-186v-194z" />
    <glyph glyph-name="Edieresis" unicode="&#xcb;" horiz-adv-x="500" 
d="M102 845c0 18.667 6.5 34.5 19.5 47.5s28.833 19.5 47.5 19.5s34.5 -6.5 47.5 -19.5s19.5 -28.833 19.5 -47.5s-6.5 -34.5 -19.5 -47.5s-28.833 -19.5 -47.5 -19.5s-34.5 6.5 -47.5 19.5s-19.5 28.833 -19.5 47.5zM288 845c0 18.667 6.5 34.5 19.5 47.5
s28.833 19.5 47.5 19.5s34.5 -6.5 47.5 -19.5s19.5 -28.833 19.5 -47.5s-6.5 -34.5 -19.5 -47.5s-28.833 -19.5 -47.5 -19.5s-34.5 6.5 -47.5 19.5s-19.5 28.833 -19.5 47.5zM190 120l206 -0.00390625c25.333 0 43.333 -5.66699 54 -17s16 -25.666 16 -42.999
s-5.33301 -31.666 -16 -42.999s-28.667 -17 -54 -17h-268c-24.667 0 -42.834 5.66699 -54.501 17s-17.5 29.666 -17.5 54.999v576c0 25.333 5.83301 43.666 17.5 54.999s29.834 17 54.501 17h261c25.333 0 43.333 -5.66699 54 -17s16 -25.666 16 -42.999
s-5.33301 -31.666 -16 -42.999s-28.667 -17 -54 -17h-199v-166h186c25.333 0 43.333 -5.66699 54 -17s16 -25.666 16 -42.999s-5.33301 -31.666 -16 -42.999s-28.667 -17 -54 -17h-186v-194z" />
    <glyph glyph-name="Igrave" unicode="&#xcc;" horiz-adv-x="258" 
d="M47 857c-6.66699 6 -12.5 12.833 -17.5 20.5s-7.5 16.167 -7.5 25.5c0 13.333 4.66699 23.833 14 31.5s19.333 11.5 30 11.5c8 0 14.667 -0.833008 20 -2.5s11.666 -6.16699 18.999 -13.5l84 -85c10 -10 15 -21 15 -33c0 -12.667 -3.66699 -23.167 -11 -31.5
s-17.666 -12.5 -30.999 -12.5c-7.33301 0 -13.833 1.33301 -19.5 4s-11.167 6.66699 -16.5 12zM62 664c0 21.333 6.66699 38.166 20 50.499s29 18.5 47 18.5s33.667 -6.16699 47 -18.5s20 -29.166 20 -50.499v-608c0 -21.333 -6.66699 -38.166 -20 -50.499
s-29 -18.5 -47 -18.5s-33.667 6.16699 -47 18.5s-20 29.166 -20 50.499v608z" />
    <glyph glyph-name="Iacute" unicode="&#xcd;" horiz-adv-x="258" 
d="M165 930c7.33301 7.33301 13.666 11.833 18.999 13.5s12 2.5 20 2.5c10.667 0 20.667 -3.83301 30 -11.5s14 -18.167 14 -31.5c0 -9.33301 -2.5 -17.833 -7.5 -25.5s-10.833 -14.5 -17.5 -20.5l-79 -73c-5.33301 -5.33301 -10.833 -9.33301 -16.5 -12
s-12.167 -4 -19.5 -4c-13.333 0 -23.666 4.16699 -30.999 12.5s-11 18.833 -11 31.5c0 12 5 23 15 33zM62 664c0 21.333 6.66699 38.166 20 50.499s29 18.5 47 18.5s33.667 -6.16699 47 -18.5s20 -29.166 20 -50.499v-608c0 -21.333 -6.66699 -38.166 -20 -50.499
s-29 -18.5 -47 -18.5s-33.667 6.16699 -47 18.5s-20 29.166 -20 50.499v608z" />
    <glyph glyph-name="Icircumflex" unicode="&#xce;" horiz-adv-x="258" 
d="M56 905c11.333 16.667 22.5 27.667 33.5 33s24.167 8 39.5 8s28.5 -2.66699 39.5 -8s22.167 -16.333 33.5 -33l43 -65c4.66699 -6.66699 7.83398 -12.167 9.50098 -16.5s2.5 -9.16602 2.5 -14.499c0 -12 -4 -21.833 -12 -29.5s-18.667 -11.5 -32 -11.5
c-8.66699 0 -15.834 2 -21.501 6s-10.5 9.33301 -14.5 16l-48 80l-48 -80c-4 -6.66699 -8.83301 -12 -14.5 -16s-12.834 -6 -21.501 -6c-13.333 0 -24 3.83301 -32 11.5s-12 17.5 -12 29.5c0 5.33301 0.833008 10.166 2.5 14.499s4.83398 9.83301 9.50098 16.5zM62 664
c0 21.333 6.66699 38.166 20 50.499s29 18.5 47 18.5s33.667 -6.16699 47 -18.5s20 -29.166 20 -50.499v-608c0 -21.333 -6.66699 -38.166 -20 -50.499s-29 -18.5 -47 -18.5s-33.667 6.16699 -47 18.5s-20 29.166 -20 50.499v608z" />
    <glyph glyph-name="Idieresis" unicode="&#xcf;" horiz-adv-x="258" 
d="M-31 845c0 18.667 6.5 34.5 19.5 47.5s28.833 19.5 47.5 19.5s34.5 -6.5 47.5 -19.5s19.5 -28.833 19.5 -47.5s-6.5 -34.5 -19.5 -47.5s-28.833 -19.5 -47.5 -19.5s-34.5 6.5 -47.5 19.5s-19.5 28.833 -19.5 47.5zM155 845c0 18.667 6.5 34.5 19.5 47.5
s28.833 19.5 47.5 19.5s34.5 -6.5 47.5 -19.5s19.5 -28.833 19.5 -47.5s-6.5 -34.5 -19.5 -47.5s-28.833 -19.5 -47.5 -19.5s-34.5 6.5 -47.5 19.5s-19.5 28.833 -19.5 47.5zM62 664c0 21.333 6.66699 38.166 20 50.499s29 18.5 47 18.5s33.667 -6.16699 47 -18.5
s20 -29.166 20 -50.499v-608c0 -21.333 -6.66699 -38.166 -20 -50.499s-29 -18.5 -47 -18.5s-33.667 6.16699 -47 18.5s-20 29.166 -20 50.499v608z" />
    <glyph glyph-name="Eth" unicode="&#xd0;" horiz-adv-x="537" 
d="M190 427l60.002 -0.00292969c11.333 0 20.666 -4.16699 27.999 -12.5s11 -21.166 11 -38.499c0 -16.667 -3.66699 -29.167 -11 -37.5s-16.666 -12.5 -27.999 -12.5h-60v-220h62c17.333 0 32.666 3.33301 45.999 10s24.333 18.667 33 36s15.167 40.833 19.5 70.5
s6.5 67.834 6.5 114.501v58c0 39.333 -1.33301 72.833 -4 100.5s-7.83398 50.334 -15.501 68.001s-18 30.5 -31 38.5s-29.833 12 -50.5 12h-66v-187zM56.002 325.997l-34 0.00390625c-11.333 0 -20.666 4.16699 -27.999 12.5s-11 20.833 -11 37.5
c0 17.333 3.66699 30.166 11 38.499s16.666 12.5 27.999 12.5h34v221c0 25.333 5.83301 43.666 17.5 54.999s29.834 17 54.501 17h175c68.667 0 118.167 -25.333 148.5 -76s45.5 -130.334 45.5 -239.001v-93c0 -108 -17.5 -187 -52.5 -237s-84.167 -75 -147.5 -75h-169
c-24.667 0 -42.834 5.66699 -54.501 17s-17.5 29.666 -17.5 54.999v254z" />
    <glyph glyph-name="Ntilde" unicode="&#xd1;" horiz-adv-x="574" 
d="M122 814c0 10 2.99902 20.0029 8.99902 30.0029s13.667 19 23 27s19.833 14.667 31.5 20s23.167 8 34.5 8c12.667 0 24.834 -1.33301 36.501 -4s22.667 -5.66699 33 -9l27.5 -9c8 -2.66699 14.667 -4 20 -4c8 0 15 1.83301 21 5.5s11.833 7.66699 17.5 12
s11.334 8.33301 17.001 12s12.167 5.5 19.5 5.5c11.333 0 20.833 -3.33301 28.5 -10s11.5 -15.334 11.5 -26.001c0 -10 -2.66699 -20.333 -8 -31s-12.5 -20.334 -21.5 -29.001s-19.333 -15.834 -31 -21.501s-23.834 -8.5 -36.501 -8.5c-4.66699 0 -13 1.33301 -25 4
s-24.667 5.66699 -38 9l-37.5 9c-11.667 2.66699 -19.167 4 -22.5 4c-6.66699 0 -12.667 -1.83301 -18 -5.5s-10.5 -7.5 -15.5 -11.5s-10.167 -7.83301 -15.5 -11.5s-11.333 -5.5 -18 -5.5c-12 0 -22.167 3.5 -30.5 10.5s-12.5 16.833 -12.5 29.5zM55.999 664.003
c0 21.333 6.49805 38.167 19.498 50.5s31.167 18.5 54.5 18.5c20.667 0 38.334 -4.16699 53.001 -12.5s28 -26.833 40 -55.5l159 -394h2v393c0 21.333 6.66699 38.166 20 50.499s29 18.5 47 18.5s33.667 -6.16699 47 -18.5s20 -29.166 20 -50.499v-602
c0 -24 -6.66699 -42.5 -20 -55.5s-29 -19.5 -47 -19.5c-27.333 0 -48.166 4.33301 -62.499 13s-26.833 27 -37.5 55l-159 400h-2v-399c0 -21.333 -6.66699 -38.166 -20 -50.499s-29 -18.5 -47 -18.5s-33.667 6.16699 -47 18.5s-20 29.166 -20 50.499v608z" />
    <glyph glyph-name="Ograve" unicode="&#xd2;" horiz-adv-x="520" 
d="M172 857c-6.66699 6 -12.5 12.833 -17.5 20.5s-7.5 16.167 -7.5 25.5c0 13.333 4.66699 23.833 14 31.5s19.333 11.5 30 11.5c8 0 14.667 -0.833008 20 -2.5s11.666 -6.16699 18.999 -13.5l84 -85c10 -10 15 -21 15 -33c0 -12.667 -3.66699 -23.167 -11 -31.5
s-17.666 -12.5 -30.999 -12.5c-7.33301 0 -13.833 1.33301 -19.5 4s-11.167 6.66699 -16.5 12zM180 290c0 -44 1.66699 -79.167 5 -105.5s8.33301 -46.666 15 -60.999s15 -23.666 25 -27.999s21.667 -6.5 35 -6.5s25 2.16699 35 6.5s18.333 13.666 25 27.999
s11.667 34.666 15 60.999s5 61.5 5 105.5v152c0 38.667 -1.66699 70.334 -5 95.001s-8.33301 44 -15 58s-15 23.5 -25 28.5s-21.667 7.5 -35 7.5s-25 -2.5 -35 -7.5s-18.333 -14.5 -25 -28.5s-11.667 -33.333 -15 -58s-5 -56.334 -5 -95.001v-152zM40 442
c0 66 6.16797 118.5 18.501 157.5s28.833 68.667 49.5 89s44.167 33.5 70.5 39.5s53.5 9 81.5 9s55.167 -3 81.5 -9s49.833 -19.167 70.5 -39.5s37.167 -50 49.5 -89s18.5 -91.5 18.5 -157.5v-152c0 -68 -5.66699 -122.167 -17 -162.5s-26.833 -71.166 -46.5 -92.499
s-43 -35.333 -70 -42s-55.833 -10 -86.5 -10c-31.333 0 -60.333 3.33301 -87 10s-49.834 20.667 -69.501 42s-35.167 52.166 -46.5 92.499s-17 94.5 -17 162.5v152z" />
    <glyph glyph-name="Oacute" unicode="&#xd3;" horiz-adv-x="520" 
d="M290 930c7.33301 7.33301 13.666 11.833 18.999 13.5s12 2.5 20 2.5c10.667 0 20.667 -3.83301 30 -11.5s14 -18.167 14 -31.5c0 -9.33301 -2.5 -17.833 -7.5 -25.5s-10.833 -14.5 -17.5 -20.5l-79 -73c-5.33301 -5.33301 -10.833 -9.33301 -16.5 -12
s-12.167 -4 -19.5 -4c-13.333 0 -23.666 4.16699 -30.999 12.5s-11 18.833 -11 31.5c0 12 5 23 15 33zM180 290c0 -44 1.66699 -79.167 5 -105.5s8.33301 -46.666 15 -60.999s15 -23.666 25 -27.999s21.667 -6.5 35 -6.5s25 2.16699 35 6.5s18.333 13.666 25 27.999
s11.667 34.666 15 60.999s5 61.5 5 105.5v152c0 38.667 -1.66699 70.334 -5 95.001s-8.33301 44 -15 58s-15 23.5 -25 28.5s-21.667 7.5 -35 7.5s-25 -2.5 -35 -7.5s-18.333 -14.5 -25 -28.5s-11.667 -33.333 -15 -58s-5 -56.334 -5 -95.001v-152zM40 442
c0 66 6.16797 118.5 18.501 157.5s28.833 68.667 49.5 89s44.167 33.5 70.5 39.5s53.5 9 81.5 9s55.167 -3 81.5 -9s49.833 -19.167 70.5 -39.5s37.167 -50 49.5 -89s18.5 -91.5 18.5 -157.5v-152c0 -68 -5.66699 -122.167 -17 -162.5s-26.833 -71.166 -46.5 -92.499
s-43 -35.333 -70 -42s-55.833 -10 -86.5 -10c-31.333 0 -60.333 3.33301 -87 10s-49.834 20.667 -69.501 42s-35.167 52.166 -46.5 92.499s-17 94.5 -17 162.5v152z" />
    <glyph glyph-name="Ocircumflex" unicode="&#xd4;" horiz-adv-x="520" 
d="M187 905c11.333 16.667 22.5 27.667 33.5 33s24.167 8 39.5 8s28.5 -2.66699 39.5 -8s22.167 -16.333 33.5 -33l43 -65c4.66699 -6.66699 7.83398 -12.167 9.50098 -16.5s2.5 -9.16602 2.5 -14.499c0 -12 -4 -21.833 -12 -29.5s-18.667 -11.5 -32 -11.5
c-8.66699 0 -15.834 2 -21.501 6s-10.5 9.33301 -14.5 16l-48 80l-48 -80c-4 -6.66699 -8.83301 -12 -14.5 -16s-12.834 -6 -21.501 -6c-13.333 0 -24 3.83301 -32 11.5s-12 17.5 -12 29.5c0 5.33301 0.833008 10.166 2.5 14.499s4.83398 9.83301 9.50098 16.5zM180 290
c0 -44 1.66699 -79.167 5 -105.5s8.33301 -46.666 15 -60.999s15 -23.666 25 -27.999s21.667 -6.5 35 -6.5s25 2.16699 35 6.5s18.333 13.666 25 27.999s11.667 34.666 15 60.999s5 61.5 5 105.5v152c0 38.667 -1.66699 70.334 -5 95.001s-8.33301 44 -15 58
s-15 23.5 -25 28.5s-21.667 7.5 -35 7.5s-25 -2.5 -35 -7.5s-18.333 -14.5 -25 -28.5s-11.667 -33.333 -15 -58s-5 -56.334 -5 -95.001v-152zM40 442c0 66 6.16797 118.5 18.501 157.5s28.833 68.667 49.5 89s44.167 33.5 70.5 39.5s53.5 9 81.5 9s55.167 -3 81.5 -9
s49.833 -19.167 70.5 -39.5s37.167 -50 49.5 -89s18.5 -91.5 18.5 -157.5v-152c0 -68 -5.66699 -122.167 -17 -162.5s-26.833 -71.166 -46.5 -92.499s-43 -35.333 -70 -42s-55.833 -10 -86.5 -10c-31.333 0 -60.333 3.33301 -87 10s-49.834 20.667 -69.501 42
s-35.167 52.166 -46.5 92.499s-17 94.5 -17 162.5v152z" />
    <glyph glyph-name="Otilde" unicode="&#xd5;" horiz-adv-x="520" 
d="M95 814c0 10 2.99902 20.0029 8.99902 30.0029s13.667 19 23 27s19.833 14.667 31.5 20s23.167 8 34.5 8c12.667 0 24.834 -1.33301 36.501 -4s22.667 -5.66699 33 -9l27.5 -9c8 -2.66699 14.667 -4 20 -4c8 0 15 1.83301 21 5.5s11.833 7.66699 17.5 12
s11.334 8.33301 17.001 12s12.167 5.5 19.5 5.5c11.333 0 20.833 -3.33301 28.5 -10s11.5 -15.334 11.5 -26.001c0 -10 -2.66699 -20.333 -8 -31s-12.5 -20.334 -21.5 -29.001s-19.333 -15.834 -31 -21.501s-23.834 -8.5 -36.501 -8.5c-4.66699 0 -13 1.33301 -25 4
s-24.667 5.66699 -38 9l-37.5 9c-11.667 2.66699 -19.167 4 -22.5 4c-6.66699 0 -12.667 -1.83301 -18 -5.5s-10.5 -7.5 -15.5 -11.5s-10.167 -7.83301 -15.5 -11.5s-11.333 -5.5 -18 -5.5c-12 0 -22.167 3.5 -30.5 10.5s-12.5 16.833 -12.5 29.5zM179.999 290.003
c0 -44 1.66699 -79.167 5 -105.5s8.33301 -46.666 15 -60.999s15 -23.666 25 -27.999s21.667 -6.5 35 -6.5s25 2.16699 35 6.5s18.333 13.666 25 27.999s11.667 34.666 15 60.999s5 61.5 5 105.5v152c0 38.667 -1.66699 70.334 -5 95.001s-8.33301 44 -15 58
s-15 23.5 -25 28.5s-21.667 7.5 -35 7.5s-25 -2.5 -35 -7.5s-18.333 -14.5 -25 -28.5s-11.667 -33.333 -15 -58s-5 -56.334 -5 -95.001v-152zM39.999 442.003c0 66 6.16797 118.5 18.501 157.5s28.833 68.667 49.5 89s44.167 33.5 70.5 39.5s53.5 9 81.5 9
s55.167 -3 81.5 -9s49.833 -19.167 70.5 -39.5s37.167 -50 49.5 -89s18.5 -91.5 18.5 -157.5v-152c0 -68 -5.66699 -122.167 -17 -162.5s-26.833 -71.166 -46.5 -92.499s-43 -35.333 -70 -42s-55.833 -10 -86.5 -10c-31.333 0 -60.333 3.33301 -87 10
s-49.834 20.667 -69.501 42s-35.167 52.166 -46.5 92.499s-17 94.5 -17 162.5v152z" />
    <glyph glyph-name="Odieresis" unicode="&#xd6;" horiz-adv-x="520" 
d="M286 845c0 18.667 6.5 34.5 19.5 47.5s28.833 19.5 47.5 19.5s34.5 -6.5 47.5 -19.5s19.5 -28.833 19.5 -47.5s-6.5 -34.5 -19.5 -47.5s-28.833 -19.5 -47.5 -19.5s-34.5 6.5 -47.5 19.5s-19.5 28.833 -19.5 47.5zM100 845c0 18.667 6.5 34.5 19.5 47.5
s28.833 19.5 47.5 19.5s34.5 -6.5 47.5 -19.5s19.5 -28.833 19.5 -47.5s-6.5 -34.5 -19.5 -47.5s-28.833 -19.5 -47.5 -19.5s-34.5 6.5 -47.5 19.5s-19.5 28.833 -19.5 47.5zM180 290c0 -44 1.66699 -79.167 5 -105.5s8.33301 -46.666 15 -60.999s15 -23.666 25 -27.999
s21.667 -6.5 35 -6.5s25 2.16699 35 6.5s18.333 13.666 25 27.999s11.667 34.666 15 60.999s5 61.5 5 105.5v152c0 38.667 -1.66699 70.334 -5 95.001s-8.33301 44 -15 58s-15 23.5 -25 28.5s-21.667 7.5 -35 7.5s-25 -2.5 -35 -7.5s-18.333 -14.5 -25 -28.5
s-11.667 -33.333 -15 -58s-5 -56.334 -5 -95.001v-152zM40 442c0 66 6.16797 118.5 18.501 157.5s28.833 68.667 49.5 89s44.167 33.5 70.5 39.5s53.5 9 81.5 9s55.167 -3 81.5 -9s49.833 -19.167 70.5 -39.5s37.167 -50 49.5 -89s18.5 -91.5 18.5 -157.5v-152
c0 -68 -5.66699 -122.167 -17 -162.5s-26.833 -71.166 -46.5 -92.499s-43 -35.333 -70 -42s-55.833 -10 -86.5 -10c-31.333 0 -60.333 3.33301 -87 10s-49.834 20.667 -69.501 42s-35.167 52.166 -46.5 92.499s-17 94.5 -17 162.5v152z" />
    <glyph glyph-name="multiply" unicode="&#xd7;" horiz-adv-x="600" 
d="M87 420c-16.667 16.667 -24.999 35.667 -24.999 57c0 10.667 4.66699 20.667 14 30s20 14 32 14c19.333 0 37.666 -8.66699 54.999 -26l137 -137l137 137c17.333 17.333 35.666 26 54.999 26c12 0 22.667 -4.66699 32 -14s14 -19.333 14 -30
c0 -21.333 -8.33301 -40.333 -25 -57l-138 -137l138 -137c16.667 -16.667 25 -35.667 25 -57c0 -10.667 -4.66699 -20.667 -14 -30s-20 -14 -32 -14c-19.333 0 -37.666 8.66699 -54.999 26l-137 137l-137 -137c-8 -8 -16.833 -14.333 -26.5 -19s-19.167 -7 -28.5 -7
c-12 0 -22.667 4.66699 -32 14s-14 19.333 -14 30c0 21.333 8.33301 40.333 25 57l138 137z" />
    <glyph glyph-name="Oslash" unicode="&#xd8;" horiz-adv-x="520" 
d="M180 274l2 0.000976562l153 262c-4 34.667 -12 59.167 -24 73.5s-29 21.5 -51 21.5c-13.333 0 -25 -2.5 -35 -7.5s-18.333 -14.5 -25 -28.5s-11.667 -33.333 -15 -58s-5 -56.334 -5 -95.001v-168zM340 447.001l-2 0.000976562l-153 -265
c4.66699 -35.333 12.5 -59.666 23.5 -72.999s28.167 -20 51.5 -20c13.333 0 25 2.16699 35 6.5s18.333 13.666 25 27.999s11.667 34.666 15 60.999s5 61.5 5 105.5v157zM40 442.002c0 66 6.16895 118.496 18.502 157.496s28.833 68.667 49.5 89s44.167 33.5 70.5 39.5
s53.5 9 81.5 9c32.667 0 62.5 -3.83301 89.5 -11.5s49.833 -21.834 68.5 -42.501l19 32c6.66699 11.333 12.167 19.333 16.5 24s10.166 7 17.499 7s13.166 -2.33301 17.499 -7s6.5 -9.66699 6.5 -15c0 -3.33301 -1.16699 -7.66602 -3.5 -12.999
s-5.16602 -10.666 -8.49902 -15.999l-35 -60c10.667 -24 18.667 -51.667 24 -83s8 -68 8 -110v-152c0 -68 -5.66699 -122.167 -17 -162.5s-26.833 -71.166 -46.5 -92.499s-43 -35.333 -70 -42s-55.833 -10 -86.5 -10c-32.667 0 -62.334 3.33301 -89.001 10
s-49.667 21.334 -69 44.001l-14 -25c-6 -11.333 -12.333 -20.5 -19 -27.5s-13.667 -10.5 -21 -10.5s-13 2.33301 -17 7s-6 9.33398 -6 14.001c0 4 1 8.33301 3 13s6 12.334 12 23.001l32 55c-10.667 20 -18.667 48.167 -24 84.5s-8 76.166 -8 119.499v152z" />
    <glyph glyph-name="Ugrave" unicode="&#xd9;" horiz-adv-x="537" 
d="M181 857c-6.66699 6 -12.5 12.833 -17.5 20.5s-7.5 16.167 -7.5 25.5c0 13.333 4.66699 23.833 14 31.5s19.333 11.5 30 11.5c8 0 14.667 -0.833008 20 -2.5s11.666 -6.16699 18.999 -13.5l84 -85c10 -10 15 -21 15 -33c0 -12.667 -3.66699 -23.167 -11 -31.5
s-17.666 -12.5 -30.999 -12.5c-7.33301 0 -13.833 1.33301 -19.5 4s-11.167 6.66699 -16.5 12zM51 664c0 21.333 6.66797 38.166 20.001 50.499s29 18.5 47 18.5s33.667 -6.16699 47 -18.5s20 -29.166 20 -50.499v-460c0 -40 7.66699 -69.167 23 -87.5
s35.666 -27.5 60.999 -27.5s45.5 9.16699 60.5 27.5s22.5 47.5 22.5 87.5v460c0 21.333 6.66699 38.166 20 50.499s29 18.5 47 18.5s33.667 -6.16699 47 -18.5s20 -29.166 20 -50.499v-473c0 -63.333 -18.167 -113.833 -54.5 -151.5s-90.5 -56.5 -162.5 -56.5
s-126.333 18.833 -163 56.5s-55 88.167 -55 151.5v473z" />
    <glyph glyph-name="Uacute" unicode="&#xda;" horiz-adv-x="537" 
d="M299 930c7.33301 7.33301 13.666 11.833 18.999 13.5s12 2.5 20 2.5c10.667 0 20.667 -3.83301 30 -11.5s14 -18.167 14 -31.5c0 -9.33301 -2.5 -17.833 -7.5 -25.5s-10.833 -14.5 -17.5 -20.5l-79 -73c-5.33301 -5.33301 -10.833 -9.33301 -16.5 -12
s-12.167 -4 -19.5 -4c-13.333 0 -23.666 4.16699 -30.999 12.5s-11 18.833 -11 31.5c0 12 5 23 15 33zM51 664c0 21.333 6.66797 38.166 20.001 50.499s29 18.5 47 18.5s33.667 -6.16699 47 -18.5s20 -29.166 20 -50.499v-460c0 -40 7.66699 -69.167 23 -87.5
s35.666 -27.5 60.999 -27.5s45.5 9.16699 60.5 27.5s22.5 47.5 22.5 87.5v460c0 21.333 6.66699 38.166 20 50.499s29 18.5 47 18.5s33.667 -6.16699 47 -18.5s20 -29.166 20 -50.499v-473c0 -63.333 -18.167 -113.833 -54.5 -151.5s-90.5 -56.5 -162.5 -56.5
s-126.333 18.833 -163 56.5s-55 88.167 -55 151.5v473z" />
    <glyph glyph-name="Ucircumflex" unicode="&#xdb;" horiz-adv-x="537" 
d="M196 905c11.333 16.667 22.5 27.667 33.5 33s24.167 8 39.5 8s28.5 -2.66699 39.5 -8s22.167 -16.333 33.5 -33l43 -65c4.66699 -6.66699 7.83398 -12.167 9.50098 -16.5s2.5 -9.16602 2.5 -14.499c0 -12 -4 -21.833 -12 -29.5s-18.667 -11.5 -32 -11.5
c-8.66699 0 -15.834 2 -21.501 6s-10.5 9.33301 -14.5 16l-48 80l-48 -80c-4 -6.66699 -8.83301 -12 -14.5 -16s-12.834 -6 -21.501 -6c-13.333 0 -24 3.83301 -32 11.5s-12 17.5 -12 29.5c0 5.33301 0.833008 10.166 2.5 14.499s4.83398 9.83301 9.50098 16.5zM51 664
c0 21.333 6.66797 38.166 20.001 50.499s29 18.5 47 18.5s33.667 -6.16699 47 -18.5s20 -29.166 20 -50.499v-460c0 -40 7.66699 -69.167 23 -87.5s35.666 -27.5 60.999 -27.5s45.5 9.16699 60.5 27.5s22.5 47.5 22.5 87.5v460c0 21.333 6.66699 38.166 20 50.499
s29 18.5 47 18.5s33.667 -6.16699 47 -18.5s20 -29.166 20 -50.499v-473c0 -63.333 -18.167 -113.833 -54.5 -151.5s-90.5 -56.5 -162.5 -56.5s-126.333 18.833 -163 56.5s-55 88.167 -55 151.5v473z" />
    <glyph glyph-name="Udieresis" unicode="&#xdc;" horiz-adv-x="537" 
d="M109 845c0 18.667 6.5 34.5 19.5 47.5s28.833 19.5 47.5 19.5s34.5 -6.5 47.5 -19.5s19.5 -28.833 19.5 -47.5s-6.5 -34.5 -19.5 -47.5s-28.833 -19.5 -47.5 -19.5s-34.5 6.5 -47.5 19.5s-19.5 28.833 -19.5 47.5zM295 845c0 18.667 6.5 34.5 19.5 47.5
s28.833 19.5 47.5 19.5s34.5 -6.5 47.5 -19.5s19.5 -28.833 19.5 -47.5s-6.5 -34.5 -19.5 -47.5s-28.833 -19.5 -47.5 -19.5s-34.5 6.5 -47.5 19.5s-19.5 28.833 -19.5 47.5zM51 664c0 21.333 6.66797 38.166 20.001 50.499s29 18.5 47 18.5s33.667 -6.16699 47 -18.5
s20 -29.166 20 -50.499v-460c0 -40 7.66699 -69.167 23 -87.5s35.666 -27.5 60.999 -27.5s45.5 9.16699 60.5 27.5s22.5 47.5 22.5 87.5v460c0 21.333 6.66699 38.166 20 50.499s29 18.5 47 18.5s33.667 -6.16699 47 -18.5s20 -29.166 20 -50.499v-473
c0 -63.333 -18.167 -113.833 -54.5 -151.5s-90.5 -56.5 -162.5 -56.5s-126.333 18.833 -163 56.5s-55 88.167 -55 151.5v473z" />
    <glyph glyph-name="Yacute" unicode="&#xdd;" horiz-adv-x="481" 
d="M271 930c7.33301 7.33301 13.666 11.833 18.999 13.5s12 2.5 20 2.5c10.667 0 20.667 -3.83301 30 -11.5s14 -18.167 14 -31.5c0 -9.33301 -2.5 -17.833 -7.5 -25.5s-10.833 -14.5 -17.5 -20.5l-79 -73c-5.33301 -5.33301 -10.833 -9.33301 -16.5 -12
s-12.167 -4 -19.5 -4c-13.333 0 -23.666 4.16699 -30.999 12.5s-11 18.833 -11 31.5c0 12 5 23 15 33zM174 296l-145.997 329c-4.66699 10.667 -7.83398 19.834 -9.50098 27.501s-2.5 14.167 -2.5 19.5c0 21.333 6.66699 36.833 20 46.5s28.666 14.5 45.999 14.5
c20.667 0 35.667 -4.33301 45 -13s18.666 -25.334 27.999 -50.001l86 -228l91 238c8.66699 22.667 18.5 37.167 29.5 43.5s24.167 9.5 39.5 9.5c19.333 0 34.833 -5.66699 46.5 -17s17.5 -23.666 17.5 -36.999c0 -12.667 -3.33301 -26.334 -10 -41.001l-147 -335v-247
c0 -21.333 -6.66699 -38.166 -20 -50.499s-29 -18.5 -47 -18.5s-33.667 6.16699 -47 18.5s-20 29.166 -20 50.499v240z" />
    <glyph glyph-name="Thorn" unicode="&#xde;" horiz-adv-x="500" 
d="M190 291h60c30 0 52 9.33301 66 28s21 44 21 76c0 38 -7 65.5 -21 82.5s-33.667 25.5 -59 25.5h-67v-212zM56 664c0 21.333 6.66602 38.1641 19.999 50.4971s29 18.5 47 18.5s33.667 -6.16699 47 -18.5s20 -29.166 20 -50.499v-60h105c56 0 100.333 -15.833 133 -47.5
s49 -83.5 49 -155.5c0 -28.667 -3.5 -55.667 -10.5 -81s-17.5 -47.666 -31.5 -66.999s-31.667 -34.666 -53 -45.999s-46.666 -17 -75.999 -17h-116v-134c0 -21.333 -6.66699 -38.166 -20 -50.499s-29 -18.5 -47 -18.5s-33.667 6.16699 -47 18.5s-20 29.166 -20 50.499v608z
" />
    <glyph glyph-name="germandbls" unicode="&#xdf;" horiz-adv-x="481" 
d="M54 570c0 52.667 15.667 92.999 47 120.999s78 42 140 42c57.333 0 101 -14.833 131 -44.5s45 -70.167 45 -121.5c0 -30.667 -5.33301 -57.5 -16 -80.5s-29 -39.833 -55 -50.5v-2c32.667 -9.33301 54.667 -28.666 66 -57.999s17 -65.333 17 -108
c0 -34 -1.33301 -67.5 -4 -100.5s-9 -62.333 -19 -88s-25 -46.334 -45 -62.001s-47.667 -23.5 -83 -23.5c-15.333 0 -29.5 4.16699 -42.5 12.5s-19.5 21.166 -19.5 38.499c0 13.333 2.83301 23.833 8.5 31.5s18.5 15.167 38.5 22.5c8 2.66699 14.333 6.83398 19 12.501
s8.5 14 11.5 25s5 25.167 6 42.5s1.5 39 1.5 65c0 40.667 -3 71.5 -9 92.5s-19 35.167 -39 42.5c-13.333 4.66699 -22.5 10.667 -27.5 18s-7.5 17.666 -7.5 30.999c0 16.667 3.16699 28.334 9.5 35.001s15.166 12.667 26.499 18s20 13.333 26 24s9 25 9 43
c0 9.33301 -0.666992 19 -2 29s-4 19 -8 27s-9.5 14.667 -16.5 20s-15.833 8 -26.5 8c-19.333 0 -34.166 -6.16699 -44.499 -18.5s-15.5 -32.166 -15.5 -59.499v-494c0 -25.333 -5.5 -43.833 -16.5 -55.5s-25.833 -17.5 -44.5 -17.5s-33.5 5.83301 -44.5 17.5
s-16.5 30.167 -16.5 55.5v510z" />
    <glyph glyph-name="agrave" unicode="&#xe0;" horiz-adv-x="444" 
d="M273 280l-43 -29.998c-13.333 -9.33301 -24.166 -17.833 -32.499 -25.5s-14.833 -15.334 -19.5 -23.001s-7.83398 -15.834 -9.50098 -24.501s-2.5 -18.667 -2.5 -30c0 -20.667 3.83301 -36.5 11.5 -47.5s18.167 -16.5 31.5 -16.5c20 0 35.667 9.66699 47 29
s17 43.333 17 72v96zM134 678.002c-6.66699 6 -12.5 12.833 -17.5 20.5s-7.5 16.167 -7.5 25.5c0 13.333 4.66699 23.833 14 31.5s19.333 11.5 30 11.5c8 0 14.667 -0.833008 20 -2.5s11.666 -6.16699 18.999 -13.5l84 -85c10 -10 15 -21 15 -33
c0 -12.667 -3.66699 -23.167 -11 -31.5s-17.666 -12.5 -30.999 -12.5c-7.33301 0 -13.833 1.33301 -19.5 4s-11.167 6.66699 -16.5 12zM395 116.002c0 -17.333 1.16504 -33.001 3.49805 -47.001s3.5 -25.333 3.5 -34c0 -32 -20.333 -48 -61 -48
c-16.667 0 -31.5 4.83301 -44.5 14.5s-19.5 27.834 -19.5 54.501l-2 -1c-11.333 -24.667 -27.166 -42.167 -47.499 -52.5s-41.5 -15.5 -63.5 -15.5c-18 0 -34.667 2.83301 -50 8.5s-28.666 14.334 -39.999 26.001s-20.166 26.667 -26.499 45s-9.5 40.166 -9.5 65.499
c0 41.333 6.5 74.5 19.5 99.5s35.5 46.167 67.5 63.5l109 57c26 13.333 39 32.333 39 57c0 14.667 -4 27.334 -12 38.001s-19.667 16 -35 16c-21.333 0 -36 -5.33301 -44 -16s-13.333 -26.667 -16 -48c-1.33301 -12 -7.33301 -21.5 -18 -28.5s-24 -10.5 -40 -10.5
c-6.66699 0 -13.834 0.833008 -21.501 2.5s-14.667 4.5 -21 8.5s-11.5 9.16699 -15.5 15.5s-6 14.166 -6 23.499c0 23.333 4.5 44 13.5 62s21.167 33 36.5 45s33.333 21.167 54 27.5s42.667 9.5 66 9.5c40.667 0 73 -4.16699 97 -12.5s42.167 -19.833 54.5 -34.5
s20.333 -31.667 24 -51s5.5 -40 5.5 -62v-278z" />
    <glyph glyph-name="aacute" unicode="&#xe1;" horiz-adv-x="444" 
d="M273 280l-43 -29.998c-13.333 -9.33301 -24.166 -17.833 -32.499 -25.5s-14.833 -15.334 -19.5 -23.001s-7.83398 -15.834 -9.50098 -24.501s-2.5 -18.667 -2.5 -30c0 -20.667 3.83301 -36.5 11.5 -47.5s18.167 -16.5 31.5 -16.5c20 0 35.667 9.66699 47 29
s17 43.333 17 72v96zM252 751.002c7.33301 7.33301 13.666 11.833 18.999 13.5s12 2.5 20 2.5c10.667 0 20.667 -3.83301 30 -11.5s14 -18.167 14 -31.5c0 -9.33301 -2.5 -17.833 -7.5 -25.5s-10.833 -14.5 -17.5 -20.5l-79 -73
c-5.33301 -5.33301 -10.833 -9.33301 -16.5 -12s-12.167 -4 -19.5 -4c-13.333 0 -23.666 4.16699 -30.999 12.5s-11 18.833 -11 31.5c0 12 5 23 15 33zM395 116.002c0 -17.333 1.16504 -33.001 3.49805 -47.001s3.5 -25.333 3.5 -34c0 -32 -20.333 -48 -61 -48
c-16.667 0 -31.5 4.83301 -44.5 14.5s-19.5 27.834 -19.5 54.501l-2 -1c-11.333 -24.667 -27.166 -42.167 -47.499 -52.5s-41.5 -15.5 -63.5 -15.5c-18 0 -34.667 2.83301 -50 8.5s-28.666 14.334 -39.999 26.001s-20.166 26.667 -26.499 45s-9.5 40.166 -9.5 65.499
c0 41.333 6.5 74.5 19.5 99.5s35.5 46.167 67.5 63.5l109 57c26 13.333 39 32.333 39 57c0 14.667 -4 27.334 -12 38.001s-19.667 16 -35 16c-21.333 0 -36 -5.33301 -44 -16s-13.333 -26.667 -16 -48c-1.33301 -12 -7.33301 -21.5 -18 -28.5s-24 -10.5 -40 -10.5
c-6.66699 0 -13.834 0.833008 -21.501 2.5s-14.667 4.5 -21 8.5s-11.5 9.16699 -15.5 15.5s-6 14.166 -6 23.499c0 23.333 4.5 44 13.5 62s21.167 33 36.5 45s33.333 21.167 54 27.5s42.667 9.5 66 9.5c40.667 0 73 -4.16699 97 -12.5s42.167 -19.833 54.5 -34.5
s20.333 -31.667 24 -51s5.5 -40 5.5 -62v-278z" />
    <glyph glyph-name="acircumflex" unicode="&#xe2;" horiz-adv-x="444" 
d="M273 280l-43 -29.998c-13.333 -9.33301 -24.166 -17.833 -32.499 -25.5s-14.833 -15.334 -19.5 -23.001s-7.83398 -15.834 -9.50098 -24.501s-2.5 -18.667 -2.5 -30c0 -20.667 3.83301 -36.5 11.5 -47.5s18.167 -16.5 31.5 -16.5c20 0 35.667 9.66699 47 29
s17 43.333 17 72v96zM149 726.002c11.333 16.667 22.5 27.667 33.5 33s24.167 8 39.5 8s28.5 -2.66699 39.5 -8s22.167 -16.333 33.5 -33l43 -65c4.66699 -6.66699 7.83398 -12.167 9.50098 -16.5s2.5 -9.16602 2.5 -14.499c0 -12 -4 -21.833 -12 -29.5
s-18.667 -11.5 -32 -11.5c-8.66699 0 -15.834 2 -21.501 6s-10.5 9.33301 -14.5 16l-48 80l-48 -80c-4 -6.66699 -8.83301 -12 -14.5 -16s-12.834 -6 -21.501 -6c-13.333 0 -24 3.83301 -32 11.5s-12 17.5 -12 29.5c0 5.33301 0.833008 10.166 2.5 14.499
s4.83398 9.83301 9.50098 16.5zM395 116.002c0 -17.333 1.16504 -33.001 3.49805 -47.001s3.5 -25.333 3.5 -34c0 -32 -20.333 -48 -61 -48c-16.667 0 -31.5 4.83301 -44.5 14.5s-19.5 27.834 -19.5 54.501l-2 -1c-11.333 -24.667 -27.166 -42.167 -47.499 -52.5
s-41.5 -15.5 -63.5 -15.5c-18 0 -34.667 2.83301 -50 8.5s-28.666 14.334 -39.999 26.001s-20.166 26.667 -26.499 45s-9.5 40.166 -9.5 65.499c0 41.333 6.5 74.5 19.5 99.5s35.5 46.167 67.5 63.5l109 57c26 13.333 39 32.333 39 57c0 14.667 -4 27.334 -12 38.001
s-19.667 16 -35 16c-21.333 0 -36 -5.33301 -44 -16s-13.333 -26.667 -16 -48c-1.33301 -12 -7.33301 -21.5 -18 -28.5s-24 -10.5 -40 -10.5c-6.66699 0 -13.834 0.833008 -21.501 2.5s-14.667 4.5 -21 8.5s-11.5 9.16699 -15.5 15.5s-6 14.166 -6 23.499
c0 23.333 4.5 44 13.5 62s21.167 33 36.5 45s33.333 21.167 54 27.5s42.667 9.5 66 9.5c40.667 0 73 -4.16699 97 -12.5s42.167 -19.833 54.5 -34.5s20.333 -31.667 24 -51s5.5 -40 5.5 -62v-278z" />
    <glyph glyph-name="atilde" unicode="&#xe3;" horiz-adv-x="444" 
d="M273 280l-43 -29.998c-13.333 -9.33301 -24.166 -17.833 -32.499 -25.5s-14.833 -15.334 -19.5 -23.001s-7.83398 -15.834 -9.50098 -24.501s-2.5 -18.667 -2.5 -30c0 -20.667 3.83301 -36.5 11.5 -47.5s18.167 -16.5 31.5 -16.5c20 0 35.667 9.66699 47 29
s17 43.333 17 72v96zM57 635.002c0 10 2.99902 20.0029 8.99902 30.0029s13.667 19 23 27s19.833 14.667 31.5 20s23.167 8 34.5 8c12.667 0 24.834 -1.33301 36.501 -4s22.667 -5.66699 33 -9l27.5 -9c8 -2.66699 14.667 -4 20 -4c8 0 15 1.83301 21 5.5
s11.833 7.66699 17.5 12s11.334 8.33301 17.001 12s12.167 5.5 19.5 5.5c11.333 0 20.833 -3.33301 28.5 -10s11.5 -15.334 11.5 -26.001c0 -10 -2.66699 -20.333 -8 -31s-12.5 -20.334 -21.5 -29.001s-19.333 -15.834 -31 -21.501s-23.834 -8.5 -36.501 -8.5
c-4.66699 0 -13 1.33301 -25 4s-24.667 5.66699 -38 9l-37.5 9c-11.667 2.66699 -19.167 4 -22.5 4c-6.66699 0 -12.667 -1.83301 -18 -5.5s-10.5 -7.5 -15.5 -11.5s-10.167 -7.83301 -15.5 -11.5s-11.333 -5.5 -18 -5.5c-12 0 -22.167 3.5 -30.5 10.5
s-12.5 16.833 -12.5 29.5zM394.999 116.005c0 -17.333 1.16504 -33.001 3.49805 -47.001s3.5 -25.333 3.5 -34c0 -32 -20.333 -48 -61 -48c-16.667 0 -31.5 4.83301 -44.5 14.5s-19.5 27.834 -19.5 54.501l-2 -1c-11.333 -24.667 -27.166 -42.167 -47.499 -52.5
s-41.5 -15.5 -63.5 -15.5c-18 0 -34.667 2.83301 -50 8.5s-28.666 14.334 -39.999 26.001s-20.166 26.667 -26.499 45s-9.5 40.166 -9.5 65.499c0 41.333 6.5 74.5 19.5 99.5s35.5 46.167 67.5 63.5l109 57c26 13.333 39 32.333 39 57c0 14.667 -4 27.334 -12 38.001
s-19.667 16 -35 16c-21.333 0 -36 -5.33301 -44 -16s-13.333 -26.667 -16 -48c-1.33301 -12 -7.33301 -21.5 -18 -28.5s-24 -10.5 -40 -10.5c-6.66699 0 -13.834 0.833008 -21.501 2.5s-14.667 4.5 -21 8.5s-11.5 9.16699 -15.5 15.5s-6 14.166 -6 23.499
c0 23.333 4.5 44 13.5 62s21.167 33 36.5 45s33.333 21.167 54 27.5s42.667 9.5 66 9.5c40.667 0 73 -4.16699 97 -12.5s42.167 -19.833 54.5 -34.5s20.333 -31.667 24 -51s5.5 -40 5.5 -62v-278z" />
    <glyph glyph-name="adieresis" unicode="&#xe4;" horiz-adv-x="444" 
d="M248 666c0 18.667 6.5 34.5 19.5 47.5s28.833 19.5 47.5 19.5s34.5 -6.5 47.5 -19.5s19.5 -28.833 19.5 -47.5s-6.5 -34.5 -19.5 -47.5s-28.833 -19.5 -47.5 -19.5s-34.5 6.5 -47.5 19.5s-19.5 28.833 -19.5 47.5zM62 666c0 18.667 6.5 34.5 19.5 47.5
s28.833 19.5 47.5 19.5s34.5 -6.5 47.5 -19.5s19.5 -28.833 19.5 -47.5s-6.5 -34.5 -19.5 -47.5s-28.833 -19.5 -47.5 -19.5s-34.5 6.5 -47.5 19.5s-19.5 28.833 -19.5 47.5zM273 280l-43 -29.998c-13.333 -9.33301 -24.166 -17.833 -32.499 -25.5
s-14.833 -15.334 -19.5 -23.001s-7.83398 -15.834 -9.50098 -24.501s-2.5 -18.667 -2.5 -30c0 -20.667 3.83301 -36.5 11.5 -47.5s18.167 -16.5 31.5 -16.5c20 0 35.667 9.66699 47 29s17 43.333 17 72v96zM395 116.002c0 -17.333 1.16504 -33.001 3.49805 -47.001
s3.5 -25.333 3.5 -34c0 -32 -20.333 -48 -61 -48c-16.667 0 -31.5 4.83301 -44.5 14.5s-19.5 27.834 -19.5 54.501l-2 -1c-11.333 -24.667 -27.166 -42.167 -47.499 -52.5s-41.5 -15.5 -63.5 -15.5c-18 0 -34.667 2.83301 -50 8.5s-28.666 14.334 -39.999 26.001
s-20.166 26.667 -26.499 45s-9.5 40.166 -9.5 65.499c0 41.333 6.5 74.5 19.5 99.5s35.5 46.167 67.5 63.5l109 57c26 13.333 39 32.333 39 57c0 14.667 -4 27.334 -12 38.001s-19.667 16 -35 16c-21.333 0 -36 -5.33301 -44 -16s-13.333 -26.667 -16 -48
c-1.33301 -12 -7.33301 -21.5 -18 -28.5s-24 -10.5 -40 -10.5c-6.66699 0 -13.834 0.833008 -21.501 2.5s-14.667 4.5 -21 8.5s-11.5 9.16699 -15.5 15.5s-6 14.166 -6 23.499c0 23.333 4.5 44 13.5 62s21.167 33 36.5 45s33.333 21.167 54 27.5s42.667 9.5 66 9.5
c40.667 0 73 -4.16699 97 -12.5s42.167 -19.833 54.5 -34.5s20.333 -31.667 24 -51s5.5 -40 5.5 -62v-278z" />
    <glyph glyph-name="aring" unicode="&#xe5;" horiz-adv-x="444" 
d="M184 695c0 -13.333 4.66699 -24.666 14 -33.999s20.666 -14 33.999 -14s24.666 4.66699 33.999 14s14 20.666 14 33.999s-4.66699 24.666 -14 33.999s-20.666 14 -33.999 14s-24.666 -4.66699 -33.999 -14s-14 -20.666 -14 -33.999zM273 280l-43 -29.998
c-13.333 -9.33301 -24.166 -17.833 -32.499 -25.5s-14.833 -15.334 -19.5 -23.001s-7.83398 -15.834 -9.50098 -24.501s-2.5 -18.667 -2.5 -30c0 -20.667 3.83301 -36.5 11.5 -47.5s18.167 -16.5 31.5 -16.5c20 0 35.667 9.66699 47 29s17 43.333 17 72v96zM126 695.002
c0 30 10.167 55.167 30.5 75.5s45.5 30.5 75.5 30.5s55.167 -10.167 75.5 -30.5s30.5 -45.5 30.5 -75.5s-10.167 -55.167 -30.5 -75.5s-45.5 -30.5 -75.5 -30.5s-55.167 10.167 -75.5 30.5s-30.5 45.5 -30.5 75.5zM395 116.002c0 -17.333 1.16504 -33.001 3.49805 -47.001
s3.5 -25.333 3.5 -34c0 -32 -20.333 -48 -61 -48c-16.667 0 -31.5 4.83301 -44.5 14.5s-19.5 27.834 -19.5 54.501l-2 -1c-11.333 -24.667 -27.166 -42.167 -47.499 -52.5s-41.5 -15.5 -63.5 -15.5c-18 0 -34.667 2.83301 -50 8.5s-28.666 14.334 -39.999 26.001
s-20.166 26.667 -26.499 45s-9.5 40.166 -9.5 65.499c0 41.333 6.5 74.5 19.5 99.5s35.5 46.167 67.5 63.5l109 57c26 13.333 39 32.333 39 57c0 14.667 -4 27.334 -12 38.001s-19.667 16 -35 16c-21.333 0 -36 -5.33301 -44 -16s-13.333 -26.667 -16 -48
c-1.33301 -12 -7.33301 -21.5 -18 -28.5s-24 -10.5 -40 -10.5c-6.66699 0 -13.834 0.833008 -21.501 2.5s-14.667 4.5 -21 8.5s-11.5 9.16699 -15.5 15.5s-6 14.166 -6 23.499c0 23.333 4.5 44 13.5 62s21.167 33 36.5 45s33.333 21.167 54 27.5s42.667 9.5 66 9.5
c40.667 0 73 -4.16699 97 -12.5s42.167 -19.833 54.5 -34.5s20.333 -31.667 24 -51s5.5 -40 5.5 -62v-278z" />
    <glyph glyph-name="ae" unicode="&#xe6;" horiz-adv-x="648" 
d="M494 340l0.000976562 45c0 20.667 -3.83301 38 -11.5 52s-21.834 21 -42.501 21c-20 0 -33.833 -7 -41.5 -21s-11.5 -31.333 -11.5 -52v-45h107zM209.001 83c20 0 35.667 9.66895 47 29.002s17 43.333 17 72v96l-43 -30c-13.333 -9.33301 -24.166 -17.833 -32.499 -25.5
s-14.833 -15.334 -19.5 -23.001s-7.83398 -15.834 -9.50098 -24.501s-2.5 -18.667 -2.5 -30c0 -20.667 3.83301 -36.5 11.5 -47.5s18.167 -16.5 31.5 -16.5zM387.001 254.002v-55c0 -16 0.5 -31.167 1.5 -45.5s3.33301 -26.666 7 -36.999s9.16699 -18.5 16.5 -24.5
s17.333 -9 30 -9c13.333 0 24.5 5.66699 33.5 17s13.833 24.333 14.5 39c1.33301 26.667 7.33301 44.167 18 52.5s24.667 12.5 42 12.5c18 0 32.833 -4 44.5 -12s17.5 -24 17.5 -48c0 -49.333 -15.167 -87.833 -45.5 -115.5s-70.5 -41.5 -120.5 -41.5
c-38 0 -68.667 5.5 -92 16.5s-43 29.167 -59 54.5c-16.667 -25.333 -36.334 -43.5 -59.001 -54.5s-46.667 -16.5 -72 -16.5c-18 0 -34.667 2.83301 -50 8.5s-28.666 14.334 -39.999 26.001s-20.166 26.667 -26.499 45s-9.5 40.166 -9.5 65.499c0 41.333 6.5 74.5 19.5 99.5
s35.5 46.167 67.5 63.5l109 57c26 13.333 39 32.333 39 57c0 14.667 -4 27.334 -12 38.001s-19.667 16 -35 16c-21.333 0 -36 -5.33301 -44 -16s-13.333 -26.667 -16 -48c-1.33301 -12 -7.33301 -21.5 -18 -28.5s-24 -10.5 -40 -10.5
c-6.66699 0 -13.834 0.833008 -21.501 2.5s-14.667 4.5 -21 8.5s-11.5 9.16699 -15.5 15.5s-6 14.166 -6 23.499c0 23.333 4.5 44 13.5 62s21.167 33 36.5 45s33.333 21.167 54 27.5s42.667 9.5 66 9.5c21.333 0 42.833 -2.83301 64.5 -8.5s40.167 -16.167 55.5 -31.5
c16 13.333 33.833 23.333 53.5 30s39.167 10 58.5 10c63.333 0 107.5 -17.833 132.5 -53.5s37.5 -88.834 37.5 -159.501c0 -12 -0.666992 -23.333 -2 -34s-4.33301 -20 -9 -28s-11.5 -14.167 -20.5 -18.5s-21.167 -6.5 -36.5 -6.5h-161z" />
    <glyph glyph-name="ccedilla" unicode="&#xe7;" horiz-adv-x="426" 
d="M193 -11c-34 2.66699 -60.998 10.668 -80.998 24.001s-35.167 30.333 -45.5 51s-17 44.334 -20 71.001s-4.5 55.334 -4.5 86.001v99c0 32.667 1.66699 63.167 5 91.5s11.166 53 23.499 74s30.333 37.667 54 50s55.834 18.5 96.501 18.5c34.667 0 63 -5.33301 85 -16
s39.333 -23.834 52 -39.501s21.167 -32 25.5 -49s6.5 -31.5 6.5 -43.5c0 -24 -5.66699 -41.5 -17 -52.5s-25.666 -16.5 -42.999 -16.5c-20.667 0 -36.167 5.16699 -46.5 15.5s-15.5 28.166 -15.5 53.499c0 17.333 -4.33301 30.333 -13 39s-19.667 13 -33 13
c-12 0 -21.5 -3.16699 -28.5 -9.5s-12.333 -15.333 -16 -27s-5.83398 -25.167 -6.50098 -40.5s-1 -32 -1 -50v-120c0 -45.333 3.83301 -78 11.5 -98s21.167 -30 40.5 -30c11.333 0 21.666 3.83301 30.999 11.5s14.333 22.167 15 43.5c1.33301 34.667 7.16602 58 17.499 70
s25.166 18 44.499 18c18 0 32.5 -6.16699 43.5 -18.5s16.5 -29.833 16.5 -52.5c0 -12.667 -1.83301 -27.834 -5.5 -45.501s-10.667 -35 -21 -52s-25 -31.833 -44 -44.5s-43.833 -20.334 -74.5 -23.001l-29 -46h13c25.333 0 46.166 -5.33301 62.499 -16
s24.5 -28.667 24.5 -54c0 -28 -11.5 -50 -34.5 -66s-50.833 -24 -83.5 -24c-21.333 0 -39.666 3.5 -54.999 10.5s-23 16.167 -23 27.5c0 7.33301 2 13.333 6 18s8.66699 7 14 7c9.33301 0 18.333 -1.83301 27 -5.5s16.667 -5.5 24 -5.5c11.333 0 21.5 2.83301 30.5 8.5
s13.5 14.834 13.5 27.501c0 9.33301 -3.33301 17 -10 23s-14.667 9 -24 9c-5.33301 0 -10.666 -0.5 -15.999 -1.5s-10.333 -1.5 -15 -1.5c-5.33301 0 -9.83301 1.66699 -13.5 5s-5.5 7 -5.5 11s3.66699 11.667 11 23z" />
    <glyph glyph-name="egrave" unicode="&#xe8;" horiz-adv-x="426" 
d="M272 340v45c0 20.667 -3.83301 38 -11.5 52s-21.5 21 -41.5 21s-33.833 -7 -41.5 -21s-11.5 -31.333 -11.5 -52v-45h106zM131 678c-6.66699 6 -12.5 12.833 -17.5 20.5s-7.5 16.167 -7.5 25.5c0 13.333 4.66699 23.833 14 31.5s19.333 11.5 30 11.5
c8 0 14.667 -0.833008 20 -2.5s11.666 -6.16699 18.999 -13.5l84 -85c10 -10 15 -21 15 -33c0 -12.667 -3.66699 -23.167 -11 -31.5s-17.666 -12.5 -30.999 -12.5c-7.33301 0 -13.833 1.33301 -19.5 4s-11.167 6.66699 -16.5 12zM38 327
c0 34.667 1.83203 65.998 5.49902 93.998s12 51.833 25 71.5s31.833 34.834 56.5 45.501s57.667 16 99 16c63.333 0 107.5 -17.833 132.5 -53.5s37.5 -88.834 37.5 -159.501c0 -12 -0.666992 -23.333 -2 -34s-4.33301 -20 -9 -28s-11.5 -14.167 -20.5 -18.5
s-21.167 -6.5 -36.5 -6.5h-160v-55c0 -16 0.5 -31.167 1.5 -45.5s3.33301 -26.666 7 -36.999s9.16699 -18.5 16.5 -24.5s17.333 -9 30 -9c13.333 0 24.333 5.66699 33 17s13.334 24.333 14.001 39c1.33301 26.667 7.33301 44.167 18 52.5s24.667 12.5 42 12.5
c18 0 32.833 -4 44.5 -12s17.5 -24 17.5 -48c0 -49.333 -15.167 -87.833 -45.5 -115.5s-70.5 -41.5 -120.5 -41.5c-41.333 0 -74.333 5.33301 -99 16s-43.5 25.834 -56.5 45.501s-21.333 43.5 -25 71.5s-5.5 59.333 -5.5 94v113z" />
    <glyph glyph-name="eacute" unicode="&#xe9;" horiz-adv-x="426" 
d="M272 340v45c0 20.667 -3.83301 38 -11.5 52s-21.5 21 -41.5 21s-33.833 -7 -41.5 -21s-11.5 -31.333 -11.5 -52v-45h106zM249 751c7.33301 7.33301 13.666 11.833 18.999 13.5s12 2.5 20 2.5c10.667 0 20.667 -3.83301 30 -11.5s14 -18.167 14 -31.5
c0 -9.33301 -2.5 -17.833 -7.5 -25.5s-10.833 -14.5 -17.5 -20.5l-79 -73c-5.33301 -5.33301 -10.833 -9.33301 -16.5 -12s-12.167 -4 -19.5 -4c-13.333 0 -23.666 4.16699 -30.999 12.5s-11 18.833 -11 31.5c0 12 5 23 15 33zM38 327
c0 34.667 1.83203 65.998 5.49902 93.998s12 51.833 25 71.5s31.833 34.834 56.5 45.501s57.667 16 99 16c63.333 0 107.5 -17.833 132.5 -53.5s37.5 -88.834 37.5 -159.501c0 -12 -0.666992 -23.333 -2 -34s-4.33301 -20 -9 -28s-11.5 -14.167 -20.5 -18.5
s-21.167 -6.5 -36.5 -6.5h-160v-55c0 -16 0.5 -31.167 1.5 -45.5s3.33301 -26.666 7 -36.999s9.16699 -18.5 16.5 -24.5s17.333 -9 30 -9c13.333 0 24.333 5.66699 33 17s13.334 24.333 14.001 39c1.33301 26.667 7.33301 44.167 18 52.5s24.667 12.5 42 12.5
c18 0 32.833 -4 44.5 -12s17.5 -24 17.5 -48c0 -49.333 -15.167 -87.833 -45.5 -115.5s-70.5 -41.5 -120.5 -41.5c-41.333 0 -74.333 5.33301 -99 16s-43.5 25.834 -56.5 45.501s-21.333 43.5 -25 71.5s-5.5 59.333 -5.5 94v113z" />
    <glyph glyph-name="ecircumflex" unicode="&#xea;" horiz-adv-x="426" 
d="M272 340v45c0 20.667 -3.83301 38 -11.5 52s-21.5 21 -41.5 21s-33.833 -7 -41.5 -21s-11.5 -31.333 -11.5 -52v-45h106zM146 726c11.333 16.667 22.5 27.667 33.5 33s24.167 8 39.5 8s28.5 -2.66699 39.5 -8s22.167 -16.333 33.5 -33l43 -65
c4.66699 -6.66699 7.83398 -12.167 9.50098 -16.5s2.5 -9.16602 2.5 -14.499c0 -12 -4 -21.833 -12 -29.5s-18.667 -11.5 -32 -11.5c-8.66699 0 -15.834 2 -21.501 6s-10.5 9.33301 -14.5 16l-48 80l-48 -80c-4 -6.66699 -8.83301 -12 -14.5 -16s-12.834 -6 -21.501 -6
c-13.333 0 -24 3.83301 -32 11.5s-12 17.5 -12 29.5c0 5.33301 0.833008 10.166 2.5 14.499s4.83398 9.83301 9.50098 16.5zM38 327c0 34.667 1.83203 65.998 5.49902 93.998s12 51.833 25 71.5s31.833 34.834 56.5 45.501s57.667 16 99 16
c63.333 0 107.5 -17.833 132.5 -53.5s37.5 -88.834 37.5 -159.501c0 -12 -0.666992 -23.333 -2 -34s-4.33301 -20 -9 -28s-11.5 -14.167 -20.5 -18.5s-21.167 -6.5 -36.5 -6.5h-160v-55c0 -16 0.5 -31.167 1.5 -45.5s3.33301 -26.666 7 -36.999s9.16699 -18.5 16.5 -24.5
s17.333 -9 30 -9c13.333 0 24.333 5.66699 33 17s13.334 24.333 14.001 39c1.33301 26.667 7.33301 44.167 18 52.5s24.667 12.5 42 12.5c18 0 32.833 -4 44.5 -12s17.5 -24 17.5 -48c0 -49.333 -15.167 -87.833 -45.5 -115.5s-70.5 -41.5 -120.5 -41.5
c-41.333 0 -74.333 5.33301 -99 16s-43.5 25.834 -56.5 45.501s-21.333 43.5 -25 71.5s-5.5 59.333 -5.5 94v113z" />
    <glyph glyph-name="edieresis" unicode="&#xeb;" horiz-adv-x="426" 
d="M272 340v45c0 20.667 -3.83301 38 -11.5 52s-21.5 21 -41.5 21s-33.833 -7 -41.5 -21s-11.5 -31.333 -11.5 -52v-45h106zM59 666c0 18.667 6.5 34.5 19.5 47.5s28.833 19.5 47.5 19.5s34.5 -6.5 47.5 -19.5s19.5 -28.833 19.5 -47.5s-6.5 -34.5 -19.5 -47.5
s-28.833 -19.5 -47.5 -19.5s-34.5 6.5 -47.5 19.5s-19.5 28.833 -19.5 47.5zM245 666c0 18.667 6.5 34.5 19.5 47.5s28.833 19.5 47.5 19.5s34.5 -6.5 47.5 -19.5s19.5 -28.833 19.5 -47.5s-6.5 -34.5 -19.5 -47.5s-28.833 -19.5 -47.5 -19.5s-34.5 6.5 -47.5 19.5
s-19.5 28.833 -19.5 47.5zM38 327c0 34.667 1.83203 65.998 5.49902 93.998s12 51.833 25 71.5s31.833 34.834 56.5 45.501s57.667 16 99 16c63.333 0 107.5 -17.833 132.5 -53.5s37.5 -88.834 37.5 -159.501c0 -12 -0.666992 -23.333 -2 -34s-4.33301 -20 -9 -28
s-11.5 -14.167 -20.5 -18.5s-21.167 -6.5 -36.5 -6.5h-160v-55c0 -16 0.5 -31.167 1.5 -45.5s3.33301 -26.666 7 -36.999s9.16699 -18.5 16.5 -24.5s17.333 -9 30 -9c13.333 0 24.333 5.66699 33 17s13.334 24.333 14.001 39c1.33301 26.667 7.33301 44.167 18 52.5
s24.667 12.5 42 12.5c18 0 32.833 -4 44.5 -12s17.5 -24 17.5 -48c0 -49.333 -15.167 -87.833 -45.5 -115.5s-70.5 -41.5 -120.5 -41.5c-41.333 0 -74.333 5.33301 -99 16s-43.5 25.834 -56.5 45.501s-21.333 43.5 -25 71.5s-5.5 59.333 -5.5 94v113z" />
    <glyph glyph-name="igrave" unicode="&#xec;" 
d="M32 678c-6.66699 6 -12.5 12.833 -17.5 20.5s-7.5 16.167 -7.5 25.5c0 13.333 4.66699 23.833 14 31.5s19.333 11.5 30 11.5c8 0 14.667 -0.833008 20 -2.5s11.666 -6.16699 18.999 -13.5l84 -85c10 -10 15 -21 15 -33c0 -12.667 -3.66699 -23.167 -11 -31.5
s-17.666 -12.5 -30.999 -12.5c-7.33301 0 -13.833 1.33301 -19.5 4s-11.167 6.66699 -16.5 12zM59 481c0 25.333 5.5 43.833 16.5 55.5s25.833 17.5 44.5 17.5s33.5 -5.83301 44.5 -17.5s16.5 -30.167 16.5 -55.5v-421c0 -25.333 -5.5 -43.833 -16.5 -55.5
s-25.833 -17.5 -44.5 -17.5s-33.5 5.83301 -44.5 17.5s-16.5 30.167 -16.5 55.5v421z" />
    <glyph glyph-name="iacute" unicode="&#xed;" 
d="M150 751c7.33301 7.33301 13.666 11.833 18.999 13.5s12 2.5 20 2.5c10.667 0 20.667 -3.83301 30 -11.5s14 -18.167 14 -31.5c0 -9.33301 -2.5 -17.833 -7.5 -25.5s-10.833 -14.5 -17.5 -20.5l-79 -73c-5.33301 -5.33301 -10.833 -9.33301 -16.5 -12
s-12.167 -4 -19.5 -4c-13.333 0 -23.666 4.16699 -30.999 12.5s-11 18.833 -11 31.5c0 12 5 23 15 33zM59 481c0 25.333 5.5 43.833 16.5 55.5s25.833 17.5 44.5 17.5s33.5 -5.83301 44.5 -17.5s16.5 -30.167 16.5 -55.5v-421c0 -25.333 -5.5 -43.833 -16.5 -55.5
s-25.833 -17.5 -44.5 -17.5s-33.5 5.83301 -44.5 17.5s-16.5 30.167 -16.5 55.5v421z" />
    <glyph glyph-name="icircumflex" unicode="&#xee;" 
d="M47 726c11.333 16.667 22.5 27.667 33.5 33s24.167 8 39.5 8s28.5 -2.66699 39.5 -8s22.167 -16.333 33.5 -33l43 -65c4.66699 -6.66699 7.83398 -12.167 9.50098 -16.5s2.5 -9.16602 2.5 -14.499c0 -12 -4 -21.833 -12 -29.5s-18.667 -11.5 -32 -11.5
c-8.66699 0 -15.834 2 -21.501 6s-10.5 9.33301 -14.5 16l-48 80l-48 -80c-4 -6.66699 -8.83301 -12 -14.5 -16s-12.834 -6 -21.501 -6c-13.333 0 -24 3.83301 -32 11.5s-12 17.5 -12 29.5c0 5.33301 0.833008 10.166 2.5 14.499s4.83398 9.83301 9.50098 16.5zM59 481
c0 25.333 5.5 43.833 16.5 55.5s25.833 17.5 44.5 17.5s33.5 -5.83301 44.5 -17.5s16.5 -30.167 16.5 -55.5v-421c0 -25.333 -5.5 -43.833 -16.5 -55.5s-25.833 -17.5 -44.5 -17.5s-33.5 5.83301 -44.5 17.5s-16.5 30.167 -16.5 55.5v421z" />
    <glyph glyph-name="idieresis" unicode="&#xef;" 
d="M-40 666c0 18.667 6.5 34.5 19.5 47.5s28.833 19.5 47.5 19.5s34.5 -6.5 47.5 -19.5s19.5 -28.833 19.5 -47.5s-6.5 -34.5 -19.5 -47.5s-28.833 -19.5 -47.5 -19.5s-34.5 6.5 -47.5 19.5s-19.5 28.833 -19.5 47.5zM146 666c0 18.667 6.5 34.5 19.5 47.5
s28.833 19.5 47.5 19.5s34.5 -6.5 47.5 -19.5s19.5 -28.833 19.5 -47.5s-6.5 -34.5 -19.5 -47.5s-28.833 -19.5 -47.5 -19.5s-34.5 6.5 -47.5 19.5s-19.5 28.833 -19.5 47.5zM59 481c0 25.333 5.5 43.833 16.5 55.5s25.833 17.5 44.5 17.5s33.5 -5.83301 44.5 -17.5
s16.5 -30.167 16.5 -55.5v-421c0 -25.333 -5.5 -43.833 -16.5 -55.5s-25.833 -17.5 -44.5 -17.5s-33.5 5.83301 -44.5 17.5s-16.5 30.167 -16.5 55.5v421z" />
    <glyph glyph-name="eth" unicode="&#xf0;" horiz-adv-x="444" 
d="M166 184c0 -22 0.833008 -40.167 2.5 -54.5s4.66699 -25.666 9 -33.999s10.166 -14.166 17.499 -17.499s16.333 -5 27 -5s19.667 1.66699 27 5s13.166 9.16602 17.499 17.499s7.33301 19.666 9 33.999s2.5 32.5 2.5 54.5v111c0 22.667 -0.833008 41.167 -2.5 55.5
s-4.66699 25.666 -9 33.999s-10.166 14 -17.499 17s-16.333 4.5 -27 4.5s-19.667 -1.5 -27 -4.5s-13.166 -8.66699 -17.499 -17s-7.33301 -19.666 -9 -33.999s-2.5 -32.833 -2.5 -55.5v-111zM38 305c0 26 2.66797 50.3359 8.00098 73.0029s14.5 42.5 27.5 59.5
s30.667 30.333 53 40s50.166 14.5 83.499 14.5c16.667 0 30.834 -3.33301 42.501 -10s21.167 -15 28.5 -25l2 2c-3.33301 27.333 -8.83301 51.833 -16.5 73.5s-17.5 43.167 -29.5 64.5l-47 -25c-6 -3.33301 -12.5 -6.5 -19.5 -9.5s-16.167 -4.5 -27.5 -4.5
c-10 0 -18.333 2.66699 -25 8s-10 12.666 -10 21.999c0 11.333 2.66699 20.333 8 27s14 13 26 19l38 19c-8 7.33301 -17 13.166 -27 17.499l-28 12.5c-8.66699 4 -16 8.5 -22 13.5s-9 11.833 -9 20.5c0 15.333 4.66699 26 14 32s20.333 9 33 9
c26.667 0 50.334 -5 71.001 -15s40.667 -24 60 -42l42 22c6 3.33301 12.5 6.5 19.5 9.5s16.167 4.5 27.5 4.5c10 0 18.333 -2.66699 25 -8s10 -12.666 10 -21.999c0 -11.333 -2.66699 -20.333 -8 -27s-14 -13 -26 -19l-37 -20c26 -34.667 46 -75.334 60 -122.001
s21 -93.334 21 -140.001v-205c0 -26 -2.66699 -50.333 -8 -73s-15 -42.5 -29 -59.5s-32.833 -30.333 -56.5 -40s-53.834 -14.5 -90.501 -14.5s-66.834 4.83301 -90.501 14.5s-42.5 23 -56.5 40s-23.667 36.833 -29 59.5s-8 47 -8 73v131z" />
    <glyph glyph-name="ntilde" unicode="&#xf1;" horiz-adv-x="463" 
d="M73 635c0 10 2.99902 20.0029 8.99902 30.0029s13.667 19 23 27s19.833 14.667 31.5 20s23.167 8 34.5 8c12.667 0 24.834 -1.33301 36.501 -4s22.667 -5.66699 33 -9l27.5 -9c8 -2.66699 14.667 -4 20 -4c8 0 15 1.83301 21 5.5s11.833 7.66699 17.5 12
s11.334 8.33301 17.001 12s12.167 5.5 19.5 5.5c11.333 0 20.833 -3.33301 28.5 -10s11.5 -15.334 11.5 -26.001c0 -10 -2.66699 -20.333 -8 -31s-12.5 -20.334 -21.5 -29.001s-19.333 -15.834 -31 -21.501s-23.834 -8.5 -36.501 -8.5c-4.66699 0 -13 1.33301 -25 4
s-24.667 5.66699 -38 9l-37.5 9c-11.667 2.66699 -19.167 4 -22.5 4c-6.66699 0 -12.667 -1.83301 -18 -5.5s-10.5 -7.5 -15.5 -11.5s-10.167 -7.83301 -15.5 -11.5s-11.333 -5.5 -18 -5.5c-12 0 -22.167 3.5 -30.5 10.5s-12.5 16.833 -12.5 29.5zM53.999 481.003
c0 25.333 5.50098 43.833 16.501 55.5s25.833 17.5 44.5 17.5s33.5 -5.83301 44.5 -17.5s16.5 -29.167 16.5 -52.5h2c10 23.333 25.667 40.833 47 52.5s43.666 17.5 66.999 17.5c34 0 62 -10.833 84 -32.5s33 -55.5 33 -101.5v-360c0 -25.333 -5.5 -43.833 -16.5 -55.5
s-25.833 -17.5 -44.5 -17.5s-33.5 5.83301 -44.5 17.5s-16.5 30.167 -16.5 55.5v331c0 20 -4.5 34.5 -13.5 43.5s-20.167 13.5 -33.5 13.5c-19.333 0 -34.833 -7.66699 -46.5 -23s-17.5 -40 -17.5 -74v-291c0 -25.333 -5.5 -43.833 -16.5 -55.5s-25.833 -17.5 -44.5 -17.5
s-33.5 5.83301 -44.5 17.5s-16.5 30.167 -16.5 55.5v421z" />
    <glyph glyph-name="ograve" unicode="&#xf2;" horiz-adv-x="444" 
d="M134 678c-6.66699 6 -12.5 12.833 -17.5 20.5s-7.5 16.167 -7.5 25.5c0 13.333 4.66699 23.833 14 31.5s19.333 11.5 30 11.5c8 0 14.667 -0.833008 20 -2.5s11.666 -6.16699 18.999 -13.5l84 -85c10 -10 15 -21 15 -33c0 -12.667 -3.66699 -23.167 -11 -31.5
s-17.666 -12.5 -30.999 -12.5c-7.33301 0 -13.833 1.33301 -19.5 4s-11.167 6.66699 -16.5 12zM166 207c0 -25.333 1 -46 3 -62s5.33301 -28.5 10 -37.5s10.5 -15.333 17.5 -19s15.5 -5.5 25.5 -5.5s18.5 1.83301 25.5 5.5s12.833 10 17.5 19s8 21.5 10 37.5s3 36.667 3 62
v129c0 24.667 -1.16699 44.834 -3.5 60.501s-6 28 -11 37s-11 15.333 -18 19s-14.833 5.5 -23.5 5.5c-9.33301 0 -17.333 -1.83301 -24 -5.5s-12.5 -10 -17.5 -19s-8.66699 -21.333 -11 -37s-3.5 -35.834 -3.5 -60.501v-129zM38 344c0 28.667 2.66699 55.834 8 81.501
s15 48 29 67s32.833 34 56.5 45s53.834 16.5 90.501 16.5s66.834 -5.5 90.501 -16.5s42.5 -26 56.5 -45s23.667 -41.333 29 -67s8 -52.834 8 -81.501v-147c0 -29.333 -2.66699 -56.666 -8 -81.999s-15 -47.5 -29 -66.5s-32.833 -34 -56.5 -45s-53.834 -16.5 -90.501 -16.5
s-66.834 5.5 -90.501 16.5s-42.5 26 -56.5 45s-23.667 41.167 -29 66.5s-8 52.666 -8 81.999v147z" />
    <glyph glyph-name="oacute" unicode="&#xf3;" horiz-adv-x="444" 
d="M252 751c7.33301 7.33301 13.666 11.833 18.999 13.5s12 2.5 20 2.5c10.667 0 20.667 -3.83301 30 -11.5s14 -18.167 14 -31.5c0 -9.33301 -2.5 -17.833 -7.5 -25.5s-10.833 -14.5 -17.5 -20.5l-79 -73c-5.33301 -5.33301 -10.833 -9.33301 -16.5 -12
s-12.167 -4 -19.5 -4c-13.333 0 -23.666 4.16699 -30.999 12.5s-11 18.833 -11 31.5c0 12 5 23 15 33zM166 207c0 -25.333 1 -46 3 -62s5.33301 -28.5 10 -37.5s10.5 -15.333 17.5 -19s15.5 -5.5 25.5 -5.5s18.5 1.83301 25.5 5.5s12.833 10 17.5 19s8 21.5 10 37.5
s3 36.667 3 62v129c0 24.667 -1.16699 44.834 -3.5 60.501s-6 28 -11 37s-11 15.333 -18 19s-14.833 5.5 -23.5 5.5c-9.33301 0 -17.333 -1.83301 -24 -5.5s-12.5 -10 -17.5 -19s-8.66699 -21.333 -11 -37s-3.5 -35.834 -3.5 -60.501v-129zM38 344
c0 28.667 2.66699 55.834 8 81.501s15 48 29 67s32.833 34 56.5 45s53.834 16.5 90.501 16.5s66.834 -5.5 90.501 -16.5s42.5 -26 56.5 -45s23.667 -41.333 29 -67s8 -52.834 8 -81.501v-147c0 -29.333 -2.66699 -56.666 -8 -81.999s-15 -47.5 -29 -66.5
s-32.833 -34 -56.5 -45s-53.834 -16.5 -90.501 -16.5s-66.834 5.5 -90.501 16.5s-42.5 26 -56.5 45s-23.667 41.167 -29 66.5s-8 52.666 -8 81.999v147z" />
    <glyph glyph-name="ocircumflex" unicode="&#xf4;" horiz-adv-x="444" 
d="M149 726c11.333 16.667 22.5 27.667 33.5 33s24.167 8 39.5 8s28.5 -2.66699 39.5 -8s22.167 -16.333 33.5 -33l43 -65c4.66699 -6.66699 7.83398 -12.167 9.50098 -16.5s2.5 -9.16602 2.5 -14.499c0 -12 -4 -21.833 -12 -29.5s-18.667 -11.5 -32 -11.5
c-8.66699 0 -15.834 2 -21.501 6s-10.5 9.33301 -14.5 16l-48 80l-48 -80c-4 -6.66699 -8.83301 -12 -14.5 -16s-12.834 -6 -21.501 -6c-13.333 0 -24 3.83301 -32 11.5s-12 17.5 -12 29.5c0 5.33301 0.833008 10.166 2.5 14.499s4.83398 9.83301 9.50098 16.5zM166 207
c0 -25.333 1 -46 3 -62s5.33301 -28.5 10 -37.5s10.5 -15.333 17.5 -19s15.5 -5.5 25.5 -5.5s18.5 1.83301 25.5 5.5s12.833 10 17.5 19s8 21.5 10 37.5s3 36.667 3 62v129c0 24.667 -1.16699 44.834 -3.5 60.501s-6 28 -11 37s-11 15.333 -18 19s-14.833 5.5 -23.5 5.5
c-9.33301 0 -17.333 -1.83301 -24 -5.5s-12.5 -10 -17.5 -19s-8.66699 -21.333 -11 -37s-3.5 -35.834 -3.5 -60.501v-129zM38 344c0 28.667 2.66699 55.834 8 81.501s15 48 29 67s32.833 34 56.5 45s53.834 16.5 90.501 16.5s66.834 -5.5 90.501 -16.5s42.5 -26 56.5 -45
s23.667 -41.333 29 -67s8 -52.834 8 -81.501v-147c0 -29.333 -2.66699 -56.666 -8 -81.999s-15 -47.5 -29 -66.5s-32.833 -34 -56.5 -45s-53.834 -16.5 -90.501 -16.5s-66.834 5.5 -90.501 16.5s-42.5 26 -56.5 45s-23.667 41.167 -29 66.5s-8 52.666 -8 81.999v147z" />
    <glyph glyph-name="otilde" unicode="&#xf5;" horiz-adv-x="444" 
d="M57 635c0 10 2.99902 20.0029 8.99902 30.0029s13.667 19 23 27s19.833 14.667 31.5 20s23.167 8 34.5 8c12.667 0 24.834 -1.33301 36.501 -4s22.667 -5.66699 33 -9l27.5 -9c8 -2.66699 14.667 -4 20 -4c8 0 15 1.83301 21 5.5s11.833 7.66699 17.5 12
s11.334 8.33301 17.001 12s12.167 5.5 19.5 5.5c11.333 0 20.833 -3.33301 28.5 -10s11.5 -15.334 11.5 -26.001c0 -10 -2.66699 -20.333 -8 -31s-12.5 -20.334 -21.5 -29.001s-19.333 -15.834 -31 -21.501s-23.834 -8.5 -36.501 -8.5c-4.66699 0 -13 1.33301 -25 4
s-24.667 5.66699 -38 9l-37.5 9c-11.667 2.66699 -19.167 4 -22.5 4c-6.66699 0 -12.667 -1.83301 -18 -5.5s-10.5 -7.5 -15.5 -11.5s-10.167 -7.83301 -15.5 -11.5s-11.333 -5.5 -18 -5.5c-12 0 -22.167 3.5 -30.5 10.5s-12.5 16.833 -12.5 29.5zM165.999 207.003
c0 -25.333 1 -46 3 -62s5.33301 -28.5 10 -37.5s10.5 -15.333 17.5 -19s15.5 -5.5 25.5 -5.5s18.5 1.83301 25.5 5.5s12.833 10 17.5 19s8 21.5 10 37.5s3 36.667 3 62v129c0 24.667 -1.16699 44.834 -3.5 60.501s-6 28 -11 37s-11 15.333 -18 19s-14.833 5.5 -23.5 5.5
c-9.33301 0 -17.333 -1.83301 -24 -5.5s-12.5 -10 -17.5 -19s-8.66699 -21.333 -11 -37s-3.5 -35.834 -3.5 -60.501v-129zM37.999 344.003c0 28.667 2.66699 55.834 8 81.501s15 48 29 67s32.833 34 56.5 45s53.834 16.5 90.501 16.5s66.834 -5.5 90.501 -16.5
s42.5 -26 56.5 -45s23.667 -41.333 29 -67s8 -52.834 8 -81.501v-147c0 -29.333 -2.66699 -56.666 -8 -81.999s-15 -47.5 -29 -66.5s-32.833 -34 -56.5 -45s-53.834 -16.5 -90.501 -16.5s-66.834 5.5 -90.501 16.5s-42.5 26 -56.5 45s-23.667 41.167 -29 66.5
s-8 52.666 -8 81.999v147z" />
    <glyph glyph-name="odieresis" unicode="&#xf6;" horiz-adv-x="444" 
d="M248 666c0 18.667 6.5 34.5 19.5 47.5s28.833 19.5 47.5 19.5s34.5 -6.5 47.5 -19.5s19.5 -28.833 19.5 -47.5s-6.5 -34.5 -19.5 -47.5s-28.833 -19.5 -47.5 -19.5s-34.5 6.5 -47.5 19.5s-19.5 28.833 -19.5 47.5zM62 666c0 18.667 6.5 34.5 19.5 47.5
s28.833 19.5 47.5 19.5s34.5 -6.5 47.5 -19.5s19.5 -28.833 19.5 -47.5s-6.5 -34.5 -19.5 -47.5s-28.833 -19.5 -47.5 -19.5s-34.5 6.5 -47.5 19.5s-19.5 28.833 -19.5 47.5zM166 207c0 -25.333 1 -46 3 -62s5.33301 -28.5 10 -37.5s10.5 -15.333 17.5 -19
s15.5 -5.5 25.5 -5.5s18.5 1.83301 25.5 5.5s12.833 10 17.5 19s8 21.5 10 37.5s3 36.667 3 62v129c0 24.667 -1.16699 44.834 -3.5 60.501s-6 28 -11 37s-11 15.333 -18 19s-14.833 5.5 -23.5 5.5c-9.33301 0 -17.333 -1.83301 -24 -5.5s-12.5 -10 -17.5 -19
s-8.66699 -21.333 -11 -37s-3.5 -35.834 -3.5 -60.501v-129zM38 344c0 28.667 2.66699 55.834 8 81.501s15 48 29 67s32.833 34 56.5 45s53.834 16.5 90.501 16.5s66.834 -5.5 90.501 -16.5s42.5 -26 56.5 -45s23.667 -41.333 29 -67s8 -52.834 8 -81.501v-147
c0 -29.333 -2.66699 -56.666 -8 -81.999s-15 -47.5 -29 -66.5s-32.833 -34 -56.5 -45s-53.834 -16.5 -90.501 -16.5s-66.834 5.5 -90.501 16.5s-42.5 26 -56.5 45s-23.667 41.167 -29 66.5s-8 52.666 -8 81.999v147z" />
    <glyph glyph-name="divide" unicode="&#xf7;" horiz-adv-x="600" 
d="M224 495c0 21.333 7.33301 39.333 22 54s32.667 22 54 22s39.333 -7.33301 54 -22s22 -32.667 22 -54s-7.33301 -39.333 -22 -54s-32.667 -22 -54 -22s-39.333 7.33301 -54 22s-22 32.667 -22 54zM224 71c0 21.333 7.33301 39.333 22 54s32.667 22 54 22
s39.333 -7.33301 54 -22s22 -32.667 22 -54s-7.33301 -39.333 -22 -54s-32.667 -22 -54 -22s-39.333 7.33301 -54 22s-22 32.667 -22 54zM513 336c21.333 0 38.333 -5.16699 51 -15.5s19 -22.833 19 -37.5s-6.33301 -27.167 -19 -37.5s-29.667 -15.5 -51 -15.5h-426
c-21.333 0 -38.333 5.16699 -51 15.5s-19 22.833 -19 37.5s6.33301 27.167 19 37.5s29.667 15.5 51 15.5h426z" />
    <glyph glyph-name="oslash" unicode="&#xf8;" horiz-adv-x="444" 
d="M274 399c-4 23.333 -10.333 39.001 -19 47.001s-19.667 12 -33 12c-9.33301 0 -17.333 -1.83301 -24 -5.5s-12.5 -10 -17.5 -19s-8.66699 -21.333 -11 -37s-3.5 -35.834 -3.5 -60.501v-114h2zM170 142.001c3.33301 -23.333 9.16699 -39 17.5 -47s19.833 -12 34.5 -12
c10 0 18.5 1.83301 25.5 5.5s12.833 10 17.5 19s8 21.5 10 37.5s3 36.667 3 62v113h-2zM68.001 61.001c-11.333 18 -19.165 38.6631 -23.498 61.9961s-6.5 48 -6.5 74v147c0 28.667 2.66699 55.834 8 81.501s15 48 29 67s32.833 34 56.5 45s53.834 16.5 90.501 16.5
c28 0 52 -3.16699 72 -9.5s37.333 -15.5 52 -27.5l18 30c7.33301 12 16.666 18 27.999 18c3.33301 0 7.16602 -1.66699 11.499 -5s6.5 -7.66602 6.5 -12.999c0 -6.66699 -3.33301 -15.667 -10 -27l-24 -40c11.333 -18 19.166 -38.667 23.499 -62s6.5 -48 6.5 -74v-147
c0 -29.333 -2.66699 -56.666 -8 -81.999s-15 -47.5 -29 -66.5s-32.833 -34 -56.5 -45s-53.834 -16.5 -90.501 -16.5c-28 0 -52.333 3.33301 -73 10s-37.667 16 -51 28l-18 -30c-8.66699 -13.333 -17 -20 -25 -20c-5.33301 0 -10.166 1.83301 -14.499 5.5
s-6.5 8.16699 -6.5 13.5c0 4 0.666992 7.83301 2 11.5s4 8.83398 8 15.501z" />
    <glyph glyph-name="ugrave" unicode="&#xf9;" horiz-adv-x="463" 
d="M150 678c-6.66699 6 -12.5 12.833 -17.5 20.5s-7.5 16.167 -7.5 25.5c0 13.333 4.66699 23.833 14 31.5s19.333 11.5 30 11.5c8 0 14.667 -0.833008 20 -2.5s11.666 -6.16699 18.999 -13.5l84 -85c10 -10 15 -21 15 -33c0 -12.667 -3.66699 -23.167 -11 -31.5
s-17.666 -12.5 -30.999 -12.5c-7.33301 0 -13.833 1.33301 -19.5 4s-11.167 6.66699 -16.5 12zM54 481c0 25.333 5.49902 43.833 16.499 55.5s25.833 17.5 44.5 17.5s33.5 -5.83301 44.5 -17.5s16.5 -30.167 16.5 -55.5v-331c0 -20 4 -34.5 12 -43.5s19.667 -13.5 35 -13.5
c21.333 0 37.333 7.66699 48 23s16 40 16 74v291c0 25.333 5.5 43.833 16.5 55.5s25.833 17.5 44.5 17.5s33.5 -5.83301 44.5 -17.5s16.5 -30.167 16.5 -55.5v-421c0 -25.333 -5.5 -43.833 -16.5 -55.5s-25.833 -17.5 -44.5 -17.5s-33.5 5.83301 -44.5 17.5
s-16.5 29.167 -16.5 52.5h-2c-10 -23.333 -25.667 -40.833 -47 -52.5s-43.666 -17.5 -66.999 -17.5c-34 0 -62 10.833 -84 32.5s-33 55.5 -33 101.5v360z" />
    <glyph glyph-name="uacute" unicode="&#xfa;" horiz-adv-x="463" 
d="M268 751c7.33301 7.33301 13.666 11.833 18.999 13.5s12 2.5 20 2.5c10.667 0 20.667 -3.83301 30 -11.5s14 -18.167 14 -31.5c0 -9.33301 -2.5 -17.833 -7.5 -25.5s-10.833 -14.5 -17.5 -20.5l-79 -73c-5.33301 -5.33301 -10.833 -9.33301 -16.5 -12
s-12.167 -4 -19.5 -4c-13.333 0 -23.666 4.16699 -30.999 12.5s-11 18.833 -11 31.5c0 12 5 23 15 33zM54 481c0 25.333 5.49902 43.833 16.499 55.5s25.833 17.5 44.5 17.5s33.5 -5.83301 44.5 -17.5s16.5 -30.167 16.5 -55.5v-331c0 -20 4 -34.5 12 -43.5
s19.667 -13.5 35 -13.5c21.333 0 37.333 7.66699 48 23s16 40 16 74v291c0 25.333 5.5 43.833 16.5 55.5s25.833 17.5 44.5 17.5s33.5 -5.83301 44.5 -17.5s16.5 -30.167 16.5 -55.5v-421c0 -25.333 -5.5 -43.833 -16.5 -55.5s-25.833 -17.5 -44.5 -17.5
s-33.5 5.83301 -44.5 17.5s-16.5 29.167 -16.5 52.5h-2c-10 -23.333 -25.667 -40.833 -47 -52.5s-43.666 -17.5 -66.999 -17.5c-34 0 -62 10.833 -84 32.5s-33 55.5 -33 101.5v360z" />
    <glyph glyph-name="ucircumflex" unicode="&#xfb;" horiz-adv-x="463" 
d="M165 726c11.333 16.667 22.5 27.667 33.5 33s24.167 8 39.5 8s28.5 -2.66699 39.5 -8s22.167 -16.333 33.5 -33l43 -65c4.66699 -6.66699 7.83398 -12.167 9.50098 -16.5s2.5 -9.16602 2.5 -14.499c0 -12 -4 -21.833 -12 -29.5s-18.667 -11.5 -32 -11.5
c-8.66699 0 -15.834 2 -21.501 6s-10.5 9.33301 -14.5 16l-48 80l-48 -80c-4 -6.66699 -8.83301 -12 -14.5 -16s-12.834 -6 -21.501 -6c-13.333 0 -24 3.83301 -32 11.5s-12 17.5 -12 29.5c0 5.33301 0.833008 10.166 2.5 14.499s4.83398 9.83301 9.50098 16.5zM54 481
c0 25.333 5.49902 43.833 16.499 55.5s25.833 17.5 44.5 17.5s33.5 -5.83301 44.5 -17.5s16.5 -30.167 16.5 -55.5v-331c0 -20 4 -34.5 12 -43.5s19.667 -13.5 35 -13.5c21.333 0 37.333 7.66699 48 23s16 40 16 74v291c0 25.333 5.5 43.833 16.5 55.5
s25.833 17.5 44.5 17.5s33.5 -5.83301 44.5 -17.5s16.5 -30.167 16.5 -55.5v-421c0 -25.333 -5.5 -43.833 -16.5 -55.5s-25.833 -17.5 -44.5 -17.5s-33.5 5.83301 -44.5 17.5s-16.5 29.167 -16.5 52.5h-2c-10 -23.333 -25.667 -40.833 -47 -52.5
s-43.666 -17.5 -66.999 -17.5c-34 0 -62 10.833 -84 32.5s-33 55.5 -33 101.5v360z" />
    <glyph glyph-name="udieresis" unicode="&#xfc;" horiz-adv-x="463" 
d="M78 666c0 18.667 6.5 34.5 19.5 47.5s28.833 19.5 47.5 19.5s34.5 -6.5 47.5 -19.5s19.5 -28.833 19.5 -47.5s-6.5 -34.5 -19.5 -47.5s-28.833 -19.5 -47.5 -19.5s-34.5 6.5 -47.5 19.5s-19.5 28.833 -19.5 47.5zM264 666c0 18.667 6.5 34.5 19.5 47.5
s28.833 19.5 47.5 19.5s34.5 -6.5 47.5 -19.5s19.5 -28.833 19.5 -47.5s-6.5 -34.5 -19.5 -47.5s-28.833 -19.5 -47.5 -19.5s-34.5 6.5 -47.5 19.5s-19.5 28.833 -19.5 47.5zM54 481c0 25.333 5.49902 43.833 16.499 55.5s25.833 17.5 44.5 17.5s33.5 -5.83301 44.5 -17.5
s16.5 -30.167 16.5 -55.5v-331c0 -20 4 -34.5 12 -43.5s19.667 -13.5 35 -13.5c21.333 0 37.333 7.66699 48 23s16 40 16 74v291c0 25.333 5.5 43.833 16.5 55.5s25.833 17.5 44.5 17.5s33.5 -5.83301 44.5 -17.5s16.5 -30.167 16.5 -55.5v-421
c0 -25.333 -5.5 -43.833 -16.5 -55.5s-25.833 -17.5 -44.5 -17.5s-33.5 5.83301 -44.5 17.5s-16.5 29.167 -16.5 52.5h-2c-10 -23.333 -25.667 -40.833 -47 -52.5s-43.666 -17.5 -66.999 -17.5c-34 0 -62 10.833 -84 32.5s-33 55.5 -33 101.5v360z" />
    <glyph glyph-name="yacute" unicode="&#xfd;" horiz-adv-x="426" 
d="M243 751c7.33301 7.33301 13.666 11.833 18.999 13.5s12 2.5 20 2.5c10.667 0 20.667 -3.83301 30 -11.5s14 -18.167 14 -31.5c0 -9.33301 -2.5 -17.833 -7.5 -25.5s-10.833 -14.5 -17.5 -20.5l-79 -73c-5.33301 -5.33301 -10.833 -9.33301 -16.5 -12
s-12.167 -4 -19.5 -4c-13.333 0 -23.666 4.16699 -30.999 12.5s-11 18.833 -11 31.5c0 12 5 23 15 33zM24 465c-1.33301 5.33301 -2.50098 11.001 -3.50098 17.001s-1.5 11 -1.5 15c0 17.333 5.83301 31.166 17.5 41.499s27.5 15.5 47.5 15.5
c15.333 0 28.833 -3.5 40.5 -10.5s19.167 -19.167 22.5 -36.5l71 -377h2l60 357c3.33301 20 9.66602 36.167 18.999 48.5s25 18.5 47 18.5c17.333 0 31.833 -4.66699 43.5 -14s17.5 -22.666 17.5 -39.999c0 -7.33301 -2.33301 -20.333 -7 -39l-127 -535
c-6 -26.667 -12.667 -48.5 -20 -65.5s-16.5 -30.5 -27.5 -40.5s-24.833 -17 -41.5 -21s-38 -6 -64 -6c-11.333 0 -20.666 1.5 -27.999 4.5s-13.166 7 -17.499 12s-7.33301 10.667 -9 17s-2.5 12.833 -2.5 19.5c0 12.667 3.16699 23 9.5 31s19.166 13 38.499 15
c10.667 0.666992 19.834 2.66699 27.501 6s11.5 12.666 11.5 27.999c0 10 -1.33301 20 -4 30z" />
    <glyph glyph-name="thorn" unicode="&#xfe;" horiz-adv-x="463" 
d="M181 215c0 -38.667 4.16699 -70.334 12.5 -95.001s24.5 -37 48.5 -37c22.667 0 36.834 12.333 42.501 37s8.5 59.667 8.5 105v76c0 30 -0.833008 54.667 -2.5 74s-4.5 34.833 -8.5 46.5s-9.33301 19.834 -16 24.501s-15 7 -25 7c-7.33301 0 -14.5 -1.66699 -21.5 -5
s-13.333 -9.83301 -19 -19.5s-10.334 -23 -14.001 -40s-5.5 -39.167 -5.5 -66.5v-107zM59 660c0 25.333 5.5 43.8311 16.5 55.498s25.833 17.5 44.5 17.5s33.5 -5.83301 44.5 -17.5s16.5 -30.167 16.5 -55.5v-179h2c10.667 23.333 26 41.333 46 54s40.667 19 62 19
c27.333 0 49.5 -5.83301 66.5 -17.5s30.167 -27.167 39.5 -46.5s15.666 -41.666 18.999 -66.999s5 -52 5 -80v-145c0 -28 -1.66699 -54.667 -5 -80s-9.66602 -47.666 -18.999 -66.999s-22.5 -34.833 -39.5 -46.5s-39.167 -17.5 -66.5 -17.5c-23.333 0 -44.333 5 -63 15
s-33.667 25.333 -45 46l-2 2v-184c0 -25.333 -5.5 -43.833 -16.5 -55.5s-25.833 -17.5 -44.5 -17.5s-33.5 5.83301 -44.5 17.5s-16.5 30.167 -16.5 55.5v794z" />
    <glyph glyph-name="ydieresis" unicode="&#xff;" horiz-adv-x="426" 
d="M53 666c0 18.667 6.5 34.5 19.5 47.5s28.833 19.5 47.5 19.5s34.5 -6.5 47.5 -19.5s19.5 -28.833 19.5 -47.5s-6.5 -34.5 -19.5 -47.5s-28.833 -19.5 -47.5 -19.5s-34.5 6.5 -47.5 19.5s-19.5 28.833 -19.5 47.5zM239 666c0 18.667 6.5 34.5 19.5 47.5
s28.833 19.5 47.5 19.5s34.5 -6.5 47.5 -19.5s19.5 -28.833 19.5 -47.5s-6.5 -34.5 -19.5 -47.5s-28.833 -19.5 -47.5 -19.5s-34.5 6.5 -47.5 19.5s-19.5 28.833 -19.5 47.5zM24 465c-1.33301 5.33301 -2.50098 11.001 -3.50098 17.001s-1.5 11 -1.5 15
c0 17.333 5.83301 31.166 17.5 41.499s27.5 15.5 47.5 15.5c15.333 0 28.833 -3.5 40.5 -10.5s19.167 -19.167 22.5 -36.5l71 -377h2l60 357c3.33301 20 9.66602 36.167 18.999 48.5s25 18.5 47 18.5c17.333 0 31.833 -4.66699 43.5 -14s17.5 -22.666 17.5 -39.999
c0 -7.33301 -2.33301 -20.333 -7 -39l-127 -535c-6 -26.667 -12.667 -48.5 -20 -65.5s-16.5 -30.5 -27.5 -40.5s-24.833 -17 -41.5 -21s-38 -6 -64 -6c-11.333 0 -20.666 1.5 -27.999 4.5s-13.166 7 -17.499 12s-7.33301 10.667 -9 17s-2.5 12.833 -2.5 19.5
c0 12.667 3.16699 23 9.5 31s19.166 13 38.499 15c10.667 0.666992 19.834 2.66699 27.501 6s11.5 12.666 11.5 27.999c0 10 -1.33301 20 -4 30z" />
    <glyph glyph-name="dotlessi" unicode="&#x131;" 
d="M59 481c0 25.333 5.5 43.833 16.5 55.5s25.833 17.5 44.5 17.5s33.5 -5.83301 44.5 -17.5s16.5 -30.167 16.5 -55.5v-421c0 -25.333 -5.5 -43.833 -16.5 -55.5s-25.833 -17.5 -44.5 -17.5s-33.5 5.83301 -44.5 17.5s-16.5 30.167 -16.5 55.5v421z" />
    <glyph glyph-name="Lslash" unicode="&#x141;" horiz-adv-x="481" 
d="M56 232c-9.33301 -6 -19.666 -9.00098 -30.999 -9.00098c-13.333 0 -24.5 4 -33.5 12s-13.5 19.667 -13.5 35c0 7.33301 1.83301 15.5 5.5 24.5s12.167 18.167 25.5 27.5l47 34v308c0 21.333 6.66699 38.166 20 50.499s29 18.5 47 18.5s33.667 -6.16699 47 -18.5
s20 -29.166 20 -50.499v-210l70 51c14 10.667 28.667 16 44 16c13.333 0 24.5 -4 33.5 -12s13.5 -19.667 13.5 -35c0 -7.33301 -1.83301 -15.5 -5.5 -24.5s-12.167 -18.167 -25.5 -27.5l-130 -95v-207h201c25.333 0 43.333 -5.66699 54 -17s16 -25.666 16 -42.999
s-5.33301 -31.666 -16 -42.999s-28.667 -17 -54 -17h-263c-24.667 0 -42.834 5.66699 -54.501 17s-17.5 29.666 -17.5 54.999v160z" />
    <glyph glyph-name="lslash" unicode="&#x142;" 
d="M59 264c-10 -6.66699 -20.668 -10 -32.001 -10c-14 0 -25.167 4.33301 -33.5 13s-12.5 18.667 -12.5 30c0 7.33301 2 15.166 6 23.499s10.667 17.166 20 26.499l52 42v271c0 25.333 5.5 43.833 16.5 55.5s25.833 17.5 44.5 17.5s33.5 -5.83301 44.5 -17.5
s16.5 -30.167 16.5 -55.5v-175c8.66699 6.66699 19.334 10 32.001 10c14 0 25.167 -4.33301 33.5 -13s12.5 -18.667 12.5 -30c0 -7.33301 -2 -15.166 -6 -23.499s-10.667 -17.166 -20 -26.499l-52 -41v-301c0 -25.333 -5.5 -43.833 -16.5 -55.5s-25.833 -17.5 -44.5 -17.5
s-33.5 5.83301 -44.5 17.5s-16.5 30.167 -16.5 55.5v204z" />
    <glyph glyph-name="OE" unicode="&#x152;" horiz-adv-x="796" 
d="M180 290c0 -44 1.66699 -79.167 5 -105.5s8.33301 -46.666 15 -60.999s15 -23.666 25 -27.999s21.667 -6.5 35 -6.5s25 2.16699 35 6.5s18.333 13.666 25 27.999s11.667 34.666 15 60.999s5 61.5 5 105.5v152c0 38.667 -1.66699 70.334 -5 95.001s-8.33301 44 -15 58
s-15 23.5 -25 28.5s-21.667 7.5 -35 7.5s-25 -2.5 -35 -7.5s-18.333 -14.5 -25 -28.5s-11.667 -33.333 -15 -58s-5 -56.334 -5 -95.001v-152zM40 442c0 66 6.16602 118.496 18.499 157.496s28.833 68.667 49.5 89s44.167 33.5 70.5 39.5s53.5 9 81.5 9
c23.333 0 45.5 -3 66.5 -9s38.167 -16 51.5 -30v-2h2c2.66699 7.33301 8.33398 13.166 17.001 17.499s18.334 6.5 29.001 6.5h266c25.333 0 43.333 -5.66699 54 -17s16 -25.666 16 -42.999s-5.33301 -31.666 -16 -42.999s-28.667 -17 -54 -17h-218v-166h203
c25.333 0 43.333 -5.66699 54 -17s16 -25.666 16 -42.999s-5.33301 -31.666 -16 -42.999s-28.667 -17 -54 -17h-203v-194h218c25.333 0 43.333 -5.66699 54 -17s16 -25.666 16 -42.999s-5.33301 -31.666 -16 -42.999s-28.667 -17 -54 -17h-243
c-23.333 0 -40.166 2 -50.499 6s-17.166 9 -20.499 15c-12.667 -13.333 -29.334 -23 -50.001 -29s-43.334 -9 -68.001 -9c-31.333 0 -60.333 3.33301 -87 10s-49.834 20.667 -69.501 42s-35.167 52.166 -46.5 92.499s-17 94.5 -17 162.5v152z" />
    <glyph glyph-name="oe" unicode="&#x153;" horiz-adv-x="667" 
d="M513 340v45c0 20.667 -3.83301 38 -11.5 52s-21.5 21 -41.5 21s-33.833 -7 -41.5 -21s-11.5 -31.333 -11.5 -52v-45h106zM174 226c0 -22 0.5 -41.665 1.5 -58.998s3.5 -32.333 7.5 -45s9.66699 -22.334 17 -29.001s17.333 -10 30 -10c24.667 0 40 11.5 46 34.5
s9 55.167 9 96.5v113c0 20.667 -0.5 39 -1.5 55s-3.33301 29.667 -7 41s-9.16699 20 -16.5 26s-17.333 9 -30 9s-22.667 -3.33301 -30 -10s-13 -16.334 -17 -29.001s-6.5 -27.667 -7.5 -45s-1.5 -37 -1.5 -59v-89zM46 347.002c0 64 13.666 114.5 40.999 151.5
s73 55.5 137 55.5c22 0 44.333 -3.66699 67 -11s42.667 -17.666 60 -30.999v1c16.667 13.333 34.667 23.5 54 30.5s39.333 10.5 60 10.5c63.333 0 107.5 -17.833 132.5 -53.5s37.5 -88.834 37.5 -159.501c0 -12 -0.666992 -23.333 -2 -34s-4.33301 -20 -9 -28
s-11.5 -14.167 -20.5 -18.5s-21.167 -6.5 -36.5 -6.5h-160v-55c0 -16 0.5 -31.167 1.5 -45.5s3.33301 -26.666 7 -36.999s9.16699 -18.5 16.5 -24.5s17.333 -9 30 -9c13.333 0 24.333 5.66699 33 17s13.334 24.333 14.001 39c1.33301 26.667 7.33301 44.167 18 52.5
s24.667 12.5 42 12.5c18 0 32.833 -4 44.5 -12s17.5 -24 17.5 -48c0 -49.333 -15.167 -87.833 -45.5 -115.5s-70.5 -41.5 -120.5 -41.5c-28 0 -52.833 3.83301 -74.5 11.5s-39.834 18.167 -54.501 31.5c-13.333 -15.333 -30.833 -26.333 -52.5 -33s-42.5 -10 -62.5 -10
c-34 0 -62.167 5.16699 -84.5 15.5s-40.166 25.166 -53.499 44.499s-22.833 43 -28.5 71s-8.5 59.667 -8.5 95v134z" />
    <glyph glyph-name="Scaron" unicode="&#x160;" horiz-adv-x="500" 
d="M134 874c-4.66699 6.66699 -7.83398 12.167 -9.50098 16.5s-2.5 9.16602 -2.5 14.499c0 12 4 21.833 12 29.5s18.667 11.5 32 11.5c8.66699 0 15.834 -2 21.501 -6s10.5 -9.33301 14.5 -16l48 -80l48 80c4 6.66699 8.83301 12 14.5 16s12.834 6 21.501 6
c13.333 0 24 -3.83301 32 -11.5s12 -17.5 12 -29.5c0 -5.33301 -0.833008 -10.166 -2.5 -14.499s-4.83398 -9.83301 -9.50098 -16.5l-43 -65c-11.333 -16.667 -22.5 -27.667 -33.5 -33s-24.167 -8 -39.5 -8s-28.5 2.66699 -39.5 8s-22.167 16.333 -33.5 33zM132 371
c-35.333 24.667 -59.334 51.3291 -72.001 79.9961s-19 61.334 -19 98.001c0 32 5.66699 59.667 17 83s26.666 42.833 45.999 58.5s41.833 27.334 67.5 35.001s52.834 11.5 81.501 11.5c37.333 0 68.666 -6 93.999 -18s45.833 -27 61.5 -45s26.834 -37.5 33.501 -58.5
s10 -40.833 10 -59.5c0 -22.667 -6.16699 -39.667 -18.5 -51s-28.166 -17 -47.499 -17c-13.333 0 -24.166 1.5 -32.499 4.5s-14.833 7.66699 -19.5 14s-8.16699 14.333 -10.5 24s-4.16602 20.834 -5.49902 33.501c-3.33301 25.333 -11.333 42.833 -24 52.5
s-28.667 14.5 -48 14.5c-20.667 0 -37.667 -6.16699 -51 -18.5s-20 -29.166 -20 -50.499c0 -8 0.666992 -16.167 2 -24.5s4.5 -16.666 9.5 -24.999s12.167 -17.333 21.5 -27s22.333 -19.834 39 -30.501l99 -65c18 -12 34.333 -24.5 49 -37.5s27 -27.5 37 -43.5
s17.667 -34.167 23 -54.5s8 -43.5 8 -69.5c0 -62.667 -18.667 -112 -56 -148s-94.666 -54 -171.999 -54c-29.333 0 -54.666 3.83301 -75.999 11.5s-39.333 17.667 -54 30s-26.334 26 -35.001 41s-15.5 29.5 -20.5 43.5s-8.33301 26.833 -10 38.5s-2.5 20.5 -2.5 26.5
c0 12 0.833008 23.5 2.5 34.5s5 20.667 10 29s12 15 21 20s20.5 7.5 34.5 7.5c21.333 0 37.166 -6.5 47.499 -19.5s16.5 -35.5 18.5 -67.5c1.33301 -24.667 8.16602 -45.667 20.499 -63s32.166 -26 59.499 -26c26.667 0 46.334 8.16699 59.001 24.5s19 36.166 19 59.499
c0 12 -1.16699 22.833 -3.5 32.5s-6.33301 18.5 -12 26.5s-12.834 15.833 -21.501 23.5s-19 15.834 -31 24.501z" />
    <glyph glyph-name="scaron" unicode="&#x161;" horiz-adv-x="407" 
d="M88 695c-4.66699 6.66699 -7.83398 12.167 -9.50098 16.5s-2.5 9.16602 -2.5 14.499c0 12 4 21.833 12 29.5s18.667 11.5 32 11.5c8.66699 0 15.834 -2 21.501 -6s10.5 -9.33301 14.5 -16l48 -80l48 80c4 6.66699 8.83301 12 14.5 16s12.834 6 21.501 6
c13.333 0 24 -3.83301 32 -11.5s12 -17.5 12 -29.5c0 -5.33301 -0.833008 -10.166 -2.5 -14.499s-4.83398 -9.83301 -9.50098 -16.5l-43 -65c-11.333 -16.667 -22.5 -27.667 -33.5 -33s-24.167 -8 -39.5 -8s-28.5 2.66699 -39.5 8s-22.167 16.333 -33.5 33zM118 265
c-17.333 12.667 -31.3311 24.667 -41.998 36s-19 22.5 -25 33.5s-10 22.5 -12 34.5s-3 25 -3 39c0 48.667 15.5 85.167 46.5 109.5s71.167 36.5 120.5 36.5c32.667 0 59.5 -4.83301 80.5 -14.5s37.667 -21.5 50 -35.5s21 -28.667 26 -44s7.5 -28.333 7.5 -39
c0 -18 -4.5 -32.5 -13.5 -43.5s-25.833 -16.5 -50.5 -16.5c-31.333 0 -48 15.667 -50 47c-1.33301 18.667 -6.66602 32.5 -15.999 41.5s-21.666 13.5 -36.999 13.5c-12.667 0 -22.834 -3.66699 -30.501 -11s-11.5 -17.666 -11.5 -30.999c0 -9.33301 2 -18.5 6 -27.5
s11 -17.167 21 -24.5l75 -57c18.667 -14 35.334 -27.167 50.001 -39.5s26.834 -24.833 36.501 -37.5s17 -26.167 22 -40.5s7.5 -30.5 7.5 -48.5c0 -26.667 -4.5 -49.834 -13.5 -69.501s-21.5 -36.167 -37.5 -49.5s-34.833 -23.333 -56.5 -30s-44.834 -10 -69.501 -10
c-32.667 0 -59.834 4.83301 -81.501 14.5s-38.834 21.834 -51.501 36.501s-21.667 30.667 -27 48s-8 34 -8 50c0 23.333 6 39.333 18 48s25.333 13 40 13c22.667 0 38.5 -6.16699 47.5 -18.5s14.5 -31.166 16.5 -56.499c1.33301 -11.333 5.66602 -21.5 12.999 -30.5
s20.666 -13.5 39.999 -13.5c32 0 48 16.667 48 50c0 13.333 -3 24.666 -9 33.999s-17.333 20.666 -34 33.999z" />
    <glyph glyph-name="Ydieresis" unicode="&#x178;" horiz-adv-x="481" 
d="M81 845c0 18.667 6.5 34.5 19.5 47.5s28.833 19.5 47.5 19.5s34.5 -6.5 47.5 -19.5s19.5 -28.833 19.5 -47.5s-6.5 -34.5 -19.5 -47.5s-28.833 -19.5 -47.5 -19.5s-34.5 6.5 -47.5 19.5s-19.5 28.833 -19.5 47.5zM267 845c0 18.667 6.5 34.5 19.5 47.5
s28.833 19.5 47.5 19.5s34.5 -6.5 47.5 -19.5s19.5 -28.833 19.5 -47.5s-6.5 -34.5 -19.5 -47.5s-28.833 -19.5 -47.5 -19.5s-34.5 6.5 -47.5 19.5s-19.5 28.833 -19.5 47.5zM174 296l-145.997 329c-4.66699 10.667 -7.83398 19.834 -9.50098 27.501s-2.5 14.167 -2.5 19.5
c0 21.333 6.66699 36.833 20 46.5s28.666 14.5 45.999 14.5c20.667 0 35.667 -4.33301 45 -13s18.666 -25.334 27.999 -50.001l86 -228l91 238c8.66699 22.667 18.5 37.167 29.5 43.5s24.167 9.5 39.5 9.5c19.333 0 34.833 -5.66699 46.5 -17s17.5 -23.666 17.5 -36.999
c0 -12.667 -3.33301 -26.334 -10 -41.001l-147 -335v-247c0 -21.333 -6.66699 -38.166 -20 -50.499s-29 -18.5 -47 -18.5s-33.667 6.16699 -47 18.5s-20 29.166 -20 50.499v240z" />
    <glyph glyph-name="Zcaron" unicode="&#x17d;" horiz-adv-x="519" 
d="M144 874c-4.66699 6.66699 -7.83398 12.167 -9.50098 16.5s-2.5 9.16602 -2.5 14.499c0 12 4 21.833 12 29.5s18.667 11.5 32 11.5c8.66699 0 15.834 -2 21.501 -6s10.5 -9.33301 14.5 -16l48 -80l48 80c4 6.66699 8.83301 12 14.5 16s12.834 6 21.501 6
c13.333 0 24 -3.83301 32 -11.5s12 -17.5 12 -29.5c0 -5.33301 -0.833008 -10.166 -2.5 -14.499s-4.83398 -9.83301 -9.50098 -16.5l-43 -65c-11.333 -16.667 -22.5 -27.667 -33.5 -33s-24.167 -8 -39.5 -8s-28.5 2.66699 -39.5 8s-22.167 16.333 -33.5 33zM110 600
c-25.333 0 -43.333 5.66602 -54 16.999s-16 25.666 -16 42.999s5.33301 31.666 16 42.999s28.667 17 54 17h308c22.667 0 40.167 -4.83301 52.5 -14.5s18.5 -24.5 18.5 -44.5s-8.33301 -43.667 -25 -71l-273 -470h235c25.333 0 43.333 -5.66699 54 -17
s16 -25.666 16 -42.999s-5.33301 -31.666 -16 -42.999s-28.667 -17 -54 -17h-333c-23.333 0 -40.833 6.83301 -52.5 20.5s-17.5 27.834 -17.5 42.501c0 9.33301 1.33301 18 4 26s8.66699 19.667 18 35l272 476h-207z" />
    <glyph glyph-name="zcaron" unicode="&#x17e;" horiz-adv-x="426" 
d="M97 695c-4.66699 6.66699 -7.83398 12.167 -9.50098 16.5s-2.5 9.16602 -2.5 14.499c0 12 4 21.833 12 29.5s18.667 11.5 32 11.5c8.66699 0 15.834 -2 21.501 -6s10.5 -9.33301 14.5 -16l48 -80l48 80c4 6.66699 8.83301 12 14.5 16s12.834 6 21.501 6
c13.333 0 24 -3.83301 32 -11.5s12 -17.5 12 -29.5c0 -5.33301 -0.833008 -10.166 -2.5 -14.499s-4.83398 -9.83301 -9.50098 -16.5l-43 -65c-11.333 -16.667 -22.5 -27.667 -33.5 -33s-24.167 -8 -39.5 -8s-28.5 2.66699 -39.5 8s-22.167 16.333 -33.5 33zM334 541
c42 0 63 -14 63 -42c0 -10.667 -1.5 -20 -4.5 -28s-8.83301 -19.667 -17.5 -35l-193 -330h157c40.667 0 61 -17.333 61 -52c0 -36 -20.333 -54 -61 -54h-254c-21.333 -0 -36.5 4.33301 -45.5 13s-13.5 21.334 -13.5 38.001c0 11.333 1.66699 21.166 5 29.499
s7.33301 16.5 12 24.5l193 330h-147c-40.667 0 -61 17.333 -61 52c0 36 20.333 54 61 54h245z" />
    <glyph glyph-name="florin" unicode="&#x192;" horiz-adv-x="480" 
d="M97 300c-17.333 0 -29.502 4.83398 -36.502 14.501s-10.5 19.167 -10.5 28.5s3.5 18.833 10.5 28.5s19.167 14.5 36.5 14.5h72l22 194c5.33301 46 19 80.833 41 104.5s57.333 35.5 106 35.5c25.333 0 44 -5.5 56 -16.5s18 -25.167 18 -42.5
c0 -34.667 -15.667 -53 -47 -55c-18 -1.33301 -30 -6.33301 -36 -15s-10.333 -22.667 -13 -42l-19 -163h68c17.333 0 29.5 -4.83301 36.5 -14.5s10.5 -19.167 10.5 -28.5s-3.5 -18.833 -10.5 -28.5s-19.167 -14.5 -36.5 -14.5h-76l-30 -288
c-2 -22 -6.16699 -42.833 -12.5 -62.5s-15.166 -36.834 -26.499 -51.501s-25.666 -26.167 -42.999 -34.5s-38.333 -12.5 -63 -12.5c-30 0 -51.5 6 -64.5 18s-19.5 26 -19.5 42c0 15.333 3.83301 27.833 11.5 37.5s23.834 15.167 48.501 16.5
c14.667 0.666992 25.167 7.5 31.5 20.5s11.166 35.5 14.499 67.5l25 247h-64z" />
    <glyph glyph-name="circumflex" unicode="&#x2c6;" 
d="M47 726c11.333 16.667 22.5 27.667 33.5 33s24.167 8 39.5 8s28.5 -2.66699 39.5 -8s22.167 -16.333 33.5 -33l43 -65c4.66699 -6.66699 7.83398 -12.167 9.50098 -16.5s2.5 -9.16602 2.5 -14.499c0 -12 -4 -21.833 -12 -29.5s-18.667 -11.5 -32 -11.5
c-8.66699 0 -15.834 2 -21.501 6s-10.5 9.33301 -14.5 16l-48 80l-48 -80c-4 -6.66699 -8.83301 -12 -14.5 -16s-12.834 -6 -21.501 -6c-13.333 0 -24 3.83301 -32 11.5s-12 17.5 -12 29.5c0 5.33301 0.833008 10.166 2.5 14.499s4.83398 9.83301 9.50098 16.5z" />
    <glyph glyph-name="caron" unicode="&#x2c7;" 
d="M4 695c-4.66699 6.66699 -7.83398 12.167 -9.50098 16.5s-2.5 9.16602 -2.5 14.499c0 12 4 21.833 12 29.5s18.667 11.5 32 11.5c8.66699 0 15.834 -2 21.501 -6s10.5 -9.33301 14.5 -16l48 -80l48 80c4 6.66699 8.83301 12 14.5 16s12.834 6 21.501 6
c13.333 0 24 -3.83301 32 -11.5s12 -17.5 12 -29.5c0 -5.33301 -0.833008 -10.166 -2.5 -14.499s-4.83398 -9.83301 -9.50098 -16.5l-43 -65c-11.333 -16.667 -22.5 -27.667 -33.5 -33s-24.167 -8 -39.5 -8s-28.5 2.66699 -39.5 8s-22.167 16.333 -33.5 33z" />
    <glyph glyph-name="breve" unicode="&#x2d8;" 
d="M-15 728c0 11.333 3.33496 20.666 10.002 27.999s15.667 11 27 11c15.333 0 27.666 -9.66699 36.999 -29c8 -17.333 16.167 -29.333 24.5 -36s20.5 -10 36.5 -10s28.167 3.33301 36.5 10s16.5 18.667 24.5 36c9.33301 19.333 21.666 29 36.999 29
c11.333 0 20.333 -3.66699 27 -11s10 -16.666 10 -27.999c0 -8 -2.5 -18.667 -7.5 -32s-13 -26.166 -24 -38.499s-25 -23.166 -42 -32.499s-37.5 -14 -61.5 -14s-44.5 4.66699 -61.5 14s-31 20.166 -42 32.499s-19 25.166 -24 38.499s-7.5 24 -7.5 32z" />
    <glyph glyph-name="dotaccent" unicode="&#x2d9;" 
d="M53 666c0 18.667 6.5 34.5 19.5 47.5s28.833 19.5 47.5 19.5s34.5 -6.5 47.5 -19.5s19.5 -28.833 19.5 -47.5s-6.5 -34.5 -19.5 -47.5s-28.833 -19.5 -47.5 -19.5s-34.5 6.5 -47.5 19.5s-19.5 28.833 -19.5 47.5z" />
    <glyph glyph-name="ring" unicode="&#x2da;" 
d="M72 695c0 -13.333 4.66699 -24.666 14 -33.999s20.666 -14 33.999 -14s24.666 4.66699 33.999 14s14 20.666 14 33.999s-4.66699 24.666 -14 33.999s-20.666 14 -33.999 14s-24.666 -4.66699 -33.999 -14s-14 -20.666 -14 -33.999zM14 695c0 30 10.167 55.167 30.5 75.5
s45.5 30.5 75.5 30.5s55.167 -10.167 75.5 -30.5s30.5 -45.5 30.5 -75.5s-10.167 -55.167 -30.5 -75.5s-45.5 -30.5 -75.5 -30.5s-55.167 10.167 -75.5 30.5s-30.5 45.5 -30.5 75.5z" />
    <glyph glyph-name="ogonek" unicode="&#x2db;" 
d="M195 0c-23.333 -17.333 -39.666 -36 -48.999 -56s-14 -38 -14 -54c0 -30.667 12.333 -46 37 -46c9.33301 0 17.666 1.83301 24.999 5.5s13.666 5.5 18.999 5.5c6.66699 0 12 -2.83301 16 -8.5s6 -12.167 6 -19.5c0 -10.667 -6.16699 -20.5 -18.5 -29.5
s-34.166 -13.5 -65.499 -13.5c-34 0 -59.167 7.83301 -75.5 23.5s-24.5 37.5 -24.5 65.5c0 27.333 9 52.5 27 75.5s40.333 40.167 67 51.5h50z" />
    <glyph glyph-name="tilde" unicode="&#x2dc;" 
d="M-45 635c0 10 2.99902 20.0029 8.99902 30.0029s13.667 19 23 27s19.833 14.667 31.5 20s23.167 8 34.5 8c12.667 0 24.834 -1.33301 36.501 -4s22.667 -5.66699 33 -9l27.5 -9c8 -2.66699 14.667 -4 20 -4c8 0 15 1.83301 21 5.5s11.833 7.66699 17.5 12
s11.334 8.33301 17.001 12s12.167 5.5 19.5 5.5c11.333 0 20.833 -3.33301 28.5 -10s11.5 -15.334 11.5 -26.001c0 -10 -2.66699 -20.333 -8 -31s-12.5 -20.334 -21.5 -29.001s-19.333 -15.834 -31 -21.501s-23.834 -8.5 -36.501 -8.5c-4.66699 0 -13 1.33301 -25 4
s-24.667 5.66699 -38 9l-37.5 9c-11.667 2.66699 -19.167 4 -22.5 4c-6.66699 0 -12.667 -1.83301 -18 -5.5s-10.5 -7.5 -15.5 -11.5s-10.167 -7.83301 -15.5 -11.5s-11.333 -5.5 -18 -5.5c-12 0 -22.167 3.5 -30.5 10.5s-12.5 16.833 -12.5 29.5z" />
    <glyph glyph-name="hungarumlaut" unicode="&#x2dd;" 
d="M248 751c7.33301 7.33301 13.666 11.833 18.999 13.5s12 2.5 20 2.5c10.667 0 20.667 -3.83301 30 -11.5s14 -18.167 14 -31.5c0 -9.33301 -2.5 -17.833 -7.5 -25.5s-10.833 -14.5 -17.5 -20.5l-79 -73c-5.33301 -5.33301 -10.833 -9.33301 -16.5 -12
s-12.167 -4 -19.5 -4c-13.333 0 -23.666 4.16699 -30.999 12.5s-11 18.833 -11 31.5c0 12 5 23 15 33zM52 751c7.33301 7.33301 13.666 11.833 18.999 13.5s12 2.5 20 2.5c10.667 0 20.667 -3.83301 30 -11.5s14 -18.167 14 -31.5c0 -9.33301 -2.5 -17.833 -7.5 -25.5
s-10.833 -14.5 -17.5 -20.5l-79 -73c-5.33301 -5.33301 -10.833 -9.33301 -16.5 -12s-12.167 -4 -19.5 -4c-13.333 0 -23.666 4.16699 -30.999 12.5s-11 18.833 -11 31.5c0 12 5 23 15 33z" />
    <glyph glyph-name="endash" unicode="&#x2013;" horiz-adv-x="500" 
d="M72 226c-21.333 0 -37 5.66699 -47 17s-15 24.666 -15 39.999s5 28.666 15 39.999s25.667 17 47 17h356c21.333 0 37 -5.66699 47 -17s15 -24.666 15 -39.999s-5 -28.666 -15 -39.999s-25.667 -17 -47 -17h-356z" />
    <glyph glyph-name="emdash" unicode="&#x2014;" horiz-adv-x="1000" 
d="M72 226c-21.333 0 -37 5.66699 -47 17s-15 24.666 -15 39.999s5 28.666 15 39.999s25.667 17 47 17h856c21.333 0 37 -5.66699 47 -17s15 -24.666 15 -39.999s-5 -28.666 -15 -39.999s-25.667 -17 -47 -17h-856z" />
    <glyph glyph-name="quoteleft" unicode="&#x2018;" horiz-adv-x="222" 
d="M31 552c0 26.667 4.33105 51.1689 12.998 73.502s19.5 41.5 32.5 57.5s27.333 28.333 43 37s30.5 13 44.5 13c8 0 14.5 -2.66699 19.5 -8s7.5 -11 7.5 -17c0 -7.33301 -1.83301 -13 -5.5 -17s-10.5 -7.66699 -20.5 -11c-6 -2 -12.667 -5.33301 -20 -10
s-14.333 -10.167 -21 -16.5s-12.667 -13.5 -18 -21.5s-9 -16.333 -11 -25c4.66699 0.666992 8.33398 1 11.001 1h10c14 0 25.667 -2.5 35 -7.5s17 -11.167 23 -18.5s10.333 -15.333 13 -24s4 -16.334 4 -23.001c0 -21.333 -7.5 -39.833 -22.5 -55.5
s-34.167 -23.5 -57.5 -23.5c-14 0 -26 3 -36 9s-18.167 13.5 -24.5 22.5s-11.166 19.167 -14.499 30.5s-5 22.666 -5 33.999z" />
    <glyph glyph-name="quoteright" unicode="&#x2019;" horiz-adv-x="222" 
d="M31 654c0 21.333 7.50098 39.8359 22.501 55.5029s34.167 23.5 57.5 23.5c14 0 26 -3 36 -9s18.167 -13.5 24.5 -22.5s11.166 -19.333 14.499 -31s5 -22.834 5 -33.501c0 -26.667 -4.33301 -51.167 -13 -73.5s-19.5 -41.5 -32.5 -57.5s-27.333 -28.333 -43 -37
s-30.5 -13 -44.5 -13c-8 0 -14.5 2.66699 -19.5 8s-7.5 11 -7.5 17c0 7.33301 1.83301 13 5.5 17s10.5 7.66699 20.5 11c6 2 12.667 5.33301 20 10s14.333 10.167 21 16.5s12.667 13.5 18 21.5s9 16.333 11 25c-4.66699 -0.666992 -8.66699 -1 -12 -1h-9
c-14 0 -25.667 2.5 -35 7.5s-17 11.167 -23 18.5s-10.333 15.166 -13 23.499s-4 16.166 -4 23.499z" />
    <glyph glyph-name="quotesinglbase" unicode="&#x201a;" horiz-adv-x="222" 
d="M31 60c0 21.333 7.50098 39.8359 22.501 55.5029s34.167 23.5 57.5 23.5c14 0 26 -3 36 -9s18.167 -13.5 24.5 -22.5s11.166 -19.333 14.499 -31s5 -22.834 5 -33.501c0 -26.667 -4.33301 -51.167 -13 -73.5s-19.5 -41.5 -32.5 -57.5s-27.333 -28.333 -43 -37
s-30.5 -13 -44.5 -13c-8 0 -14.5 2.66699 -19.5 8s-7.5 11 -7.5 17c0 7.33301 1.83301 13 5.5 17s10.5 7.66699 20.5 11c6 2 12.667 5.33301 20 10s14.333 10.167 21 16.5s12.667 13.5 18 21.5s9 16.333 11 25c-4.66699 -0.666992 -8.66699 -1 -12 -1h-9
c-14 0 -25.667 2.5 -35 7.5s-17 11.167 -23 18.5s-10.333 15.166 -13 23.499s-4 16.166 -4 23.499z" />
    <glyph glyph-name="quotedblleft" unicode="&#x201c;" horiz-adv-x="426" 
d="M36 552c0 26.667 4.33105 51.1689 12.998 73.502s19.5 41.5 32.5 57.5s27.333 28.333 43 37s30.5 13 44.5 13c8 0 14.5 -2.66699 19.5 -8s7.5 -11 7.5 -17c0 -7.33301 -1.83301 -13 -5.5 -17s-10.5 -7.66699 -20.5 -11c-6 -2 -12.667 -5.33301 -20 -10
s-14.333 -10.167 -21 -16.5s-12.667 -13.5 -18 -21.5s-9 -16.333 -11 -25c4.66699 0.666992 8.33398 1 11.001 1h10c14 0 25.667 -2.5 35 -7.5s17 -11.167 23 -18.5s10.333 -15.333 13 -24s4 -16.334 4 -23.001c0 -21.333 -7.5 -39.833 -22.5 -55.5
s-34.167 -23.5 -57.5 -23.5c-14 0 -26 3 -36 9s-18.167 13.5 -24.5 22.5s-11.166 19.167 -14.499 30.5s-5 22.666 -5 33.999zM229.998 552.002c0 26.667 4.33105 51.1689 12.998 73.502s19.5 41.5 32.5 57.5s27.333 28.333 43 37s30.5 13 44.5 13c8 0 14.5 -2.66699 19.5 -8
s7.5 -11 7.5 -17c0 -7.33301 -1.83301 -13 -5.5 -17s-10.5 -7.66699 -20.5 -11c-6 -2 -12.667 -5.33301 -20 -10s-14.333 -10.167 -21 -16.5s-12.667 -13.5 -18 -21.5s-9 -16.333 -11 -25c4.66699 0.666992 8.33398 1 11.001 1h10c14 0 25.667 -2.5 35 -7.5
s17 -11.167 23 -18.5s10.333 -15.333 13 -24s4 -16.334 4 -23.001c0 -21.333 -7.5 -39.833 -22.5 -55.5s-34.167 -23.5 -57.5 -23.5c-14 0 -26 3 -36 9s-18.167 13.5 -24.5 22.5s-11.166 19.167 -14.499 30.5s-5 22.666 -5 33.999z" />
    <glyph glyph-name="quotedblright" unicode="&#x201d;" horiz-adv-x="426" 
d="M230 654c0 21.333 7.50098 39.8359 22.501 55.5029s34.167 23.5 57.5 23.5c14 0 26 -3 36 -9s18.167 -13.5 24.5 -22.5s11.166 -19.333 14.499 -31s5 -22.834 5 -33.501c0 -26.667 -4.33301 -51.167 -13 -73.5s-19.5 -41.5 -32.5 -57.5s-27.333 -28.333 -43 -37
s-30.5 -13 -44.5 -13c-8 0 -14.5 2.66699 -19.5 8s-7.5 11 -7.5 17c0 7.33301 1.83301 13 5.5 17s10.5 7.66699 20.5 11c6 2 12.667 5.33301 20 10s14.333 10.167 21 16.5s12.667 13.5 18 21.5s9 16.333 11 25c-4.66699 -0.666992 -8.66699 -1 -12 -1h-9
c-14 0 -25.667 2.5 -35 7.5s-17 11.167 -23 18.5s-10.333 15.166 -13 23.499s-4 16.166 -4 23.499zM36.001 654.003c0 21.333 7.50098 39.8359 22.501 55.5029s34.167 23.5 57.5 23.5c14 0 26 -3 36 -9s18.167 -13.5 24.5 -22.5s11.166 -19.333 14.499 -31
s5 -22.834 5 -33.501c0 -26.667 -4.33301 -51.167 -13 -73.5s-19.5 -41.5 -32.5 -57.5s-27.333 -28.333 -43 -37s-30.5 -13 -44.5 -13c-8 0 -14.5 2.66699 -19.5 8s-7.5 11 -7.5 17c0 7.33301 1.83301 13 5.5 17s10.5 7.66699 20.5 11c6 2 12.667 5.33301 20 10
s14.333 10.167 21 16.5s12.667 13.5 18 21.5s9 16.333 11 25c-4.66699 -0.666992 -8.66699 -1 -12 -1h-9c-14 0 -25.667 2.5 -35 7.5s-17 11.167 -23 18.5s-10.333 15.166 -13 23.499s-4 16.166 -4 23.499z" />
    <glyph glyph-name="quotedblbase" unicode="&#x201e;" horiz-adv-x="426" 
d="M230 60c0 21.333 7.50098 39.8359 22.501 55.5029s34.167 23.5 57.5 23.5c14 0 26 -3 36 -9s18.167 -13.5 24.5 -22.5s11.166 -19.333 14.499 -31s5 -22.834 5 -33.501c0 -26.667 -4.33301 -51.167 -13 -73.5s-19.5 -41.5 -32.5 -57.5s-27.333 -28.333 -43 -37
s-30.5 -13 -44.5 -13c-8 0 -14.5 2.66699 -19.5 8s-7.5 11 -7.5 17c0 7.33301 1.83301 13 5.5 17s10.5 7.66699 20.5 11c6 2 12.667 5.33301 20 10s14.333 10.167 21 16.5s12.667 13.5 18 21.5s9 16.333 11 25c-4.66699 -0.666992 -8.66699 -1 -12 -1h-9
c-14 0 -25.667 2.5 -35 7.5s-17 11.167 -23 18.5s-10.333 15.166 -13 23.499s-4 16.166 -4 23.499zM36.001 60.0029c0 21.333 7.50098 39.8359 22.501 55.5029s34.167 23.5 57.5 23.5c14 0 26 -3 36 -9s18.167 -13.5 24.5 -22.5s11.166 -19.333 14.499 -31
s5 -22.834 5 -33.501c0 -26.667 -4.33301 -51.167 -13 -73.5s-19.5 -41.5 -32.5 -57.5s-27.333 -28.333 -43 -37s-30.5 -13 -44.5 -13c-8 0 -14.5 2.66699 -19.5 8s-7.5 11 -7.5 17c0 7.33301 1.83301 13 5.5 17s10.5 7.66699 20.5 11c6 2 12.667 5.33301 20 10
s14.333 10.167 21 16.5s12.667 13.5 18 21.5s9 16.333 11 25c-4.66699 -0.666992 -8.66699 -1 -12 -1h-9c-14 0 -25.667 2.5 -35 7.5s-17 11.167 -23 18.5s-10.333 15.166 -13 23.499s-4 16.166 -4 23.499z" />
    <glyph glyph-name="dagger" unicode="&#x2020;" horiz-adv-x="480" 
d="M77 380c-20.667 0 -35.5 5 -44.5 15s-13.5 22.667 -13.5 38s4.5 28 13.5 38s23.833 15 44.5 15h102v174c0 25.333 5.5 43.833 16.5 55.5s25.833 17.5 44.5 17.5s33.5 -5.83301 44.5 -17.5s16.5 -30.167 16.5 -55.5v-174h102c20.667 0 35.5 -5 44.5 -15
s13.5 -22.667 13.5 -38s-4.5 -28 -13.5 -38s-23.833 -15 -44.5 -15h-102v-494c0 -25.333 -5.5 -43.833 -16.5 -55.5s-25.833 -17.5 -44.5 -17.5s-33.5 5.83301 -44.5 17.5s-16.5 30.167 -16.5 55.5v494h-102z" />
    <glyph glyph-name="daggerdbl" unicode="&#x2021;" horiz-adv-x="480" 
d="M179 412h-102c-20.667 0 -35.5 5 -44.5 15s-13.5 22.667 -13.5 38s4.5 28 13.5 38s23.833 15 44.5 15h102v142c0 25.333 5.5 43.833 16.5 55.5s25.833 17.5 44.5 17.5s33.5 -5.83301 44.5 -17.5s16.5 -30.167 16.5 -55.5v-142h102c20.667 0 35.5 -5 44.5 -15
s13.5 -22.667 13.5 -38s-4.5 -28 -13.5 -38s-23.833 -15 -44.5 -15h-102v-278h102c20.667 0 35.5 -5 44.5 -15s13.5 -22.667 13.5 -38s-4.5 -28 -13.5 -38s-23.833 -15 -44.5 -15h-102v-142c0 -25.333 -5.5 -43.833 -16.5 -55.5s-25.833 -17.5 -44.5 -17.5
s-33.5 5.83301 -44.5 17.5s-16.5 30.167 -16.5 55.5v142h-102c-20.667 0 -35.5 5 -44.5 15s-13.5 22.667 -13.5 38s4.5 28 13.5 38s23.833 15 44.5 15h102v278z" />
    <glyph glyph-name="bullet" unicode="&#x2022;" horiz-adv-x="500" 
d="M70 360c0 24.667 4.66699 48 14 70s22.166 41.167 38.499 57.5s35.5 29.166 57.5 38.499s45.333 14 70 14s48 -4.66699 70 -14s41.167 -22.166 57.5 -38.499s29.166 -35.5 38.499 -57.5s14 -45.333 14 -70s-4.66699 -48 -14 -70s-22.166 -41.167 -38.499 -57.5
s-35.5 -29.166 -57.5 -38.499s-45.333 -14 -70 -14s-48 4.66699 -70 14s-41.167 22.166 -57.5 38.499s-29.166 35.5 -38.499 57.5s-14 45.333 -14 70z" />
    <glyph glyph-name="ellipsis" unicode="&#x2026;" horiz-adv-x="1000" 
d="M424 63c0 21.333 7.33301 39.333 22 54s32.667 22 54 22s39.333 -7.33301 54 -22s22 -32.667 22 -54s-7.33301 -39.333 -22 -54s-32.667 -22 -54 -22s-39.333 7.33301 -54 22s-22 32.667 -22 54zM757 63c0 21.333 7.33301 39.333 22 54s32.667 22 54 22
s39.333 -7.33301 54 -22s22 -32.667 22 -54s-7.33301 -39.333 -22 -54s-32.667 -22 -54 -22s-39.333 7.33301 -54 22s-22 32.667 -22 54zM91 63c0 21.333 7.33301 39.333 22 54s32.667 22 54 22s39.333 -7.33301 54 -22s22 -32.667 22 -54s-7.33301 -39.333 -22 -54
s-32.667 -22 -54 -22s-39.333 7.33301 -54 22s-22 32.667 -22 54z" />
    <glyph glyph-name="perthousand" unicode="&#x2030;" horiz-adv-x="1000" 
d="M112 546c0 -34 2.66699 -58.833 8 -74.5s18.666 -23.5 39.999 -23.5s34.666 7.83301 39.999 23.5s8 40.5 8 74.5s-2.66699 58.833 -8 74.5s-18.666 23.5 -39.999 23.5s-34.666 -7.83301 -39.999 -23.5s-8 -40.5 -8 -74.5zM792 161c0 -34 2.66699 -58.833 8 -74.5
s18.666 -23.5 39.999 -23.5s34.666 7.83301 39.999 23.5s8 40.5 8 74.5s-2.66699 58.833 -8 74.5s-18.666 23.5 -39.999 23.5s-34.666 -7.83301 -39.999 -23.5s-8 -40.5 -8 -74.5zM458 161c0 -34 2.66699 -58.833 8 -74.5s18.666 -23.5 39.999 -23.5
s34.666 7.83301 39.999 23.5s8 40.5 8 74.5s-2.66699 58.833 -8 74.5s-18.666 23.5 -39.999 23.5s-34.666 -7.83301 -39.999 -23.5s-8 -40.5 -8 -74.5zM163 -10c-7.33301 -11.333 -14.333 -18.833 -21 -22.5s-14 -5.5 -22 -5.5c-11.333 0 -20.333 3.33301 -27 10
s-10 13.667 -10 21c0 8.66699 3.33301 18.667 10 30l413 694c7.33301 11.333 14.333 18.833 21 22.5s14 5.5 22 5.5c11.333 0 20.333 -3.33301 27 -10s10 -13.667 10 -21c0 -8.66699 -3.33301 -18.667 -10 -30zM16 553c0 53.333 10.6689 94.5 32.002 123.5
s58.666 43.5 111.999 43.5s90.666 -14.5 111.999 -43.5s32 -70.167 32 -123.5c0 -26 -1.5 -50 -4.5 -72s-9.5 -41 -19.5 -57s-24.5 -28.667 -43.5 -38s-44.5 -14 -76.5 -14s-57.5 4.66699 -76.5 14s-33.5 22 -43.5 38s-16.5 35 -19.5 57s-4.5 46 -4.5 72zM696.002 168
c0 53.333 10.6689 94.5 32.002 123.5s58.666 43.5 111.999 43.5s90.666 -14.5 111.999 -43.5s32 -70.167 32 -123.5c0 -26 -1.5 -50 -4.5 -72s-9.5 -41 -19.5 -57s-24.5 -28.667 -43.5 -38s-44.5 -14 -76.5 -14s-57.5 4.66699 -76.5 14s-33.5 22 -43.5 38s-16.5 35 -19.5 57
s-4.5 46 -4.5 72zM362.004 168c0 53.333 10.6689 94.5 32.002 123.5s58.666 43.5 111.999 43.5s90.666 -14.5 111.999 -43.5s32 -70.167 32 -123.5c0 -26 -1.5 -50 -4.5 -72s-9.5 -41 -19.5 -57s-24.5 -28.667 -43.5 -38s-44.5 -14 -76.5 -14s-57.5 4.66699 -76.5 14
s-33.5 22 -43.5 38s-16.5 35 -19.5 57s-4.5 46 -4.5 72z" />
    <glyph glyph-name="guilsinglleft" unicode="&#x2039;" horiz-adv-x="259" 
d="M194 219c8 -7.33301 14.5 -13.8311 19.5 -19.498s7.5 -11.834 7.5 -18.501c0 -14.667 -4.5 -25.667 -13.5 -33s-19.167 -11 -30.5 -11s-21.666 4.66699 -30.999 14l-72 65c-14.667 13.333 -24.334 24.833 -29.001 34.5s-7 20.5 -7 32.5s2.33301 22.833 7 32.5
s14.334 21.167 29.001 34.5l72 65c9.33301 9.33301 19.666 14 30.999 14s21.5 -3.66699 30.5 -11s13.5 -18.333 13.5 -33c0 -6.66699 -2.5 -12.834 -7.5 -18.501s-11.5 -12.167 -19.5 -19.5l-73 -64z" />
    <glyph glyph-name="guilsinglright" unicode="&#x203a;" horiz-adv-x="259" 
d="M65 347c-8 7.33301 -14.5 13.8311 -19.5 19.498s-7.5 11.834 -7.5 18.501c0 14.667 4.5 25.667 13.5 33s19.167 11 30.5 11s21.666 -4.66699 30.999 -14l72 -65c14.667 -13.333 24.334 -24.833 29.001 -34.5s7 -20.5 7 -32.5s-2.33301 -22.833 -7 -32.5
s-14.334 -21.167 -29.001 -34.5l-72 -65c-9.33301 -9.33301 -19.666 -14 -30.999 -14s-21.5 3.66699 -30.5 11s-13.5 18.333 -13.5 33c0 6.66699 2.5 12.834 7.5 18.501s11.5 12.167 19.5 19.5l73 64z" />
    <glyph glyph-name="fraction" unicode="&#x2044;" horiz-adv-x="167" 
d="M199 719c3.33301 7.33301 8.5 13.501 15.5 18.501s16.167 7.5 27.5 7.5c12 0 20.833 -3.33301 26.5 -10s8.5 -13.667 8.5 -21c0 -10.667 -2 -20.334 -6 -29.001l-303 -697c-3.33301 -7.33301 -8.5 -13.5 -15.5 -18.5s-16.167 -7.5 -27.5 -7.5
c-12 0 -20.833 3.33301 -26.5 10s-8.5 13.667 -8.5 21c0 10 2 19.667 6 29z" />
    <glyph glyph-name="fraction" unicode="&#x2215;" horiz-adv-x="167" 
d="M199 719c3.33301 7.33301 8.5 13.501 15.5 18.501s16.167 7.5 27.5 7.5c12 0 20.833 -3.33301 26.5 -10s8.5 -13.667 8.5 -21c0 -10.667 -2 -20.334 -6 -29.001l-303 -697c-3.33301 -7.33301 -8.5 -13.5 -15.5 -18.5s-16.167 -7.5 -27.5 -7.5
c-12 0 -20.833 3.33301 -26.5 10s-8.5 13.667 -8.5 21c0 10 2 19.667 6 29z" />
    </font>
</defs>
</svg>
