<?xml version="1.0" encoding="utf-8"?>
<!-- Generator: Adobe Illustrator 16.0.0, SVG Export Plug-In . SVG Version: 6.00 Build 0)  -->
<!DOCTYPE svg PUBLIC "-//W3C//DTD SVG 1.1//EN" "http://www.w3.org/Graphics/SVG/1.1/DTD/svg11.dtd">
<svg version="1.1" id="Mode_Isolation" xmlns="http://www.w3.org/2000/svg" xmlns:xlink="http://www.w3.org/1999/xlink" x="0px"
	 y="0px" width="45.883px" height="45.883px" viewBox="0 0 45.883 45.883" enable-background="new 0 0 45.883 45.883"
	 xml:space="preserve">
<g>
	<g>
		<path fill="#FFFFFF" d="M20.327,9.674c0.888,0.735,2.745,2.281,2.745,5.223c0,2.864-1.624,4.218-3.248,5.491
			c-0.504,0.505-1.084,1.046-1.084,1.898c0,0.852,0.58,1.315,1.005,1.662l1.393,1.084c1.702,1.43,3.25,2.747,3.25,5.417
			c0,3.637-3.521,7.31-10.175,7.31c-5.61,0-8.317-2.668-8.317-5.531c0-1.394,0.696-3.364,2.98-4.721
			c2.396-1.47,5.648-1.662,7.387-1.778c-0.541-0.696-1.16-1.434-1.16-2.631c0-0.657,0.194-1.044,0.387-1.508
			c-0.426,0.038-0.851,0.077-1.239,0.077c-4.1,0-6.422-3.056-6.422-6.073c0-1.78,0.815-3.755,2.477-5.185
			c2.205-1.818,4.836-2.127,6.924-2.127h7.969l-2.476,1.392H20.327z M17.58,26.851c-0.312-0.038-0.504-0.038-0.889-0.038
			c-0.35,0-2.439,0.076-4.063,0.617c-0.852,0.31-3.327,1.237-3.327,3.986c0,2.746,2.668,4.719,6.809,4.719
			c3.714,0,5.685-1.778,5.685-4.178C21.794,29.982,20.52,28.941,17.58,26.851 M18.701,19.501c0.892-0.89,0.967-2.129,0.967-2.826
			c0-2.785-1.665-7.119-4.875-7.119c-1.005,0-2.088,0.505-2.708,1.279c-0.657,0.812-0.852,1.856-0.852,2.862
			c0,2.591,1.509,6.887,4.837,6.887C17.037,20.584,18.08,20.119,18.701,19.501"/>
		<polygon fill="#FFFFFF" points="39.988,14 34.112,14 34.112,8.124 32.642,8.124 32.642,14 26.765,14 26.765,15.469 32.642,15.469 
			32.642,21.347 34.112,21.347 34.112,15.469 39.988,15.469 		"/>
	</g>
</g>
</svg>
