<?xml version="1.0" encoding="utf-8"?>
<!-- Generator: Adobe Illustrator 16.0.0, SVG Export Plug-In . SVG Version: 6.00 Build 0)  -->
<!DOCTYPE svg PUBLIC "-//W3C//DTD SVG 1.1//EN" "http://www.w3.org/Graphics/SVG/1.1/DTD/svg11.dtd">
<svg version="1.1" id="Mode_Isolation" xmlns="http://www.w3.org/2000/svg" xmlns:xlink="http://www.w3.org/1999/xlink" x="0px"
	 y="0px" width="45.883px" height="45.883px" viewBox="0 0 45.883 45.883" enable-background="new 0 0 45.883 45.883"
	 xml:space="preserve">
<path fill="#FFFFFF" d="M40.92,11.789c-1.323,0.588-2.745,0.984-4.237,1.162c1.523-0.912,2.693-2.359,3.244-4.082
	c-1.426,0.846-3.005,1.461-4.686,1.791c-1.345-1.434-3.263-2.33-5.384-2.33c-4.074,0-7.377,3.303-7.377,7.377
	c0,0.578,0.064,1.141,0.19,1.682c-6.131-0.309-11.566-3.244-15.205-7.707c-0.635,1.088-0.999,2.355-0.999,3.707
	c0,2.561,1.303,4.818,3.282,6.141c-1.209-0.037-2.347-0.369-3.342-0.922c0,0.031,0,0.061,0,0.092c0,3.574,2.543,6.557,5.917,7.234
	c-0.619,0.168-1.271,0.258-1.943,0.258c-0.476,0-0.938-0.045-1.388-0.131c0.938,2.93,3.663,5.063,6.891,5.123
	c-2.524,1.979-5.705,3.158-9.161,3.158c-0.596,0-1.183-0.035-1.76-0.104c3.265,2.092,7.143,3.314,11.308,3.314
	c13.569,0,20.989-11.242,20.989-20.99c0-0.32-0.007-0.637-0.021-0.955C38.68,14.568,39.931,13.27,40.92,11.789z"/>
</svg>
