<?xml version="1.0" encoding="utf-8"?>
<!-- Generator: Adobe Illustrator 16.0.0, SVG Export Plug-In . SVG Version: 6.00 Build 0)  -->
<!DOCTYPE svg PUBLIC "-//W3C//DTD SVG 1.1//EN" "http://www.w3.org/Graphics/SVG/1.1/DTD/svg11.dtd">
<svg version="1.1" xmlns="http://www.w3.org/2000/svg" xmlns:xlink="http://www.w3.org/1999/xlink" x="0px" y="0px" width="300px"
	 height="300px" viewBox="0 0 300 300" enable-background="new 0 0 300 300" xml:space="preserve">
<g id="Calque_1" display="none">
	<g id="Calque_1_9_">
		<g id="Calque_1_8_" display="inline">
			<g id="bouche_x5F_dents" display="none">
				<path id="bouche_x5F_dents_x5F_fond" display="inline" d="M231.452,87.456c-14.942-2.302-22.415,32.842-1.563,37.013
					C250.74,128.639,251.783,90.584,231.452,87.456z"/>
				<path id="bottom_x5F_left" display="inline" fill="#FFFFFF" d="M230.33,122.752c-0.133-3.872-1.732-6.646-3.51-4.604
					c-0.312-1.352-1.069-1.956-2.178-1.095c0.133-1.148-0.252-1.871-1.265-1.598c0.165-0.94-0.183-1.529-1.188-1.322
					c0.385-0.841,0.227-1.468-0.713-1.459c0.813-0.845,0.601-1.655-1.676-1.504l0.135,1.866c-0.078,0.027-0.146,0.052-0.23,0.085
					l0.743,1.809c-0.066,0.042-0.13,0.074-0.198,0.121l1.104,1.661c-0.028,0.021-0.056,0.042-0.082,0.064l0.512,0.58l0.419,0.635
					c0.021-0.03,0.038-0.063,0.06-0.092l0.867,0.984c-0.066,0.107-0.133,0.198-0.201,0.313l2.532,1.481
					c-0.043,0.112-0.086,0.206-0.129,0.325L230.33,122.752z"/>
				<path id="top_x5F_left" display="inline" fill="#FFFFFF" d="M228.609,90.349l-2.707,1.586c0.027,0.045,0.053,0.079,0.078,0.122
					l-1.521,1.212c1.584,1.357,2.349,0.938,2.367-0.081C228.275,94.652,229,92.769,228.609,90.349z"/>
				<path id="bottom_x5F_right" display="inline" fill="#FFFFFF" d="M232.366,123.093c0.133-3.872,1.731-6.646,3.51-4.604
					c0.308-1.352,1.067-1.953,2.179-1.095c-0.134-1.146,0.25-1.871,1.26-1.597c-0.164-0.94,0.186-1.53,1.188-1.322
					c-0.382-0.841-0.226-1.469,0.713-1.459c-0.813-0.845-0.597-1.656,1.681-1.504l-0.14,1.866c0.08,0.03,0.147,0.052,0.231,0.085
					l-0.741,1.808c0.065,0.042,0.128,0.074,0.196,0.121l-1.102,1.661c0.029,0.024,0.055,0.042,0.082,0.067l-0.512,0.581
					l-0.418,0.631c-0.021-0.03-0.038-0.063-0.061-0.089l-0.867,0.981c0.064,0.108,0.134,0.198,0.201,0.314l-2.531,1.481
					c0.043,0.112,0.086,0.205,0.127,0.324L232.366,123.093z"/>
				<path id="top_x5F_right" display="inline" fill="#FFFFFF" d="M233.2,90.349l2.706,1.586c-0.026,0.045-0.053,0.079-0.078,0.122
					l1.52,1.212c-1.584,1.357-2.348,0.938-2.369-0.081C233.532,94.652,232.809,92.769,233.2,90.349z"/>
			</g>
			<g id="long_x5F_nez" display="none">
				<path display="inline" d="M142.167,116.833c2.333,11,1.667,18.667-5,24s-15.667,5-7,12.333s2-4,4-2.667s1,8.333,4.333,5.333
					s5.667-3.999,4.333,0.334s4.667,5.667,6.333-0.667c1.667-6.333,4-30.667-1-38.667
					C143.167,108.833,141.833,110.167,142.167,116.833z"/>
			</g>
			<g id="moustache" display="none">
				<g display="inline">
					<path id="moustache_right" d="M61.926,155.5c4.667-9.333,9.333-8,13.333-4s13.333,2,10.667-4.667
						c-2.667-6.667-7,2.333-4.333,2.333c-3,1.667,0.333-10.667,5.333-5s-2.667,17.667-12.333,12.667S61.926,155.5,61.926,155.5z"/>
					<path id="moustache_left" d="M53.5,155.5c-4.667-9.333-9.333-8-13.333-4s-13.333,2-10.667-4.667
						c2.667-6.667,7,2.333,4.333,2.333c3,1.667-0.333-10.667-5.333-5s2.667,17.667,12.333,12.667S53.5,155.5,53.5,155.5z"/>
				</g>
			</g>
			<g id="bouche_de_fille" display="none">
				<path display="inline" d="M148.834,172.19c4-1.767,6.667-3.025,13.333-1.515c-5.667-6.563-9-9.083-12-5.802
					c-3,3.277-3.667,3.528-9-0.253c-5.333-3.785-7.333,4.034-13,7.314c0,0,2.921-1.045,6.36-1.243c5.97,4.03,5.647,8.059,10.64,8.31
					c5,0.253,5.333-6.058,11.667-8.073c-6,0-8,2.775-11,2.775c-2.371,0-5.574-2.356-8.787-2.977c0.831,0.073,1.659,0.21,2.453,0.45
					C144.5,172.695,144.834,173.957,148.834,172.19z"/>
			</g>
			<g id="triangle" display="none">
				<polygon display="inline" points="216.184,171.334 237.834,133.834 259.484,171.334 				"/>
			</g>
			<g id="coeur" display="none">
				<path display="inline" d="M186.156,126.399c-7.079-17.106-23.6-9.438-15.34,2.36c8.261,11.8,14.75,7.08,17.106,19.469
					c2.359-11.209,12.151-13.996,14.749-20.059C207.984,115.779,193.236,108.7,186.156,126.399z"/>
			</g>
			<g id="Calque_6" display="none">
				<g display="inline">
					<g id="manga_x5F_left">
						<path id="blanc_8_" d="M213.833,63.833c-14.333,0-15.666,19.333-7.666,19.333s3.333-7.833,7.833-7.833
							s0.838,7.583,7.833,7.833C231.167,83.5,228.833,63.833,213.833,63.833z"/>
						<circle id="pupille_4_" fill="#FFFFFF" cx="213.5" cy="69.833" r="2.333"/>
					</g>
					<g id="manga_x5F_right_1_">
						<path id="blanc_7_" d="M252.486,63.833c14.334,0,15.666,19.333,7.666,19.333s-3.332-7.833-7.832-7.833
							s-0.838,7.583-7.834,7.833C235.152,83.5,237.486,63.833,252.486,63.833z"/>
						<circle id="pupille_3_" fill="#FFFFFF" cx="253.167" cy="69.833" r="2.333"/>
					</g>
				</g>
				<g display="inline">
					<g id="manga_x5F_left_1_">
						<path id="blanc_10_" d="M213.833,63.833c-14.333,0-15.666,19.333-7.666,19.333s3.333-7.833,7.833-7.833
							s0.838,7.583,7.833,7.833C231.167,83.5,228.833,63.833,213.833,63.833z"/>
						<circle id="pupille_6_" fill="#FFFFFF" cx="213.5" cy="69.833" r="2.333"/>
					</g>
					<g id="manga_x5F_right_2_">
						<path id="blanc_9_" d="M252.486,63.833c14.334,0,15.666,19.333,7.666,19.333s-3.332-7.833-7.832-7.833
							s-0.838,7.583-7.834,7.833C235.152,83.5,237.486,63.833,252.486,63.833z"/>
						<circle id="pupille_5_" fill="#FFFFFF" cx="253.167" cy="69.833" r="2.333"/>
					</g>
				</g>
			</g>
			<g id="mangas_x5F_closed" display="none">
				<g display="inline">
					<g id="manga_x5F_left_2_">
						<path id="blanc_12_" d="M213.833,68.564c-14.333,0-15.666,1.607-7.666,1.607s3.333-0.202,7.833-0.202s0.838,0.176,7.833,0.202
							C231.167,70.206,228.833,68.564,213.833,68.564z"/>
						<ellipse id="pupille_8_" fill="#FFFFFF" cx="213.5" cy="69.19" rx="2.333" ry="0.244"/>
					</g>
					<g id="manga_x5F_right_3_">
						<path id="blanc_11_" d="M252.486,68.564c14.334,0,15.666,1.607,7.666,1.607s-3.332-0.202-7.832-0.202
							s-0.838,0.176-7.834,0.202C235.152,70.206,237.486,68.564,252.486,68.564z"/>
						<ellipse id="pupille_7_" fill="#FFFFFF" cx="253.167" cy="69.19" rx="2.333" ry="0.244"/>
					</g>
				</g>
			</g>
			<g id="Calque_5" display="none">
				<g id="myops" display="inline">
					<path id="myops_x5F_blanc" d="M137.833,42.167c-20.107,4.468-26.5,27-25,38s21.5,26.5,37,23s29-14.5,27.5-33.5
						C175.391,45.061,151.333,39.167,137.833,42.167z"/>
					<path id="myops_x5F_pupille" fill="#FFFFFF" d="M145.501,63.299c-5.109,0-9.25,4.141-9.25,9.25s4.141,9.25,9.25,9.25
						c5.108,0,9.25-4.141,9.25-9.25S150.609,63.299,145.501,63.299z M145.501,76.333c-2.09,0-3.784-1.694-3.784-3.784
						s1.694-3.784,3.784-3.784s3.784,1.694,3.784,3.784S147.591,76.333,145.501,76.333z"/>
				</g>
			</g>
			<g id="myops-closed" display="none">
				<g id="myops_1_" display="inline">
					<path id="myops_x5F_blanc_1_" d="M144.834,82.833c-20.107,4.468-23.333,0-32-2.667c2.667,3,16.5,8.5,32,5
						s19-6.333,28.333-10.333C162.5,78.167,158.334,79.833,144.834,82.833z"/>
					<path id="myops_x5F_pupille_1_" fill="#FFFFFF" d="M142.833,83.955c-3.703,0.605-6.67,1.297-6.631,1.539
						c0.04,0.239,3.072-0.058,6.774-0.663c3.702-0.608,6.67-1.297,6.63-1.538C149.567,83.051,146.534,83.348,142.833,83.955z
						 M142.934,84.572c-1.514,0.249-2.755,0.371-2.771,0.271c-0.017-0.099,1.198-0.38,2.713-0.629
						c1.514-0.249,2.755-0.37,2.771-0.271C145.663,84.042,144.448,84.324,142.934,84.572z"/>
				</g>
			</g>
			<g id="Calque_13" display="none">
			</g>
			<g id="Calque_1_7_">
				<g id="Calque_1_6_" display="none">
					<g id="Calque_1_5_" display="inline">
						<g id="Calque_1_4_">
							<g id="Calque_1_3_">
								<g id="Calque_1_2_">
									<g id="Calque_4" display="none">
									</g>
									<g id="Calque_1_1_">
										<g>
											<path fill="#FF9773" d="M78.704,61.247c-15.258,15.438-32,43.5-37.5,65.5s-6,61,10.5,91s62,54,95,53.5s66.5-15.5,82-33
												s34.5-46.001,33.5-75.001s-18.188-66.837-47.5-98C167.204,14.747,119.704,19.747,78.704,61.247z"/>
											<path fill="#E26F50" d="M147.025,139.287c-8.583,1.707-7.837,29.604-8.708,42.67c-0.87,13.063,5.473,3.172,6.203,1.082
												c0.73-2.099,0.521,1.672,2.298,2.926c1.777,1.254,2.718-0.104,2.821-2.613c0.105-2.508,2.509-0.729,3.972,2.717
												c1.464,3.449,6.479,0.422,4.181-6.27C155.492,173.109,156.323,137.438,147.025,139.287z"/>
											<path fill="#E26F50" d="M132.501,205.363c-1.382,1.313,3.43,37.727,13.717,51.438c10.287,13.717,9.524-2.479,11.05-6.668
												c1.522-4.189,8-31.052,8.381-39.624C166.029,201.934,143.741,194.695,132.501,205.363z"/>
											<path fill="#AF4C35" d="M133.704,208.247c-0.207-5.587,21-8.001,30.5,2.5c-8,41-10,46-15,46
												S134.204,221.747,133.704,208.247z"/>
											<path fill="#FFFFFF" d="M139.489,210.963l4.03,0.033C142.854,205.285,139.498,202.404,139.489,210.963z"/>
											<path fill="#FFFFFF" d="M157.52,210.963l-4.031,0.033C154.154,205.285,157.512,202.404,157.52,210.963z"/>
											<path fill="#FFFFFF" d="M158.934,211.104l-2.979-0.416C157.063,206.535,159.859,204.77,158.934,211.104z"/>
											<path fill="#FFFFFF" d="M137.133,211.104l2.985-0.416C139.002,206.535,136.204,204.77,137.133,211.104z"/>
											<path fill="#FFFFFF" d="M149.502,249.582l-3.997,0.521C146.958,255.673,150.682,258.061,149.502,249.582z"/>
											<path fill="#FFFFFF" d="M149.843,249.796l4.031-0.032C153.208,255.475,149.852,258.354,149.843,249.796z"/>
											<path fill="none" stroke="#AF4C35" stroke-width="7" stroke-linecap="round" stroke-miterlimit="10" d="M70.204,111.747
												c5.5-10,29.5-24.5,40,7.5"/>
											<path fill="none" stroke="#AF4C35" stroke-width="7" stroke-linecap="round" stroke-miterlimit="10" d="M221.204,112.747
												c-5.5-10-29.5-24.5-40,7.5"/>
										</g>
									</g>
									<g id="Calque_3" display="none">
										<g display="inline">
											<path fill="#FF9773" d="M85.663,61.247c-15.258,15.438-38,43.5-43.5,65.5s-6,61,10.5,91s62,54,95,53.5s66.5-15.5,82-33
												s34.5-46.001,33.5-75.001s-12.188-66.837-41.5-98C174.163,14.747,126.663,19.747,85.663,61.247z"/>
											<path fill="#E26F50" d="M60.672,141.706c5.841,27.4,11.231,38.188,21.116,41.785
												c9.885,3.594,30.103-11.688,33.248-29.204C106.5,150.691,60.672,141.706,60.672,141.706z"/>
											<path fill="#E26F50" d="M233.305,142.94c-5.805,27.235-11.162,37.951-20.984,41.522
												c-9.813,3.57-29.903-11.608-33.028-29.021C187.766,151.87,233.305,142.94,233.305,142.94z"/>
											<path fill="#FFFFFF" d="M65.312,147.548l45.896,10.56C111.207,158.107,86.025,176.791,65.312,147.548z"/>
											<path fill="#FFFFFF" d="M184.723,159.732l45.896-11.771C220.464,159.732,210.716,171.512,184.723,159.732z"/>
											<path fill="#E26F50" d="M140.045,163.795c-4.063,8.936-0.813,25.184-0.813,25.184c-0.405-0.401,8.529,0.404,8.529,0.404
												C146.138,185.322,140.045,163.795,140.045,163.795z"/>
											<path fill="#E26F50" d="M156.697,163.795c-0.813,3.25-3.248,25.184-3.248,25.184c0.813,0.404,9.746-0.813,9.746-0.813
												C161.165,174.355,160.354,165.014,156.697,163.795z"/>
											<circle fill="#E26F50" cx="87.245" cy="154.859" r="1.625"/>
											<circle fill="#E26F50" cx="208.245" cy="153.859" r="1.625"/>
											<path fill="#E26F50" d="M97.663,224.669c54-14.104,59.5-14.104,105-0.587
												C186.663,233.484,122.163,235.247,97.663,224.669z"/>
											<path fill="#FFFFFF" d="M188.079,227.288c-19.029,3.396-40.463,9.287-74.583,0.898
												C117.652,225.477,177.581,223.665,188.079,227.288z"/>
											<g>
												<path fill="#E26F50" d="M87.663,128.247c5.316,13.294,27.5,19,39.5,20s45,0,55-5s16.5-4.5,21.5-9s-5.5-3-7.5-2.5
													s-48.5,22.5-69.5,12S86.663,125.747,87.663,128.247z"/>
												<path fill="#E26F50" d="M79.663,120.747c-7.104-7.749,28,5.5,48,6s51.5-4.5,64-5.5s15,4,15,4s-19,3.5-26.5,5
													s-38,3.5-46.5,2.5S85.163,126.747,79.663,120.747z"/>
												<path fill="#E26F50" d="M86.663,109.747c7.824,12.521,35.5,9.5,48,9.5s40.5-6,53-6s-2-3.5-6-4s-38,11-48,7.5
													S84.163,105.747,86.663,109.747z"/>
											</g>
											<path fill="#AF4C35" d="M107.663,190.246c-6-6.5-16-20.5-33-11s-37,16-35,2.5c-11,12,12.5,20,23,16s17-10.5,23.5-3.5
												S102.663,204.746,107.663,190.246z"/>
											<path fill="#AF4C35" d="M191.8,188.246c6-6.5,16-20.5,33-11s37,16,35,2.5c11,12-12.5,20-23,16s-17-10.5-23.5-3.5
												S196.8,202.746,191.8,188.246z"/>
											<path fill="#AF4C35" d="M66.329,114.41c-2.764,0.604,56.667,45.333,56.667,45.333S87.662,109.744,66.329,114.41z"/>
											<path fill="#AF4C35" d="M171.282,159.441l65.714-41.358C219.663,115.41,196.9,123.474,171.282,159.441z"/>
										</g>
									</g>
								</g>
								<g id="simplehead" display="none">
									<path display="inline" fill="#FF9773" d="M78.704,61.247c-15.258,15.438-32,43.5-37.5,65.5s-6,61,10.5,91s62,54,95,53.5
										s66.5-15.5,82-33s34.5-46.001,33.5-75.001s-18.188-66.837-47.5-98C167.204,14.747,119.704,19.747,78.704,61.247z"/>
								</g>
							</g>
							<g id="CLOSED_MOUTH" display="none">
								<path id="shade_1_" display="inline" fill="#E26F50" d="M125.5,207.834c-1.667,2.334,0.667,8,9.333,16.667
									c11.338,11.339,26.333,4.666,31.333,1.666c2-1.667,10-8,13.667-16C174.167,213.501,130.833,208.834,125.5,207.834z"/>
								<path id="inner" display="inline" fill="#AF4C35" d="M127.5,211.167c4.667,2.667,39.334,5.334,50.667,0.667
									c-6.333,6.333-16.667,17-31.333,16.333C141.839,227.939,132.833,223.167,127.5,211.167z"/>
								<path id="t_x5F_6" display="inline" fill="#FFFFFF" d="M141.822,220.297l4.03,0.033
									C145.188,214.619,141.832,211.738,141.822,220.297z"/>
								<path id="t_x5F_5" display="inline" fill="#FFFFFF" d="M157.188,219.963l-4.024,0.033
									C153.82,214.285,157.18,211.404,157.188,219.963z"/>
								<path id="t_x5F_4" display="inline" fill="#FFFFFF" d="M158.602,220.104l-2.979-0.416
									C156.729,215.535,159.525,213.77,158.602,220.104z"/>
								<path id="t_x5F_3" display="inline" fill="#FFFFFF" d="M139.133,219.77l2.985-0.414
									C141.002,215.202,138.204,213.438,139.133,219.77z"/>
								<path id="t_x5F_2" display="inline" fill="#FFFFFF" d="M143.833,221.167l-3.997,0.521
									C141.29,227.258,145.013,229.645,143.833,221.167z"/>
								<path id="t_x5F_1" display="inline" fill="#FFFFFF" d="M153.834,221.501l4.031-0.033
									C157.199,227.18,153.844,230.059,153.834,221.501z"/>
							</g>
							<g id="CLOSED_EYES" display="none">
								<g id="LEFT" display="inline">
									<path id="cerne_x5F_l" fill="#E26F50" d="M112.604,151.557c-0.805-6.748-14.328-17.896-27.223-15.542
										c-12.896,2.355-21.014,12.718-19.582,22.609c1.433,9.894,18.626,12.717,30.088,8.479
										C107.351,162.859,113.56,159.563,112.604,151.557z"/>
									<path id="blanc_x5F_l" fill="#FFFFFF" d="M73.101,150.385c8.192,9.621,22.79,10.094,32.157,3.282
										C97.38,161.109,79.357,161.109,73.101,150.385z"/>
									<circle fill="#E26F50" cx="90.704" cy="146.747" r="3.5"/>
								</g>
								<g id="right_1_" display="inline">
									<path id="cerne_2_" fill="#E26F50" d="M181.634,149.319c0.843-6.555,15-17.388,28.5-15.1s22,12.354,20.5,21.965
										c-1.5,9.608-19.5,12.354-31.5,8.235S180.634,157.098,181.634,149.319z"/>
									<path id="blanc_2_" fill="#FFFFFF" d="M221.204,153.246c-6.371,4.588-22.07,10.001-34-1
										C192.833,159.167,212.5,163.834,221.204,153.246z"/>
									<circle id="pupille_2_" fill="#E26F50" cx="205.704" cy="145.747" r="3.5"/>
								</g>
							</g>
							<g id="OPENED_EYES" display="none">
								<g id="left" display="inline">
									<path id="cerne_1_" fill="#E26F50" d="M113.704,148.747c-0.844-7.162-15-19-28.5-16.5s-22,13.5-20.5,24s19.5,13.5,31.5,9
										S114.704,157.246,113.704,148.747z"/>
									<path id="blanc_1_" fill="#FFFFFF" d="M72.204,153.246c6-12,23.5-21,34-1C100.704,155.246,82.204,158.246,72.204,153.246z"
										/>
									<circle id="pupille_1_" fill="#E26F50" cx="90.704" cy="146.747" r="3.5"/>
									
										<path id="sourcil_x5F_l" fill="none" stroke="#AF4C35" stroke-width="7" stroke-linecap="round" stroke-miterlimit="10" d="
										M70.204,111.747c5.5-10,29.5-24.5,40,7.5"/>
								</g>
								<g id="right" display="inline">
									<path id="cerne" fill="#E26F50" d="M181.634,146.747c0.843-7.162,15-19,28.5-16.5s22,13.5,20.5,24s-19.5,13.5-31.5,9
										S180.634,155.246,181.634,146.747z"/>
									<path id="blanc" fill="#FFFFFF" d="M221.204,153.246c-6-12-23.5-21-34-1C192.704,155.246,211.204,158.246,221.204,153.246z
										"/>
									<circle id="pupille" fill="#E26F50" cx="205.704" cy="145.747" r="3.5"/>
									
										<path id="sourcil_x5F_r" fill="none" stroke="#AF4C35" stroke-width="7" stroke-linecap="round" stroke-miterlimit="10" d="
										M221.204,112.747c-5.5-10-29.5-24.5-40,7.5"/>
								</g>
							</g>
							
								<path id="s_x5F_l_x5F_close" display="none" fill="none" stroke="#AF4C35" stroke-width="7" stroke-linecap="round" stroke-miterlimit="10" d="
								M65.833,113.167c5.5-10,35.333-9.333,47.333,12"/>
							
								<path id="s_x5F_r_x5F_close" display="none" fill="none" stroke="#AF4C35" stroke-width="7" stroke-linecap="round" stroke-miterlimit="10" d="
								M225.833,113.834c-5.5-10-34-16.667-48,12"/>
						</g>
						<g id="OPENED_MOUTH" display="none">
							<path id="pit" display="inline" fill="#E26F50" d="M132.501,205.363c-1.382,1.313,3.43,37.727,13.717,51.438
								c10.287,13.717,9.524-2.479,11.05-6.668c1.522-4.189,8-31.052,8.381-39.624C166.029,201.934,143.741,194.695,132.501,205.363
								z"/>
							<path id="inner_1_" display="inline" fill="#AF4C35" d="M133.704,208.247c-0.207-5.587,21-8.001,30.5,2.5c-8,41-10,46-15,46
								S134.204,221.747,133.704,208.247z"/>
							<path id="t6" display="inline" fill="#FFFFFF" d="M139.489,210.963l4.03,0.033
								C142.854,205.285,139.498,202.404,139.489,210.963z"/>
							<path display="inline" fill="#FFFFFF" d="M157.52,210.963l-4.031,0.033C154.154,205.285,157.512,202.404,157.52,210.963z"/>
							<path display="inline" fill="#FFFFFF" d="M158.934,211.104l-2.979-0.416C157.063,206.535,159.859,204.77,158.934,211.104z"/>
							<path display="inline" fill="#FFFFFF" d="M137.133,211.104l2.985-0.416C139.002,206.535,136.204,204.77,137.133,211.104z"/>
							<path display="inline" fill="#FFFFFF" d="M149.502,249.582l-3.997,0.521C146.958,255.673,150.682,258.061,149.502,249.582z"
								/>
							<path id="t1" display="inline" fill="#FFFFFF" d="M149.843,249.796l4.031-0.032
								C153.208,255.475,149.852,258.354,149.843,249.796z"/>
						</g>
						<g id="nez_x5F_full" display="none">
							<path id="SNOOOOOOT" display="inline" fill="#9CFF00" d="M156.508,179.376c0.863,4.104-0.652,23.259,0.997,27.689
								c1.647,4.438-6.894,5.982-5.453,0.111c1.441-5.871,3.755-24.012-0.245-29.086
								C154.116,176.675,156.508,179.376,156.508,179.376z"/>
							<path id="nez_x5F_matrice" display="inline" fill="#E26F50" d="M151.798,170.331c-8.701,0.935-10.107-7.24-12.143,5.691
								c-2.033,12.937,6.266,7.313,7.18,5.297c0.915-2.021,0.37,1.715,2.026,3.119c1.659,1.408,4.896,0.699,5.224-1.791
								c0.329-2.484,1.688-2.819,2.841,0.74c1.148,3.563,7.498,1.57,5.807-5.297C161.04,171.229,161.225,169.32,151.798,170.331z"/>
						</g>
						<g id="nez_x5F_renifle" display="none">
							<g id="nez_x5F_full_1_" display="inline">
								<path id="SNOOOOOOT_1_" fill="#9CFF00" d="M156.324,169.214c0.885,5.175-0.479,7.087,1.193,12.681
									c1.674,5.599-4.598,11.113-3.188,3.729c1.407-7.387,2.83-6.271-1.197-12.686
									C155.438,171.163,156.324,169.214,156.324,169.214z"/>
								<path id="nez_x5F_matrice_1_" fill="#E26F50" d="M151.841,167.857c-8.647,0.332-9.609,1.832-11.943,5.472
									c0.353,5.425,3.249,6.198,5.309,2.77c0.848-1.281,2.088-1.716,2.794,2.405c1.698,0.965,6.248,1.181,6.495-0.424
									c0.25-1.604,1.465-6.328,2.855,0.564c1.258,2.353,7.377-1.021,5.474-5.521C160.921,168.615,161.209,167.5,151.841,167.857z"
									/>
							</g>
						</g>
					</g>
					<g id="Calque_3_1_" display="inline">
						<path id="la_x5F_tete_x5F_1" fill="#FF9773" d="M78.704,61.247c-15.258,15.438-32,43.5-37.5,65.5s-6,61,10.5,91s62,54,95,53.5
							s66.5-15.5,82-33s34.5-46.001,33.5-75.001s-18.188-66.837-47.5-98C167.204,14.747,119.704,19.747,78.704,61.247z"/>
					</g>
				</g>
				<g id="visage6" display="none">
					<path display="inline" fill="#FF9773" d="M150,34.5c-20.597,3.132-124.833,19.333-107.5,97.333s64.667,76,64,94.667
						s20,40.001,30,47.334s27.333,6,36.667-0.667s21.334-34.667,22.667-52s75.999-54,62.666-107.333S193.834,27.833,150,34.5z"/>
				</g>
				<g id="visage2" display="none">
					<path display="inline" fill="#FF9773" d="M155.843,21.167C131.906,19.432,96.51,34.5,86.51,55.833s-37.333,80.667-14.667,116
						s52.667,35.334,54,46.667s15.333,43.999,23.333,48.666s32-14.667,34.667-46s59.253-29.64,49.334-94.666
						C222.501,56.5,201.842,24.5,155.843,21.167z"/>
				</g>
				<g id="VISAGE3" display="none">
					<path display="inline" fill="#FF9773" d="M97.528,29.796C63.12,39.962,49.044,90.011,51.389,125.202
						c2.346,35.188-4.943,121.213,22.944,134.508c27.887,13.293,91.229,23.459,132.678,17.203
						c41.448-6.259,39.884-106.354,39.884-131.379c0-25.025,8.604-68.035-10.166-87.588c-18.77-19.55-56.152-36.754-86.729-36.754
						C119.424,21.194,97.528,29.796,97.528,29.796z"/>
				</g>
				<g id="VISAGE4" display="none">
					<path display="inline" fill="#FF9773" d="M71.834,63.167c-8.056,17.688-26.667,102.666-18,124s44.667,68,46.667,68.667
						s42,6,56,0s64.667-16.667,74-24.667s21.999-110,10.666-130S203.834,38.5,157.834,39.833S75.01,56.191,71.834,63.167z"/>
				</g>
				<g id="VISAGE5" display="none">
					<path display="inline" fill="#FF9773" d="M96.682,35.285c-12.5,3.569-37.76,62.693-34.91,96.182
						c2.851,33.484,24.937,35.623,14.961,44.172c-9.975,8.549-12.111,22.086-3.563,24.938c8.55,2.848,17.659,23.51,12.392,28.493
						c-5.268,4.987-2.417,59.138,45.317,34.198c43.771-22.865,163.161-57.771,103.307-182.39
						C190.727-9.6,126.605,26.735,96.682,35.285z"/>
				</g>
				<g id="Calque_7" display="none">
					<path display="inline" fill="#E26F50" d="M143.704,158.246c-0.5,9.5,0,22-5,24.5s-12,0-7.5,6s8.5,9.5,7.5,6s0-1.5,4.5,0.5
						s10,3,4.5-0.5s-4-6,3.5-3.5C150.204,177.746,143.704,158.246,143.704,158.246z"/>
					<path display="inline" fill="#AF4C35" d="M76.204,136.747c-7.071,7.064,29.5,20,43,18S95.704,117.247,76.204,136.747z"/>
					<path display="inline" fill="#AF4C35" d="M217.202,144.747c7.069,7.064-29.5,20-43,18S197.702,125.247,217.202,144.747z"/>
					<path display="inline" fill="none" stroke="#E26F50" stroke-width="8" stroke-linecap="round" stroke-miterlimit="10" d="
						M79.704,198.246c1.5,0,78,29.001,138.5-0.5"/>
					<path display="inline" fill="#E26F50" d="M102.704,249.247c22,14,63,23,89,4.5
						C182.704,254.247,156.704,269.747,102.704,249.247z"/>
				</g>
				<g id="EYES_CLOSED" display="none">
					<g id="eye2" display="inline">
						<g id="right_2_">
							<path id="cerne_4_" fill="#E26F50" d="M85,153.375c-13.419,1.975-15.172,17.177-5.499,25.147
								c9.674,7.979,30.955,12.535,37.403-2.273C123.354,161.436,104.347,150.525,85,153.375z"/>
							<path id="blanc_3_" fill="#FFFFFF" d="M81.5,172.088c-0.75,1.241-0.265-0.792,2.149,1.221
								c8.601,8.28,26.601,4.967,28.555,0.105C97.75,182.473,89,176.288,81.5,172.088z"/>
							<ellipse fill="#E26F50" cx="101.704" cy="160.162" rx="3.5" ry="3.092"/>
						</g>
						<g id="left_1_">
							<path id="cerne_3_" fill="#E26F50" d="M201.375,152.364c13.418,1.979,15.885,18.28,6.212,26.26
								c-9.674,7.977-30.955,12.531-37.403-2.278C163.734,161.529,182.027,149.515,201.375,152.364z"/>
							<path id="blanc_4_" fill="#FFFFFF" d="M173.704,174.297c6.063,5.721,9.864,8.396,18.864,7.514
								c9-0.885,11.467-3.326,15.932-10.164C210.5,180.48,183.704,190.198,173.704,174.297z"/>
							<ellipse fill="#E26F50" cx="190.704" cy="162.813" rx="3.5" ry="3.092"/>
						</g>
					</g>
					<g id="eye1" display="inline">
						<g>
							<path fill="#E26F50" d="M113.704,148.747c-0.844-7.162-15-19-28.5-16.5s-22,13.5-20.5,24s19.5,13.5,31.5,9
								S114.704,157.246,113.704,148.747z"/>
							<path fill="#FFFFFF" d="M72.204,153.246c6-12,23.5-21,34-1C100.704,155.246,82.204,158.246,72.204,153.246z"/>
							<circle fill="#E26F50" cx="90.704" cy="146.747" r="3.5"/>
						</g>
						<g>
							<path fill="#E26F50" d="M181.634,146.747c0.843-7.162,15-19,28.5-16.5s22,13.5,20.5,24s-19.5,13.5-31.5,9
								S180.634,155.246,181.634,146.747z"/>
							<path fill="#FFFFFF" d="M221.204,153.246c-6-12-23.5-21-34-1C192.704,155.246,211.204,158.246,221.204,153.246z"/>
							<circle fill="#E26F50" cx="205.704" cy="145.747" r="3.5"/>
						</g>
					</g>
				</g>
				<g id="EYES_1_" display="none">
					<g id="eye2_1_" display="inline">
						<g id="left_3_">
							<path id="cerne_6_" fill="#E26F50" d="M85.95,144.227c-13.42,2.236-16.122,23.216-6.449,32.244
								c9.674,9.029,30.955,14.188,37.403-2.578C123.354,157.124,105.297,141.002,85.95,144.227z"/>
							<path id="blanc_6_" fill="#FFFFFF" d="M88.204,148.747c-10.404,1.729-12.5,18-5,25s24,11,29-2
								S103.204,146.247,88.204,148.747z"/>
							<circle fill="#E26F50" cx="101.704" cy="163.746" r="3.5"/>
						</g>
						<g id="right_3_">
							<path id="cerne_5_" fill="#E26F50" d="M201.014,144.227c13.418,2.236,16.121,23.216,6.448,32.244
								c-9.674,9.029-30.955,14.188-37.403-2.578C163.609,157.124,181.666,141.002,201.014,144.227z"/>
							<path id="blanc_5_" fill="#FFFFFF" d="M173.704,172.746c-4.479-8.063,9.5-18,18.5-19s18,6,20,16
								S183.704,190.746,173.704,172.746z"/>
							<circle fill="#E26F50" cx="190.704" cy="166.746" r="3.5"/>
						</g>
					</g>
					<g id="eye1_1_" display="inline">
						<g>
							<path fill="#E26F50" d="M113.704,148.747c-0.844-7.162-15-19-28.5-16.5s-22,13.5-20.5,24s19.5,13.5,31.5,9
								S114.704,157.246,113.704,148.747z"/>
							<path fill="#FFFFFF" d="M72.204,153.246c6-12,23.5-21,34-1C100.704,155.246,82.204,158.246,72.204,153.246z"/>
							<circle fill="#E26F50" cx="90.704" cy="146.747" r="3.5"/>
						</g>
						<g>
							<path fill="#E26F50" d="M181.634,146.747c0.843-7.162,15-19,28.5-16.5s22,13.5,20.5,24s-19.5,13.5-31.5,9
								S180.634,155.246,181.634,146.747z"/>
							<path fill="#FFFFFF" d="M221.204,153.246c-6-12-23.5-21-34-1C192.704,155.246,211.204,158.246,221.204,153.246z"/>
							<circle fill="#E26F50" cx="205.704" cy="145.747" r="3.5"/>
						</g>
					</g>
				</g>
				<g id="Calque_2" display="none">
				</g>
				<g id="yeux_x5F_vaudoo_x5F_ouverts" display="none">
					<path id="left_2_" display="inline" d="M126.195,105.172c-0.011-0.555-0.081-1.146-0.209-1.77
						c-0.152-1.005-0.357-2.035-0.636-3.104c-0.042,0.205-0.083,0.418-0.125,0.631c-2.522-6.293-9.723-13.692-19.099-12.65
						c-7.715,0.857-16.5,13-6,25.5c8.305,9.89,17.544,3.512,22.531-2.063c-2.784,7.074-8.977,12.473-25.917,6.313
						C113.288,127.579,127.449,120.62,126.195,105.172z"/>
					<path id="right_4_" display="inline" d="M187.201,89.437c-4.475,3.254-9.527,8.672-8.762,15.716
						c-1.271,15.462,12.896,22.433,29.453,12.879c-14.449,5.256-21.076,2.096-24.441-3.337c7.678,6.432,23.158,6.577,28.339-6.741
						C217.865,92.329,199.93,80.18,187.201,89.437z"/>
				</g>
				<g id="Calque_3_2_" display="none">
				</g>
				<g display="none">
					<g id="visage8" display="inline">
						<path fill="#FF9773" d="M89.756,52.593C107.09,45.26,125.5,69.833,150,69.833S188.501,51.9,209.834,52.2
							c21.333,0.299,30,41.632,22,85.633s-30,122.205-81.834,122.203c-23.018-0.001-47.935-30.95-58.602-62.284
							S71.59,128.417,69.167,106.5C67.045,87.313,64.441,63.304,89.756,52.593z"/>
					</g>
					<path id="bouche_x5F_vaudoo" display="inline" d="M198.5,191.167c-12-14.666-79.849-7.4-84,0
						c-15.333,27.334,32.667,24,44.667,23.333C171.168,213.833,210.5,205.833,198.5,191.167z M190.167,196.897
						c-6.667,3.333-75.148,5.867-68,4.329C126.835,200.223,196.834,193.564,190.167,196.897z"/>
					<g id="yeux_x5F_vaudoo_x5F_ferme" display="inline">
						<path id="left_4_" d="M127.445,114.672c-0.011-0.555-0.081-1.146-0.209-1.77c-0.152-1.005-0.357-2.035-0.636-3.104
							c-0.042,0.205-0.083,0.418-0.125,0.631c-2.522-6.293-4.577,13.499-13.954,14.541C104.807,125.83,95.374,123.263,100,126
							c11.113,6.575,18.92,0.79,23.907-4.783c-2.784,7.074-8.977,12.473-25.917,6.315
							C114.538,137.079,128.699,130.12,127.445,114.672z"/>
						<path id="right_5_" d="M194,125.5c-7.25,0.25-16.213-15.768-15.447-8.725c2.197,12.613,12.786,17.807,29.34,8.253
							c-14.449,5.256-21.076,2.096-24.438-3.337c7.678,6.432,22.979,9.621,28.049-3.741C212.074,116.436,207.035,125.05,194,125.5z"
							/>
					</g>
					<g id="nez_x5F_vaudoo" display="inline">
						<path d="M142.5,122.392c-6.585,5.567,4,22.608,4.5,17.608S151.5,114.783,142.5,122.392z"/>
						<path d="M157.961,122.392c6.585,5.567-4,22.608-4.5,17.608S148.961,114.783,157.961,122.392z"/>
					</g>
				</g>
			</g>
		</g>
		<g id="bis6" display="inline">
			<path fill="#FF9700" stroke="#000000" stroke-miterlimit="10" d="M147.401,79.726c-23.47,0-28.699-20.27-63.904-20.27
				S-21.05,127.733,51.493,194.942c53.907,49.943,75.685,33.336,99.747,62.943c11.635-24.859,69.729-24.932,92.279-53.342
				c67.742-85.347,12.813-139.752-36.271-139.752c-24.795,0-17.256,11.066-43.941,14.146
				C158.992,79.437,153.784,79.726,147.401,79.726z"/>
		</g>
		<g id="bis5" display="inline">
			<path fill="#FF9700" d="M159.9,52.467c-10.031-14.785-22.957-28.426-38.876,6.171c-9.753,21.191-66.461,155.152-75.765,173.611
				c-9.303,18.458-5.745,31.784,25.77,30.766c15.547-0.502,55.939-3.423,95.258-6.54c40.378-3.199,79.624-6.604,89.668-7.813
				c19.826-2.387,24.865-9.543,10.918-31.564C252.389,194.227,172.689,71.314,159.9,52.467z"/>
		</g>
		<g id="bis4" display="inline">
			<path fill="#FF9700" d="M111.5,29.15c-11.022,5.958-17,22,0,18s28-8.73,33,0.636c5,9.364,10,19.364-8.5,20.364s-29.5,0-41.5,6
				s-60,41-55,106s50,92,96.5,96s127.5-27,112.5-131S148.5,9.15,111.5,29.15z"/>
		</g>
		<g id="bis3" display="inline">
			<path fill="#FF9700" d="M136.5,21.5c-38.918,2.717-76,18-91,56s-23,111-6,157s122,63,170,50s80-102,76-142s-26-85-61-102
				S157.748,20.017,136.5,21.5z"/>
		</g>
		<g id="bis2" display="inline">
			<path fill="#FF9700" d="M208.42,268.289C262.5,217.5,271.5,193.5,243.914,141.288C226.352,108.05,193.848,56.4,175.46,29.568
				c-19.722-28.778-44-15-56,0S61.641,124.358,50.5,145.5c-31.021,58.866-1,92,41.239,122.066
				C126.218,292.114,179.009,295.91,208.42,268.289z"/>
		</g>
		<g id="BIS1" display="inline">
			<path fill="#FF9700" d="M146.445,24.476c-7.252,0-18.389,6.215-30.993,16.677C99.409,54.471,80.988,74.673,65.175,97.698
				c-27.149,39.533-46.609,87.392-33.142,123.033c11.454,30.316,46.729,51.794,121.354,51.794c95.9,0,125.623-35.472,122.729-79.587
				c-2.177-33.149-22.771-71.183-47.546-102.712C199.131,52.76,163.791,24.476,146.445,24.476z"/>
		</g>
	</g>
	<g id="NEW_EYES_OPEN" display="inline">
		<path id="lenez_x5F_simple" d="M148.487,61.03c6.224,0,10.701,6.59,10.701,15.192c0,6.04-6.748-2.379-6.748,1.647
			c0,4.025-5.516,2.929-5.516,0c0-2.93-6.293,3.86-6.293-3.293C140.631,67.422,145.827,61.03,148.487,61.03z"/>
		<path id="labouche_x5F_simple" d="M174.54,84.593c-4.552,0-9.103,5.496-24.585,5.501c-15.483-0.005-20.035-5.501-24.585-5.501
			c-4.553,0-3.415,1.707-0.759,4.363c2.652,2.652,12.203,6.63,25.32,6.639l0,0c0.008,0,0.016,0,0.023,0c0.007,0,0.015,0,0.023,0l0,0
			c13.117-0.009,22.667-3.986,25.32-6.639C177.954,86.3,179.093,84.593,174.54,84.593z"/>
		<g id="totem_x5F_ouvert">
			<path id="left_x5F_blanc" d="M112.334,31.785C93,31.785,92,49.452,80.667,49.452C92,49.452,93,61.119,112.334,61.119
				s20.334-11.667,31.667-11.667C132.668,49.452,131.668,31.785,112.334,31.785z"/>
			<path id="right_x5F_blanc" d="M187.667,31.785c-19.334,0-20.334,17.667-31.667,17.667c11.333,0,12.333,11.667,31.667,11.667
				s20.334-11.667,31.667-11.667C208.001,49.452,207.001,31.785,187.667,31.785z"/>
			<path id="left_x5F_pupille" fill="#FFFFFF" d="M115.251,46.624c-1.706,0-3.089-1.383-3.089-3.089
				c0-1.275,0.773-2.369,1.875-2.841c-0.541-0.159-1.111-0.249-1.704-0.249c-3.316,0-6.006,2.689-6.006,6.007
				c0,3.316,2.689,6.006,6.006,6.006s6.006-2.689,6.006-6.006c0-0.593-0.089-1.163-0.249-1.704
				C117.619,45.851,116.525,46.624,115.251,46.624z"/>
			<path id="right_x5F_pupille" fill="#FFFFFF" d="M190.584,46.624c-1.705,0-3.089-1.383-3.089-3.089
				c0-1.275,0.772-2.369,1.876-2.841c-0.541-0.159-1.111-0.249-1.704-0.249c-3.315,0-6.006,2.689-6.006,6.007
				c0,3.316,2.688,6.006,6.006,6.006s6.006-2.689,6.006-6.006c0-0.593-0.089-1.163-0.249-1.704
				C192.952,45.851,191.857,46.624,190.584,46.624z"/>
		</g>
		<g id="yeux_x5F_chat">
			<path id="chat_x5F_blanc_x5F_left" d="M119.911,95.595c-5.846,11.69-17.986,33.723-3.598,34.621
				C130.701,131.114,139.694,126.168,119.911,95.595z"/>
			<ellipse id="chat_x5F_pupille_x5F_left" fill="#FFFFFF" cx="118.852" cy="115.918" rx="1.593" ry="6.833"/>
			<path id="chat_x5F_blanc_x5F_right" d="M181.23,95.595c5.846,11.69,17.985,33.723,3.598,34.621
				C170.441,131.115,161.447,126.168,181.23,95.595z"/>
			<ellipse id="chat_x5F_pupille_x5F_right" fill="#FFFFFF" cx="182.29" cy="115.918" rx="1.593" ry="6.833"/>
		</g>
		<path id="chat_x5F_museau" d="M162.299,159.084c-5.5,0-8.482-2.185-10.564-5.729c-0.082-0.19-0.191-0.396-0.334-0.607
			c-0.243-0.454-0.479-0.922-0.703-1.414c-0.544-1.585-0.551-3.572-0.328-5.768c0.058-0.479,0.116-0.982,0.181-1.509
			c0.228-1.672,0.536-3.43,0.81-5.198c0.848-3.982,2.371-7.55,5.606-7.55c7.334,0-0.666-3.225-7.666-3.225s-15,3.225-7.667,3.225
			c3.237,0,4.76,3.566,5.607,7.55c0.273,1.77,0.583,3.526,0.81,5.198c0.063,0.525,0.123,1.03,0.18,1.509
			c0.223,2.194,0.216,4.183-0.328,5.768c-0.223,0.492-0.46,0.96-0.705,1.414c-0.141,0.213-0.25,0.417-0.333,0.607
			c-2.083,3.546-5.065,5.729-10.565,5.729c-8,0-4,3,0,3c8.224,0,12.543-1.508,12.963-12.486c0.012,0.002,0.023,0.013,0.037,0.013
			c0.013,0,0.023-0.011,0.036-0.013c0.42,10.979,4.739,12.486,12.964,12.486C166.299,162.084,170.299,159.084,162.299,159.084z"/>
		<g id="yeux_x5F_sourcils">
			<g id="left_5_">
				<path id="left_x5F_sourcil" d="M122.588,181.169c-9.461,0-17.13,7.669-17.13,17.131h10.961c0-3.407,2.763-6.169,6.169-6.169
					c3.406,0,6.169,2.762,6.169,6.169h10.961C139.718,188.838,132.048,181.169,122.588,181.169z"/>
				<circle id="left_x5F_pupille_1_" cx="122.588" cy="198.3" r="1.912"/>
			</g>
			<g id="right_6_">
				<path id="right_x5F_sourcil" d="M180.697,181.169c9.461,0,17.131,7.669,17.131,17.131h-10.961c0-3.407-2.764-6.169-6.17-6.169
					s-6.17,2.762-6.17,6.169h-10.961C163.566,188.838,171.236,181.169,180.697,181.169z"/>
				<circle id="right_x5F_pupille_1_" cx="180.697" cy="198.3" r="1.912"/>
			</g>
		</g>
		<path id="nez_x5F_sorciere" d="M154.1,198.527c-7.557,0-1.404,9.411-6.635,9.411c-2.713,0-4.178,2.313-4.296,4.539
			c0,8.126,0.062,13.95,5.231,13.95c7.556,0,1.403-9.411,6.634-9.411c2.714,0,4.178-2.312,4.296-4.539
			C159.33,204.351,159.27,198.527,154.1,198.527z"/>
	</g>
	<g id="NEW_EYES_CLOSED">
		<g id="yeux_x5F_totem_x5F_ferme" display="inline">
			<path d="M112.334,49.238C93,49.238,92,49.496,80.667,49.496c11.333,0,12.333,0.171,31.667,0.171s20.334-0.171,31.667-0.171
				C132.668,49.496,131.668,49.238,112.334,49.238z"/>
			<path d="M187.667,49.238c-19.334,0-20.334,0.26-31.667,0.26c11.333,0,12.333,0.171,31.667,0.171s20.334-0.171,31.667-0.171
				C208.001,49.496,207.001,49.238,187.667,49.238z"/>
			<path fill="#FFFFFF" d="M115.251,49.461c-1.706,0-3.089-0.07-3.089-0.156c0-0.063,0.773-0.12,1.875-0.144
				c-0.541-0.009-1.111-0.014-1.704-0.014c-3.316,0-6.006,0.137-6.006,0.305c0,0.167,2.689,0.304,6.006,0.304
				s6.006-0.136,6.006-0.304c0-0.03-0.089-0.06-0.249-0.086C117.619,49.422,116.525,49.461,115.251,49.461z"/>
			<path fill="#FFFFFF" d="M190.584,49.461c-1.705,0-3.089-0.07-3.089-0.156c0-0.063,0.772-0.12,1.876-0.144
				c-0.541-0.009-1.111-0.014-1.704-0.014c-3.315,0-6.006,0.137-6.006,0.305c0,0.167,2.688,0.304,6.006,0.304
				s6.006-0.136,6.006-0.304c0-0.03-0.089-0.06-0.249-0.086C192.952,49.422,191.857,49.461,190.584,49.461z"/>
		</g>
		<g id="yeux_x5F_chat_x5F_ferme" display="inline">
			<path d="M119.911,121.167c-5.846,0.386-17.986,1.111-3.598,1.142S139.694,122.176,119.911,121.167z"/>
			<ellipse fill="#FFFFFF" cx="116.994" cy="122.251" rx="1.687" ry="0.5"/>
			<path d="M181.23,121.167c5.846,0.386,17.985,1.111,3.598,1.142C170.441,122.339,161.447,122.176,181.23,121.167z"/>
			<ellipse fill="#FFFFFF" cx="184.148" cy="122.251" rx="1.686" ry="0.5"/>
		</g>
		<g id="yeux_x5F_sourcils_x5F_ferme" display="inline">
			<path d="M122.588,181.169c-9.461,0-17.13,7.07-17.13,15.797h10.961c0-3.142,2.763-5.688,6.169-5.688
				c3.406,0,6.169,2.548,6.169,5.688h10.961C139.718,188.24,132.048,181.169,122.588,181.169z"/>
			<circle cx="122.588" cy="190.647" r="1.912"/>
			<path d="M180.697,181.169c9.461,0,17.131,7.07,17.131,15.797h-10.961c0-3.142-2.764-5.688-6.17-5.688s-6.17,2.548-6.17,5.688
				h-10.961C163.566,188.24,171.236,181.169,180.697,181.169z"/>
			<circle cx="180.697" cy="190.647" r="1.912"/>
		</g>
	</g>
</g>
<g id="sourcils_x5F_ferme" display="none">
	<path id="left_x5F_sourcil_1_" display="inline" d="M122.588,196.951c-9.461,0-17.13,0.73-17.13,1.634h10.961
		c0-0.325,2.763-0.589,6.169-0.589c3.406,0,6.169,0.264,6.169,0.589h10.961C139.718,197.682,132.048,196.951,122.588,196.951z"/>
	<ellipse id="left_x5F_pupille_2_" display="inline" cx="122.588" cy="197.798" rx="1.912" ry="0.53"/>
	<path id="right_x5F_sourcil_1_" display="inline" d="M180.697,196.951c9.461,0,17.131,0.73,17.131,1.634h-10.961
		c0-0.325-2.764-0.589-6.17-0.589s-6.17,0.264-6.17,0.589h-10.961C163.566,197.682,171.236,196.951,180.697,196.951z"/>
	<ellipse id="right_x5F_pupille_2_" display="inline" cx="180.697" cy="197.798" rx="1.912" ry="0.53"/>
</g>
<g id="lego" display="none">
	<path display="inline" d="M200.666,69.698h-10.415v-5.328c0-7.31-5.925-13.235-13.234-13.235h-54.032
		c-7.31,0-13.235,5.925-13.235,13.235v5.328H99.334c-22.091,0-40,17.909-40,40v85.699c0,22.092,17.909,40,40,40h0.164v13.469
		h101.004v-13.469h0.164c22.092,0,40-17.908,40-40v-85.699C240.666,87.606,222.758,69.698,200.666,69.698z"/>
</g>
<g id="Calque_4_1_">
	<g>
		<path fill="none" stroke="#000000" stroke-width="6" stroke-linecap="round" stroke-miterlimit="10" d="M209.961,80.6
			c4.667-8.667,9.547-9.808,15.667-6.333c6.119,3.475,7.104,14.805,0,19.358c-7.104,4.553-15.759-5.247-24.658-7.024
			c-6.676-1.333-27.676,0.999-29.342,28c1-29,20.666-29.658,22-42.162"/>
		<path fill="none" stroke="#000000" stroke-width="6" stroke-linecap="round" stroke-miterlimit="10" d="M216.294,103.6
			c4.667,4.667,5.917,15.25,0,21.167"/>
	</g>
	
		<line fill="none" stroke="#000000" stroke-width="6" stroke-linecap="round" stroke-miterlimit="10" x1="150" y1="67.933" x2="150" y2="112.6"/>
	
		<line fill="none" stroke="#000000" stroke-width="6" stroke-linecap="round" stroke-miterlimit="10" x1="160.166" y1="77.6" x2="139.833" y2="77.6"/>
	<path d="M125.167,118.933"/>
	<path d="M150,131.513c0,4.761-10.167,7.139-10.167,13.415s10.167,5.625,10.167,0c0,5.625,10.167,6.275,10.167,0
		S150,136.274,150,131.513z"/>
	<g>
		<circle cx="105.154" cy="112.6" r="16"/>
		<g>
			
				<circle fill="none" stroke="#000000" stroke-width="4" stroke-linecap="round" stroke-miterlimit="10" stroke-dasharray="10.6568,10.6568" cx="105.154" cy="112.601" r="23.751"/>
		</g>
		<circle fill="#FFFFFF" cx="105.155" cy="112.6" r="5.269"/>
		<circle fill="#FFFFFF" cx="116.496" cy="101.259" r="4.32"/>
	</g>
	<g>
		
			<line fill="none" stroke="#000000" stroke-width="3" stroke-linecap="round" stroke-miterlimit="10" x1="137.066" y1="65.908" x2="142.621" y2="71.463"/>
		
			<line fill="none" stroke="#000000" stroke-width="3" stroke-linecap="round" stroke-miterlimit="10" x1="155.531" y1="84.374" x2="161.086" y2="89.929"/>
	</g>
	<g>
		
			<line fill="none" stroke="#000000" stroke-width="3" stroke-linecap="round" stroke-miterlimit="10" x1="161.086" y1="65.909" x2="155.531" y2="71.464"/>
		
			<line fill="none" stroke="#000000" stroke-width="3" stroke-linecap="round" stroke-miterlimit="10" x1="142.621" y1="84.374" x2="137.066" y2="89.928"/>
	</g>
	<g>
		<g>
			<circle cx="276.555" cy="260.592" r="11.24"/>
			<circle cx="276.555" cy="284.541" r="11.24"/>
			<circle cx="285.022" cy="264.099" r="11.241"/>
			<circle cx="268.087" cy="281.033" r="11.24"/>
			<circle cx="285.022" cy="281.033" r="11.24"/>
			<path d="M260.139,272.047c-4.391-4.389-4.391-11.506,0-15.895c4.389-4.391,11.506-4.391,15.895,0
				c4.393,4.389,4.391,11.506,0,15.895C271.645,276.436,264.527,276.436,260.139,272.047z"/>
			<circle cx="288.529" cy="272.567" r="11.24"/>
			<circle cx="264.578" cy="272.567" r="11.24"/>
		</g>
		<circle fill="#FFFFFF" cx="276.554" cy="272.567" r="7.733"/>
	</g>
	<g>
		<g>
			<circle cx="190.378" cy="96.434" r="7.733"/>
			<circle cx="190.378" cy="128.767" r="7.733"/>
		</g>
		<g>
			<circle cx="206.543" cy="112.6" r="7.733"/>
			<circle cx="174.211" cy="112.6" r="7.733"/>
		</g>
		<g>
			<circle cx="201.809" cy="101.169" r="7.734"/>
			<circle cx="178.946" cy="124.032" r="7.733"/>
		</g>
		<g>
			<circle cx="201.809" cy="124.031" r="7.734"/>
			<circle cx="178.946" cy="101.169" r="7.733"/>
		</g>
		<circle fill="#FFFFFF" cx="190.378" cy="112.601" r="11.433"/>
	</g>
	<g>
		<g>
			<path d="M102.16,58.764c2.827-1.573,2.94-5.604,1.967-8.105c-1.53-3.935-6.337-7.83-17.701-2.821
				c-11.364,5.008-19.646,4.921-18.564-1.255c1.081-6.175,9.604-3.989,7.2,1.255c5.026-5.856-7.648-11.25-9.178-0.599
				s6.908,12.729,20.221,10.274C94.73,55.923,96.272,62.042,102.16,58.764z"/>
		</g>
		<g>
			<path d="M196.835,58.764c-2.827-1.573-2.94-5.604-1.967-8.105c1.53-3.935,6.337-7.83,17.7-2.821
				c11.364,5.008,19.646,4.921,18.564-1.255c-1.081-6.175-9.604-3.989-7.2,1.255c-5.026-5.856,7.648-11.25,9.179-0.599
				c1.529,10.651-6.908,12.729-20.221,10.274C204.266,55.923,202.723,62.042,196.835,58.764z"/>
		</g>
	</g>
	<g>
		<path d="M164.216,14.257c-0.541-0.263-0.521-2.612-0.974-3.066c-0.526-0.524-2.599,0.017-2.891-0.604
			c-0.865-1.861,0.016-4.119-3.771-0.333c-2.05,2.05-1.858,4.395-0.994,6.088c-1.149-0.641-2.466-0.96-3.841-0.96
			c-2.623,0-5.443,1.151-7.664,3.375c-3.39,3.386-4.278,8.162-2.412,11.507c-1.69-0.867-4.04-1.058-6.094,0.995
			c-3.783,3.784-1.527,2.907,0.339,3.77c0.62,0.288,0.074,2.364,0.604,2.889c0.447,0.452,2.801,0.437,3.066,0.975
			c0.954,1.975-0.366,3.923,3.592-0.035c2.007-2.007,1.866-4.294,1.048-5.978c1.185,0.696,2.553,1.035,3.979,1.035
			c2.626,0,5.442-1.149,7.668-3.373c3.429-3.431,4.301-8.291,2.329-11.64c1.688,0.818,3.975,0.957,5.978-1.05
			C168.14,13.893,166.188,15.212,164.216,14.257 M153.365,19.26c-3.086,0.902-5.127,2.897-6.46,4.81
			c-1.328,1.907-1.905,3.713-2.01,4.064c-0.012,0.047-0.012,0.061-0.012,0.061c-0.125,0.458-0.538,0.762-0.99,0.762
			c-0.09,0-0.179-0.012-0.265-0.035c-0.55-0.145-0.869-0.705-0.729-1.251c0.02-0.068,0.545-2.049,2.03-4.336
			c1.48-2.283,3.966-4.901,7.862-6.041c0.541-0.16,1.11,0.154,1.266,0.698C154.223,18.533,153.911,19.102,153.365,19.26"/>
	</g>
	<g>
		<path fill-rule="evenodd" clip-rule="evenodd" d="M156.342,45.319c-2.305-1.086-5.057-0.098-6.145,2.21
			c-0.076,0.16-0.141,0.361-0.197,0.596c-0.059-0.234-0.123-0.436-0.199-0.596c-1.086-2.308-3.838-3.296-6.145-2.21
			s-3.295,3.838-2.207,6.147c1.086,2.307,8.549,8.92,8.549,8.92s0-0.01,0.002-0.021c0.002,0.012,0.002,0.021,0.002,0.021
			s7.463-6.613,8.549-8.92C159.637,49.156,158.648,46.405,156.342,45.319"/>
	</g>
	
		<polygon fill="none" stroke="#000000" stroke-width="11" stroke-linecap="round" stroke-linejoin="round" stroke-miterlimit="10" points="
		150,292.5 126.983,292.5 138.491,272.567 150,252.633 161.509,272.567 173.018,292.5 	"/>
	<g>
		<path d="M144.026,152.223c0.001,0,0.003,0,0.005,0h11.943c0.51,0,0.98,0.271,1.235,0.713s0.256,0.985,0.001,1.427l-5.972,10.344
			c-0.255,0.441-0.726,0.713-1.236,0.713s-0.981-0.271-1.236-0.713l-5.916-10.246c-0.159-0.23-0.252-0.51-0.252-0.811
			C142.6,152.862,143.238,152.223,144.026,152.223z"/>
		<g>
			<path fill="#FFFFFF" d="M150.002,157.843c0.463,0,0.839-0.376,0.839-0.838c0-0.463-0.376-0.84-0.839-0.84
				c-0.462,0-0.838,0.377-0.838,0.84C149.164,157.467,149.541,157.843,150.002,157.843 M150.002,159.397
				c2.225,0,4.464-2.418,4.464-2.418s-2.239-2.418-4.464-2.418c-2.224,0-4.463,2.418-4.463,2.418S147.778,159.397,150.002,159.397
				 M150.002,155.293c0.946,0,1.712,0.765,1.712,1.712c0,0.943-0.767,1.71-1.712,1.71c-0.945,0-1.71-0.767-1.71-1.71
				C148.292,156.058,149.058,155.293,150.002,155.293"/>
		</g>
	</g>
	<g>
		<g>
			<g>
				<path d="M137.885,127.74c0,6.977-3.02,13.588-8.118,15.65s-8.156-5.604-2.066-6.814
					C134.654,135.192,137.885,127.74,137.885,127.74z"/>
				<path d="M134.018,142.357c-2.509,4.104-6.273,8.975-10.978,11.026c-4.704,2.051-0.032,9.486,6.414,3.334
					C135.899,150.563,134.018,142.357,134.018,142.357z"/>
				<path d="M142.318,115.802c0.952,3.957,0.074,8.034-2.75,12.916c-2.21,3.821,4.513,7.057,5.687,0.946
					C146.718,122.043,142.318,115.802,142.318,115.802z"/>
				<path d="M130.13,144.511c-3.199,1.813-5.564,1.207-9.69-0.645c-4.125-1.851-5.736,4.818,0.49,6.467
					C127.156,151.985,130.13,144.511,130.13,144.511z"/>
				<path d="M135.438,144.337c1.042,3.012,0.381,4.94-1.352,8.183c-1.733,3.242,3.017,5.643,4.792,0.574
					C140.655,148.024,135.438,144.337,135.438,144.337z"/>
				<path d="M137.345,118.683c-0.007,2.186-0.697,3.341-2.179,5.167c-1.481,1.826,0.536,4.292,2.369,1.265
					C139.37,122.088,137.345,118.683,137.345,118.683z"/>
				<path d="M138.042,134.481c-0.007,2.186-0.697,3.341-2.179,5.167c-1.481,1.826,0.536,4.292,2.369,1.265
					C140.067,137.885,138.042,134.481,138.042,134.481z"/>
				<path d="M132.561,155.309c-0.48,1.557-1.193,2.25-2.581,3.271c-1.388,1.023-0.575,3.162,1.309,1.352
					C133.173,158.121,132.561,155.309,132.561,155.309z"/>
				<path d="M114.654,155.416c-1.541-0.529-2.211-1.264-3.188-2.682c-0.978-1.42-3.142-0.676-1.391,1.266
					C111.824,155.94,114.654,155.416,114.654,155.416z"/>
				<path d="M113.439,150.231c3.308-3.514,5.047,3.882,11.164,1.548C116.101,156.6,111.451,152.344,113.439,150.231z"/>
			</g>
		</g>
		<g>
			<g>
				<path d="M162.115,127.74c0,6.977,3.02,13.588,8.118,15.65s8.155-5.604,2.066-6.814
					C165.346,135.192,162.115,127.74,162.115,127.74z"/>
				<path d="M165.982,142.357c2.51,4.104,6.273,8.975,10.979,11.026c4.703,2.051,0.031,9.486-6.414,3.334
					C164.101,150.563,165.982,142.357,165.982,142.357z"/>
				<path d="M157.682,115.802c-0.951,3.957-0.073,8.034,2.751,12.916c2.21,3.821-4.513,7.057-5.687,0.946
					C153.281,122.043,157.682,115.802,157.682,115.802z"/>
				<path d="M169.87,144.511c3.198,1.813,5.563,1.207,9.69-0.645c4.125-1.851,5.735,4.818-0.49,6.467
					C172.844,151.985,169.87,144.511,169.87,144.511z"/>
				<path d="M164.563,144.337c-1.042,3.012-0.381,4.94,1.352,8.183c1.734,3.242-3.017,5.643-4.792,0.574
					C159.346,148.024,164.563,144.337,164.563,144.337z"/>
				<path d="M162.654,118.683c0.008,2.186,0.697,3.341,2.18,5.167c1.48,1.826-0.537,4.292-2.369,1.265
					C160.631,122.088,162.654,118.683,162.654,118.683z"/>
				<path d="M161.957,134.481c0.008,2.186,0.697,3.341,2.18,5.167c1.48,1.826-0.537,4.292-2.369,1.265
					C159.934,137.885,161.957,134.481,161.957,134.481z"/>
				<path d="M167.439,155.309c0.48,1.557,1.193,2.25,2.58,3.271c1.389,1.023,0.576,3.162-1.309,1.352
					C166.827,158.121,167.439,155.309,167.439,155.309z"/>
				<path d="M185.346,155.416c1.541-0.529,2.211-1.264,3.188-2.682c0.978-1.42,3.142-0.676,1.392,1.266
					C188.176,155.94,185.346,155.416,185.346,155.416z"/>
				<path d="M186.561,150.231c-3.309-3.514-5.047,3.882-11.164,1.548C183.899,156.6,188.549,152.344,186.561,150.231z"/>
			</g>
		</g>
	</g>
	<g>
		<path d="M192.357,235.449c-3.319-3.318-8.699-3.318-12.018,0c-4.454,4.455-16.813,10.729-30.34,10.729s-25.886-6.274-30.34-10.729
			c-3.318-3.318-8.698-3.318-12.017,0c-3.318,3.318-3.318,8.698,0,12.017c7.564,7.565,24.046,15.707,42.357,15.707
			s34.793-8.142,42.357-15.707C195.676,244.148,195.676,238.768,192.357,235.449z"/>
		<g>
			<g>
				<circle fill="#FFFFFF" cx="155.23" cy="251.387" r="3.25"/>
				<circle fill="#FFFFFF" cx="163.906" cy="250.387" r="3.25"/>
				<circle fill="#FFFFFF" cx="172.132" cy="247.137" r="3.25"/>
				<circle fill="#FFFFFF" cx="180.175" cy="243.887" r="3.25"/>
				<circle fill="#FFFFFF" cx="186.675" cy="238.468" r="3.25"/>
			</g>
			<g>
				<circle fill="#FFFFFF" cx="145.466" cy="251.387" r="3.25"/>
				<circle fill="#FFFFFF" cx="136.791" cy="250.387" r="3.25"/>
				<circle fill="#FFFFFF" cx="128.565" cy="247.137" r="3.25"/>
				<circle fill="#FFFFFF" cx="120.522" cy="243.887" r="3.25"/>
				<circle fill="#FFFFFF" cx="114.022" cy="238.468" r="3.25"/>
			</g>
		</g>
		<g>
			<g>
				<circle fill="#FFFFFF" cx="154.983" cy="257.77" r="3.085"/>
				<circle fill="#FFFFFF" cx="163.219" cy="256.821" r="3.085"/>
				<circle fill="#FFFFFF" cx="171.029" cy="253.735" r="3.085"/>
				<circle fill="#FFFFFF" cx="178.665" cy="250.65" r="3.085"/>
				<circle fill="#FFFFFF" cx="184.835" cy="245.505" r="3.085"/>
			</g>
			<g>
				<circle fill="#FFFFFF" cx="145.714" cy="257.77" r="3.085"/>
				<circle fill="#FFFFFF" cx="137.477" cy="256.821" r="3.085"/>
				<circle fill="#FFFFFF" cx="129.668" cy="253.735" r="3.085"/>
				<circle fill="#FFFFFF" cx="122.033" cy="250.65" r="3.085"/>
				<circle fill="#FFFFFF" cx="115.862" cy="245.505" r="3.085"/>
			</g>
		</g>
		<g>
			<path d="M186.349,231.461c2.67,0,5.181,1.039,7.069,2.928c1.889,1.888,2.929,4.398,2.929,7.069c0,2.67-1.04,5.181-2.929,7.068
				c-7.775,7.776-24.679,16.146-43.418,16.146c-18.739,0-35.643-8.37-43.418-16.146c-1.888-1.888-2.928-4.398-2.928-7.068
				c0-2.671,1.04-5.182,2.928-7.069c1.888-1.889,4.399-2.928,7.069-2.928s5.181,1.039,7.069,2.928
				c4.272,4.272,16.181,10.29,29.28,10.29c13.1,0,25.007-6.018,29.279-10.29C181.167,232.5,183.678,231.461,186.349,231.461
				 M186.349,229.461c-3.206,0-6.219,1.248-8.484,3.514c-4.028,4.029-15.338,9.704-27.864,9.704
				c-12.527,0-23.836-5.675-27.866-9.704c-2.265-2.266-5.278-3.514-8.483-3.514c-3.206,0-6.218,1.248-8.484,3.514
				s-3.514,5.278-3.514,8.483s1.248,6.217,3.514,8.482c8.058,8.059,25.524,16.732,44.832,16.732
				c19.308,0,36.774-8.674,44.832-16.732c2.267-2.265,3.515-5.277,3.515-8.482s-1.248-6.219-3.515-8.484
				C192.566,230.709,189.554,229.461,186.349,229.461L186.349,229.461z"/>
		</g>
	</g>
	<g>
		<path d="M62.642,128.788c-0.052-2.823-1.558-7.445-5.011-7.626c-1.143-0.06-2.23,0.146-3.27,0.522
			c1.29-1.833,2.115-3.879,1.901-6.553c-0.337-4.225-3.407-7.923-7.599-8.58c-2.535-0.397-4.077,0.936-5.029,2.989
			c-0.656-2.372-1.826-4.269-3.738-4.846c-2.45-0.74-3.673,2.889-4.143,4.517c-0.308,1.066-0.452,2.121-0.483,3.163
			c-1.235-2.084-2.87-3.398-5.354-2.237c-3.403,1.59-4.11,5.852-3.114,9.031c0.36,1.15,0.973,2.209,1.751,3.155
			c-1.196-0.245-2.462-0.186-3.927,0.547c-3.147,1.573-4.474,3.917-4.005,7.399c0.533,3.956,5.016,4.951,9.115,4.891
			c-5.358,2.308-10.052,7.479-5.038,12.01c3.924,3.546,10.536-0.94,14.111-5.261c0.032,4.827,0.888,10.665,6.446,10.225
			c3.029-0.239,4.363-3.435,4.637-6.857c2.025,2.229,4.739,3.544,7.317,2.018c2.22-1.315,2.315-5.309,1.305-7.317
			c-0.824-1.639-1.994-3.104-3.375-4.341C59.19,135.517,62.733,133.723,62.642,128.788z M44.321,114.474
			c0.261-1.502,0.658-2.963,1.342-4.323c1.265-2.513,4.266-1.462,5.966-0.146c1.883,1.458,2.49,4.24,2.654,6.445
			c0.214,2.888-2.524,5.515-4.721,7.723c-0.406-0.724-0.887-1.379-1.421-1.957c0.759-1.997,1.016-4.325,0.753-6.274
			c-0.017-0.123-0.175-0.128-0.25-0.065c-1.451,1.195-2.206,2.887-2.645,4.673c-0.619-0.423-1.273-0.778-1.952-1.056
			C44.264,118.019,44.378,116.26,44.321,114.474z M47.741,120.458c-0.114,0.338-0.249,0.676-0.39,1.014
			c-0.325-0.272-0.667-0.512-1.024-0.718c0.386-1.623,1.033-3.17,2.207-4.401c-0.146,0.153-0.113,1.471-0.183,1.889
			C48.225,118.998,47.985,119.733,47.741,120.458z M45.554,139.278c0.167,0.717,0.315,1.435,0.406,2.178
			c0.067,0.545,0.039,1.1,0.018,1.646c0.012-0.295-0.382,2.444-0.581,2.159c-1.099-1.575-1.529-3.518-1.524-5.421
			C44.457,139.709,45.019,139.522,45.554,139.278z M33.925,113.326c1.062,1.754,1.602,3.993,2.663,5.819
			c-0.757,0.346-1.389,0.841-1.924,1.434c-1.106-1.741-2.406-3.529-4.391-4.184c-0.069-0.022-0.119,0.047-0.108,0.108
			c0.394,2.28,1.631,4.29,3.345,5.795c-0.195,0.394-0.369,0.804-0.515,1.23c-1.639-0.998-2.986-2.385-4.054-4.111
			C26.61,115.649,30.833,108.22,33.925,113.326z M34.507,120.759c-0.349,0.416-0.655,0.872-0.914,1.368
			c-0.479-0.421-0.931-0.871-1.356-1.368c-0.487-0.569-0.871-1.207-1.22-1.866c0.056,0.105-0.879-2.365-0.471-2.189
			C32.318,117.469,33.488,119.134,34.507,120.759z M25.431,132.586c-1.888-0.374-2.645-1.796-2.879-3.605
			c-0.513-3.958,4.317-5.063,6.869-4.457c1.121,0.267,2.064,0.771,3.027,1.234c-0.13,0.795-0.204,1.601-0.226,2.388
			c-0.006,0.222,0.004,0.443,0.008,0.665c-1.748-0.386-3.541-0.415-4.86,1.04c-0.096,0.106-0.052,0.261,0.081,0.307
			c0.598,0.208,1.172,0.182,1.799,0.144c0.091-0.006,0.09-0.135,0-0.141c-0.494-0.033-0.95-0.07-1.4-0.236
			c1.269-1.13,2.832-1.048,4.386-0.668c0.058,1.172,0.26,2.332,0.6,3.435C30.463,132.357,27.599,133.015,25.431,132.586z
			 M29.507,145.599c-4.96,1.573-4.989-3.934-2.206-6.724c1.714-1.718,4.238-2.91,6.709-3.539c0.296,0.493,0.639,0.95,1.006,1.387
			c-1.853,1.655-3.79,3.215-5.51,5.016c-0.245,0.256,0.001,0.643,0.333,0.572c1.161-0.246,2.258-0.782,3.248-1.429
			c0.159-0.104,0.06-0.392-0.136-0.321c-0.71,0.257-1.407,0.507-2.113,0.735c1.4-1.511,2.907-2.915,4.366-4.37
			c0.841,0.943,1.843,1.741,3.045,2.286C36.47,142.315,32.698,144.588,29.507,145.599z M39.396,118.987
			c-0.003-0.212-0.143-0.428-0.396-0.416c-0.356,0.016-0.687,0.067-1.008,0.131c-0.403-0.953-0.806-2.068-1.249-3.186
			c-0.295-1.304-0.411-2.647-0.212-4.079c0.136-0.975,0.406-1.915,0.688-2.854c0.786-2.611,3.625-2.673,4.614-0.198
			c0.398,0.996,0.739,2.269,0.976,3.647c-0.527,2.262-0.673,4.823-0.747,6.905c-0.282-0.044-0.568-0.066-0.854-0.083
			c-0.259-2.326-0.63-4.627-1.344-6.904c-0.029-0.093-0.169-0.125-0.217-0.028c-1.123,2.23-0.403,4.661,0.046,7.011
			C39.596,118.951,39.495,118.966,39.396,118.987z M40.002,118.875c-0.013,0.001-0.024,0.005-0.037,0.007
			c-0.123-0.778-0.259-1.555-0.392-2.333c-0.159-0.931-0.203-1.79-0.163-2.721c0.109-2.544,0.622-0.662,0.807,0.131
			c0.372,1.599,0.531,3.239,0.666,4.885C40.591,118.84,40.297,118.843,40.002,118.875z M47.621,144.186
			c-0.145,2.583-2.757,8.073-5.436,3.85c-1.358-2.141-1.234-5.309-1.133-8.053c0.859,0.101,1.688,0.065,2.481-0.076
			c-0.074,2.131,0.387,4.331,1.836,5.955c0.093,0.104,0.277,0.049,0.31-0.082c0.547-2.173,0.53-4.415,0.042-6.584
			c0.344-0.165,0.68-0.347,0.999-0.556c0.081,0.997,0.413,2.128,0.933,3.249C47.693,142.653,47.663,143.425,47.621,144.186z
			 M57.116,142.757c0.65,6.558-5.299,1.458-6.167,0.542c-0.425-0.448-0.801-0.953-1.122-1.49c-0.195-1.68-0.613-3.174-1.171-4.108
			c-0.096-0.16-0.227-0.267-0.368-0.349c0.108-0.109,0.198-0.236,0.301-0.352c1.019,1.128,2.119,2.166,3.387,3.021
			c0.05,0.034,0.097-0.047,0.047-0.08c-1.258-0.864-2.342-1.909-3.347-3.041c0.336-0.383,0.64-0.794,0.924-1.22
			c0.779,0.707,1.593,1.385,2.333,2.117c0.086,0.085,0.219-0.048,0.133-0.133c-0.754-0.745-1.535-1.482-2.328-2.204
			c0.093-0.148,0.196-0.288,0.28-0.442c0.177,0.047,0.359,0.084,0.54,0.126C53.604,136.947,56.72,138.758,57.116,142.757z
			 M59.826,132.39c-1.565,1.978-4.865,1.47-7.851,1.031c-0.358-0.193-0.721-0.374-1.091-0.54c0.013-0.046,0.021-0.093,0.033-0.139
			c2.229-0.063,4.368-0.635,5.962-2.383c0.082-0.089,0.065-0.221-0.037-0.287c-1.759-1.133-3.695-1.131-5.539-0.518
			c-0.064-1.091-0.325-2.188-0.743-3.245c1.525-1.184,3.112-2.258,4.941-2.948C60.144,121.61,62.135,129.471,59.826,132.39z
			 M51.012,132.35c0.149-0.599,0.263-1.208,0.297-1.831c1.534-0.665,2.948-1.5,4.865-0.478c0.855,0.456-2.778,1.971-3.074,2.049
			C52.422,132.267,51.719,132.336,51.012,132.35z"/>
	</g>
	<path d="M83.289,176.073c-0.192-3.371-1.78-6.937-3.207-10.021c-0.026-0.184-0.06-0.365-0.074-0.552
		c-0.026-0.327-0.519-0.337-0.516,0c0.017,1.793,0.114,3.735-0.063,5.58c-0.084,0.45-0.165,0.902-0.2,1.37c0,0.002,0,0.005,0,0.008
		c-0.031,0.161-0.057,0.325-0.094,0.484c-0.518,2.211-2.252,5.042-3.438,7.004c-0.643,1.063-0.094,2.849,1.248,3.066
		C81.154,183.697,83.51,179.943,83.289,176.073z"/>
	<path d="M77.035,171.75c-0.005-0.044-0.072-0.047-0.07,0c0.051,1.688-1.521,3.585-3.244,3.806
		c-1.646,0.212-3.395,1.043-3.749,2.904c-0.335,1.768,1.646,3.055,3.036,1.768c1.279-1.184,1.681-2.914,2.9-4.072
		C77.24,174.89,77.248,173.461,77.035,171.75z"/>
	<path d="M87.129,167.685c-0.522-1.186-1.378-2.461-2.494-3.171c-1.948-1.239-2.73-4.652-2.284-6.735
		c0.024-0.111-0.14-0.195-0.192-0.081c-1.188,2.543-0.667,4.495,0.311,7.066c0.914,2.402-0.273,6.325,2.35,7.9
		C87.623,174.347,87.733,169.054,87.129,167.685z"/>
	<path d="M81.691,154.149c-1.577,1.033-3.317,1.664-4.344,3.322c-0.977,1.578-0.803,4.188,0.947,5.115
		c0.993,0.526,1.981-0.148,2.088-1.198c0.105-1.04-0.155-1.997,0.041-3.061c0.274-1.49,0.41-2.771,1.41-3.994
		C81.912,154.237,81.81,154.071,81.691,154.149z"/>
	<path d="M88.571,153.621c0.122-0.062,0.068-0.273-0.071-0.262c-2.665,0.232-3.704,1.997-4.441,4.355
		c-0.497,1.591-0.4,2.858-0.024,4.467c0.355,1.521,1.039,2.234,1.995,3.039c0.511,0.431,1.587,0.384,1.704-0.449
		c0.121-0.858,0.386-1.34,0.211-2.261c-0.199-1.052-0.657-2.065-0.899-3.112c-0.225-0.971-0.838-1.612-0.847-2.674
		C86.185,155.205,87.323,154.256,88.571,153.621z"/>
	<path d="M86.139,179.685c-1.177,2.289-2.93,3.104-5.141,4.188c-2.187,1.073-4.396,1.227-5.828,3.392
		c-0.215,0.326-0.172,0.913,0.15,1.165c2.708,2.113,5.712,0.45,8.042-1.491c1.956-1.629,3.184-4.656,3.016-7.188
		C86.371,179.631,86.201,179.564,86.139,179.685z"/>
	<path d="M78.354,193.558c-1.864-0.51-3.611-0.903-5.073-2.216c-2.359-2.117-2.605-4.393-1.19-7.288
		c0.06-0.122-0.111-0.225-0.182-0.107c-1.634,2.711-2.338,5.886-1.293,8.947c0.83,2.43,5.043,5.823,7.738,5.049
		C80.506,197.324,80.545,194.157,78.354,193.558z"/>
	<path d="M80.447,191.558c-0.175,0.024-0.189,0.29-0.048,0.364c1.96,1.035,2.908,2.598,1.379,4.563
		c-1.078,1.385-2.938,1.871-4.135,3.076c-1.019,1.025-0.582,2.92,0.866,3.278C84.776,204.393,86.655,190.715,80.447,191.558z"/>
	<path d="M87.464,150.69c-1.233,0.54-2.364,1.105-3.52,1.787c-0.557,0.328-0.846,0.903-1.089,1.478
		c-0.162,0.383-0.24,0.702-0.266,1.118c-0.026,0.424,0.323,0.673,0.38,1.074c0.086,0.602,0.891,0.441,1.063,0
		c0.085-0.221,0.424-0.31,0.54-0.537c0.134-0.263,0.24-0.513,0.326-0.794c0.157-0.509,0.422-0.943,0.545-1.469
		c0.229-0.98,1.384-1.925,2.107-2.547C87.615,150.743,87.532,150.66,87.464,150.69z"/>
	<g>
		<g>
			<path d="M146.18,170.053c-1.705-1.783-3.986-1.588-5.14-0.121c-3.345,1.906-1.664,9.932-0.712,12.296
				c0.095,0.238,0.315,0.418,0.613,0.415c2.506-0.026,5.006,0.086,7.5,0.303c0.412,0.036,0.705-0.321,0.728-0.646
				C149.444,178.258,149.286,173.302,146.18,170.053z M141.375,181.403c-0.378-1.174-0.574-2.413-0.728-3.623
				c-0.197-1.54-0.519-4.308,0.414-6.05c0.483-0.572,1.008-1.147,1.649-1.405c0.18-0.057,0.373-0.102,0.581-0.13
				c0.02-0.003,0.033-0.011,0.051-0.016c0.33-0.009,0.689,0.073,1.087,0.28c1.307,0.681,1.935,2.258,2.4,3.434
				c0.964,2.444,1.051,5.164,0.92,7.746C145.876,181.628,141.476,181.718,141.375,181.403z"/>
			<path d="M140.617,179.921c-0.069-0.509-0.157-1.064-0.262-1.637c0.225-2.581-0.442-6.106-2.477-7.515
				c-1.093-0.757-2.745-0.406-3.562,0.532c-1.209,1.389-0.984,3.783-0.898,5.409c0.09,1.717,0.26,3.664,0.994,5.274
				c0.432,0.946,3.984,0.775,4.951,0.523C140.636,182.176,140.749,180.891,140.617,179.921z M139.433,181.09
				c-0.295,1.069-3.927,0.791-4.113,0.229c-0.437-1.324-0.531-2.769-0.625-4.138c-0.095-1.384-0.082-2.807,0.258-4.166
				c0.497-1.99,2.27-1.115,2.892,0.224c0.175,0.377,0.304,0.763,0.416,1.153c-0.054,0.863,0.198,1.732,0.496,2.601
				c0.127,0.925,0.251,1.851,0.516,2.747c0.038,0.129,0.147,0.197,0.269,0.235C139.56,180.348,139.535,180.72,139.433,181.09z"/>
			<path d="M130.758,180.32c-0.684-2.592-1.588-5.414-0.813-8.027c0.256-0.864,1.415-1.913,2.246-0.913
				c0.465,0.559,0.654,1.305,0.838,1.966c0.323,1.164,0.417,2.433,0.49,3.63c0.025,0.404,0.725,0.53,0.829,0.1
				c0.49-2.036,0.272-8.216-3.611-7.293c-4.625,1.097-1.805,8.776-1.24,11.357c0.063,0.286,0.392,0.456,0.694,0.469
				c1.416,0.063,3.266,0.651,4.613,0.194c0.196-0.067,0.425-0.199,0.457-0.406C135.447,180.204,132.229,180.281,130.758,180.32z"/>
			<path d="M129.554,179.737c-0.059-0.429-0.098-0.878-0.129-1.336l-0.05,0.007c-0.107-1.978-0.179-3.877,0.006-5.664
				c-0.636-1.764-1.686-3.111-3.44-3.249c-4.298-0.338-2.774,8.944-1.882,11.015c-0.181,0.037-0.362,0.073-0.54,0.13
				c-0.548,0.178-0.678,0.983,0,1.103c1.946,0.345,4.198,0.232,6.171,0.073c0.279-0.022,0.536-0.156,0.646-0.373
				C129.935,180.941,129.641,180.372,129.554,179.737z M124.776,180.406c-0.242-1.828-1.487-9.496,1.165-9.708
				c2.594-0.209,3.002,7.299,3.043,9.878C127.588,180.549,126.142,180.289,124.776,180.406z"/>
			<path d="M123.599,171.535c-0.521-1.088-1.389-1.964-2.865-1.823c-4.35,0.413-2.762,8.449-2.371,10.97
				c0.042,0.272,0.339,0.559,0.662,0.567c1.708,0.055,3.495,0.543,5.19,0.302C123.688,178.122,123.125,174.974,123.599,171.535z
				 M122.95,180.063c-1.059,0.004-2.121-0.077-3.182-0.113c-0.183-1.264-0.319-2.532-0.361-3.801
				c-0.046-1.407-0.208-3.799,1.054-4.836c1.642-1.348,2.335,3.531,2.401,4.096C123.044,176.957,122.964,178.519,122.95,180.063z"/>
			<path d="M149.123,182.119c-0.019-0.285-0.276-0.6-0.639-0.567c-2.193,0.19-4.393,0.289-6.597,0.267
				c-0.263-0.003-0.457,0.155-0.539,0.365c-0.839,2.079-2.316,9.139,0.625,10.815c1.016,1.291,3.022,1.463,4.522-0.106
				C149.227,190.035,149.366,185.675,149.123,182.119z M147.874,182.701c0.116,2.271,0.04,4.664-0.809,6.813
				c-0.409,1.035-0.962,2.422-2.112,3.021c-0.349,0.183-0.665,0.255-0.955,0.247c-0.017-0.005-0.027-0.012-0.045-0.014
				c-0.184-0.025-0.354-0.064-0.512-0.114c-0.563-0.227-1.026-0.733-1.45-1.236c-0.821-1.532-0.538-3.967-0.364-5.322
				c0.136-1.063,0.308-2.154,0.641-3.187C142.358,182.632,146.229,182.711,147.874,182.701z"/>
			<path d="M140.499,181.936c-0.85-0.222-3.976-0.372-4.356,0.461c-0.646,1.416-0.794,3.129-0.875,4.64
				c-0.076,1.43-0.273,3.536,0.79,4.758c0.719,0.826,2.173,1.134,3.135,0.469c1.789-1.239,2.376-4.34,2.179-6.61
				c0.093-0.504,0.17-0.992,0.23-1.44C141.719,183.36,141.619,182.229,140.499,181.936z M140.655,184.165
				c-0.107,0.033-0.203,0.094-0.235,0.207c-0.234,0.788-0.342,1.603-0.454,2.416c-0.263,0.764-0.485,1.528-0.437,2.288
				c-0.098,0.344-0.211,0.683-0.366,1.015c-0.546,1.178-2.106,1.947-2.544,0.196c-0.298-1.195-0.31-2.447-0.226-3.664
				c0.082-1.205,0.165-2.476,0.549-3.64c0.163-0.495,3.359-0.74,3.618,0.2C140.65,183.51,140.672,183.837,140.655,184.165z"/>
			<path d="M135.357,184.804c-0.065,1.054-0.146,2.169-0.431,3.193c-0.162,0.582-0.328,1.238-0.737,1.729
				c-0.73,0.88-1.75-0.043-1.976-0.804c-0.682-2.299,0.115-4.781,0.716-7.062c0.554,0.015,1.388,0.035,2.149-0.028
				c-0.451-0.351-0.825-0.793-1.121-1.29c-0.535,0.078-1.059,0.165-1.529,0.186c-0.266,0.012-0.557,0.161-0.612,0.412
				c-0.497,2.271-2.977,9.026,1.091,9.991c3.416,0.812,3.608-4.624,3.177-6.415C135.995,184.338,135.38,184.448,135.357,184.804z"/>
			<path d="M132.292,180.636c-0.092-0.045-0.193-0.08-0.303-0.089c-1.735-0.141-3.716-0.239-5.429,0.064
				c-0.596,0.104-0.481,0.813,0,0.97c0.156,0.05,0.316,0.081,0.475,0.114c-0.784,1.821-2.125,9.986,1.656,9.688
				c1.455-0.114,2.358-1.177,2.926-2.597C131.199,186.236,131.403,183.264,132.292,180.636z M128.691,190.326
				c-2.333-0.187-1.237-6.932-1.024-8.54c1.201,0.103,2.474-0.126,3.701-0.149C131.332,183.906,130.973,190.51,128.691,190.326z"/>
			<path d="M127.432,180.814c-1.567-0.308-3.235,0.18-4.824,0.23c-0.284,0.008-0.545,0.26-0.583,0.499
				c-0.344,2.218-1.74,9.286,2.086,9.649c2.231,0.213,2.893-2.214,3.115-3.695c0.209-1.392,0.705-3.874-0.034-5.357
				C128.155,182.227,128.359,180.997,127.432,180.814z M126.061,182.088c0.012,1.358,0.083,2.731-0.077,4.094
				c-0.059,0.497-0.668,4.789-2.111,3.604c-1.11-0.913-0.969-3.017-0.928-4.255c0.036-1.115,0.156-2.231,0.317-3.343
				C124.195,182.156,125.129,182.084,126.061,182.088z"/>
		</g>
		<path d="M143.412,165.684c-2.216-0.806-4.368,1.009-4.406,3.198c-1.193-1.069-2.786-1.533-3.703-0.408
			c-1.074-3.106-4.154-2.132-6.253,0.362c-1.733-2.568-4.722-3.129-6.606-0.494c-4.526-4.064-6.813,0.863-7.371,5.222
			c-0.346,2.704-0.589,5.672,0.563,8.22c0.744,1.647,2.643,1.926,4.164,1.372c-0.26,0.901-0.218,2.045-0.246,2.846
			c-0.057,1.652,0.025,3.339,0.461,4.94c0.6,2.207,2.966,3.73,4.961,2.391c2.041,3.636,4.244,1.878,6.196-0.635
			c0.409,0.754,2.426,2.563,3.65,1.832c0.493-0.294,1.057-0.634,1.058-1.317c-0.001,0.768,0.582,1.636,1.898,2.368
			c0.781,0.435,1.448,0.058,2.147-0.25c0.743-0.327,1.638,0.865,2.438,1.221c2.362,1.049,5.57-1.458,6.619-3.375
			c0.165-0.302-0.186-0.728-0.502-0.503c-2.124,1.512-5.175,5.159-7.712,1.063c-0.213-0.344-0.649-0.303-0.87,0
			c-2.142,0.885-3.484,0.38-4.029-1.514c-0.13-0.31-0.657-0.417-0.739,0c-0.612,3.091-2.326,0.786-3.35-0.39
			c0.214-0.556-0.592-1.037-1.05-0.607c-0.004-0.006-0.008-0.011-0.013-0.017c-0.797,0.723-0.806,0.752-1.442,1.617
			c-1.68,2.283-2.768,0.249-3.86-0.593c-0.211-0.163-0.426-0.095-0.566,0.063c-0.995,0.187-1.957,0.65-2.846-0.127
			c-0.91-0.797-1.109-2.372-1.243-3.493c-0.21-1.751,0.42-4.223-0.13-5.938c0.09-0.06,0.19-0.109,0.273-0.176
			c0.236-0.188,0.034-0.578-0.238-0.573c-2.267,0.042-3.723,0.357-4.334-2.285c-0.367-1.585-0.224-3.368-0.07-4.972
			c0.31-3.24,1.22-9.172,5.606-5.775c0.059,0.046,0.122,0.07,0.185,0.084c-0.124,0.617,0.806,1.082,1.16,0.438
			c1.34-2.438,4.156-1.83,5.383,0.417c0.181,0.331,0.616,0.273,0.809,0c1.091-1.542,4.683-5.113,5.316-0.07
			c0.058,0.466,0.748,0.648,0.877,0.119c1.486-1.377,2.679-1.298,3.579,0.237c0.25,0.327,0.774,0.101,0.712-0.231
			c0.521-0.966,0.475-2.131,1.272-2.988c0.788-0.848,2.208-0.069,2.974,0.381c1.991,1.173,3.058,3.164,4.789,4.56
			c0.243,0.195,0.696,0.024,0.575-0.335C148.723,169.276,145.66,166.5,143.412,165.684z"/>
		<g>
			<g>
				<path d="M149.165,182.3c0.023,0.324,0.316,0.682,0.729,0.646c2.494-0.217,4.993-0.329,7.5-0.303
					c0.298,0.003,0.518-0.177,0.613-0.415c0.951-2.364,2.632-10.39-0.713-12.296c-1.154-1.467-3.436-1.662-5.141,0.121
					C149.048,173.302,148.89,178.258,149.165,182.3z M150.585,181.639c-0.131-2.582-0.044-5.302,0.92-7.746
					c0.465-1.176,1.094-2.753,2.4-3.434c0.398-0.207,0.758-0.289,1.088-0.28c0.018,0.005,0.03,0.013,0.051,0.016
					c0.208,0.028,0.4,0.073,0.58,0.13c0.642,0.258,1.166,0.833,1.649,1.405c0.933,1.742,0.61,4.51,0.413,6.05
					c-0.154,1.21-0.35,2.449-0.728,3.623C156.858,181.718,152.458,181.628,150.585,181.639z"/>
				<path d="M158.97,182.509c0.967,0.252,4.52,0.423,4.951-0.523c0.734-1.61,0.904-3.558,0.994-5.274
					c0.086-1.626,0.313-4.021-0.897-5.409c-0.817-0.938-2.47-1.289-3.562-0.532c-2.035,1.408-2.702,4.934-2.478,7.515
					c-0.105,0.572-0.192,1.128-0.263,1.637C157.585,180.891,157.698,182.176,158.97,182.509z M158.792,179.975
					c0.122-0.038,0.23-0.106,0.27-0.235c0.264-0.896,0.389-1.822,0.516-2.747c0.297-0.868,0.549-1.737,0.495-2.601
					c0.112-0.391,0.241-0.776,0.415-1.153c0.623-1.339,2.396-2.214,2.893-0.224c0.34,1.359,0.353,2.782,0.258,4.166
					c-0.094,1.369-0.188,2.813-0.625,4.138c-0.186,0.563-3.816,0.841-4.112-0.229C158.798,180.72,158.773,180.348,158.792,179.975z"
					/>
				<path d="M167.575,180.32c0.684-2.592,1.588-5.414,0.813-8.027c-0.256-0.864-1.415-1.913-2.246-0.913
					c-0.465,0.559-0.653,1.305-0.838,1.966c-0.323,1.164-0.417,2.433-0.489,3.63c-0.025,0.404-0.725,0.53-0.829,0.1
					c-0.49-2.036-0.272-8.216,3.611-7.293c4.626,1.097,1.805,8.776,1.239,11.357c-0.063,0.286-0.391,0.456-0.693,0.469
					c-1.416,0.063-3.266,0.651-4.613,0.194c-0.196-0.067-0.425-0.199-0.457-0.406C162.887,180.204,166.104,180.281,167.575,180.32z"
					/>
				<path d="M167.997,181.442c0.109,0.217,0.367,0.351,0.646,0.373c1.973,0.159,4.225,0.271,6.171-0.073
					c0.679-0.119,0.548-0.925,0-1.103c-0.177-0.057-0.358-0.093-0.54-0.13c0.893-2.07,2.417-11.353-1.881-11.015
					c-1.756,0.138-2.805,1.485-3.441,3.249c0.186,1.787,0.113,3.687,0.006,5.664l-0.049-0.007c-0.031,0.458-0.07,0.907-0.129,1.336
					C168.692,180.372,168.399,180.941,167.997,181.442z M169.35,180.575c0.042-2.579,0.449-10.087,3.044-9.878
					c2.65,0.212,1.406,7.88,1.164,9.708C172.191,180.289,170.745,180.549,169.35,180.575z"/>
				<path d="M174.118,181.551c1.695,0.241,3.482-0.247,5.19-0.302c0.322-0.009,0.619-0.295,0.661-0.567
					c0.392-2.521,1.979-10.557-2.37-10.97c-1.476-0.141-2.345,0.735-2.865,1.823C175.209,174.974,174.646,178.122,174.118,181.551z
					 M175.471,175.408c0.066-0.564,0.76-5.443,2.401-4.096c1.262,1.037,1.1,3.429,1.055,4.836c-0.043,1.269-0.178,2.537-0.361,3.801
					c-1.062,0.036-2.123,0.117-3.182,0.113C175.37,178.519,175.289,176.957,175.471,175.408z"/>
				<path d="M151.839,192.893c1.5,1.569,3.506,1.397,4.521,0.106c2.941-1.677,1.465-8.736,0.625-10.815
					c-0.082-0.21-0.275-0.368-0.539-0.365c-2.204,0.022-4.403-0.076-6.597-0.267c-0.362-0.032-0.62,0.282-0.64,0.567
					C148.968,185.675,149.106,190.035,151.839,192.893z M156.065,182.909c0.333,1.032,0.505,2.123,0.641,3.187
					c0.174,1.355,0.457,3.79-0.364,5.322c-0.425,0.503-0.887,1.01-1.45,1.236c-0.158,0.05-0.328,0.089-0.512,0.114
					c-0.018,0.002-0.027,0.009-0.045,0.014c-0.291,0.008-0.606-0.064-0.955-0.247c-1.149-0.599-1.703-1.985-2.111-3.021
					c-0.849-2.149-0.926-4.542-0.809-6.813C152.104,182.711,155.976,182.632,156.065,182.909z"/>
				<path d="M156.731,184.212c0.061,0.448,0.138,0.937,0.23,1.44c-0.197,2.271,0.391,5.371,2.179,6.61
					c0.962,0.665,2.415,0.357,3.135-0.469c1.063-1.222,0.866-3.328,0.79-4.758c-0.08-1.511-0.229-3.224-0.875-4.64
					c-0.379-0.833-3.506-0.683-4.355-0.461C156.714,182.229,156.614,183.36,156.731,184.212z M157.772,183.184
					c0.26-0.94,3.455-0.695,3.619-0.2c0.384,1.164,0.467,2.435,0.549,3.64c0.084,1.217,0.072,2.469-0.227,3.664
					c-0.438,1.751-1.998,0.981-2.544-0.196c-0.155-0.332-0.269-0.671-0.366-1.015c0.049-0.76-0.174-1.524-0.437-2.288
					c-0.111-0.813-0.22-1.628-0.454-2.416c-0.031-0.113-0.128-0.174-0.234-0.207C157.661,183.837,157.684,183.51,157.772,183.184z"
					/>
				<path d="M162.976,184.804c0.066,1.054,0.146,2.169,0.432,3.193c0.162,0.582,0.328,1.238,0.737,1.729
					c0.729,0.88,1.751-0.043,1.976-0.804c0.682-2.299-0.115-4.781-0.717-7.062c-0.553,0.015-1.388,0.035-2.148-0.028
					c0.451-0.351,0.824-0.793,1.12-1.29c0.534,0.078,1.059,0.165,1.528,0.186c0.267,0.012,0.557,0.161,0.612,0.412
					c0.497,2.271,2.978,9.026-1.091,9.991c-3.416,0.812-3.608-4.624-3.178-6.415C162.339,184.338,162.954,184.448,162.976,184.804z"
					/>
				<path d="M166.717,188.787c0.567,1.42,1.471,2.482,2.926,2.597c3.781,0.298,2.439-7.867,1.655-9.688
					c0.158-0.033,0.318-0.064,0.475-0.114c0.481-0.156,0.597-0.865,0-0.97c-1.713-0.304-3.693-0.205-5.429-0.064
					c-0.11,0.009-0.21,0.044-0.303,0.089C166.931,183.264,167.134,186.236,166.717,188.787z M166.966,181.637
					c1.227,0.023,2.5,0.252,3.701,0.149c0.213,1.608,1.309,8.354-1.024,8.54C167.36,190.51,167.001,183.906,166.966,181.637z"/>
				<path d="M171.142,182.14c-0.738,1.483-0.243,3.966-0.033,5.357c0.221,1.481,0.883,3.908,3.114,3.695
					c3.826-0.363,2.43-7.432,2.086-9.649c-0.038-0.239-0.299-0.491-0.583-0.499c-1.589-0.051-3.257-0.538-4.824-0.23
					C169.974,180.997,170.179,182.227,171.142,182.14z M175.071,182.188c0.162,1.111,0.282,2.228,0.318,3.343
					c0.041,1.238,0.182,3.342-0.928,4.255c-1.443,1.186-2.053-3.106-2.111-3.604c-0.16-1.362-0.09-2.735-0.078-4.094
					C173.204,182.084,174.139,182.156,175.071,182.188z"/>
			</g>
			<path d="M154.922,165.684c2.216-0.806,4.368,1.009,4.406,3.198c1.192-1.069,2.786-1.533,3.702-0.408
				c1.074-3.106,4.154-2.132,6.254,0.362c1.732-2.568,4.722-3.129,6.605-0.494c4.527-4.064,6.813,0.863,7.371,5.222
				c0.346,2.704,0.59,5.672-0.563,8.22c-0.744,1.647-2.643,1.926-4.164,1.372c0.26,0.901,0.218,2.045,0.246,2.846
				c0.057,1.652-0.025,3.339-0.462,4.94c-0.601,2.207-2.966,3.73-4.962,2.391c-2.04,3.636-4.243,1.878-6.195-0.635
				c-0.409,0.754-2.426,2.563-3.65,1.832c-0.493-0.294-1.057-0.634-1.059-1.317c0.002,0.768-0.581,1.636-1.898,2.368
				c-0.78,0.435-1.447,0.058-2.146-0.25c-0.742-0.327-1.639,0.865-2.438,1.221c-2.362,1.049-5.569-1.458-6.618-3.375
				c-0.166-0.302,0.186-0.728,0.502-0.503c2.123,1.512,5.175,5.159,7.713,1.063c0.213-0.344,0.648-0.303,0.869,0
				c2.143,0.885,3.484,0.38,4.029-1.514c0.131-0.31,0.656-0.417,0.739,0c0.612,3.091,2.325,0.786,3.351-0.39
				c-0.215-0.556,0.592-1.037,1.05-0.607c0.005-0.006,0.009-0.011,0.013-0.017c0.797,0.723,0.807,0.752,1.441,1.617
				c1.68,2.283,2.768,0.249,3.861-0.593c0.211-0.163,0.426-0.095,0.565,0.063c0.995,0.187,1.956,0.65,2.846-0.127
				c0.909-0.797,1.108-2.372,1.243-3.493c0.209-1.751-0.42-4.223,0.129-5.938c-0.09-0.06-0.189-0.109-0.273-0.176
				c-0.235-0.188-0.033-0.578,0.238-0.573c2.268,0.042,3.723,0.357,4.334-2.285c0.367-1.585,0.225-3.368,0.07-4.972
				c-0.31-3.24-1.22-9.172-5.605-5.775c-0.06,0.046-0.122,0.07-0.186,0.084c0.124,0.617-0.805,1.082-1.16,0.438
				c-1.34-2.438-4.156-1.83-5.383,0.417c-0.18,0.331-0.615,0.273-0.809,0c-1.09-1.542-4.683-5.113-5.315-0.07
				c-0.058,0.466-0.747,0.648-0.877,0.119c-1.485-1.377-2.679-1.298-3.579,0.237c-0.25,0.327-0.774,0.101-0.712-0.231
				c-0.521-0.966-0.476-2.131-1.272-2.988c-0.788-0.848-2.209-0.069-2.974,0.381c-1.991,1.173-3.058,3.164-4.789,4.56
				c-0.243,0.195-0.696,0.024-0.575-0.335C149.61,169.276,152.674,166.5,154.922,165.684z"/>
		</g>
	</g>
	<g>
		<path d="M149.168,214.362c0.276-4.042,0.118-8.998-2.988-12.247c-1.705-1.783-3.986-1.588-5.14-0.121
			c-0.889,0.507-1.416,1.453-1.703,2.604c-0.377-0.72-0.85-1.344-1.459-1.766c-1.093-0.757-2.745-0.406-3.562,0.532
			c-0.125,0.143-0.225,0.302-0.32,0.464c-0.538-1.403-1.537-2.394-3.26-1.984c-1.002,0.237-1.64,0.796-2.042,1.533
			c-0.638-1.02-1.518-1.724-2.754-1.82c-1.282-0.101-2.038,0.664-2.455,1.828c-0.53-0.985-1.375-1.741-2.751-1.61
			c-4.35,0.413-2.762,8.449-2.371,10.97c0.042,0.272,0.339,0.559,0.662,0.567c0.984,0.031,1.995,0.204,2.999,0.302
			c-0.345,2.225-1.735,9.278,2.087,9.642c1.209,0.115,1.956-0.547,2.422-1.411c0.368,1.021,1.032,1.691,2.158,1.603
			c1.086-0.085,1.864-0.699,2.425-1.596c0.354,0.646,0.914,1.135,1.793,1.344c1.141,0.271,1.915-0.162,2.434-0.916
			c0.121,0.591,0.335,1.142,0.715,1.578c0.719,0.826,2.173,1.134,3.135,0.469c0.536-0.371,0.951-0.92,1.283-1.553
			c0.252,1.012,0.715,1.844,1.497,2.289c1.016,1.291,3.022,1.463,4.522-0.106c2.66-2.782,2.861-6.987,2.645-10.489
			C149.148,214.43,149.166,214.396,149.168,214.362z M141.06,203.791c0.483-0.572,1.008-1.147,1.649-1.405
			c0.18-0.057,0.373-0.102,0.581-0.13c0.02-0.003,0.033-0.011,0.051-0.016c0.33-0.009,0.689,0.073,1.087,0.28
			c1.307,0.681,1.935,2.258,2.4,3.434c0.959,2.432,1.05,5.137,0.921,7.707c-0.2,0.015-0.399,0.024-0.599,0.038
			c-2.073,0.004-5.685,0.051-5.776-0.235c-0.378-1.174-0.574-2.413-0.728-3.623C140.45,208.301,140.127,205.533,141.06,203.791z
			 M134.954,205.076c0.497-1.99,2.27-1.115,2.892,0.224c0.175,0.377,0.304,0.763,0.416,1.153c-0.054,0.863,0.198,1.732,0.496,2.601
			c0.127,0.925,0.251,1.851,0.516,2.747c0.038,0.129,0.147,0.197,0.269,0.235c0.019,0.373-0.006,0.745-0.108,1.115
			c-0.108,0.392-0.665,0.602-1.335,0.684c-0.165,0.008-0.325,0.021-0.481,0.037c-1.056,0.038-2.195-0.184-2.296-0.492
			c-0.437-1.324-0.531-2.769-0.625-4.138C134.601,207.859,134.614,206.436,134.954,205.076z M129.945,204.354
			c0.256-0.864,1.415-1.913,2.246-0.913c0.465,0.559,0.654,1.305,0.838,1.966c0.15,0.542,0.248,1.107,0.32,1.677
			c0.006,0.602,0.042,1.184,0.069,1.689c0.063,1.195,0.177,2.499,0.48,3.727c-1.007-0.171-2.334-0.14-3.14-0.118
			C130.075,209.789,129.17,206.967,129.945,204.354z M125.94,202.759c1.064-0.086,1.756,1.134,2.21,2.771
			c-0.096,1.749,0.347,3.782,0.771,5.432c0.033,0.586,0.051,1.104,0.06,1.521c-0.479,0.004-0.952,0.028-1.417,0.071
			c-0.939-0.076-1.88-0.164-2.787-0.087C124.534,210.639,123.289,202.971,125.94,202.759z M124.054,212.572
			c-0.001-0.007-0.002-0.015-0.003-0.022c0.002,0.006,0.005,0.016,0.008,0.021C124.057,212.571,124.056,212.572,124.054,212.572z
			 M119.407,208.21c-0.046-1.407-0.208-3.799,1.054-4.836c1.642-1.348,2.335,3.531,2.401,4.096c0.182,1.549,0.101,3.11,0.087,4.654
			c-1.059,0.004-2.121-0.077-3.182-0.113C119.585,210.747,119.449,209.479,119.407,208.21z M125.983,218.243
			c-0.059,0.497-0.668,4.789-2.111,3.604c-1.11-0.913-0.969-3.017-0.928-4.255c0.036-1.115,0.156-2.231,0.317-3.343
			c0.933-0.032,1.868-0.104,2.799-0.1C126.073,215.508,126.143,216.881,125.983,218.243z M128.691,222.388
			c-1.001-0.08-1.369-1.37-1.448-2.942c0.173-1.123,0.484-2.859,0.243-4.256c0.053-0.424,0.104-0.784,0.143-1.067
			c0.076-0.035,0.142-0.077,0.196-0.132c0.636-0.027,1.265-0.065,1.865-0.114c0.118-0.01,0.227-0.049,0.328-0.097
			c0.272-0.021,0.542-0.038,0.813-0.054c0.175,0.021,0.354,0.045,0.535,0.071c-0.007,0.37-0.023,0.84-0.052,1.371
			c-0.373,1.451-0.763,3.242-0.679,4.781C130.235,221.391,129.626,222.463,128.691,222.388z M134.189,221.788
			c-0.73,0.88-1.75-0.043-1.976-0.804c-0.675-2.273,0.097-4.727,0.696-6.986c0.513,0.046,1.012,0.05,1.473-0.034
			c0.012,0.026,0.018,0.057,0.03,0.083c0.172,0.377,0.84,0.574,1.641,0.662c-0.248,0.606-0.421,1.253-0.535,1.917
			c-0.085,0.056-0.154,0.131-0.161,0.239c-0.065,1.054-0.146,2.169-0.431,3.193C134.765,220.641,134.598,221.297,134.189,221.788z
			 M139.53,221.138c-0.098,0.344-0.211,0.683-0.366,1.015c-0.546,1.178-2.106,1.947-2.544,0.196
			c-0.298-1.195-0.31-2.447-0.226-3.664c0.082-1.205,0.165-2.476,0.549-3.64c0.036-0.109,0.224-0.205,0.491-0.279
			c0.664-0.012,1.286-0.071,1.694-0.145c0.7,0.046,1.325,0.23,1.434,0.624c0.089,0.326,0.112,0.653,0.095,0.981
			c-0.107,0.033-0.203,0.094-0.235,0.207c-0.234,0.788-0.342,1.603-0.454,2.416C139.703,219.614,139.481,220.378,139.53,221.138z
			 M147.065,221.576c-0.409,1.035-0.962,2.422-2.112,3.021c-0.349,0.183-0.665,0.255-0.955,0.247
			c-0.017-0.005-0.027-0.012-0.045-0.014c-0.184-0.025-0.354-0.064-0.512-0.114c-0.563-0.227-1.026-0.733-1.45-1.236
			c-0.821-1.532-0.538-3.967-0.364-5.322c0.136-1.063,0.308-2.154,0.641-3.187c0.047-0.146,1.152-0.193,2.426-0.206
			c1.063,0.044,2.126,0.12,3.188,0.206C147.983,217.18,147.888,219.492,147.065,221.576z"/>
		<g>
			<path d="M236.938,229.293c-1.705-1.783-3.986-1.588-5.141-0.121c-3.344,1.906-1.664,9.932-0.712,12.296
				c0.095,0.238,0.315,0.418,0.613,0.415c2.507-0.026,5.006,0.086,7.5,0.303c0.412,0.036,0.705-0.321,0.728-0.646
				C240.201,237.498,240.043,232.542,236.938,229.293z M232.133,240.643c-0.379-1.174-0.574-2.413-0.729-3.623
				c-0.197-1.54-0.52-4.308,0.414-6.05c0.482-0.572,1.008-1.147,1.648-1.405c0.18-0.057,0.373-0.102,0.581-0.13
				c0.021-0.003,0.032-0.011,0.051-0.016c0.33-0.009,0.689,0.073,1.087,0.28c1.307,0.681,1.936,2.258,2.4,3.434
				c0.965,2.444,1.051,5.164,0.92,7.746C236.634,240.868,232.233,240.958,232.133,240.643z"/>
			<path d="M231.375,239.161c-0.069-0.509-0.156-1.064-0.262-1.637c0.225-2.581-0.443-6.106-2.478-7.515
				c-1.093-0.757-2.745-0.406-3.562,0.532c-1.21,1.389-0.984,3.783-0.898,5.409c0.09,1.717,0.26,3.664,0.994,5.274
				c0.432,0.946,3.984,0.775,4.951,0.523C231.394,241.416,231.507,240.131,231.375,239.161z M230.191,240.33
				c-0.296,1.069-3.928,0.791-4.113,0.229c-0.437-1.324-0.531-2.769-0.625-4.138c-0.094-1.384-0.081-2.807,0.258-4.166
				c0.498-1.99,2.271-1.115,2.893,0.224c0.175,0.377,0.304,0.763,0.416,1.153c-0.055,0.863,0.197,1.732,0.495,2.601
				c0.127,0.925,0.251,1.851,0.516,2.747c0.038,0.129,0.147,0.197,0.269,0.235C230.318,239.588,230.293,239.96,230.191,240.33z"/>
			<path d="M221.516,239.56c-0.684-2.592-1.588-5.414-0.813-8.027c0.256-0.864,1.414-1.913,2.246-0.913
				c0.465,0.559,0.653,1.305,0.838,1.966c0.322,1.164,0.416,2.433,0.489,3.63c0.024,0.404,0.725,0.53,0.829,0.1
				c0.49-2.036,0.271-8.216-3.611-7.293c-4.626,1.097-1.805,8.776-1.24,11.357c0.063,0.286,0.392,0.456,0.694,0.469
				c1.416,0.063,3.266,0.651,4.612,0.194c0.197-0.067,0.426-0.199,0.457-0.406C226.205,239.445,222.987,239.521,221.516,239.56z"/>
			<path d="M220.312,238.977c-0.059-0.429-0.099-0.878-0.129-1.336l-0.05,0.007c-0.107-1.978-0.18-3.877,0.006-5.664
				c-0.637-1.764-1.686-3.111-3.44-3.249c-4.298-0.338-2.774,8.944-1.882,11.015c-0.182,0.037-0.362,0.073-0.539,0.13
				c-0.549,0.178-0.679,0.983,0,1.103c1.945,0.345,4.197,0.232,6.171,0.073c0.278-0.022,0.536-0.156,0.646-0.373
				C220.692,240.181,220.398,239.613,220.312,238.977z M215.533,239.646c-0.241-1.828-1.486-9.496,1.165-9.708
				c2.595-0.209,3.002,7.299,3.044,9.878C218.346,239.789,216.9,239.53,215.533,239.646z"/>
			<path d="M214.357,230.776c-0.521-1.088-1.39-1.964-2.865-1.823c-4.35,0.413-2.762,8.449-2.371,10.97
				c0.043,0.272,0.34,0.559,0.662,0.567c1.707,0.055,3.494,0.543,5.189,0.302C214.446,237.363,213.883,234.214,214.357,230.776z
				 M213.708,239.303c-1.059,0.004-2.12-0.077-3.183-0.113c-0.183-1.264-0.318-2.532-0.36-3.801
				c-0.046-1.407-0.208-3.799,1.054-4.836c1.643-1.348,2.336,3.531,2.402,4.096C213.803,236.198,213.722,237.759,213.708,239.303z"
				/>
			<path d="M239.881,241.36c-0.02-0.285-0.276-0.6-0.639-0.567c-2.193,0.19-4.393,0.289-6.598,0.267
				c-0.263-0.003-0.457,0.155-0.539,0.365c-0.839,2.079-2.316,9.139,0.625,10.815c1.016,1.291,3.022,1.463,4.522-0.106
				C239.984,249.276,240.124,244.915,239.881,241.36z M238.632,241.942c0.116,2.271,0.04,4.664-0.809,6.813
				c-0.409,1.035-0.962,2.422-2.112,3.021c-0.348,0.183-0.664,0.255-0.955,0.247c-0.017-0.005-0.027-0.012-0.045-0.014
				c-0.184-0.025-0.354-0.064-0.512-0.114c-0.563-0.227-1.025-0.733-1.449-1.236c-0.822-1.532-0.538-3.967-0.365-5.322
				c0.137-1.063,0.309-2.154,0.642-3.187C233.115,241.872,236.986,241.951,238.632,241.942z"/>
			<path d="M231.256,241.176c-0.85-0.222-3.976-0.372-4.355,0.461c-0.646,1.416-0.794,3.129-0.875,4.64
				c-0.075,1.43-0.273,3.536,0.791,4.758c0.719,0.826,2.172,1.134,3.135,0.469c1.788-1.239,2.376-4.34,2.178-6.61
				c0.094-0.504,0.17-0.992,0.23-1.44C232.477,242.6,232.377,241.469,231.256,241.176z M231.413,243.406
				c-0.106,0.033-0.203,0.094-0.235,0.207c-0.234,0.788-0.342,1.603-0.453,2.416c-0.264,0.764-0.485,1.528-0.438,2.288
				c-0.098,0.344-0.211,0.683-0.365,1.015c-0.547,1.178-2.106,1.947-2.545,0.196c-0.298-1.195-0.311-2.447-0.226-3.664
				c0.082-1.205,0.165-2.476,0.549-3.64c0.163-0.495,3.358-0.74,3.618,0.2C231.408,242.75,231.43,243.077,231.413,243.406z"/>
			<path d="M226.115,244.044c-0.065,1.054-0.146,2.169-0.432,3.193c-0.161,0.582-0.328,1.238-0.736,1.729
				c-0.73,0.88-1.751-0.043-1.977-0.804c-0.682-2.299,0.115-4.781,0.717-7.062c0.554,0.015,1.389,0.035,2.149-0.028
				c-0.451-0.351-0.825-0.793-1.12-1.29c-0.535,0.078-1.059,0.165-1.529,0.186c-0.266,0.012-0.557,0.161-0.611,0.412
				c-0.497,2.271-2.978,9.026,1.091,9.991c3.415,0.812,3.608-4.624,3.177-6.415C226.752,243.578,226.138,243.689,226.115,244.044z"
				/>
			<path d="M223.051,239.876c-0.093-0.045-0.193-0.08-0.303-0.089c-1.736-0.141-3.717-0.239-5.43,0.064
				c-0.596,0.104-0.48,0.813,0,0.97c0.156,0.05,0.316,0.081,0.475,0.114c-0.783,1.821-2.125,9.986,1.656,9.688
				c1.455-0.114,2.357-1.177,2.926-2.597C221.957,245.476,222.161,242.504,223.051,239.876z M219.449,249.567
				c-2.334-0.187-1.237-6.932-1.024-8.54c1.201,0.103,2.474-0.126,3.701-0.149C222.09,243.146,221.73,249.75,219.449,249.567z"/>
			<path d="M218.189,240.054c-1.566-0.308-3.234,0.18-4.824,0.23c-0.283,0.008-0.545,0.26-0.582,0.499
				c-0.344,2.218-1.74,9.286,2.086,9.649c2.23,0.213,2.893-2.214,3.114-3.695c0.21-1.392,0.704-3.874-0.034-5.357
				C218.913,241.467,219.117,240.238,218.189,240.054z M216.818,241.328c0.012,1.358,0.082,2.731-0.077,4.094
				c-0.059,0.497-0.669,4.789-2.111,3.604c-1.11-0.913-0.97-3.017-0.928-4.255c0.036-1.115,0.156-2.231,0.317-3.343
				C214.953,241.396,215.887,241.324,216.818,241.328z"/>
		</g>
		<path d="M188.979,203.627c-0.775-2.29-2.839-5.065-5.087-5.882c-2.216-0.806-4.368,1.009-4.406,3.198
			c-1.192-1.069-2.786-1.533-3.702-0.408c-1.074-3.106-4.154-2.132-6.254,0.362c-1.732-2.568-4.722-3.129-6.605-0.494
			c-4.527-4.064-6.813,0.863-7.371,5.222c-0.346,2.704-0.59,5.672,0.563,8.22c0.744,1.647,2.643,1.926,4.164,1.372
			c-0.26,0.901-0.218,2.045-0.246,2.846c-0.057,1.652,0.025,3.339,0.462,4.94c0.601,2.207,2.966,3.73,4.962,2.391
			c2.04,3.636,4.243,1.878,6.195-0.635c0.409,0.754,2.426,2.563,3.65,1.832c0.493-0.294,1.057-0.634,1.059-1.317
			c-0.002,0.768,0.581,1.636,1.898,2.368c0.78,0.435,1.447,0.058,2.146-0.25c0.742-0.327,1.639,0.865,2.438,1.221
			c2.362,1.049,5.104-2.01,6.153-3.927L188.979,203.627z"/>
	</g>
	<path fill="#FFFFFF" d="M188.715,212.746c-0.238-5.231-0.21-11.721-5.041-11.275s-1.857,9.852-1.334,11.078
		C184.385,212.773,188.715,212.746,188.715,212.746z"/>
	<path fill="#FFFFFF" d="M181.75,212.132c-0.168-4.486-0.148-10.051-3.556-9.669c-3.408,0.382-1.311,8.448-0.941,9.5
		C178.695,212.155,181.75,212.132,181.75,212.132z"/>
</g>
</svg>
