<?xml version="1.0" encoding="utf-8"?>
<!-- Generator: Adobe Illustrator 16.0.0, SVG Export Plug-In . SVG Version: 6.00 Build 0)  -->
<!DOCTYPE svg PUBLIC "-//W3C//DTD SVG 1.1//EN" "http://www.w3.org/Graphics/SVG/1.1/DTD/svg11.dtd">
<svg version="1.1" xmlns="http://www.w3.org/2000/svg" xmlns:xlink="http://www.w3.org/1999/xlink" x="0px" y="0px"
	 width="44.533px" height="39.311px" viewBox="0 -17.689 44.533 39.311" enable-background="new 0 -17.689 44.533 39.311"
	 xml:space="preserve">
<g id="Calque_1" display="none">
	<g display="inline">
		<path fill="#FF0064" d="M30.547-7.572l2.349,2.351l2.534-2.535l2.651,2.653V-12.8h-7.694l2.692,2.695L30.547-7.572z M35.392,13.73
			l-2.536-2.535l-2.351,2.352l2.534,2.535l-2.653,2.651h7.693v-7.697L35.392,13.73z M13.99,13.507l-2.352-2.352L9.105,13.69
			l-2.653-2.654v7.697h7.697l-2.694-2.691L13.99,13.507z M11.68-5.261l2.354-2.348l-2.539-2.535l2.655-2.657H6.452v7.697
			l2.693-2.691L11.68-5.261z M31.891,6.21v-6.313c0-2.612-2.118-4.731-4.732-4.731h-9.856c-2.61,0-4.734,2.117-4.734,4.731V6.21
			c0,2.615,2.122,4.736,4.734,4.736h9.857C29.772,10.946,31.891,8.825,31.891,6.21"/>
	</g>
</g>
<g id="Calque_2" display="none">
	<path display="inline" fill="#FF0064" d="M16.895-5.054v-3.155h-5.19v3.157h5.19V-5.054z M36.587-3.794
		c0-0.944-0.769-1.712-1.718-1.712c-0.941,0-1.712,0.768-1.712,1.712c0,0.947,0.771,1.715,1.712,1.715
		C35.818-2.08,36.587-2.847,36.587-3.794z M17.085,3.834c0-2.858,2.319-5.181,5.181-5.181s5.183,2.322,5.183,5.181
		c0,2.862-2.321,5.187-5.183,5.187S17.085,6.697,17.085,3.834z M29.63,3.834c0-4.062-3.3-7.362-7.364-7.362
		s-7.362,3.301-7.362,7.362c0,4.066,3.298,7.366,7.362,7.366S29.63,7.901,29.63,3.834z M6.228,12.423V-5.698
		c0-0.926,0.755-1.679,1.681-1.679h1.871v-1.601c0-0.655,0.533-1.188,1.189-1.188h6.741c0.654,0,1.188,0.53,1.188,1.188v1.599
		h17.726c0.931,0,1.683,0.752,1.683,1.679v18.119c0,0.93-0.754,1.678-1.683,1.678H7.908C6.982,14.101,6.228,13.349,6.228,12.423z"/>
</g>
<g id="Calque_5">
	<path fill="#FF0064" d="M15.517-2.582V-5.33h-4.52v2.75h4.52V-2.582z M32.668-1.484c0-0.823-0.67-1.491-1.497-1.491
		c-0.82,0-1.49,0.668-1.49,1.491c0,0.825,0.67,1.493,1.49,1.493C31.998,0.009,32.668-0.66,32.668-1.484z M15.684,5.16
		c0-2.489,2.02-4.512,4.512-4.512c2.491,0,4.513,2.023,4.513,4.512c0,2.492-2.021,4.517-4.513,4.517
		C17.703,9.676,15.684,7.652,15.684,5.16z M26.608,5.16c0-3.537-2.874-6.412-6.413-6.412c-3.54,0-6.412,2.875-6.412,6.412
		c0,3.541,2.872,6.415,6.412,6.415C23.734,11.575,26.608,8.701,26.608,5.16z M6.228,12.64V-3.142c0-0.806,0.657-1.462,1.463-1.462
		H9.32v-1.394c0-0.571,0.464-1.034,1.036-1.034h5.871c0.57,0,1.034,0.461,1.034,1.034v1.392h15.438c0.811,0,1.465,0.655,1.465,1.462
		v15.78c0,0.81-0.656,1.461-1.465,1.461H7.691C6.885,14.1,6.228,13.446,6.228,12.64z"/>
	<text transform="matrix(1 0 0 1 27.4141 -7.3555)" fill="#FF0064" font-family="'MyriadPro-Bold'" font-size="12">x2</text>
</g>
<g id="Calque_4" display="none">
	<path display="inline" fill-rule="evenodd" clip-rule="evenodd" fill="#FF0064" d="M17.183,13.503V7.051h-6.453
		c-0.838,0-1.517-0.679-1.517-1.517v-7.136c0-0.838,0.679-1.518,1.517-1.518h6.453v-6.451c0-0.837,0.679-1.516,1.517-1.516h7.139
		c0.836,0,1.517,0.679,1.517,1.516v6.451h6.451c0.836,0,1.515,0.68,1.515,1.518v7.136c0,0.838-0.679,1.517-1.515,1.517h-6.451v6.453
		c0,0.838-0.681,1.517-1.517,1.517h-7.139C17.861,15.02,17.183,14.341,17.183,13.503z"/>
</g>
<g id="Calque_3" display="none">
	<path display="inline" fill-rule="evenodd" clip-rule="evenodd" fill="#FF0064" d="M10.457,7.172c-0.855,0-1.554-0.697-1.551-1.552
		L8.902-1.686C8.906-2.544,9.601-3.24,10.457-3.24h23.622c0.857,0,1.553,0.696,1.553,1.554v7.304c0,0.857-0.695,1.554-1.553,1.554
		H10.457z"/>
</g>
</svg>
