<?xml version="1.0" encoding="utf-8"?>
<!-- Generator: Adobe Illustrator 16.0.0, SVG Export Plug-In . SVG Version: 6.00 Build 0)  -->
<!DOCTYPE svg PUBLIC "-//W3C//DTD SVG 1.1//EN" "http://www.w3.org/Graphics/SVG/1.1/DTD/svg11.dtd">
<svg version="1.1" xmlns="http://www.w3.org/2000/svg" xmlns:xlink="http://www.w3.org/1999/xlink" x="0px" y="0px"
	 width="44.533px" height="39.311px" viewBox="0 -17.689 44.533 39.311" enable-background="new 0 -17.689 44.533 39.311"
	 xml:space="preserve">
<g id="Calque_1" display="none">
	<g display="inline">
		<path fill="#FF0064" d="M31.399-9.657l2.59,2.593l2.796-2.795l2.924,2.926v-8.49h-8.486l2.97,2.973L31.399-9.657z M36.742,13.838
			l-2.797-2.796l-2.593,2.593l2.796,2.797l-2.927,2.924h8.485v-8.49L36.742,13.838z M13.139,13.592l-2.594-2.593L7.75,13.793
			l-2.926-2.927v8.49h8.489l-2.971-2.969L13.139,13.592z M10.59-7.108l2.596-2.589l-2.8-2.795l2.928-2.93H4.824v8.49l2.971-2.968
			L10.59-7.108z M32.881,5.544v-6.963c0-2.881-2.336-5.218-5.219-5.218H16.791c-2.88,0-5.222,2.335-5.222,5.218v6.963
			c0,2.884,2.34,5.223,5.222,5.223h10.872C30.545,10.768,32.881,8.428,32.881,5.544"/>
	</g>
</g>
<g id="Calque_2" display="none">
	<path display="inline" fill="#FF0064" d="M16.895-5.054v-3.155h-5.19v3.157h5.19V-5.054z M36.587-3.794
		c0-0.944-0.769-1.712-1.718-1.712c-0.941,0-1.712,0.768-1.712,1.712c0,0.947,0.771,1.715,1.712,1.715
		C35.818-2.08,36.587-2.847,36.587-3.794z M17.085,3.834c0-2.858,2.319-5.181,5.181-5.181s5.183,2.322,5.183,5.181
		c0,2.862-2.321,5.187-5.183,5.187S17.085,6.697,17.085,3.834z M29.63,3.834c0-4.062-3.3-7.362-7.364-7.362
		s-7.362,3.301-7.362,7.362c0,4.066,3.298,7.366,7.362,7.366S29.63,7.901,29.63,3.834z M6.228,12.423V-5.698
		c0-0.926,0.755-1.679,1.681-1.679h1.871v-1.601c0-0.655,0.533-1.188,1.189-1.188h6.741c0.654,0,1.188,0.53,1.188,1.188v1.599
		h17.726c0.931,0,1.683,0.752,1.683,1.679v18.119c0,0.93-0.754,1.678-1.683,1.678H7.908C6.982,14.101,6.228,13.349,6.228,12.423z"/>
</g>
<g id="Calque_4" display="none">
	<path display="inline" fill-rule="evenodd" clip-rule="evenodd" fill="#FF0064" d="M17.183,13.503V7.051h-6.453
		c-0.838,0-1.517-0.679-1.517-1.517v-7.136c0-0.838,0.679-1.518,1.517-1.518h6.453v-6.451c0-0.837,0.679-1.516,1.517-1.516h7.139
		c0.836,0,1.517,0.679,1.517,1.516v6.451h6.451c0.836,0,1.515,0.68,1.515,1.518v7.136c0,0.838-0.679,1.517-1.515,1.517h-6.451v6.453
		c0,0.838-0.681,1.517-1.517,1.517h-7.139C17.861,15.02,17.183,14.341,17.183,13.503z"/>
</g>
<g id="Calque_3">
	<path fill-rule="evenodd" clip-rule="evenodd" fill="#FF0064" d="M10.457,7.172c-0.855,0-1.554-0.697-1.551-1.552L8.902-1.686
		C8.906-2.544,9.601-3.24,10.457-3.24h23.622c0.857,0,1.553,0.696,1.553,1.554v7.304c0,0.857-0.695,1.554-1.553,1.554H10.457z"/>
</g>
</svg>
