<?xml version="1.0" encoding="utf-8"?>
<!-- Generator: Adobe Illustrator 16.0.0, SVG Export Plug-In . SVG Version: 6.00 Build 0)  -->
<!DOCTYPE svg PUBLIC "-//W3C//DTD SVG 1.1//EN" "http://www.w3.org/Graphics/SVG/1.1/DTD/svg11.dtd">
<svg version="1.1" id="Calque_1" xmlns="http://www.w3.org/2000/svg" xmlns:xlink="http://www.w3.org/1999/xlink" x="0px" y="0px"
	 width="206.99px" height="226.488px" viewBox="0 0 206.99 226.488" enable-background="new 0 0 206.99 226.488"
	 xml:space="preserve">
<g>
	<path fill="#FF0064" d="M101.687,181.082c-0.665,1.075-0.684,2.57-0.539,3.991c0.902-0.871,1.426-2.13,1.438-3.404
		c0.001-0.188-0.072-0.846-0.085-1.06C102.376,180.708,101.833,180.848,101.687,181.082z"/>
	<path fill="#FF0064" d="M138.883,183.371c-0.062-0.011-0.119-0.024-0.175-0.038c-1.35,1.417-1.993,3.478-1.961,5.445
		c0.037,2.277,1.066,4.961,3.735,4.965c3.063,0.003,5.318-1.721,4.31-4.899C143.94,186.156,141.715,183.842,138.883,183.371z"/>
	<path fill="#FF0064" d="M116.625,182.259c-1.861-1.06-2.346,3.105-2.396,4.096c-0.008,0.115-0.008,0.234-0.014,0.351l4.263,0.115
		c0.072,0.002,0.142,0.007,0.209,0.017C118.423,185.056,117.918,182.992,116.625,182.259z"/>
	<path fill="#FF0064" d="M135.527,160.122c-0.628-2.715-1.508-5.306-2.889-7.559c-1.029,2.168-1.678,4.503-2.153,6.903
		c1.547,0.309,3.098,0.551,4.692,0.617C135.298,160.09,135.413,160.104,135.527,160.122z"/>
	<path fill="#FF0064" d="M58.841,149.563c-0.488,0.739-0.877,1.507-1.177,2.343c-0.616,1.725-1.086,3.5-1.457,5.294
		c2.244-0.136,4.482-0.019,6.645,0.628c-0.322-1.874-0.727-3.745-1.378-5.524c-0.305-0.836-1.307-3.157-2.075-3.202
		C59.28,149.093,59.264,148.922,58.841,149.563z"/>
	<path fill="#FF0064" d="M100.177,155.839c-0.573-2.263-1.174-4.616-2.318-6.671c-0.275-0.491-0.687-1.272-1.089-1.565
		c-1.088,1.254-1.579,3.437-1.961,5.059c-0.398,1.694-0.704,3.406-0.956,5.127c2.191-0.305,4.383-0.607,6.575-0.912
		C100.345,156.53,100.263,156.183,100.177,155.839z"/>
	<path fill="#FF0064" d="M152.674,180.07c-0.267-0.063-0.672-0.035-0.586-0.082c-0.017,0.01-0.03,0.016-0.044,0.02
		c0.251,1.644,0.329,3.297,0.354,4.955c0.021-0.006,0.038-0.015,0.06-0.019c2.121-0.505,4.546-1.423,2.571-3.43
		C154.384,180.854,153.586,180.291,152.674,180.07z"/>
	<path fill="#FF0064" d="M152.704,146.743c-2.623-2.473-4.604-0.864-5.254,2.306c-0.058,0.29-0.153,0.54-0.272,0.758
		c0.35,1.147,0.646,2.305,0.895,3.473c0.077-0.031,0.154-0.063,0.236-0.088C151.183,152.298,156.017,149.864,152.704,146.743z"/>
	<path fill="#FF0064" d="M171.285,168.755c-0.57-14.843-1.934-72.758-2.392-91.904c-0.458-19.146-3.718-22.579-25.203-24.095
		c-21.485-1.516-71.791,1.479-89.024,1.987C37.433,55.251,35.911,58.56,36.09,70.045c0.157,10.041,1.123,103.83,0.836,114.824
		c-0.286,10.995,2.849,19.208,19.102,19.631c16.252,0.423,98.522,0.652,108.094,0.423
		C173.696,204.694,171.852,183.599,171.285,168.755z M124.814,67.075c5.175-8.346,16.318-5.482,24.624-6.315
		c3.99-0.4,5.846,1.12,7.41,3.125c4.013,5.142-5.432,8.427-9.14,8.208c-3.62-0.213-8.092-2.123-11.618-0.755
		c-4.361,1.691-5.464,8.24-5.922,12.313c-0.596,5.29-0.525,10.638-0.226,15.945c0.147,2.615,0.343,5.227,0.572,7.835
		c0.181,2.067,0.221,4.221,0.827,6.218c0.939,3.089,3.013,5.959,6.248,6.885c2.255,0.646,5.134,0.543,6.902-1.215
		c2.132-2.119,1.545-5.217,0.162-7.606c-0.502-0.868-0.864-1.691-1.964-1.753c-0.571-0.032-1.229,0.003-1.779-0.174
		c-1.222-0.391-1.995-1.438-1.897-2.759c0.122-1.639,0.447-4.178,2.001-5.157c1.235-0.779,2.561-0.335,3.921-0.399
		c4.507-0.21,9.227,1.516,12.646,4.484c2.522,2.192,3.618,4.537,3.93,7.768c0.354,3.694,0.384,7.438,0.265,11.146
		c-0.122,3.737,0.399,15.088-6.177,14.177c-2.583-0.358-3.498-3.734-3.946-5.856c-0.332-1.564-0.424-3.263-0.663-4.902
		c-2.733,2.75-6.713,3.835-10.704,3.643c-4.276-0.205-8.414-1.407-12.321-3.126c-3.409-1.499-6.345-3.943-7.241-7.708
		c-0.948-3.978-0.429-8.147-0.438-12.191c-0.008-4.607-0.204-9.214-0.213-13.823C120.057,86.07,119.881,75.03,124.814,67.075z
		 M118.609,171.176c0.119,3.384-5.123,3.221-5.242-0.142c-0.252-7.075,0.761-14.249-0.617-21.234
		c-1.499,0.189-2.98,0.517-4.433,1.063c-3.165,1.195-4.376-3.915-1.255-5.093c5.257-1.984,10.975-1.396,16.471-1.22
		c3.378,0.11,3.238,5.354-0.144,5.243c-1.778-0.057-3.567-0.166-5.354-0.206C119.252,156.717,118.353,163.968,118.609,171.176z
		 M123.44,170.61c0.579-2.647,0.94-5.4,1.344-8.146c-0.234-0.745-0.084-1.621,0.358-2.323c0.798-4.849,1.969-9.581,4.988-13.586
		c1.02-1.352,2.869-1.704,4.133-0.418c7.147,7.276,6.826,18.813,8.826,28.155c0.707,3.308-4.386,4.563-5.093,1.256
		c-0.689-3.217-1.033-6.883-1.57-10.538c-0.379,0.218-0.842,0.34-1.394,0.317c-1.813-0.077-3.601-0.347-5.376-0.695
		c-0.35,2.552-0.67,5.093-1.199,7.509C127.734,175.442,122.72,173.896,123.44,170.61z M81.19,64.032
		c3.848-2.72,9.169-4.758,11.608,0.671c1.986,4.422,2.064,10.152,2.302,14.938c0.295,5.941,0.322,11.906,0.965,17.826
		c0.457,4.209,1.032,9.33,3.423,13.087c2.33-7.612,2.954-15.653,3.668-23.549c0.382-4.215,0.754-8.438,1.391-12.625
		c0.431-2.834,0.527-5.706,0.98-8.531c0.33-2.064,1.104-4.481,3.313-5.206c2.365-0.775,5.769,0.13,7.451,1.978
		c3.944,4.329,0.862,10.777,0.049,15.7c-0.602,3.632-0.665,7.432-0.968,11.101c-0.281,3.396-0.559,6.793-0.862,10.188
		c-0.612,6.83-1.299,13.656-2.295,20.441c-0.528,3.604-0.575,8.572-3.327,11.36c-2.666,2.699-7.542,2.943-10.998,1.834
		c-3.832-1.23-5.76-4.491-6.684-8.239c-1.286-5.222-2.08-10.627-3.069-15.91c-2.662-14.203-5.238-28.421-7.557-42.684
		c-0.049-0.303-0.003-0.573,0.104-0.806C80.512,65.074,80.615,64.439,81.19,64.032z M43.912,92.657
		c-1.908-4.08-1.719-8.662-1.492-13.058c0.217-4.208,0.506-8.548,3.035-12.096c4.61-6.469,14.414-6.304,21.388-5.859
		c1.644,0.104,2.797,0.801,3.044,1.855c0.583,2.49,0.971,6.085-1.227,8.009c-1.695,1.483-3.944,1.711-6.115,1.727
		c-2.544,0.019-5.369-0.336-7.796,0.602c-2.821,1.09-3.739,4.521-3.826,7.291c-0.182,5.891,5.567,7.438,10.295,8.604
		c5.308,1.31,11.616,2.292,15.64,6.356c5.253,5.304,6.954,15.131,6.059,22.264c-0.878,6.994-4.479,13.001-11.663,14.585
		c-5.629,1.241-12.862,2.26-18.351-0.023c-6.306-2.624-3.09-9.916,2.26-11.481c3.62-1.061,7.894-0.711,11.255-2.565
		c4.995-2.757,3.785-9.294,1.51-13.603c-1.331-2.523-3.291-4.851-6.198-5.517c-2.327-0.533-4.706-0.343-7.061-0.627
		C50.399,98.604,45.854,96.808,43.912,92.657z M67.767,155.631c1.016,5.338,0.974,10.811,1.938,16.138
		c0.601,3.317-4.49,4.583-5.094,1.257c-0.57-3.154-0.73-6.374-1.021-9.573c-0.333,0.016-0.691-0.043-1.076-0.195
		c-2.317-0.922-4.731-1.04-7.186-0.763c-0.381,2.823-0.636,5.674-0.725,8.511c-0.105,3.38-5.347,3.239-5.242-0.143
		c0.161-5.194,0.792-10.483,1.91-15.557c0.841-3.823,2.656-11.786,7.999-11.465C64.993,144.185,66.884,150.99,67.767,155.631z
		 M58.409,196.126c-1.477,2.096-3.745,3.508-6.356,1.824c-2.732-1.765-4.279-5.242-5.052-8.282c-0.771-3.028-1.19-7.213,0.911-9.853
		c2.707-3.399,7.063-2.827,10.708-1.372c2.125,0.85,1.104,4.287-1.046,3.428c-1.423-0.567-3.369-1.26-4.771-1.031
		c-1.065,0.174-1.631,0.488-2.047,1.152c-1.055,1.68-0.902,4.351-0.331,6.599c0.578,2.274,1.535,4.698,3.258,6.146
		c-0.007-0.005,0.537,0.315,0.595,0.332c0.317,0.092,0.136,0.094,0.443-0.015c-0.538,0.19,0.411-0.342,0.063-0.046
		c0.171-0.145,0.336-0.295,0.479-0.467c0.094-0.11,0.576-0.905,0.748-1.299c0.313-0.712,0.917-1.062,1.544-1.131
		c-0.451-0.86-1.173-1.509-2.365-1.705c-0.965-0.16-1.446-1.397-1.19-2.237c0.313-1.024,1.275-1.349,2.237-1.19
		c4.445,0.732,5.395,5.257,5.727,9.052C62.159,198.265,58.785,198.212,58.409,196.126z M67.279,185.067
		c0.977,0.026,1.768,0.863,1.741,1.839c-0.027,0.976-0.863,1.769-1.839,1.742l-1.307-0.037c0.416,1.129,1.167,1.996,2.439,2.282
		c2.252,0.506,1.198,3.932-1.045,3.427c-6.011-1.351-5.763-9.102-4.817-13.804c0.282-1.399,1.697-1.526,2.629-0.89
		c0.978-0.389,2.006-0.625,3.082-0.628c2.313-0.01,2.208,3.573-0.098,3.581c-0.893,0.003-1.71,0.335-2.478,0.761
		c-0.067,0.533-0.122,1.101-0.145,1.676L67.279,185.067z M84.313,195.396c-0.37,0.687-1.321,1.008-2.044,0.769
		c-4.371-1.456-5.813-5.416-7.351-9.31c-0.125,2.674-0.038,5.36,0.273,7.986c0.269,2.267-3.21,3.145-3.48,0.858
		c-0.582-4.907-0.497-9.832,0.237-14.71c-0.642-1.633,1.304-3.446,2.593-2.292c0.536,0.287,0.971,0.806,1.051,1.477
		c1.263,2.078,2.065,4.368,3.033,6.615c0.776,1.799,1.67,3.942,3.273,5.18c1.021-3.388,0.008-7.326-0.474-10.699
		c-0.327-2.269,3.152-3.142,3.479-0.856C85.617,185.409,86.834,190.699,84.313,195.396z M85.541,162.038
		c-0.898,4.308-2.535,9.082-6.593,11.371c-0.938,0.529-2.473,0.424-3.165-0.497c-5.352-7.123-4.939-16.085-8.68-23.853
		c-1.464-3.042,3.133-5.571,4.6-2.522c3.093,6.423,3.07,14.372,6.508,20.618c1.596-2.196,2.204-5.531,2.531-7.883
		c0.502-3.601,0.749-7.365,0.283-10.984c-0.427-3.32,4.663-4.604,5.094-1.256C86.758,152,86.564,157.131,85.541,162.038z
		 M87.094,172.415c0.775-5.398,0.89-10.87,1.737-16.27c0.684-4.355,1.535-12.081,6.542-13.755c5.624-1.881,8.427,6.77,9.466,10.553
		c1.463,5.33,2.326,10.855,2.804,16.36c0.29,3.366-4.955,3.186-5.243-0.145c-0.208-2.379-0.518-4.778-0.924-7.161
		c-2.553,0.354-5.105,0.708-7.658,1.063c-0.201,0.026-0.394,0.034-0.577,0.023c-0.278,3.161-0.454,6.339-0.905,9.473
		C91.863,175.865,86.615,175.76,87.094,172.415z M94.956,195.141c-8.096,0.833-6.971-8.546-6.792-13.805
		c0.01-0.277,0.067-0.517,0.165-0.724c-0.032-0.075-0.064-0.152-0.084-0.231c-0.238-0.971,0.361-1.904,1.301-2.168
		c1.063-0.3,2.155-0.33,3.22-0.629c0.94-0.265,1.899,0.387,2.125,1.311c0.238,0.972-0.457,1.905-1.397,2.169
		c-0.629,0.177-1.091,0.26-2.091,0.359c0,0.005,0,0.007,0,0.011c0,1.063,0.044,2.128-0.024,3.194
		c0.07-0.002,0.312-0.001,0.381-0.006c0.014-0.002,0.021-0.002,0.033-0.002c0.09-0.015,0.179-0.029,0.269-0.049
		c0.076-0.019,0.527-0.185,0.129-0.015c0.898-0.383,1.928-0.209,2.432,0.709c0.436,0.792,0.189,2.05-0.709,2.433
		c-0.776,0.331-1.568,0.462-2.382,0.501c0.004,0.042,0.004,0.086,0.008,0.128c0.219,2.345,1.081,3.482,3.516,3.23
		C97.349,191.321,97.221,194.906,94.956,195.141z M107.286,196.025c-1.523-2.078-3.365-3.818-5.317-5.454
		c0.122,0.871,0.213,1.744,0.209,2.613c-0.006,2.313-3.586,2.209-3.581-0.097c0.014-4.547-3.883-14.879,3.418-16.05
		c2.924-0.47,4.4,2.504,4.136,5.031c-0.211,2.004-0.966,3.975-2.327,5.413c2.222,1.821,4.351,3.741,6.063,6.079
		C111.233,195.401,108.65,197.887,107.286,196.025z M122.532,195.891c-0.319,2.261-3.903,2.187-3.581-0.098
		c0.253-1.782,0.27-3.673,0.128-5.502c-0.203,0.077-0.437,0.118-0.698,0.111l-4.052-0.111c0.125,1.181,0.343,2.352,0.671,3.484
		c0.648,2.224-2.834,3.066-3.478,0.857c-0.947-3.253-1.208-6.973-0.644-10.311c0.508-3.001,2.868-6.92,6.544-5.608
		c3.261,1.164,4.37,4.998,4.835,8.099C122.702,189.765,122.953,192.916,122.532,195.891z M131.185,193.977
		c-0.062,2.31-3.642,2.211-3.581-0.099c0.115-4.235,0.202-8.469-0.488-12.657c-1.147,0.097-2.301,0.117-3.468,0.007
		c-2.286-0.214-2.204-3.797,0.098-3.581c3.88,0.364,7.599-0.799,11.391-1.417c2.269-0.37,3.137,3.106,0.857,3.479
		c-1.785,0.29-3.561,0.689-5.341,1.017C131.347,185.112,131.306,189.537,131.185,193.977z M140.385,197.323
		c-9.517-0.505-8.986-14.745-1.812-18.312c1.218-0.604,2.313,0.234,2.589,1.237c3.804,1.247,6.813,5.129,7.376,9.003
		C149.252,194.152,145.132,197.575,140.385,197.323z M157.903,193.026c-1.895-1.34-3.772-2.702-5.466-4.283
		c0.022,1.303,0.076,2.608,0.224,3.908c0.256,2.267-3.221,3.146-3.479,0.858c-0.552-4.888,0.207-9.922-1.032-14.722
		c-0.416-1.612,1.268-2.504,2.461-2.047c2.214-0.846,5.417,0.546,7.022,2.31c1.23,1.352,2.291,3.386,1.588,5.253
		c-0.548,1.455-1.628,2.412-2.914,3.073c1.121,0.918,2.297,1.765,3.487,2.606C161.669,191.311,159.793,194.365,157.903,193.026z
		 M159.41,165.633c-3.592-1.883-7.321-3.491-10.379-6.107c0.291,2.754,0.452,5.531,0.624,8.299c0.212,3.377-5.033,3.205-5.242-0.143
		c-0.378-6.056-0.529-12.457-2.818-18.166c-0.605-1.509,0.167-2.886,1.267-3.542c0.905-2.618,2.763-5.113,5.646-5.541
		c2.947-0.438,5.917,0.542,8.004,2.704c1.985,2.054,3.296,5.23,2.243,8.064c-0.931,2.503-2.785,4.177-4.987,5.374
		c2.58,1.854,5.579,3.117,8.411,4.604C165.172,162.749,162.393,167.199,159.41,165.633z"/>
</g>
<g>
	<path fill="#FF0064" d="M55.408,44.485c-0.048-0.029-0.085-0.054-0.109-0.075c-0.524-0.436-0.977-0.962-1.375-1.511
		c-0.696-0.96-1.134-2.061-1.475-3.186c-0.732-2.418-0.678-5.028-0.435-7.516c0.469-4.763,2.169-9.722,4.823-13.708
		c0.997-1.499-1.415-2.891-2.404-1.405c-3.606,5.418-5.535,12.435-5.339,18.922c0.095,3.151,0.924,6.47,2.925,8.966
		c0.846,1.058,2.191,2.544,3.554,2.919c1.705,0.469,2.074-1.008,2.331-2.209C58.237,44.111,56.118,43.357,55.408,44.485z"/>
	<path fill="#FF0064" d="M68.468,38.7c-0.015-0.124-0.034-0.796-0.05-0.796c0,0,0,0,0.001,0c-0.001,0-0.003,0.418-0.003,0.414
		c-0.78-5.968-3.062-11.279-9.32-13.117c-1.726-0.507-2.458,2.286-0.74,2.791c2.636,0.774,4.35,2.475,5.474,4.55
		c-1.569-0.276-3.101,0.319-4.325,1.366c-1.292,1.103-1.734,2.914-0.965,4.427c1.126,2.218,4.619,2.243,6.681,2.178
		c0.375-0.012,0.668-0.357,0.887-0.558C66.905,40.642,68.62,39.962,68.468,38.7z M61.582,35.807
		c1.883-1.413,3.061,0.208,3.686,1.931c-0.017,0-0.03-0.004-0.046-0.003C64.379,37.761,59.111,37.66,61.582,35.807z"/>
	<path fill="#FF0064" d="M82.524,30.24c-0.288-2.765-0.995-5.445-1.425-8.184c-0.277-1.77-2.96-1.016-2.684,0.74
		c0.582,3.702,1.743,7.366,1.429,11.155c-0.21,2.548-2.164,0.208-2.713-0.869c-0.608-1.192-0.995-2.569-1.259-3.935
		c-0.088-0.718-0.205-1.435-0.339-2.142c-0.288-1.532-2.939-1.106-2.733,0.449c0.016,0.116,0.034,0.45,0.052,0.45h-0.001
		c0.006,0,0.01-0.021,0.016,0.007c0.048,0.316,0.106,0.625,0.178,1.001c0.298,1.953,0.381,3.943-0.171,5.811
		c-1.458-2.224-1.821-5.116-2.288-7.707c-0.316-1.765-3-1.02-2.684,0.734c0.676,3.761,1.325,7.88,4.379,10.508
		c0.679,0.584,1.7,0.529,2.186-0.283c0.435-0.724,0.758-1.477,0.999-2.246c1.276,1.975,3.068,3.084,5.525,1.693
		C83.219,36.158,82.739,32.293,82.524,30.24z"/>
	<path fill="#FF0064" d="M101.181,31.043c-1.735-0.831-3.726-1.355-5.58-1.88c-1.561-0.441-0.244-3.261,0.586-3.856
		c1.178-0.847,2.896-1.018,4.291-1.181c1.762-0.206,1.781-2.991,0-2.784c-2.447,0.286-4.855,0.688-6.743,2.396
		c-0.442,0.401-0.797,0.941-1.06,1.548c-0.013-0.149-0.027-0.297-0.049-0.448c-0.387-2.715-3.063-4.029-5.507-3.136
		c-6.516,2.378-2.076,11.935,2.142,14.296c1.568,0.878,2.972-1.526,1.405-2.403c-0.598-0.334-1.219-0.867-1.79-1.518
		c0.08-0.026,0.161-0.056,0.244-0.099c1.488-0.785,2.526-1.969,3.09-3.369c0.094,0.72,0.32,1.393,0.698,1.93
		c1.103,1.561,3.19,1.325,4.686,2.234c0.471,0.286,2.38,0.702,2.362,0.797c-0.278,1.542-2.708,1.235-3.746,0.812
		c-1.663-0.679-2.379,2.016-0.739,2.685c2.02,0.824,4.455,0.471,6.146-0.866C103.318,34.856,103.093,31.959,101.181,31.043z
		 M87.714,29.575c-0.137,0.072-0.245,0.16-0.339,0.251c-0.769-1.573-1.082-3.301-0.399-4.625c0.867-1.683,2.606-1.169,2.966,0.377
		C90.338,27.274,89.105,28.84,87.714,29.575z"/>
	<path fill="#FF0064" d="M106.201,23.779c-0.858-0.807-1.956-1.28-3.133-1.007c-1.357,0.313-2.027,1.803-2.385,2.996
		c-0.357,1.196,0.826,1.912,1.757,1.667c-0.306,2.381,0.004,5.157,1.838,6.626c0.974,0.78,2.225,0.876,3.204,0.041
		c1.098-0.937,1.388-2.581,1.547-3.937C109.29,27.952,107.754,25.237,106.201,23.779z M105.843,31.699
		c-0.97-1.122-0.851-3.127-0.531-4.637c0.496,0.799,0.861,1.745,0.938,2.599C106.302,30.278,106.162,31.016,105.843,31.699z"/>
	<path fill="#FF0064" d="M121.629,22.732c-1.564-1.476-3.811-0.65-4.776,1.029c-0.055,0.096-0.104,0.195-0.153,0.295
		c-0.238-0.479-0.493-0.951-0.793-1.406c-0.403-0.613-1.24-0.924-1.903-0.499c-0.763,0.487-1.334,1.081-1.762,1.748
		c-0.564-1.337-2.876-0.576-2.59,1.061c0.616,3.51,1.026,7.046,1.856,10.516c0.366,1.536,2.76,1.194,2.732-0.37
		c-0.04-2.367-1.229-6.971,0.143-9.441c0.843,1.832,1.278,3.817,1.764,5.791c0.378,1.534,2.754,1.196,2.734-0.37
		c-0.02-1.547-0.157-3.109,0.05-4.649c0.305-2.256,1.128-1.688,1.614,0.083c0.812,2.952,0.523,6.178,0.5,9.206
		c-0.013,1.796,2.77,1.795,2.784,0C123.858,31.901,124.722,25.648,121.629,22.732z"/>
	<path fill="#FF0064" d="M131.306,23.447c-3.591-1.045-6.882,2.488-7.015,5.814c-0.157,3.962,3.517,7.527,7.425,7.236
		c1.777-0.133,1.79-2.917,0-2.784c-2.229,0.166-3.836-1.285-4.465-3.302c0.096,0.12,0.208,0.233,0.358,0.329
		c2.4,1.531,5.894,2.237,7.034-1.109C135.498,27.124,133.756,24.16,131.306,23.447z M129.016,28.337
		c-0.827-0.528-1.613-0.051-1.919,0.646c0.218-1.641,1.734-3.195,3.47-2.852c1.103,0.218,1.503,1.527,1.457,2.5
		C131.95,30.23,129.558,28.683,129.016,28.337z"/>
	<path fill="#FF0064" d="M134.892,14.111c-1.424-1.094-2.807,1.326-1.405,2.403c7.431,5.704,9.058,16.51,1.574,22.865
		c-1.369,1.164,0.61,3.123,1.969,1.968C146.01,33.721,143.62,20.811,134.892,14.111z"/>
</g>
</svg>
