<?xml version="1.0" encoding="utf-8"?>
<!-- Generator: Adobe Illustrator 15.0.0, SVG Export Plug-In . SVG Version: 6.00 Build 0)  -->
<!DOCTYPE svg PUBLIC "-//W3C//DTD SVG 1.1//EN" "http://www.w3.org/Graphics/SVG/1.1/DTD/svg11.dtd">
<svg version="1.1" xmlns="http://www.w3.org/2000/svg" xmlns:xlink="http://www.w3.org/1999/xlink" x="0px" y="0px" width="300px"
	 height="300px" viewBox="0 0 300 300" enable-background="new 0 0 300 300" xml:space="preserve">
<g id="Calque_1">
	<g id="Calque_4">
	</g>
	<g id="Calque_1_1_" display="none">
		<g display="inline">
			<path fill="#FF9773" d="M78.704,61.247c-15.257,15.442-32,43.5-37.5,65.5s-6,61,10.5,91s62,54,95,53.5s66.5-15.5,82-33
				s34.5-46.001,33.5-75.001s-18.188-66.837-47.5-98C167.204,14.747,119.704,19.747,78.704,61.247z"/>
			<path fill="#E26F50" d="M147.025,139.287c-8.583,1.707-7.837,29.607-8.708,42.67c-0.87,13.063,5.472,3.172,6.203,1.082
				c0.73-2.092,0.521,1.672,2.298,2.926c1.777,1.254,2.717-0.104,2.821-2.613c0.105-2.508,2.509-0.729,3.972,2.717
				c1.463,3.449,6.479,0.419,4.18-6.27S156.323,137.438,147.025,139.287z"/>
			<g>
				<path fill="#E26F50" d="M113.704,148.747c-0.843-7.162-15-19-28.5-16.5s-22,13.5-20.5,24s19.5,13.5,31.5,9
					S114.704,157.246,113.704,148.747z"/>
				<path fill="#FFFFFF" d="M72.204,153.246c6-12,23.5-21,34-1C100.704,155.246,82.204,158.246,72.204,153.246z"/>
				<circle fill="#E26F50" cx="90.704" cy="146.747" r="3.5"/>
			</g>
			<g>
				<path fill="#E26F50" d="M181.634,146.747c0.843-7.162,15-19,28.5-16.5s22,13.5,20.5,24s-19.5,13.5-31.5,9
					S180.634,155.246,181.634,146.747z"/>
				<path fill="#FFFFFF" d="M221.204,153.246c-6-12-23.5-21-34-1C192.704,155.246,211.204,158.246,221.204,153.246z"/>
				<circle fill="#E26F50" cx="205.704" cy="145.747" r="3.5"/>
			</g>
			<path fill="#E26F50" d="M132.501,205.363c-1.382,1.312,3.43,37.721,13.717,51.437c10.287,13.716,9.524-2.479,11.05-6.668
				c1.522-4.19,8-31.052,8.381-39.624C166.029,201.934,143.741,194.695,132.501,205.363z"/>
			<path fill="#AF4C35" d="M133.704,208.247c-0.207-5.587,21-8.001,30.5,2.5c-8,41-10,46-15,46S134.204,221.747,133.704,208.247z"/>
			<path fill="#FFFFFF" d="M139.489,210.963l4.03,0.033C142.854,205.285,139.498,202.404,139.489,210.963z"/>
			<path fill="#FFFFFF" d="M157.52,210.963l-4.031,0.033C154.154,205.285,157.512,202.404,157.52,210.963z"/>
			<path fill="#FFFFFF" d="M158.934,211.103l-2.985-0.415C157.063,206.535,159.859,204.77,158.934,211.103z"/>
			<path fill="#FFFFFF" d="M137.133,211.103l2.985-0.415C139.002,206.535,136.204,204.77,137.133,211.103z"/>
			<path fill="#FFFFFF" d="M149.502,249.582l-3.997,0.526C146.958,255.673,150.682,258.06,149.502,249.582z"/>
			<path fill="#FFFFFF" d="M149.843,249.796l4.031-0.033C153.208,255.474,149.852,258.354,149.843,249.796z"/>
			<path fill="none" stroke="#AF4C35" stroke-width="7" stroke-linecap="round" stroke-miterlimit="10" d="M70.204,111.747
				c5.5-10,29.5-24.5,40,7.5"/>
			<path fill="none" stroke="#AF4C35" stroke-width="7" stroke-linecap="round" stroke-miterlimit="10" d="M221.204,112.747
				c-5.5-10-29.5-24.5-40,7.5"/>
		</g>
	</g>
	<g id="Calque_2" display="none">
		<g display="inline">
			<path fill="#FF9773" d="M84.704,61.247c-15.257,15.442-38,43.5-43.5,65.5s-6,61,10.5,91s62,54,95,53.5s66.5-15.5,82-33
				s34.5-46.001,33.5-75.001s-12.188-66.837-41.5-98C173.204,14.747,125.704,19.747,84.704,61.247z"/>
			<path fill="#E26F50" d="M143.704,158.246c-0.5,9.5,0,22-5,24.5s-12,0-7.5,6s8.5,9.5,7.5,6s0-1.5,4.5,0.5s10,3,4.5-0.5
				s-4-6,3.5-3.5C150.204,177.746,143.704,158.246,143.704,158.246z"/>
			<path fill="#E26F50" d="M85.95,144.227c-13.419,2.236-16.122,23.216-6.449,32.244c9.674,9.029,30.955,14.188,37.404-2.579
				C123.354,157.124,105.297,141.002,85.95,144.227z"/>
			<path fill="#E26F50" d="M201.014,144.227c13.418,2.236,16.121,23.216,6.448,32.244c-9.674,9.029-30.955,14.188-37.403-2.579
				C163.609,157.124,181.666,141.002,201.014,144.227z"/>
			<path fill="#FFFFFF" d="M88.204,148.747c-10.404,1.733-12.5,18-5,25s24,11,29-2S103.204,146.247,88.204,148.747z"/>
			<path fill="#AF4C35" d="M76.204,136.747c-7.071,7.07,29.5,20,43,18S95.704,117.247,76.204,136.747z"/>
			<circle fill="#E26F50" cx="101.704" cy="163.746" r="3.5"/>
			<path fill="#FFFFFF" d="M173.704,172.746c-4.478-8.06,9.5-18,18.5-19s18,6,20,16S183.704,190.746,173.704,172.746z"/>
			<path fill="#AF4C35" d="M217.202,144.747c7.071,7.07-29.5,20-43,18S197.702,125.247,217.202,144.747z"/>
			<circle fill="#E26F50" cx="190.704" cy="166.746" r="3.5"/>
			<path fill="none" stroke="#E26F50" stroke-width="8" stroke-linecap="round" stroke-miterlimit="10" d="M79.704,198.246
				c1.5,0,78,29.001,138.5-0.5"/>
			<path fill="#E26F50" d="M102.704,249.247c22,14,63,23,89,4.5C182.704,254.247,156.704,269.747,102.704,249.247z"/>
		</g>
	</g>
	<g id="Calque_3" display="none">
		<g display="inline">
			<path fill="#FF9773" d="M85.663,61.247c-15.257,15.442-38,43.5-43.5,65.5s-6,61,10.5,91s62,54,95,53.5s66.5-15.5,82-33
				s34.5-46.001,33.5-75.001s-12.188-66.837-41.5-98C174.163,14.747,126.663,19.747,85.663,61.247z"/>
			<path fill="#E26F50" d="M60.672,141.706c5.841,27.407,11.232,38.19,21.116,41.785c9.885,3.594,30.103-11.683,33.248-29.204
				C106.5,150.692,60.672,141.706,60.672,141.706z"/>
			<path fill="#E26F50" d="M233.305,142.94c-5.805,27.235-11.162,37.95-20.984,41.522c-9.821,3.57-29.912-11.609-33.037-29.021
				C187.766,151.87,233.305,142.94,233.305,142.94z"/>
			<path fill="#FFFFFF" d="M65.312,147.548l45.896,10.56C111.207,158.108,86.025,176.791,65.312,147.548z"/>
			<path fill="#FFFFFF" d="M184.723,159.733l45.896-11.778C220.464,159.733,210.716,171.512,184.723,159.733z"/>
			<path fill="#E26F50" d="M140.045,163.795c-4.062,8.936-0.812,25.183-0.812,25.183c-0.406-0.406,8.529,0.405,8.529,0.405
				C146.138,185.322,140.045,163.795,140.045,163.795z"/>
			<path fill="#E26F50" d="M156.697,163.795c-0.813,3.25-3.249,25.183-3.249,25.183c0.813,0.405,9.747-0.813,9.747-0.813
				C161.165,174.355,160.354,165.014,156.697,163.795z"/>
			<circle fill="#E26F50" cx="87.245" cy="154.86" r="1.625"/>
			<circle fill="#E26F50" cx="208.245" cy="153.86" r="1.625"/>
			<path fill="#E26F50" d="M97.663,224.669c54-14.104,59.5-14.104,105-0.587C186.663,233.484,122.163,235.247,97.663,224.669z"/>
			<path fill="#FFFFFF" d="M188.079,227.288c-19.029,3.397-40.463,9.287-74.583,0.905
				C117.652,225.477,177.581,223.665,188.079,227.288z"/>
			<g>
				<path fill="#E26F50" d="M87.663,128.247c5.317,13.294,27.5,19,39.5,20s45,0,55-5s16.5-4.5,21.5-9s-5.5-3-7.5-2.5
					s-48.5,22.5-69.5,12S86.663,125.747,87.663,128.247z"/>
				<path fill="#E26F50" d="M79.663,120.747c-7.104-7.749,28,5.5,48,6s51.5-4.5,64-5.5s15,4,15,4s-19,3.5-26.5,5s-38,3.5-46.5,2.5
					S85.163,126.747,79.663,120.747z"/>
				<path fill="#E26F50" d="M86.663,109.747c7.825,12.521,35.5,9.5,48,9.5s40.5-6,53-6s-2-3.5-6-4s-38,11-48,7.5
					S84.163,105.747,86.663,109.747z"/>
			</g>
			<path fill="#AF4C35" d="M107.663,190.246c-6-6.5-16-20.5-33-11s-37,16-35,2.5c-11,12,12.5,20,23,16s17-10.5,23.5-3.5
				S102.663,204.746,107.663,190.246z"/>
			<path fill="#AF4C35" d="M191.8,188.246c6-6.5,16-20.5,33-11s37,16,35,2.5c11,12-12.5,20-23,16s-17-10.5-23.5-3.5
				S196.8,202.746,191.8,188.246z"/>
			<path fill="#AF4C35" d="M66.329,114.41c-2.763,0.604,56.667,45.333,56.667,45.333S87.662,109.744,66.329,114.41z"/>
			<path fill="#AF4C35" d="M171.282,159.441l65.714-41.364C219.663,115.41,196.9,123.474,171.282,159.441z"/>
		</g>
	</g>
</g>
<g id="simplehead">
	<path fill="#FF9773" d="M78.704,61.247c-15.257,15.442-32,43.5-37.5,65.5s-6,61,10.5,91s62,54,95,53.5s66.5-15.5,82-33
		s34.5-46.001,33.5-75.001s-18.188-66.837-47.5-98C167.204,14.747,119.704,19.747,78.704,61.247z"/>
</g>
</svg>
